/* XPM */
static char *result[] = {
/* columns rows colors chars-per-pixel */
"48 48 243 2 ",
"   c #150213",
".  c #190215",
"X  c #1A0419",
"o  c #1A0A19",
"O  c #170A13",
"+  c #180A15",
"@  c #1E0321",
"#  c #29002E",
"$  c #210923",
"%  c #271727",
"&  c #2B0133",
"*  c #2E0239",
"=  c #2C0831",
"-  c #330435",
";  c #34033B",
":  c #3A043C",
">  c #350939",
",  c #320F32",
"<  c #392939",
"1  c #40043C",
"2  c #423A3F",
"3  c #3C0343",
"4  c #390641",
"5  c #3C1B42",
"6  c #440546",
"7  c #44024E",
"8  c #46084A",
"9  c #4B144D",
"0  c #490554",
"q  c #54005C",
"w  c #590958",
"e  c #55135C",
"r  c #551556",
"t  c #4F195A",
"y  c #6B055B",
"u  c #711355",
"i  c #6F0F50",
"p  c #4D2C50",
"a  c #590665",
"s  c #571564",
"d  c #680567",
"f  c #76026A",
"g  c #65176C",
"h  c #751966",
"j  c #690B77",
"k  c #740173",
"l  c #79007A",
"z  c #760A7A",
"x  c #6B1672",
"c  c #791A79",
"v  c #751578",
"b  c #5F3165",
"n  c #77276B",
"m  c #782777",
"M  c #6E3072",
"N  c #712057",
"B  c #544853",
"V  c #77567B",
"C  c #6E4F74",
"Z  c #71626E",
"A  c #726370",
"S  c #786E77",
"D  c #6B626C",
"F  c #8C0E52",
"G  c #A40751",
"H  c #93215A",
"J  c #890579",
"K  c #960579",
"L  c #861976",
"P  c #951878",
"I  c #8B0B6D",
"U  c #A91772",
"Y  c #9D2766",
"T  c #862B6F",
"R  c #A62E6D",
"E  c #D92B76",
"W  c #D53273",
"Q  c #FA286B",
"!  c #F52C74",
"~  c #ED3775",
"^  c #F73779",
"/  c #EA2E70",
"(  c #944F7E",
")  c #ED4778",
"_  c #6D0386",
"`  c #7C0182",
"'  c #75008A",
"]  c #7B018D",
"[  c #7B0A8B",
"{  c #740886",
"}  c #781786",
"|  c #7B0193",
" . c #780693",
".. c #772586",
"X. c #7C2C8F",
"o. c #7A5781",
"O. c #830383",
"+. c #830A86",
"@. c #82028D",
"#. c #8A028A",
"$. c #8A0889",
"%. c #95028C",
"&. c #960887",
"*. c #831284",
"=. c #8D138A",
"-. c #871587",
";. c #94148C",
":. c #941586",
">. c #830295",
",. c #83039B",
"<. c #8A029B",
"1. c #8A0898",
"2. c #910294",
"3. c #9A0295",
"4. c #95049B",
"5. c #9B049B",
"6. c #9C0C9B",
"7. c #940D98",
"8. c #9A139B",
"9. c #821992",
"0. c #A80B88",
"q. c #A81888",
"w. c #A50B9D",
"e. c #A70797",
"r. c #B30D97",
"t. c #A31299",
"y. c #A81595",
"u. c #B41396",
"i. c #85238C",
"p. c #932F8D",
"a. c #A22692",
"s. c #B52C94",
"d. c #8908A1",
"f. c #9C03A1",
"g. c #9C0AA3",
"h. c #9D04A9",
"j. c #9609A8",
"k. c #9916A7",
"l. c #9D1AB7",
"z. c #8B11A3",
"x. c #A405A4",
"c. c #A20AA2",
"v. c #A203AB",
"b. c #A80AA9",
"n. c #B40CA7",
"m. c #A916A7",
"M. c #B616A7",
"N. c #B71AB6",
"B. c #AA1AB3",
"V. c #9D20AA",
"C. c #9D3EA4",
"Z. c #AB21A9",
"A. c #A429BE",
"S. c #B327B4",
"D. c #B820A2",
"F. c #DB2D88",
"G. c #EB3385",
"H. c #F43384",
"J. c #FC3D8D",
"K. c #F73886",
"L. c #F93B91",
"P. c #E13F9B",
"I. c #D53BB9",
"U. c #835785",
"Y. c #984788",
"T. c #AE4D96",
"R. c #88628A",
"E. c #8C6191",
"W. c #996297",
"Q. c #927795",
"!. c #A66D9C",
"~. c #AE52A6",
"^. c #A664A3",
"/. c #B270B1",
"(. c #CA5298",
"). c #FF448B",
"_. c #FF4A8B",
"`. c #FE4585",
"'. c #FE568C",
"]. c #FF4392",
"[. c #FF4B92",
"{. c #FF4C9C",
"}. c #FF459B",
"|. c #FF5495",
" X c #FF549A",
".X c #FD5B9A",
"XX c #EC5092",
"oX c #D9619F",
"OX c #FF6E9D",
"+X c #CA58A8",
"@X c #DE46B3",
"#X c #EA48A0",
"$X c #FF4EA2",
"%X c #F74BA7",
"&X c #FF5BAD",
"*X c #FD53A6",
"=X c #FB5CB6",
"-X c #E54AB2",
";X c #CE68B6",
":X c #FF6BAD",
">X c #FF61B6",
",X c #F56EAA",
"<X c #B633C7",
"1X c #D63FCD",
"2X c #C75BCE",
"3X c #D652CF",
"4X c #E74DD9",
"5X c #F359D0",
"6X c #D866CB",
"7X c #E666CD",
"8X c #FB6ACC",
"9X c #FF79C4",
"0X c #E566DB",
"qX c #FB69D9",
"wX c #FF75DC",
"eX c #F65EE6",
"rX c #DD75E6",
"tX c #F666E6",
"yX c #FA69F3",
"uX c #FF77F8",
"iX c #F273E4",
"pX c #9D929D",
"aX c #958793",
"sX c #A19B9F",
"dX c #B08FAE",
"fX c #B2A8B2",
"gX c #A7A4A7",
"hX c #C897BB",
"jX c #C2B8BF",
"kX c #C998C8",
"lX c #FF94C7",
"zX c #FF89D5",
"xX c #F692CE",
"cX c #DEB1DC",
"vX c #E4B7D7",
"bX c #F597E7",
"nX c #E3A7EA",
"mX c #FFBAF8",
"MX c #F9B3EA",
"NX c #DFC4E4",
"BX c #FFC5FD",
"VX c #FBCDF7",
"CX c None",
/* pixels */
"CXCXCXCXCXCXCXCXCXCXCXCXCXCXCXCXCXCXCXCXCXCXCXCXCXCXCXCXCXCXCXCXCXCXCXCXCXCXCXCXCXCXCXCXCXCXCXCX",
"CXCXCXCXCXCXCXCXCXCXCXCXCXCXCXCXCXCXCXCXCXCXCXCXCXCXCXCXCXCXCXCXCXCXCXCXCXCXCXCXCXCXCXCXCXCXCXCX",
"CXCXCXCXCXCXCXCXCXCXCXCXCXCXCXCXCXCXCXCXCXCXCXCXCXCXCXCXCXCXCXCXCXCXCXCXCXCXCXCXCXCXCXCXCXCXCXCX",
"CXCXCXCXCXCXCXCXCXCXCXCXCXCXCXCXCXCXCXCXCXCXCXCXCXCXCXCXCXCXCXCXCXCXCXCXCXCXCXCXCXCXCXCXCXCXCXCX",
"CXCXCXCXCXCXCXCXCXCXCXCXCXCXCXCXCXCXCXCXCXCXCXCXCXCXCXCXCXCXCXCXCXCXCXCXCXCXCXCXCXCXCXCXCXCXCXCX",
"CXCXCXCXCXCXCXCXCXCXCXCXCXCXCXCXCXCXCXCXCXCXCXCXCXCXCXCXCXCXCXCXCXCXCXCXCXCXCXCXCXCXCXCXCXCXCXCX",
"CXCXCXCXCXCXCXCXCXCXCXCXCXCXCXCXCXCXCXCXCXCXCXCXCXCXCXCXCXCXCXCXCXCXCXCXCXCXCXCXCXCXCXCXCXCXCXCX",
"CXCXCXCXCXCXCXCXCXCXCXCXCXMX;X+X;X7X0X0X0X0XrXrXrXrX2X2X3X2X2X2X/./.vXCXCXCXCXCXCXCXCXCXCXCXCXCX",
"CXCXCXCXCXCXCXCXCXCXCXCXCXxXP K u.0.M.N.M.M.S.A.A.k.g.d.x.h.x.<.} n hXCXCXCXCXCXCXCXCXCXCXCXCXCX",
"CXCXCXCXCXCXCXCXCXCXCXvXhX~.P &.K 0.e.e.w.3.6.g.z.1.,.| x.e.5.5.} g ( hXvXCXCXCXCXCXCXCXCXCXCXCX",
"CXCXCXCXCXCXCXCXCXCXCX!.M T 0.0.I K 3.%.%.l ` ] ] ] ' >.4.f.f.5.v u N T !.CXCXCXCXCXCXCXCXCXCXCX",
"CXCXCXCXCXCXCXCXCXCXBXW.n :.u.0.K J 2.<.#.' ' ] | _ _ | | 5.4.5.j y u n Y.MXCXCXCXCXCXCXCXCXCXCX",
"CXCXCXCXCXCXCXCXCX~.a.P 0.r.n.r.5.2.,.<.,.<.<.5.4.5.4.| ' #.4.,._ d f k +.p.~.nXCXCXCXCXCXCXCXCX",
"CXCXCXCXCXCXCXCXBXa.K 0.0.r.N.n.3.2.,.,.j.d.4.5.5.5.4.| ' ] 6.,._ k k k z +.9.nXCXCXCXCXCXCXCXCX",
"CXCXCXCXCXCXNXdX~.U K 0.0.r.n.n.e.5.j.j.j.j.j.4.5.c.f. .<.| d.,. .+.+.[ $.-.-.C./.nXCXCXCXCXCXCX",
"CXCXCXCXCXCXkXC m q.u.0.r.r.r.r.e.w.B.l.l.l.l.j.1.d.d.d.c.w.g.g. .[ $.=.$.-.*.*.-.;XCXCXCXCXCXCX",
"CXCXCXCXCXCXkXM m &.e.n.u.P H R oXoX;X7X+XT.s.U q.s.s.s.q.q.q.q.k.9.=.} { j j x g ^.CXCXCXCXCXCX",
"CXCXCXCXCXCXkXX.i.%.3.M.S.H R (.mXBXVXMXlXOX*X~ / ).{.`.G.G.G.W a.X.} { _ s s q 7 E.CXCXCXCXCXCX",
"CXCXCXCXCXVX/.T c $.%.m.m.H Y +XBXVXmXMXlX:X'.^ ! ).{.[.`.K.) G.a.} { j j e q 0 8 E.CXCXCXCXCXCX",
"CXCXCXCXQ.b b n c O.#.%.;.F Y +XBXVXxX:X:XXX) / ^ ). X|.|.$X~ W L a a a a 0 3 3 3 E.CXCXCXCXCXCX",
"CXCXCXCXo.; r x c { O.2.2.F Y (.mXBXlX:X.XXX) ~ ^ _.|. X*X$X~ E L q q q q 7 7 3 3 E.CXCXCXCXCXCX",
"CXCXCXCXo.3 e M } 1.g.d.d.J G W lXbX:X X) ~ ^ `._.|.|. X X XK.E u 3 ; ; 4 3 3 ; > R.CXCXCXCXCXCX",
"CXCXCXCXo.3 s ..} m.m.w.x.5.G E zXbX=X[.].! ^ _.|. X X X*X{.L.F.u > & # & * 4 > ; R.CXCXCXCXCXCX",
"CXCXCXCXU.3 t m ..m.w.w.x.#.F E 8X9X*XJ.J.J.).|.'.'.|.[.$X].G.F.i & & # * 4 4 - - R.CXCXCXCXCXCX",
"CXCXCXCXU.6 s ..X.g.b.w.g.+.F G &X&XL.H.].$X X|..X'. X`.L.H.G.E i # # - ; > 8 > > R.CXCXCXCXCXCX",
"CXCXCXCXU.: s M ..7.j.4.1.` i H =X=X_.^ ]._.[._.[.|.|.).L.J.H.F.u 3 6 7 8 r 9 6 1 R.CXCXCXCXCXCX",
"CXCXCXCXo.* e m } 3.5.' ` k y P 5X8X&X{.].K.H.Q Q `._.[.[.J.! E =.k f $.} x g w 0 W.CXCXCXCXCXCX",
"CXCXCXCXo.* e c *.3.3.#.` k y P qXwX5X*X}.G.! Q Q K._.{.{.L.H.E ;.J $.;.:.v g w w W.CXCXCXCXCXCX",
"CXCXCXCXo.* s m i.m.B.5.2.J f q.qXwX%XJ.K.G.H.^ ^ `.).{.[.$X}.L.Z.=.=.;.=.c x w 0 W.CXCXCXCXCXCX",
"CXCXCXCXo.4 s m ;.S.N.x.3.&.J q.qXqX#X~ H.G.K.).[.[._.$X$X{.[.).S.8.&.;.:.v g w 6 W.CXCXCXCXCXCX",
"CXCXCXCXo.* t M i.S.N.y.w.&.K y.5X5X-XP.#X#X*X=X&X&X=X>X>X>X>X=XS.k.6.7.7.v v w w ^.CXCXCXCXCXCX",
"CXCXCXCXV = t M X.B.S.B.M.M.q.D.-X4X4X4XeXyXuXuXuXuXuXuXwXwXwXiX<Xj.g.f.7.` j d y ^.CXCXCXCXCXCX",
"CXCXCXCXV * 9 b M a.m.m.m.y.0.q.I.I.3X1X4XeXtXyXtXyXtX0X7X7X7X3XA.g.f.f.3.+.z d d ^.CXCXCXCXCXCX",
"CXCXCXCXC & > > 0 ` O.] O.z f I q.y.&.&.=.:.;.;.;.;.;.:.L I L L 1.g.4.f.5.+.v j y W.CXCXCXCXCXCX",
"CXCXCXCXV & # # 4 d k j k d y I y.q.$.l l l l l l l l k d d d f _ 5.5.g.>.} { m x /.CXCXCXCXCXCX",
"CXCXCXCXA @ X @ # 7 0 a s j _ ' k.z.1.,.>.>.>.| | | >.' [ { { [ 7.=.;.:.} e t !.cXCXCXCXCXCXCXCX",
"CXCXCXCXZ $ + + $ : 6 r g j +.7.k.V.b.h.v.h.v.v.h.h.f.h.t.8.6.8.L L L L n 8 5 hXCXCXCXCXCXCXCXCX",
"CXCXCXCXfXS p o @ : 1 9 r x $.1.V.l.b.v.h.v.v.v.v.v.x.x.t.t.t.w.P T n h T R.aXCXCXCXCXCXCXCXCXCX",
"CXCXCXCXCXCXaX$ @ - 1 1 8 d 7.7.Z.V.b.v.h.v.b.v.v.v.v.x.6.8.t.t.P L h y p.CXCXCXCXCXCXCXCXCXCXCX",
"CXCXCXCXCXCXfXB p - # ; : 0 j z } 9.$.@.@.| @.#.2.] ] $.J J L L v h n p./.CXCXCXCXCXCXCXCXCXCXCX",
"CXCXCXCXCXCXCXCXjX< O + o $ # & > > ; * * * - ; ; * * - = = - , > > R.CXCXCXCXCXCXCXCXCXCXCXCXCX",
"CXCXCXCXCXCXCXCXCX2 % O O O   . . . X X       X   X       + % % % < Q.CXCXCXCXCXCXCXCXCXCXCXCXCX",
"CXCXCXCXCXCXCXCXCXfXgX2 O O     .     .                   < pXpXsXdXCXCXCXCXCXCXCXCXCXCXCXCXCXCX",
"CXCXCXCXCXCXCXCXCXCXCXD o O . . . . X X X X . . X X X o o B CXCXCXCXCXCXCXCXCXCXCXCXCXCXCXCXCXCX",
"CXCXCXCXCXCXCXCXCXCXCXgXS S Z Z A A A A A A A A A A A A A pXCXCXCXCXCXCXCXCXCXCXCXCXCXCXCXCXCXCX",
"CXCXCXCXCXCXCXCXCXCXCXCXCXCXCXCXCXCXCXCXCXCXCXCXCXCXCXCXCXCXCXCXCXCXCXCXCXCXCXCXCXCXCXCXCXCXCXCX",
"CXCXCXCXCXCXCXCXCXCXCXCXCXCXCXCXCXCXCXCXCXCXCXCXCXCXCXCXCXCXCXCXCXCXCXCXCXCXCXCXCXCXCXCXCXCXCXCX",
"CXCXCXCXCXCXCXCXCXCXCXCXCXCXCXCXCXCXCXCXCXCXCXCXCXCXCXCXCXCXCXCXCXCXCXCXCXCXCXCXCXCXCXCXCXCXCXCX"
};
