/* XPM */
static char *result[] = {
/* columns rows colors chars-per-pixel */
"48 48 246 2 ",
"   c #150D01",
".  c #180F02",
"X  c #1A1205",
"o  c #191908",
"O  c #15170E",
"+  c #2C2B01",
"@  c #282602",
"#  c #332A02",
"$  c #302701",
"%  c #2D3303",
"&  c #343303",
"*  c #3B3502",
"=  c #363B03",
"-  c #3B3B04",
";  c #37360A",
":  c #262417",
">  c #3B391B",
",  c #38382D",
"<  c #231F13",
"1  c #433D02",
"2  c #693B00",
"3  c #6D3812",
"4  c #712D0D",
"5  c #3E4204",
"6  c #3B420E",
"7  c #434303",
"8  c #494A07",
"9  c #4C5608",
"0  c #555804",
"q  c #584A13",
"w  c #595716",
"e  c #4D4F0E",
"r  c #6A4600",
"t  c #754901",
"y  c #675606",
"u  c #755400",
"i  c #7E5C03",
"p  c #775803",
"a  c #625B13",
"s  c #765C1B",
"d  c #7B4C12",
"f  c #5B6707",
"g  c #576A18",
"h  c #5A7317",
"j  c #4D6711",
"k  c #646905",
"l  c #786906",
"z  c #6A7807",
"x  c #7A7B0C",
"c  c #797A0A",
"v  c #666C16",
"b  c #697816",
"n  c #747912",
"m  c #7F6317",
"M  c #4D4A2B",
"N  c #775B26",
"B  c #6A5428",
"V  c #776827",
"C  c #607929",
"Z  c #6C6730",
"A  c #5B7628",
"S  c #514F46",
"D  c #6E685E",
"F  c #6B675C",
"G  c #7C7A54",
"H  c #767452",
"J  c #726A42",
"K  c #6E6B63",
"L  c #78736A",
"P  c #8F1D07",
"I  c #932F0F",
"U  c #AF371A",
"Y  c #932D2D",
"T  c #D43E2D",
"R  c #E83B2D",
"E  c #E93B32",
"W  c #FF3D38",
"Q  c #F12F26",
"!  c #894902",
"~  c #885606",
"^  c #985708",
"/  c #824F15",
"(  c #8B5717",
")  c #9B5B14",
"_  c #924D0F",
"`  c #A55A0B",
"'  c #A45B1B",
"]  c #A45C12",
"[  c #8B6202",
"{  c #846B01",
"}  c #856401",
"|  c #936502",
" . c #936C02",
".. c #9C6708",
"X. c #8B7501",
"o. c #867A05",
"O. c #937402",
"+. c #9A7503",
"@. c #9B7A04",
"#. c #967907",
"$. c #8C6317",
"%. c #946815",
"&. c #89791A",
"*. c #A9660C",
"=. c #A7730C",
"-. c #A86416",
";. c #AD7E1D",
":. c #A57617",
">. c #B37814",
",. c #B36F14",
"<. c #8B4D24",
"1. c #9B6724",
"2. c #867226",
"3. c #AD7028",
"4. c #A6462E",
"5. c #D14A2C",
"6. c #D44428",
"7. c #DA4A31",
"8. c #C94B24",
"9. c #E8462E",
"0. c #E44D32",
"q. c #EB4B35",
"w. c #E84333",
"e. c #F64838",
"r. c #EB5337",
"t. c #F4533D",
"y. c #F7553D",
"u. c #D1763A",
"i. c #992947",
"p. c #A7774B",
"a. c #FF4C44",
"s. c #FB4A44",
"d. c #FD5344",
"f. c #FF5946",
"g. c #FF534B",
"h. c #FF5C4C",
"j. c #F55A42",
"k. c #FF5B52",
"l. c #FB5655",
"z. c #E3454A",
"x. c #D9774D",
"c. c #FE624C",
"v. c #FC664A",
"b. c #FF6253",
"n. c #FD7A57",
"m. c #EC724A",
"M. c #C35378",
"N. c #C44E6F",
"B. c #EC5761",
"V. c #FB6975",
"C. c #FC716C",
"Z. c #D97F66",
"A. c #7B820C",
"S. c #7A8709",
"D. c #688519",
"F. c #778A13",
"G. c #778514",
"H. c #7D9112",
"J. c #73880C",
"K. c #778A31",
"L. c #7E805A",
"P. c #789148",
"I. c #82850C",
"U. c #878805",
"Y. c #928C01",
"T. c #968707",
"R. c #8D9504",
"E. c #8A9C0C",
"W. c #89990B",
"Q. c #929A04",
"!. c #9A9C09",
"~. c #959709",
"^. c #888719",
"/. c #9E8412",
"(. c #849C12",
"). c #8B9B12",
"_. c #A78918",
"`. c #B58619",
"'. c #A79110",
"]. c #8CA20E",
"[. c #95A203",
"{. c #99A403",
"}. c #9BA40B",
"|. c #9FA21E",
" X c #A7A20D",
".X c #A5A41A",
"XX c #B1A61A",
"oX c #8B8C29",
"OX c #B39228",
"+X c #B6A129",
"@X c #CF8E3D",
"#X c #C0AC31",
"$X c #86885C",
"%X c #8B935E",
"&X c #949E5E",
"*X c #9F8759",
"=X c #B38651",
"-X c #908972",
";X c #B7976B",
":X c #9AA96B",
">X c #A8B06F",
",X c #A0AB52",
"<X c #D5914F",
"1X c #FE825C",
"2X c #E89152",
"3X c #C6AB56",
"4X c #C8B05A",
"5X c #D9A352",
"6X c #EBB45D",
"7X c #EEA75B",
"8X c #D79A63",
"9X c #F89868",
"0X c #DCA662",
"qX c #D9B564",
"wX c #ECAC65",
"eX c #F6AB68",
"rX c #EDBA62",
"tX c #FBB575",
"yX c #FCB074",
"uX c #DDC771",
"iX c #FFC474",
"pX c #FFC46F",
"aX c #FF7A85",
"sX c #98948B",
"dX c #999A95",
"fX c #A69E87",
"gX c #A7A59E",
"hX c #BBB198",
"jX c #B4B5AE",
"kX c #FF8A95",
"lX c #FF9E8F",
"zX c #CEB48F",
"xX c #FFA890",
"cX c #FFAAB6",
"vX c #FF92A5",
"bX c #B0C48E",
"nX c #DCDE9A",
"mX c #D2D4B0",
"MX c #F4D5B4",
"NX c #E3E7AE",
"BX c #FFB4C8",
"VX c #FFB7D3",
"CX c #FFBAE1",
"ZX c #FFC5E6",
"AX c #F0D9C2",
"SX c None",
/* pixels */
"SXSXSXSXSXSXSXSXSXSXSXSXSXSXSXSXSXSXSXSXSXSXSXSXSXSXSXSXSXSXSXSXSXSXSXSXSXSXSXSXSXSXSXSXSXSXSXSX",
"SXSXSXSXSXSXSXSXSXSXSXSXSXSXSXSXSXSXSXSXSXSXSXSXSXSXSXSXSXSXSXSXSXSXSXSXSXSXSXSXSXSXSXSXSXSXSXSX",
"SXSXSXSXSXSXSXSXSXSXSXSXSXSXSXSXSXSXSXSXSXSXSXSXSXSXSXSXSXSXSXSXSXSXSXSXSXSXSXSXSXSXSXSXSXSXSXSX",
"SXSXSXSXSXSXSXSXSXSXSXSXSXSXSXSXSXSXSXSXSXSXSXSXSXSXSXSXSXSXSXSXSXSXSXSXSXSXSXSXSXSXSXSXSXSXSXSX",
"SXSXSXSXSXSXSXSXSXSXSXSXSXSXSXSXSXSXSXSXSXSXSXSXSXSXSXSXSXSXSXSXSXSXSXSXSXSXSXSXSXSXSXSXSXSXSXSX",
"SXSXSXSXSXSXSXSXSXSXSXSXSXSXSXSXSXSXSXSXSXSXSXSXSXSXSXSXSXSXSXSXSXSXSXSXSXSXSXSXSXSXSXSXSXSXSXSX",
"SXSXSXSXSXSXSXSXSXSXSXSXSXSXSXSXSXSXSXSXSXSXSXSXSXSXSXSXSXSXSXSXSXSXSXSXSXSXSXSXSXSXSXSXSXSXSXSX",
"SXSXSXSXSXSXSXSXSXSXSXSXSXMX8X=X8X8X0XqXqXqXrXuXuXqX4X4X4X3X3X4X>X:XmXSXSXSXSXSXSXSXSXSXSXSXSXSX",
"SXSXSXSXSXSXSXSXSXSXSXSXSXzX_ _ ] *.>.>.`.;.`.+X+X_.T.@.=.@.@.+.G.C >XSXSXSXSXSXSXSXSXSXSXSXSXSX",
"SXSXSXSXSXSXSXSXSXSXSXmXhX*X] _ ^ ^ ..=.*. .+././.o.X.O.+.+.+.O.n g P.bXmXSXSXSXSXSXSXSXSXSXSXSX",
"SXSXSXSXSXSXSXSXSXSXSX-XB <.` ` I ~ ~ | ~ l ~ { X.{ { O.+.+.+.O.n j h C :XSXSXSXSXSXSXSXSXSXSXSX",
"SXSXSXSXSXSXSXSXSXSXAXp.N ) ` *.! ~  .O.[ { { o.o.o.o.X.O. .+.O.x j j h P.NXSXSXSXSXSXSXSXSXSXSX",
"SXSXSXSXSXSXSXSXSX=X' ) ' -.,.=.^ | #.Y.Y.Y.Y.R.R.R.R.o.{ { #.#.c f f f z K.,XNXSXSXSXSXSXSXSXSX",
"SXSXSXSXSXSXSXSXMX1.! _ ` *.>.=.| [ T.Q.!.!.!.Y.R.Q.R.Y.{ { O.#.c k z z z n F.NXSXSXSXSXSXSXSXSX",
"SXSXSXSXSXSXmXfX*X) ` ` ` *.,.,.| | '. X X X XQ.R.Q.!.~.O.#.@.#.o.A.A.A.S.J.G.oX>XnXSXSXSXSXSXSX",
"SXSXSXSXSXSXzXH 2.) ` ` *.` *.=.*.=.'.XXXXXX X!.Q.~.!.T.#.+.+.#.T.I.S.I.I.G.G.G.F.>XSXSXSXSXSXSX",
"SXSXSXSXSXSXzXZ V ) ..*.:.( Y Y x.Z.8X8X=Xp.3.1.' 3.3.3.' ' ' ' :.^.^.o.x n v f f :XSXSXSXSXSXSX",
"SXSXSXSXSXSXzXZ s [ | >.;.Y Y N.VXCXBXcXkXV.l.w.R t.h.j.w.0.7.5.1.oX^.c l v y 0 8 %XSXSXSXSXSXSX",
"SXSXSXSXSXAX;XN s [ [ =.:.Y i.aXCXZXBXcXaXV.l.E R y.g.f.j.r.w.7.%.&.&.z k y w 8 7 %XSXSXSXSXSXSX",
"SXSXSXSX-XM B B s ~ }  .| 4 i.M.CXZXvXaXV.B.z.E R s.c.k.l.b.w.5./ k f y 0 0 8 8 7 $XSXSXSXSXSXSX",
"SXSXSXSXH # q s s { }  .| 4 i.N.VXVXkXaXB.z.z.E E d.g.b.b.v.0.5.d 0 0 0 0 8 8 7 7 $XSXSXSXSXSXSX",
"SXSXSXSXG - q V n ~.E.~.!.~ P 7.lXxXC.b.s.w.E s.a.l.k.b.b.v.q.5.3 1 1 * * 7 1 - ; $XSXSXSXSXSXSX",
"SXSXSXSXG 5 w V ^.].].].Q.| I 8.lXxXn.h.j.R w.g.k.k.b.b.c.h.r.5.3 # $ $ $ - - = & L.SXSXSXSXSXSX",
"SXSXSXSX$X1 w V oX).].].!.| P U 9X9Xb.e.e.y.d.g.k.k.k.g.v.j.0.6.4 $ $ + $ - - & & G SXSXSXSXSXSX",
"SXSXSXSX$X7 a V oX).E.E.W.~ P U m.n.y.9.y.c.h.b.k.k.l.a.r.r.9.6.4 @ @ # & 1 7 ; ; L.SXSXSXSXSXSX",
"SXSXSXSXG - a V &.~.!.W.R.i 4 I 2X1Xj.q.y.g.f.d.d.l.h.f.t.q.9.6.3 - 5 8 e e e 6 = $XSXSXSXSXSXSX",
"SXSXSXSXG * q V m X. .X.l t 2 <.9X9Xn.c.d.q.9.Q Q e.g.g.f.y.9.6.~ z f J.b v v 9 6 %XSXSXSXSXSXSX",
"SXSXSXSXG & q s m  . .~ l t 2 ( wXeX1Xv.v.0.R Q Q W a.g.f.y.e.6.} J.J.H.F.b v 9 9 %XSXSXSXSXSXSX",
"SXSXSXSXG * q N 2.:.:. .[ ! 2 ' eXeXm.t.0.9.9.W W s.a.f.c.f.y.t.3.J.F.H.G.b h 9 8 %XSXSXSXSXSXSX",
"SXSXSXSXH * q s 2.`.`.+.| ^ ! ' eXeXm.0.0.9.r.a.a.g.a.c.c.c.c.v._.^.H.H.F.v v 9 5 %XSXSXSXSXSXSX",
"SXSXSXSXG ; q V 2.`.`.=.=.^ _ ' 7X7Xx.u.x.m.m.n.n.n.n.1X1Xn.1X2XOX).).W.W.n v f 9 &XSXSXSXSXSXSX",
"SXSXSXSXH = M Z V ;.;.;._.-.` ,.@X@X5X2X7XpXiXiXiXiXiXtXtXyXyXwX#X}.R.R.R.n z f 0 &XSXSXSXSXSXSX",
"SXSXSXSXH % e Z Z %.:.:.:.%.` -.u.@X@X<X5X6X6XrXrXrX6XwX0X8XwX5X+X}.R.Q.R.A.z k f &XSXSXSXSXSXSX",
"SXSXSXSXG + & ; e p i ~ p t 3 ! ' -.( [ ( [ %.$.%.%.$.$./ / d / T.R.Q.Q.R.G.n f 9 %XSXSXSXSXSXSX",
"SXSXSXSXH % + + * r r r u r r t ) ..~ p p u u u u t u y r 2 r y o.R.R.Q.U.x b v b >XSXSXSXSXSXSX",
"SXSXSXSXF @ o o $ 8 0 a a l l X./.'.~.R.Y.Y.Y.Y.Y.T.Y.U.I.o.U.H.H.F.F.F.G.9 w :XmXSXSXSXSXSXSXSX",
"SXSXSXSXF < O . o = 5 j w b I.~.|..X}.{.{.[.[.{.[.Q.Q.].(.H.].H.D.D.D.D.g 6 M hXSXSXSXSXSXSXSXSX",
"SXSXSXSXgXL M o @ % = 6 e v I.).|..X}.{.{.{.{.{.{.[.[.[.H.].H.H.D.D.h h C L.-XSXSXSXSXSXSXSXSXSX",
"SXSXSXSXSXSX-X< o % % 5 7 k I.~.|.|.{.[.[.{.{.{.{.{.{.[.].H.H.H.D.D.h j K.SXSXSXSXSXSXSXSXSXSXSX",
"SXSXSXSXSXSXgXS M % + & & e z x ^.^.U.U.S.U.S.U.U.U.S.S.J.z J.J.b h A K.>XSXSXSXSXSXSXSXSXSXSXSX",
"SXSXSXSXSXSXSXSXjX, O O o o % + ; ; # * # * # & * # & # % # % & ; ; $XSXSXSXSXSXSXSXSXSXSXSXSXSX",
"SXSXSXSXSXSXSXSXSXS : O O       X X . X . . . . . . . . O O < : : > -XSXSXSXSXSXSXSXSXSXSXSXSXSX",
"SXSXSXSXSXSXSXSXSXjXdX, O       . .           . .         , sXsXdXfXSXSXSXSXSXSXSXSXSXSXSXSXSXSX",
"SXSXSXSXSXSXSXSXSXSXSXF O O . . . . . X . . . . . . . X X S SXSXSXSXSXSXSXSXSXSXSXSXSXSXSXSXSXSX",
"SXSXSXSXSXSXSXSXSXSXSXgXL K K K D D D K D D D K D D D D K sXSXSXSXSXSXSXSXSXSXSXSXSXSXSXSXSXSXSX",
"SXSXSXSXSXSXSXSXSXSXSXSXSXSXSXSXSXSXSXSXSXSXSXSXSXSXSXSXSXSXSXSXSXSXSXSXSXSXSXSXSXSXSXSXSXSXSXSX",
"SXSXSXSXSXSXSXSXSXSXSXSXSXSXSXSXSXSXSXSXSXSXSXSXSXSXSXSXSXSXSXSXSXSXSXSXSXSXSXSXSXSXSXSXSXSXSXSX",
"SXSXSXSXSXSXSXSXSXSXSXSXSXSXSXSXSXSXSXSXSXSXSXSXSXSXSXSXSXSXSXSXSXSXSXSXSXSXSXSXSXSXSXSXSXSXSXSX"
};
