/* XPM */
static char *result[] = {
/* columns rows colors chars-per-pixel */
"48 48 252 2 ",
"   c #001E14",
".  c #061D19",
"X  c #0C1914",
"o  c #121E18",
"O  c #042319",
"+  c #0C251D",
"@  c #052925",
"#  c #152825",
"$  c #043934",
"%  c #0F312C",
"&  c #223733",
"*  c #01423D",
"=  c #05483A",
"-  c #00513D",
";  c #054B42",
":  c #034D4B",
">  c #084843",
",  c #07554A",
"<  c #035452",
"1  c #055C54",
"2  c #095B55",
"3  c #135A4E",
"4  c #30514E",
"5  c #066557",
"6  c #0C6A54",
"7  c #066C67",
"8  c #077968",
"9  c #187968",
"0  c #027775",
"q  c #177E75",
"w  c #156E63",
"e  c #2B756E",
"r  c #4F6561",
"t  c #677B78",
"y  c #4F5A55",
"u  c #00B739",
"i  c #12E13B",
"p  c #1B9B5B",
"a  c #0E9354",
"s  c #13B14E",
"d  c #07866A",
"f  c #009668",
"g  c #199365",
"h  c #048476",
"j  c #19877B",
"k  c #04987A",
"l  c #12947A",
"z  c #299373",
"x  c #03A77B",
"c  c #1BA878",
"v  c #0CB474",
"b  c #25A675",
"n  c #39A87A",
"m  c #4AA27B",
"M  c #37FF59",
"N  c #03C777",
"B  c #01C46F",
"V  c #2FD76E",
"C  c #3AFF6A",
"Z  c #38FF79",
"A  c #26F56A",
"S  c #10D352",
"D  c #47FF6A",
"F  c #40FF75",
"G  c #4CFF71",
"H  c #44FF7D",
"J  c #4DFF7C",
"K  c #57FF76",
"L  c #4FF671",
"P  c #65FF7B",
"I  c #168885",
"U  c #059A86",
"Y  c #1A978B",
"T  c #028C83",
"R  c #249A85",
"E  c #289487",
"W  c #00A284",
"Q  c #00A989",
"!  c #05A789",
"~  c #1BA689",
"^  c #06B88B",
"/  c #1AB886",
"(  c #07A996",
")  c #16A996",
"_  c #05B493",
"`  c #06B99B",
"'  c #17B698",
"]  c #36AA82",
"[  c #2AB886",
"{  c #27A892",
"}  c #38A896",
"|  c #22B99B",
" . c #2DB589",
".. c #11A7A1",
"X. c #00BBAD",
"o. c #04B5A8",
"O. c #15B5A7",
"+. c #08BCB6",
"@. c #0CADA2",
"#. c #36ADA8",
"$. c #2BB9AF",
"%. c #4A938F",
"&. c #50A79A",
"*. c #77ABA8",
"=. c #78B6AD",
"-. c #78B4B2",
";. c #61AAA5",
":. c #05C787",
">. c #02CA99",
",. c #1AC699",
"<. c #07D796",
"1. c #15D897",
"2. c #14D385",
"3. c #25C786",
"4. c #27D993",
"5. c #0EE68A",
"6. c #16E597",
"7. c #16F398",
"8. c #10EC92",
"9. c #26EA95",
"0. c #31F892",
"q. c #01C3AD",
"w. c #06C7A5",
"e. c #1BCDA2",
"r. c #15C2A9",
"t. c #03D4A2",
"y. c #05D6AB",
"u. c #19DDAA",
"i. c #15D8A9",
"p. c #05C6B7",
"a. c #05D4B3",
"s. c #03DCB6",
"d. c #04DCBD",
"f. c #0AD8B7",
"g. c #15D7B6",
"h. c #12CFB5",
"j. c #2CC3A6",
"k. c #34DEA4",
"l. c #27C2B9",
"z. c #2CCDB4",
"x. c #0CE3AA",
"c. c #18E8AD",
"v. c #14F3AC",
"b. c #09E2BA",
"n. c #12E5B4",
"m. c #17E4B9",
"M. c #17F9B8",
"N. c #0EF6B1",
"B. c #36F8A5",
"V. c #27EAB8",
"C. c #2CFDAD",
"Z. c #45FF84",
"A. c #4BFF85",
"S. c #4BFF89",
"D. c #5CFF8C",
"F. c #56FF89",
"G. c #4AFF92",
"H. c #5BFF93",
"J. c #57FF95",
"K. c #63FF85",
"L. c #64FF8B",
"P. c #6BFF8E",
"I. c #65FF94",
"U. c #6AFF99",
"Y. c #74FF9C",
"T. c #75FF96",
"R. c #4DC7A7",
"E. c #6DD7AE",
"W. c #57FDB4",
"Q. c #6CFFA1",
"!. c #6DFFAC",
"~. c #64FFA5",
"^. c #73FFA2",
"/. c #77FFA6",
"(. c #6CFFB5",
"). c #76FFB9",
"_. c #6DCB9D",
"`. c #02CDC4",
"'. c #07C7C4",
"]. c #02D2C6",
"[. c #0BDCCB",
"{. c #06D9C8",
"}. c #14DAC3",
"|. c #0DDDD6",
" X c #18DFD8",
".X c #27C4C1",
"XX c #31CFCF",
"oX c #04EAC6",
"OX c #06E6CC",
"+X c #17E9C8",
"@X c #1CFFC5",
"#X c #09EAD5",
"$X c #18E9DE",
"%X c #26F9CA",
"&X c #29E8D6",
"*X c #28FCD3",
"=X c #2CEBC7",
"-X c #1AF1E6",
";X c #13EDE2",
":X c #24FBF3",
">X c #38FFF9",
",X c #3EFFE1",
"<X c #52F5D0",
"1X c #68FEC5",
"2X c #7CFFC3",
"3X c #79FCCD",
"4X c #7CFFD4",
"5X c #6BEECF",
"6X c #51FFF1",
"7X c #6AFFF8",
"8X c #7DFFFF",
"9X c #7CFFF7",
"0X c #6BFFEC",
"qX c #879D95",
"wX c #899C98",
"eX c #8E9897",
"rX c #87B8AF",
"tX c #8CB7AD",
"yX c #87C6BB",
"uX c #87D1BC",
"iX c #8CFFB6",
"pX c #B1C4BC",
"aX c #85C6C1",
"sX c #87D7C2",
"dX c #9DCFC7",
"fX c #A7CCC9",
"gX c #96FFC2",
"hX c #85FFD3",
"jX c #8EF1D3",
"kX c #A8F2D2",
"lX c #89FFE4",
"zX c #9AFFE8",
"xX c #85FFFF",
"cX c #8DFFFE",
"vX c #89FFF4",
"bX c #95FFFF",
"nX c #9AFFFC",
"mX c #A3FFFF",
"MX c #A8FFFF",
"NX c #AFF9E9",
"BX c #C5D9D4",
"VX c #D4DCD9",
"CX c #C5FFEC",
"ZX c #C9FFFB",
"AX c #DBFFFF",
"SX c #D3FFFA",
"DX c #C8EAE3",
"FX c #EAFCFB",
"GX c #FEFFFF",
"HX c #F7FFFF",
"JX c #E2EDE8",
"KX c None",
/* pixels */
"KXKXKXKXKXKXKXKXKXKXKXKXKXKXKXKXKXKXKXKXKXKXKXKXKXKXKXKXKXKXKXKXKXKXKXKXKXKXKXKXKXKXKXKXKXKXKXKX",
"KXKXKXKXKXKXKXKXKXKXKXKXKXKXKXKXKXKXKXKXKXKXKXKXKXKXKXKXKXKXKXKXKXKXKXKXKXKXKXKXKXKXKXKXKXKXKXKX",
"KXKXKXKXKXKXKXKXKXKXKXKXKXKXKXKXKXKXKXKXKXKXKXKXKXKXKXKXKXKXKXKXKXKXKXKXKXKXKXKXKXKXKXKXKXKXKXKX",
"KXKXKXKXKXKXKXKXKXKXKXKXKXKXKXKXKXKXKXKXKXKXKXKXKXKXKXKXKXKXKXKXKXKXKXKXKXKXKXKXKXKXKXKXKXKXKXKX",
"KXKXKXKXKXKXKXKXKXKXKXKXKXKXKXKXKXKXKXKXKXKXKXKXKXKXKXKXKXKXKXKXKXKXKXKXKXKXKXKXKXKXKXKXKXKXKXKX",
"KXKXKXKXKXKXKXKXKXKXKXKXKXKXKXKXKXKXKXKXKXKXKXKXKXKXKXKXKXKXKXKXKXKXKXKXKXKXKXKXKXKXKXKXKXKXKXKX",
"KXKXKXKXKXKXKXKXKXKXKXKXKXKXKXKXKXKXKXKXKXKXKXKXKXKXKXKXKXKXKXKXKXKXKXKXKXKXKXKXKXKXKXKXKXKXKXKX",
"KXKXKXKXKXKXKXKXKXKXKXKXKXHXhXhXlXvXcXcXcXcXbXmXmXcXxX8X8X8X8X8XcXkXHXKXKXKXKXKXKXKXKXKXKXKXKXKX",
"KXKXKXKXKXKXKXKXKXKXKXKXKXSX2.N 6.7.@X@XM.%X*X>X>X+Xf.OXf.b.b.d.| ] NXKXKXKXKXKXKXKXKXKXKXKXKXKX",
"KXKXKXKXKXKXKXKXKXKXKXGXCXjX2.1.2.<.x.x.x.t.h.+X Xh.p.`.d.b.y.a.' z _.SXGXKXKXKXKXKXKXKXKXKXKXKX",
"KXKXKXKXKXKXKXKXKXKXKXkX%.3.6.6.B N <.>.>._ _ X.p.X.X.q.d.s.s.a.@.g z n jXKXKXKXKXKXKXKXKXKXKXKX",
"KXKXKXKXKXKXKXKXKXKXGXE.] 3.7.8.:.:.q.a.q.X.X.p.'.'.'.'.`.a.d.a.' g p b _.GXKXKXKXKXKXKXKXKXKXKX",
"KXKXKXKXKXKXKXKXKX1Xk.4.5.v.N.N.>.t.`.].].].].a.a.a.a.'.X.o.a.{.o.k k k ^ R.5XFXKXKXKXKXKXKXKXKX",
"KXKXKXKXKXKXKXKXGXk.B 5.8.v.@XM.t.y.].{.{.{.{.s.a.a.a.'.X.X.f.{.o.W U W ! ) $.AXKXKXKXKXKXKXKXKX",
"KXKXKXKXKXKXGXNXsX9.5.5.8.7.N.N.<.t.;X;X;X;X;X{.a.f.f.[.f.{.{.[.'.' ` ` ' ' | <XlXAXKXKXKXKXKXKX",
"KXKXKXKXKXKXAX;.} 6.8.5.8.v.N.v.x.n.-X:X:X:X-X[.{.[.|.|.f.f.f.f.'.r.r.r.r.' | ' | zXKXKXKXKXKXKX",
"KXKXKXKXKXKXZX&.} 1.x.M.n.V V L iXgXlXlXhX(.W.9.4.B.B.B.9.9.9.9.}..Xr.+.O.) Y l l jXKXKXKXKXKXKX",
"KXKXKXKXKXKXZX&.{ >.t.M.*XV V /.HXHXGXGXCXiXY.D C F.U.D.S.A.Z.Z.k.XX.XO...I I 7 6 aXKXKXKXKXKXKX",
"KXKXKXKXKXGXNX%. .>.>.m.V.V 4.iXGXGXGXFXCXgXT.D C D.Y.U.D.F.D Z.k.$.....Y I 0 7 5 aXKXKXKXKXKXKX",
"KXKXKXKXdXe z ] { _ ` >.>.s V ).GXGXAXkXiXT.P D C D.Q.^.^.Q.J F [ U T k T 0 0 7 2 aXKXKXKXKXKXKX",
"KXKXKXKX*.: 9 E { o.X.a.q.s V /.GXGXCXgXiXP.K D G L.T./.).!.J Z ~ h d 0 8 0 7 5 2 aXKXKXKXKXKXKX",
"KXKXKXKX-., q #.$.'.g.[. X:.i D CXAXgXY.K.G G K.L.U.T././.!.A.F p 5 < < < 1 1 , , rXKXKXKXKXKXKX",
"KXKXKXKX-.2 I #.$.m.n.n.b.t.i 0.MXZXiXU.F.C J P.Y.Y.Y.Y./.Q.S.0.p = ; $ > : , ; ; rXKXKXKXKXKXKX",
"KXKXKXKX-., E #.l.m.n.n.b.>.S A zXzX(.F.F.F.D.U.T.T.Y.U.~.D.Z.Z.a ; > * > < 2 - = rXKXKXKXKXKXKX",
"KXKXKXKX=.1 E #..Xg.m.x.f.` u S ).).J.H F.Q.Y.Y.Y.T.Y.L.G.G.0.F a * $ = : 2 3 , = rXKXKXKXKXKXKX",
"KXKXKXKX=.2 E #.$.}.|.g.h._ s V 3XhXI.J J.I.I.P.P.T.U.I.F.S.H Z p 5 5 7 w w w 1 , yXKXKXKXKXKXKX",
"KXKXKXKXrX: 9 { | a.a.p.o.k f 3.vXcX2XQ.H.S.H M M K P.I.U.H.F Z ,.U x ' ' Y R 9 6 sXKXKXKXKXKXKX",
"KXKXKXKX*.: q { ' t.a.` _ x f V cXnXhX(.J.G.F M C G K.U.~.H.Z.C ,.^ ^ e.,.{ E 8 6 sXKXKXKXKXKXKX",
"KXKXKXKX-.< q } j.=X+Xy.>.^ v 4.bXnX(.J.S.H H D G K K.U.U.Q.J.J.V.,.e.e.,.~ l 9 8 uXKXKXKXKXKXKX",
"KXKXKXKX-.< q } j.*X*Xb.<.>.v 9.cXbXW.J Z.A.S.L.I.L.K.U.!.Q.Q.I.=Xh.e.e.,.{ R 8 6 uXKXKXKXKXKXKX",
"KXKXKXKXrX< q } $.=X*Xv.b.<.2.9.9XvX1XW.W.(.(.2XhX).2XhXhXhXhX3X,Xg.g.g.h.) Y d 7 sXKXKXKXKXKXKX",
"KXKXKXKX*.> e %.R.=X*X*XV.v.6.C.<X0X0X7X8XnXnXMXMXMXnXmXMXMXmXbX6XOXd.{.h.' ) k d jXKXKXKXKXKXKX",
"KXKXKXKX*.* w %.%.u.V.c.=X6.1.9.<X<X<X6X7XxXcXcXcXxXxXcXxXvXvX9X>X|.d.d.a.' ( U h sXKXKXKXKXKXKX",
"KXKXKXKX*.$ = 3 w ( ^ _ _ x v v 9.c.1.,.,.,.e.e.e.j.e.,.V c / [ '.f.s.s.a.O.) l d sXKXKXKXKXKXKX",
"KXKXKXKX*.$ * $ 1 T U W U k f x 1.6.^ Q Q Q Q ! W Q ! x l f f f +.a.f.f.h.' ..R ] zXKXKXKXKXKXKX",
"KXKXKXKX*.$ @ @ * 7 0 I Y ..o.p.&X$X|.].].].p.].`.'.`.'.+.+.+.+.r.,.,.,.' q 9 jXFXKXKXKXKXKXKXKX",
"KXKXKXKXwX% + . $ , 3 9 j ~ h.h.&X&XOX#X#XoXOXOXOXOXoXd.u.u.i.i.3.[ [ [ b 3 4 AXKXKXKXKXKXKXKXKX",
"KXKXKXKXJXtXr # O - - 6 w Y r.h.=X&Xm.oX#XoXoXoXoXoXoXb.u.u.u.u.3.[ b c n yXfXKXKXKXKXKXKXKXKXKX",
"KXKXKXKXKXKXpX# @ - - , 5 T w.h.&X&X+XoXoXoXoX#X#XOXoXb.i.i.x.m.3.[ c d R.KXKXKXKXKXKXKXKXKXKXKX",
"KXKXKXKXKXKXFXt r = = = ; 8 ) ..l.l.w.q.q.q.X.w.w.q.q.` ^ / / / ~ b n R.kXKXKXKXKXKXKXKXKXKXKXKX",
"KXKXKXKXKXKXKXKXHX4 o + + $ $ * , , : : : : : : : : : ; = = > = > > yXKXKXKXKXKXKXKXKXKXKXKXKXKX",
"KXKXKXKXKXKXKXKXKXr & o X X O O O + + O O . O O O O O O o o & & & 4 fXKXKXKXKXKXKXKXKXKXKXKXKXKX",
"KXKXKXKXKXKXKXKXKXHXVXy o .     O             O . .   . . 4 BXBXVXDXKXKXKXKXKXKXKXKXKXKXKXKXKXKX",
"KXKXKXKXKXKXKXKXKXKXKXeX# o O O O O O + O O O O O O + o o t KXKXKXKXKXKXKXKXKXKXKXKXKXKXKXKXKXKX",
"KXKXKXKXKXKXKXKXKXKXKXJXeXeXwXwXqXqXqXqXqXqXqXqXqXqXqXqXwXBXKXKXKXKXKXKXKXKXKXKXKXKXKXKXKXKXKXKX",
"KXKXKXKXKXKXKXKXKXKXKXKXKXKXKXKXKXKXKXKXKXKXKXKXKXKXKXKXKXKXKXKXKXKXKXKXKXKXKXKXKXKXKXKXKXKXKXKX",
"KXKXKXKXKXKXKXKXKXKXKXKXKXKXKXKXKXKXKXKXKXKXKXKXKXKXKXKXKXKXKXKXKXKXKXKXKXKXKXKXKXKXKXKXKXKXKXKX",
"KXKXKXKXKXKXKXKXKXKXKXKXKXKXKXKXKXKXKXKXKXKXKXKXKXKXKXKXKXKXKXKXKXKXKXKXKXKXKXKXKXKXKXKXKXKXKXKX"
};
