/* XPM */
static char *_805892ff1f84e2f92cbad694452e41axBgMNuyKP3czprV7[] = {
/* columns rows colors chars-per-pixel */
"48 48 231 2 ",
"   c None",
".  c #0A050E",
"X  c #040B0D",
"o  c #070B0E",
"O  c #0E0413",
"+  c #040B10",
"@  c #080911",
"#  c #120513",
"$  c #160914",
"%  c #0A1418",
"&  c #141218",
"*  c #17050E",
"=  c #2D0715",
"-  c #320813",
";  c #32271A",
":  c #312A1C",
">  c #241521",
",  c #361D26",
"<  c #24292C",
"1  c #2B2A2D",
"2  c #262427",
"3  c #282D31",
"4  c #322A35",
"5  c #322633",
"6  c #393A3B",
"7  c #35302A",
"8  c #1C2526",
"9  c #470914",
"0  c #530E19",
"q  c #4C121D",
"w  c #53131E",
"e  c #58101C",
"r  c #5D0108",
"t  c #72101B",
"y  c #71090F",
"u  c #471923",
"i  c #541C28",
"p  c #5C1C2A",
"a  c #571925",
"s  c #611B29",
"d  c #4A242C",
"f  c #42282C",
"g  c #482A33",
"h  c #483939",
"j  c #532E32",
"k  c #672934",
"l  c #66363E",
"z  c #7C2532",
"x  c #50493E",
"c  c #7B5B3D",
"v  c #3E3D42",
"b  c #4D3E41",
"n  c #7C3641",
"m  c #793945",
"M  c #633F43",
"N  c #494A4D",
"B  c #5E4449",
"V  c #554A48",
"C  c #58555B",
"Z  c #4F514E",
"A  c #61444A",
"S  c #655446",
"D  c #695549",
"F  c #695A57",
"G  c #7B4C49",
"H  c #7E644A",
"J  c #6D6355",
"K  c #776557",
"L  c #6B614E",
"P  c #625C62",
"I  c #5D656A",
"U  c #686669",
"Y  c #7A6B62",
"T  c #7B7266",
"R  c #6C7375",
"E  c #6D7578",
"W  c #787878",
"Q  c #766E79",
"!  c #973239",
"~  c #8A2C37",
"^  c #AD2E3E",
"/  c #A4353D",
"(  c #BE3336",
")  c #BC333C",
"_  c #B3383E",
"`  c #83171D",
"'  c #C42F3D",
"]  c #C92D3C",
"[  c #C23335",
"{  c #C3313B",
"}  c #89623C",
"|  c #865F39",
" . c #823E4D",
".. c #873842",
"X. c #993745",
"o. c #A53D4B",
"O. c #A93B4A",
"+. c #AA3842",
"@. c #B53642",
"#. c #BC3343",
"$. c #BD3649",
"%. c #B53C48",
"&. c #B13F51",
"*. c #C42F42",
"=. c #C23142",
"-. c #C13B4E",
";. c #C23D50",
":. c #87424F",
">. c #8C4854",
",. c #814352",
"<. c #924652",
"1. c #9A4C5A",
"2. c #8C5851",
"3. c #A84855",
"4. c #BC4656",
"5. c #AA545E",
"6. c #AB404A",
"7. c #866544",
"8. c #9C7A59",
"9. c #8F6D54",
"0. c #9C5C6B",
"q. c #965562",
"w. c #865B65",
"e. c #AB5662",
"r. c #B45969",
"t. c #B34E68",
"y. c #87776B",
"u. c #957561",
"i. c #977C66",
"p. c #986C74",
"a. c #8B7D73",
"s. c #88767A",
"d. c #947077",
"f. c #9A787A",
"g. c #8E6669",
"h. c #AA7F65",
"j. c #BA6D79",
"k. c #A6717B",
"l. c #C6495A",
"z. c #D24A5E",
"x. c #CC5665",
"c. c #D75968",
"v. c #D64E63",
"b. c #E15B6E",
"n. c #CA6376",
"m. c #D76678",
"M. c #CE6976",
"N. c #E86679",
"B. c #988678",
"V. c #8A8379",
"C. c #AC8668",
"Z. c #B58968",
"A. c #B99377",
"S. c #AA815C",
"D. c #C6967C",
"F. c #C7977C",
"G. c #BC7B87",
"H. c #A97F87",
"J. c #937C83",
"K. c #CA7685",
"L. c #D9738A",
"P. c #EB7A86",
"I. c #F77688",
"U. c #E77D95",
"Y. c #F77E91",
"T. c #EB6F82",
"R. c #798080",
"E. c #838787",
"W. c #968B81",
"Q. c #9B9999",
"!. c #9D9289",
"~. c #A2958E",
"^. c #AE9093",
"/. c #AAA29A",
"(. c #B1A99F",
"). c #9F9FA1",
"_. c #BD9CA5",
"`. c #BDB9BD",
"'. c #B1AAA8",
"]. c #CB8996",
"[. c #D98896",
"{. c #C5939E",
"}. c #D2919E",
"|. c #C99088",
" X c #EE838C",
".X c #E38695",
"XX c #EA8495",
"oX c #E48996",
"OX c #E6859B",
"+X c #EA849C",
"@X c #E58998",
"#X c #F1828E",
"$X c #C7A288",
"%X c #D4A888",
"&X c #D5B28C",
"*X c #D9AD91",
"=X c #DCB495",
"-X c #C899A4",
";X c #DB99A6",
":X c #DC8EA1",
">X c #EB8BA3",
",X c #EA94A5",
"<X c #EB9EB3",
"1X c #D9A2AE",
"2X c #DAAAB6",
"3X c #DBB4B4",
"4X c #C8B4B6",
"5X c #EBA7B1",
"6X c #F3AABC",
"7X c #E5B3B6",
"8X c #E6A1AD",
"9X c #D2C9BF",
"0X c #BFBBC1",
"qX c #CDBBC1",
"wX c #E6B7C3",
"eX c #F4B3C3",
"rX c #BFC0C2",
"tX c #D6CCC6",
"yX c #DCD8D8",
"uX c #D2CDCD",
"iX c #F7C2CD",
"pX c #F7CBD5",
"aX c #EECCD4",
"sX c #F6DBE3",
"dX c #EBE8EA",
"fX c #FAEDE5",
"gX c #FAE8EC",
"hX c #FBF3F6",
"jX c #FDFAFC",
"kX c #FBF5F8",
"lX c #F8F0E9",
/* pixels */
"                                      /.a.y.V.y.a.V.s.a./.                                      ",
"                                      V.D D c S D D S S a.                                      ",
"                                  (.~.B.u.u.8.C.i.i.9.9.y.~./.                                  ",
"                                  K K Z.F.F.F.F.|.A.A.h.u.F Y /.                                ",
"                                  y.K C.D.D.F.F.%X$XD.D.C.K T /.                                ",
"                                  W.a.C.h.Z.F.F.%X*X*X*X$XV.!.'.                                ",
"                                '.B.B.S.h.h.F.F.*X=X=X=X$XB.W.(.                                ",
"                            ~.J K T y.S.h.D.F.=X=X=X=X=X(.y.Y K J W.                            ",
"                            W : 7 L J S.S.Z.%X%X&X&X&X&XA.T L x ; F                             ",
"                            y.: : S L H 9.8.C.Z.C.Z.C.C.C.J x h ; F                             ",
"                            V.: : S c c | | | } } } 7.} c S c f ; F                             ",
"                            T 2 6 T y.H | | 7.7.7.7.H c 7.V.y.Z ; V ).                          ",
"                        Q 6 1 > J uXuXV.D D K K K H L S V.yXyXV.1 < 6 C                         ",
"                        U 6 v N R.dXdX!.K y.y.y.y.V.T K !.dXdXQ.N v v C '.                      ",
"                  Q.U U /.`.`.`.uXhXhXyX9X9X9XtX9X9X9X9XuXkXjXyX0X0X0X'.W U U                   ",
"                  W 2 6 uXkXjXkXjXhXhXfXfXfXfXfXfXfXlXlXlXhXkXjXjXjXjXyXI 4 Z                   ",
"                  W > v qXjXgXpXaXpXpX7X7X7X7X7X3X3X3X9X3X7XwXaXpXsXkXyXP 4 N                   ",
"                  W , b qXhXiX,X,X,XXXM.l.l.l.4.5.5.e.e.5.e.r.K.>XeXgXyXP g Z                   ",
"                  J., b `.dXwXXXXXXXP.x.;.-.#.@.6.3.5.5.t.&.t.K.U.6XsXuXF f V                   ",
"                  W , g ~.4X;X+XXXXXXXN.N.c.-.4.M.M.[.8X:XL.L.L.U.>X4X_.M g V                   ",
"                  J., 4 J._.}.XXXXXXXXY.I.N.l.l.L.[.eXeXeXU.U.>X>X:X_.^.B , Z                   ",
"                  s.u g d._.}.OXXXXX.X#XY.P.c.n.L.>X>XeXeX6XeX<X:X:X{.H.M d B                   ",
"                  s.u g k.-X}..X@X.X.X.X.X.X[.U.U.OX>X>X6XpXpXwX-X{.{.G.l i B                   ",
"                  s.u d p.^.]..X@XXX.X.X[.oX.X[..XOXU.U.<XwXwXwX1X-X^.k.k i B                   ",
"                  s.u d g.H.].[.@X@X@X@X@X@X@XXXOX+X>XU.:X-X1XwXaXqX0.>.j i B                   ",
"                  s.q u >.H.K..X#XXXXX#XoX@X@X#X+X+XU.U.[.]._.wXpX2X0.m p i B                   ",
"                  d.q a G q.r.N.T.Y.#X#X X X#X#XY.Y.T.N.m.G.G.2XpXwX0. .p p B                   ",
"                  d.q q m ,.t.b.N.I.#X XN.P.F. XI.I.T.b.c.G.G.1XpX7X0. .p p B                   ",
"                  d.w q m >.3.l.z.c.c.c.c.x.c.c.c.v.v.z.x.j.G.;XpX7X0. .s a A                   ",
"                  d.w a m >.o.$.=.$.$.%.6.%.6._ -.$.$.$.4.G.G.;XiX2X0. .p a B                   ",
"                  d.q a m >.o.$.#.#.#.) _ _ _ ^ #.#.#.#.4.r.G.:XiX2X0. .p a B                   ",
"                  p.0 e n <.O.*.*.*.=.) ( ( [ [ [ ' ' ' @.3.e.].iX2X0. .p p A                   ",
"                  d.0 e n <.O.*.*.*.*.{ [ [ [ [ [ { { [ @.6.5.].wX;X0.,.p p B                   ",
"                  d.0 e .. .O.*.*.*.*.{ [ [ [ [ [ { ] { @.6.3.K.8X}.0. .p p B                   ",
"                  H.0 0 ..<.O.*.*.*.*.[ [ [ [ [ [ { { ] @.o.3.n.U.K.q.m p p A                   ",
"                Q.w.0 0 n <.O.*.*.*.*.{ [ [ [ [ ] { ] [ ) O.3.x.P.K.q. .p p B                   ",
"    R.6 3 3 v 5 5 , 9 0 m <.O.#.*.' #.=.{ ) ) ) [ ] ] ] =.#.-.c.P.m.1. .s a A                   ",
"    E % + % O O # = 9 0 m >.O.*.' #.' ) ) ) ) ) ] ] ] ] { =.-.v.I.m.3. .s a A                   ",
"R.N 3 + + O O O # - 9 a m <.o.#.*.' ) ) ) ) ) ( { ] ] ] *.#.-.z.N.c.1. .s s M                   ",
"Z + + + + O O O # = 9 w m >.o.*.' ' ) ) ( _ ) ) { ] ] ] ' #.#.z.b.x.<. .k k A                   ",
"N X X X o o X X O $ = - j M ..@.@.@.#.) ) #.) ) *.*.*.*.*.+.@.4.4.3.l A d.H.                    ",
"N % o X o X X X X O $ $ > , k +.+.+.+.#.=.=.=.=.=.*.*.=.#.o.o.o.3.~ , h                         ",
"R.Z 7 X o % X X X . . # $ > i ~ ! +.+.#.=.=.=.=.=.*.=.*.#.o.X.X.~ :.F W                         ",
"    R X X X X X X . . . $ * 9 y ` ! +.#.=.=.=.=.#.*.#.=.$.o.X.~ t :.4X                          ",
"    E.1 < < 8 % X o @ O O # - r t ..X.+.+.+.@.+.@.@.+.@./ X...~ z 0.                            ",
"            Q.6 X @ @ @ o o * = = d i d u d d u u g d u d f h d._.                              ",
"              Z % & % % % % $ $ > 5 5 < < < < < < 1 5 < < < 6 E.                                ",
"              E.I U I I I I P U U Q Q Q E E R R E R Q R R R R.                                  "
};
