/* XPM */
static char *result[] = {
/* columns rows colors chars-per-pixel */
"64 64 224 2 ",
"   c #CF7445",
".  c #CE7446",
"X  c #CF7447",
"o  c #D67543",
"O  c #D77643",
"+  c #D67644",
"@  c #D87643",
"#  c #D77845",
"$  c #D87B48",
"%  c #D97D4A",
"&  c #8F817F",
"*  c #91817F",
"=  c #9A857D",
"-  c #9B867D",
";  c #9D867D",
":  c #9D877D",
">  c #9E877D",
",  c #9F877D",
"<  c #A78B7B",
"1  c #A1887C",
"2  c #A4897C",
"3  c #A88B7B",
"4  c #A98C7B",
"5  c #AB8C7A",
"6  c #AA8C7B",
"7  c #AC8D7A",
"8  c #AE8E7A",
"9  c #AF8E7A",
"0  c #B08E79",
"q  c #B18F79",
"w  c #BC9377",
"e  c #BE9577",
"r  c #B79279",
"t  c #B89278",
"y  c #B99378",
"u  c #B99379",
"i  c #BB9478",
"p  c #BD9578",
"a  c #BF9578",
"s  c #DB8551",
"d  c #DB8552",
"f  c #DC8552",
"g  c #DC8B57",
"h  c #DE8B57",
"j  c #C78A6A",
"k  c #C88A6A",
"l  c #C88B6A",
"z  c #C98C6B",
"x  c #CA8C6B",
"c  c #CA8D6B",
"v  c #CB8E6B",
"b  c #CE906C",
"n  c #CE916C",
"m  c #D0926D",
"M  c #D1946D",
"N  c #D2946D",
"B  c #D2956D",
"V  c #D3956D",
"C  c #D3966D",
"Z  c #D4966D",
"A  c #D5976D",
"S  c #D4976E",
"D  c #D5976E",
"F  c #D8996E",
"G  c #D89B6E",
"H  c #D89A6F",
"J  c #D89B6F",
"K  c #D99B6F",
"L  c #D99C6F",
"P  c #DA9C6F",
"I  c #DB9E6F",
"U  c #DC9E6F",
"Y  c #C09677",
"T  c #C19677",
"R  c #C39777",
"E  c #C49776",
"W  c #CA9571",
"Q  c #C79875",
"!  c #C59876",
"~  c #C79976",
"^  c #C99975",
"/  c #CB9A75",
"(  c #C89976",
")  c #C99A76",
"_  c #CC9B75",
"`  c #CE9C75",
"'  c #CF9C75",
"]  c #D19870",
"[  c #D69F73",
"{  c #D09D75",
"}  c #D19D75",
"|  c #D29D74",
" . c #D39E74",
".. c #D59F74",
"X. c #DC9E70",
"o. c #DD9F70",
"O. c #E09663",
"+. c #E09763",
"@. c #E09764",
"#. c #E19D69",
"$. c #E09D6A",
"%. c #D9A072",
"&. c #D8A073",
"*. c #DAA173",
"=. c #DAA273",
"-. c #DBA273",
";. c #DEA070",
":. c #DFA071",
">. c #DDA373",
",. c #DEA372",
"<. c #DFA472",
"1. c #E2A06C",
"2. c #E2A16D",
"3. c #E0A371",
"4. c #E1A371",
"5. c #E3A470",
"6. c #E2A471",
"7. c #E3A471",
"8. c #E3A571",
"9. c #E0A472",
"0. c #E1A472",
"q. c #E1A572",
"w. c #E3A572",
"e. c #E3A672",
"r. c #E3A673",
"t. c #E4A571",
"y. c #E4A671",
"u. c #E4A572",
"i. c #E4A672",
"p. c #E6A773",
"a. c #5A6987",
"s. c #5B6987",
"d. c #5C6A87",
"f. c #5D6A87",
"g. c #5E6A87",
"h. c #5A6988",
"j. c #5C6B8A",
"k. c #606B86",
"l. c #616C86",
"z. c #626C86",
"x. c #636D86",
"c. c #646D86",
"v. c #686F85",
"b. c #6B7085",
"n. c #6D7184",
"m. c #61708E",
"M. c #747483",
"N. c #757583",
"B. c #767583",
"V. c #717384",
"C. c #787683",
"Z. c #7A7782",
"A. c #7B7782",
"S. c #7F7981",
"D. c #7C7882",
"F. c #807A81",
"G. c #817A81",
"H. c #827A81",
"J. c #877C80",
"K. c #8A7E80",
"L. c #8B7E80",
"P. c #76849F",
"I. c #7785A0",
"U. c #7986A1",
"Y. c #7A87A2",
"T. c #808EA7",
"R. c #8491AA",
"E. c #8592AB",
"W. c #8794AD",
"Q. c #8A97B0",
"!. c #8B98B0",
"~. c #8C99B1",
"^. c #8E9BB2",
"/. c #919EB5",
"(. c #94A0B7",
"). c #94A1B8",
"_. c #95A2B8",
"`. c #96A2B9",
"'. c #98A4BB",
"]. c #99A6BC",
"[. c #9AA7BD",
"{. c #98A7BE",
"}. c #9AA8BF",
"|. c #9CA8BE",
" X c #9DAABF",
".X c #DFAB80",
"XX c #DAB08F",
"oX c #D8B193",
"OX c #D6B39A",
"+X c #D4B6A0",
"@X c #9BAAC0",
"#X c #9DABC2",
"$X c #A1ADC2",
"%X c #A1AEC3",
"&X c #A1AFC5",
"*X c #A3B0C6",
"=X c #A4B0C5",
"-X c #A5B1C6",
";X c #A7B3C8",
":X c #A8B4C8",
">X c #A8B5CA",
",X c #AAB6CA",
"<X c #AAB7CB",
"1X c #ACB8CC",
"2X c #ADBACE",
"3X c #B3BED1",
"4X c #B5C1D3",
"5X c #B9C5D6",
"6X c #B9C5D7",
"7X c #BAC6D7",
"8X c #BBC6D8",
"9X c #BBC7D8",
"0X c #BCC7D8",
"qX c #BCC7D9",
"wX c #BCC8D9",
"eX c #BDC8D9",
"rX c #BDC8DA",
"tX c #BDC9DA",
"yX c #BEC9DA",
"uX c #BFCADB",
"iX c #C8C2C3",
"pX c #C4C6CE",
"aX c #C0CBDC",
"sX c None",
/* pixels */
"t.u.u.u.u.u.u.u.u.u.u.u.u.u.u.u.u.u.u.u.u.u.u.u.u.u.u.u.u.u.u.u.u.u.u.u.u.u.u.u.u.u.u.u.7.$ o o o o O.u.u.u.u.u.u.u.u.u.u.u.u.sX",
"u.i.r.r.r.r.r.r.r.r.r.r.r.e.i.i.i.i.i.i.i.i.i.i.i.i.i.i.i.i.i.i.i.i.i.i.i.i.i.i.i.i.i.i.5.$ O O O O +.i.i.i.i.i.i.i.i.i.i.i.i.u.",
"u.r.iXpXpXpXpXpXpXpXpXpXpXOXi.i.i.i.i.i.i.i.i.i.i.i.i.i.i.i.i.i.i.i.i.i.i.i.i.i.i.i.i.i.5.$ O O O O +.i.i.i.i.i.i.i.i.i.i.i.i.u.",
"u.r.pX[.1XT.:X=X/. X/.].9X+Xi.i.i.i.i.i.i.i.i.i.i.i.i.i.i.i.i.i.i.i.i.i.i.i.i.i.i.i.i.i.5.$ O O O O +.i.i.i.i.i.i.i.i.i.i.i.i.u.",
"u.r.pXE.%Xj.[.).P.Q.I.R.5X+Xi.i.i.i.i.i.i.i.i.i.i.i.i.i.i.i.i.i.i.i.i.i.i.i.i.i.i.i.i.i.5.$ O O O O +.i.i.i.i.i.i.i.i.i.i.i.i.u.",
"u.r.pXE.%Xj.[.).P.Q.I.R.5X+Xi.i.i.i.i.i.i.i.i.i.i.i.i.i.i.i.i.i.i.i.i.i.i.i.i.i.i.i.i.i.5.$ O O O O +.i.i.i.i.i.i.i.i.i.i.i.i.u.",
"u.r.pX`.,XU.-X$X!.].~._.8X+Xi.i.i.i.i.i.i.i.i.i.i.i.i.i.i.i.i.i.i.i.i.i.i.i.i.i.i.i.i.i.5.$ O O O O +.i.i.i.i.i.i.i.i.i.i.i.i.u.",
"u.r.pXwX7X7X7X7X7X7X7X8XuX+Xi.i.i.i.i.i.i.i.i.i.i.i.i.i.i.i.i.i.i.i.i.i.i.i.i.i.i.i.i.i.5.% # # # # @.i.i.i.i.i.i.i.i.i.i.i.i.u.",
"u.r.pX(.P.P.P.P.P.P.P.Y.8X+Xi.i.i.i.i.i.i.i.i.i.i.i.i.i.i.i.i.i.i.i.i.i.i.i.i.i.i.i.i.i.y.5.5.5.5.5.8.i.i.i.i.i.i.i.i.i.i.i.i.u.",
"u.r.pXyXrXrXrXrXrXrXrXrXuX+Xi.i.i.i.i.i.i.i.i.i.i.i.i.i.i.i.i.i.i.i.i.i.i.i.i.i.i.i.i.i.i.i.i.i.i.i.i.i.i.i.i.i.i.i.i.i.i.i.i.u.",
"u.r.pX|.R.R.R.R.R.R.R.W.0X+Xi.i.i.i.i.i.i.i.i.i.i.i.i.i.i.i.i.i.i.i.i.i.i.i.i.i.i.i.i.i.i.i.i.i.i.i.i.i.i.i.i.i.i.i.i.i.i.i.i.u.",
"u.r.pX<X@X@X@X#XtXaXaXaXaX+Xi.i.i.i.i.i.i.i.i.i.i.i.i.i.i.i.i.i.i.i.i.i.i.i.i.i.i.i.i.i.i.i.i.i.i.i.i.i.i.i.i.i.i.i.i.i.i.i.i.u.",
"u.r.pX>X{.{.{.}.rX3X4X;XyX+Xi.i.i.i.i.i.i.i.i.i.i.i.i.i.i.i.i.i.i.i.i.i.i.i.i.i.i.i.i.i.i.i.i.i.i.i.i.i.i.i.i.i.i.i.i.i.i.i.i.u.",
"u.r.pX2X&X&X&X*XyX^.'.m.5X+Xi.i.i.i.i.i.i.i.i.i.i.i.i.i.i.i.i.i.i.i.i.i.i.i.i.i.i.i.i.i.i.i.i.i.i.i.i.i.i.i.i.i.i.i.i.i.i.i.i.u.",
"u.r.pXtXwXwXwXwXuXqXeX6XuX+Xi.i.i.i.i.i.i.i.i.i.i.i.i.i.i.i.i.i.i.i.i.i.i.i.i.i.i.i.i.i.i.i.i.i.i.i.i.i.i.i.i.i.i.i.i.i.i.i.i.u.",
"u.e.XXoXoXoXoXoXoXoXoXoXoX.Xi.i.i.i.i.i.i.i.i.i.i.i.i.i.i.i.i.i.i.i.i.i.i.i.i.i.i.i.i.i.i.i.i.i.i.i.i.i.i.i.i.i.i.i.i.i.i.i.i.u.",
"u.i.i.i.i.i.i.i.i.i.i.i.i.i.i.i.i.i.i.i.i.i.i.i.i.i.i.i.i.i.i.i.i.i.i.i.i.i.i.i.i.i.i.i.i.i.i.i.i.i.i.i.i.i.i.i.i.i.i.i.i.i.i.u.",
"u.i.i.i.i.i.i.i.i.i.i.i.i.i.i.i.i.i.i.i.i.i.i.i.i.i.i.i.i.i.i.i.i.i.i.i.i.i.i.i.i.i.i.i.i.i.i.i.i.i.i.i.i.i.i.i.i.i.i.i.i.i.i.u.",
"u.i.i.i.i.i.i.i.i.i.i.i.i.i.i.i.i.i.i.i.i.i.i.i.i.i.i.i.i.i.i.i.i.i.i.i.i.i.i.i.i.i.i.i.i.i.i.i.i.i.i.i.i.i.i.i.i.i.i.i.i.i.i.u.",
"u.i.i.i.i.i.i.i.i.i.i.i.i.i.i.i.i.i.X.n H i.i.i.i.i.i.4.m b 6.i.i.i.i.i.i.i.i.i.i.i.i.i.i.i.i.i.i.i.i.i.i.i.i.i.i.i.i.i.i.i.i.u.",
"u.i.i.i.i.i.i.i.i.i.i.i.i.i.i.i.i.i.K J 8.i.} < < 5 9.8.6.v 6.i.i.i.i.i.i.i.i.i.i.i.i.i.i.i.i.i.i.i.i.i.i.i.i.i.i.i.i.i.i.i.i.u.",
"u.i.i.i.i.i.i.i.i.i.i.i.i.i.i.i.i.i.4.4.i.*.M.k.z.g.= 0.8.;.8.i.i.o.c v v v v v v c c v v v v v v v v v v M i.i.i.i.i.i.i.i.i.u.",
"u.i.i.i.i.i.i.i.i.i.i.i.i.i.i.i.i.i.i.i.i.G.a.r >.Z.d.e i.i.i.i.i.I N 6.6.[ ^ 6.6.G C %./ E Q %.6.| 0 w 4.n i.i.i.i.i.i.i.i.i.u.",
"u.i.i.i.i.i.i.i.i.i.i.i.i.i.i.i.i.i.i.i.i.! q &.Y v.h.L.q.i.i.i.i.I V q.4 C.n.& *.P S _ 2 * = _ i.u h.D.8.n i.i.i.i.i.i.i.i.i.u.",
"u.i.i.i.i.i.i.i.i.i.i.i.i.i.i.i.i.i.i.i.w.8 N.' w.6 B.` e.i.i.i.i.I V 3 s.h.h.a.S.] S _ 2 * = _ i.u h.D.8.n i.i.i.i.i.i.i.i.i.u.",
"u.i.i.i.i.i.i.i.i.i.i.i.i.i.i.i.i.i.i.i.y x.h.F.q.-.) 0.i.i.i.i.i.I V G.z.k.g.z.c.W S _ 2 * = _ i.i f.H.8.n i.i.i.i.i.i.i.i.i.u.",
"u.i.i.i.i.i.i.i.i.i.i.i.i.i.i.i.i.i.i.i.0.Z.h.t w.G.l.e i.i.i.i.i.I V ,.>.p - >.>.L S _ 2 * = _ i.q.L.=.8.n i.i.i.i.i.i.i.i.i.u.",
"u.i.i.i.i.i.i.i.i.i.i.i.i.i.i.i.i.i.6.6.i.( b.V.A.x.K.*.8.3.8.i.i.I V i.i.~ , 9.i.P S { R a T { i.,.J. .8.n i.i.i.i.i.i.i.i.i.u.",
"u.i.i.i.i.i.i.i.i.i.i.i.i.i.i.i.i.i.K K 8.e._ : : 1 <.8.8.v 6.i.i.I B 8.8.8.Y ..8.L Z 7 > > > 7 8.` ; 9 6.n i.i.i.i.i.i.i.i.i.u.",
"u.i.i.i.i.i.i.i.i.i.i.i.i.i.i.i.i.i.P k A i.i.i.i.i.i.4.c j 6.i.i.U j x x x x x x l j x x x x x x x x x z n i.i.i.i.i.i.i.i.i.u.",
"u.i.i.i.i.i.i.i.i.i.i.i.i.i.i.i.i.i.8.8.8.i.i.i.i.i.i.8.8.8.w.i.i.8.8.8.8.8.8.8.8.8.8.8.8.8.8.8.8.8.8.8.8.8.i.i.i.i.i.i.i.i.i.u.",
"u.i.i.i.i.i.i.i.i.i.i.i.i.2.#.#.$.#.1.i.i.i.i.i.i.i.i.i.i.i.i.i.i.i.i.i.i.i.i.i.i.i.i.i.i.i.i.6.4.i.i.i.i.i.i.i.i.i.i.i.i.i.i.u.",
"u.i.i.i.i.i.i.i.i.i.i.i.i.g O + X O d i.i.i.i.i.i.i.i.i.i.i.i.i.i.i.i.i.i.i.i.i.i.i.i.i.i.i.i.o.D i.i.i.i.i.i.i.i.i.i.i.i.i.i.u.",
"u.i.i.i.i.i.i.i.i.i.i.i.i.g O o . O s i.i.i.i.i.i.i.i.i.i.i.i.i.i.i.i.i.i.i.i.i.i.i.i.i.i.i.i.o.D i.i.i.i.i.i.i.i.i.i.i.i.i.i.u.",
"u.i.i.i.i.i.i.i.i.i.i.i.i.g O o . O s i.i.i.i.i.i.i.i.i.i.i.i.i.i.i.i.i.i.i.i.i.i.i.i.i.i.i.i.o.D i.i.i.i.i.i.i.i.i.i.i.i.i.i.u.",
"u.i.i.i.i.i.i.i.i.i.i.i.i.g O o . O s i.i.i.i.i.i.i.i.i.i.i.i.i.i.i.i.i.i.i.i.i.i.i.i.i.i.i.i.o.D i.i.i.i.i.i.i.i.i.i.i.i.i.i.u.",
"u.i.i.i.i.i.i.i.i.i.i.i.i.g O o . O s i.i.i.i.i.i.i.i.i.i.i.i.i.i.i.i.i.i.i.i.i.i.i.i.i.i.i.i.o.D i.i.i.i.i.i.i.i.i.i.i.i.i.i.u.",
"u.i.i.i.i.i.i.i.i.i.i.i.i.g O o . O s i.i.i.i.i.i.i.i.i.i.i.i.i.i.i.i.i.i.i.i.i.i.i.i.i.i.i.i.o.D i.i.i.i.i.i.i.i.i.i.i.i.i.i.u.",
"u.i.i.i.i.i.i.i.i.i.i.i.i.g O o . O s i.i.i.i.i.i.i.i.i.i.i.i.i.i.i.i.i.i.i.i.i.i.i.i.i.i.i.i.o.D i.i.i.i.i.i.i.i.i.i.i.i.i.i.u.",
"u.i.i.i.i.i.i.i.i.i.i.i.i.g O o . O s i.i.i.i.i.i.i.i.i.i.i.i.i.i.i.i.i.i.i.i.i.i.i.i.i.i.i.i.o.D i.i.i.i.i.i.i.i.i.i.i.i.i.i.u.",
"u.i.i.i.i.i.i.i.i.i.i.i.i.g O o . O s i.i.i.i.i.i.i.i.i.i.i.i.i.i.i.i.i.i.i.i.i.i.i.i.i.i.i.i.o.D i.i.i.i.i.i.i.i.i.i.i.i.i.i.u.",
"u.i.i.i.i.i.i.i.i.i.i.i.i.g O o . O s i.i.i.i.i.i.i.i.i.i.i.i.i.i.i.i.i.i.i.i.i.i.i.i.i.i.i.i.o.D i.i.i.i.i.i.i.i.i.i.i.i.i.i.u.",
"u.i.i.i.i.i.i.i.i.i.i.i.i.g O o . O s i.i.i.i.i.i.i.i.i.i.i.i.i.i.i.i.i.i.i.i.i.i.i.i.i.i.i.i.o.D i.i.i.i.i.i.i.i.i.i.i.i.i.i.u.",
"u.i.i.i.i.i.i.i.i.i.i.i.i.g O o . O s i.i.i.i.i.i.i.i.i.i.i.i.i.i.i.i.i.i.i.i.i.i.i.i.i.i.i.i.o.D i.i.i.i.i.i.i.i.i.i.i.i.i.i.u.",
"u.i.i.i.i.i.i.i.i.i.i.i.i.g O o . O s i.i.i.i.i.i.i.i.i.i.i.i.i.i.i.i.i.i.i.i.i.i.i.i.i.i.i.i.o.D i.i.i.i.i.i.i.i.i.i.i.i.i.i.u.",
"u.i.i.i.i.i.i.i.i.i.i.i.i.g O o . O s i.i.i.i.i.i.i.i.i.i.i.i.i.i.i.i.i.i.i.i.i.i.i.i.i.i.i.i.o.D i.i.i.i.i.i.i.i.i.i.i.i.i.i.u.",
"u.i.i.i.i.i.i.i.i.i.i.i.i.g O o . O s i.i.i.i.i.i.i.i.i.i.i.i.i.i.i.i.i.i.i.i.i.i.i.i.i.i.i.i.o.D i.i.i.i.i.i.i.i.i.i.i.i.i.i.u.",
"u.i.i.i.i.i.i.i.i.i.i.i.i.g O o . O s i.i.i.i.i.i.i.i.i.i.i.i.i.i.i.i.i.i.i.i.i.i.i.i.i.i.i.i.o.D i.i.i.i.i.i.i.i.i.i.i.i.i.i.u.",
"u.i.i.i.i.i.i.i.i.i.i.i.i.g O o . O s i.i.i.i.i.i.i.i.i.i.i.i.i.i.i.i.i.i.i.i.i.i.i.i.i.i.i.i.o.D i.i.i.i.i.i.i.i.i.i.i.i.i.i.u.",
"u.i.i.i.i.i.i.i.i.i.i.i.i.g O o . O s i.i.i.i.i.i.i.i.i.i.i.i.i.i.i.i.i.i.i.i.i.i.i.i.i.i.i.i.o.D i.i.i.i.i.i.i.i.i.i.i.i.i.i.u.",
"u.i.i.i.i.i.i.i.i.i.i.i.i.g O o . O s i.i.i.i.i.i.i.i.i.i.i.i.i.i.i.i.i.i.i.i.i.i.i.i.i.i.i.i.o.D i.i.i.i.i.i.i.i.i.i.i.i.i.i.u.",
"u.i.i.i.i.i.i.i.i.i.i.i.i.g O o . O s i.i.i.i.i.i.i.i.i.i.i.i.i.i.i.i.i.i.i.i.i.i.i.i.i.i.i.i.o.D i.i.i.i.i.i.i.i.i.i.i.i.i.i.u.",
"u.i.i.i.i.i.i.i.i.i.i.i.i.g O o . O s i.i.i.i.i.i.i.i.i.i.i.i.i.i.i.i.i.i.i.i.i.i.i.i.i.i.i.i.o.D i.i.i.i.i.i.i.i.i.i.i.i.i.i.u.",
"u.i.i.i.i.i.i.i.i.i.i.i.i.g O o . O s i.i.i.i.i.i.i.i.i.i.i.i.i.i.i.i.i.i.i.i.i.i.i.i.i.i.i.i.o.D i.i.i.i.i.i.i.i.i.i.i.i.i.i.u.",
"u.i.i.i.i.i.i.i.i.i.i.i.i.g O o . O s i.i.i.i.i.i.i.i.i.i.i.i.i.i.i.i.i.i.i.i.i.i.i.i.i.i.i.i.o.D i.i.i.i.i.i.i.i.i.i.i.i.i.i.u.",
"u.i.i.i.i.i.i.i.i.i.i.i.i.g O o . O s i.i.i.i.i.i.i.i.i.i.i.i.i.i.i.i.i.i.i.i.i.i.i.i.i.i.i.i.o.D i.i.i.i.i.i.i.i.i.i.i.i.i.i.u.",
"u.i.i.i.i.i.i.i.i.i.i.i.i.g O o . O s i.i.i.i.i.i.i.i.i.i.i.i.i.i.i.i.i.i.i.i.i.i.i.i.i.i.i.i.o.D i.i.i.i.i.i.i.i.i.i.i.i.i.i.u.",
"u.i.i.i.i.i.i.i.i.i.i.i.i.g O o . O s i.i.i.i.i.i.i.i.i.i.i.i.i.i.i.i.i.i.i.i.i.i.i.i.i.i.i.i.o.D i.i.i.i.i.i.i.i.i.i.i.i.i.i.u.",
"u.i.i.i.i.i.i.i.i.i.i.i.i.g O o . O s i.i.i.i.i.i.i.i.i.i.i.i.i.i.i.i.i.i.i.i.i.i.i.i.i.i.i.i.o.D i.i.i.i.i.i.i.i.i.i.i.i.i.i.u.",
"u.i.i.i.i.i.i.i.i.i.i.i.i.g O o . O s i.i.i.i.i.i.i.i.i.i.i.i.i.i.i.i.i.i.i.i.i.i.i.i.i.i.i.i.o.D i.i.i.i.i.i.i.i.i.i.i.i.i.i.u.",
"u.i.i.i.i.i.i.i.i.i.i.i.i.g O o . O s i.i.i.i.i.i.i.i.i.i.i.i.i.i.i.i.i.i.i.i.i.i.i.i.i.i.i.i.o.D i.i.i.i.i.i.i.i.i.i.i.i.i.i.u.",
"u.i.i.i.i.i.i.i.i.i.i.i.i.g O o . O s i.i.i.i.i.i.i.i.i.i.i.i.i.i.i.i.i.i.i.i.i.i.i.i.i.i.i.i.o.D i.i.i.i.i.i.i.i.i.i.i.i.i.i.u.",
"u.i.i.i.i.i.i.i.i.i.i.i.i.g O o . O s i.i.i.i.i.i.i.i.i.i.i.i.i.i.i.i.i.i.i.i.i.i.i.i.i.i.i.i.o.D i.i.i.i.i.i.i.i.i.i.i.i.i.i.u.",
"sXp.p.p.p.p.p.p.p.p.p.p.p.h @ @   @ f p.p.p.p.p.p.p.p.p.p.p.p.p.p.p.p.p.p.p.p.p.p.p.p.p.p.p.p.:.F p.p.p.p.p.p.p.p.p.p.p.p.p.p.sX"
};
