/* XPM */
static char *_a815e15367c4c44ad843531bfd83eddOoE5rwLXsg3TitSx[] = {
/* columns rows colors chars-per-pixel */
"64 64 17 1 ",
"  c None",
". c black",
"X c #332625",
"o c #651922",
"O c #69453A",
"+ c #384050",
"@ c #394270",
"# c #784040",
"$ c #CC3333",
"% c #F06050",
"& c #DE9473",
"* c #D8A078",
"= c #3A55B2",
"- c #FFC594",
"; c #F8D0B8",
": c #B5B5D6",
"> c #E8E8F8",
/* pixels */
"                           ooooooooooooooooooo                  ",
"                           ooooooooooooooooooo                  ",
"                           ooooooooooooooooooo                  ",
"                     OOOooo%%%%%%%%%%%%%%%%$$$oooo              ",
"                     OOOooo%%%%%%%%%%%%%%%%$$$oooo              ",
"                     OOOooo%%%%%%%%%%%%%%%%$$$oooo              ",
"              OOOOooo%%%%%%%%%%%%%%%%%%%%%%%%%$$$$ooo           ",
"              OOOOooo%%%%%%%%%%%%%%%%%%%%%%%%%$$$$ooo           ",
"              OOOOooo%%%%%%%%%%%%%%%%%%%%%%%%%$$$$ooo           ",
"              OOOOooo%%%%%%%%%%%%%%%%%%%%%%%%%$$$$ooo           ",
"           ooo$$$$%%%%%%%%%%%%%%%%%%%%%%ooo>>>:::::::ooo        ",
"           ooo$$$$%%%%%%%%%%%%%%%%%%%%%%ooo>>>:::::::ooo        ",
"           ooo$$$$%%%%%%%%%%%%%%%%%%%%%%ooo>>>:::::::ooo        ",
"        ooo$$$oooo$$$%%%%%%%%%$$$$oooooo>>>:::@@@@@@@ooo        ",
"        ooo$$$oooo$$$%%%%%%%%%$$$$oooooo>>>:::@@@@@@@ooo        ",
"        ooo$$$oooo$$$%%%%%%%%%$$$$oooooo>>>:::@@@@@@@ooo        ",
"        ooo$$$$$$$oooooooooooooooo$$$$$$:::@@@::::@@@OOO        ",
"        ooo$$$$$$$oooooooooooooooo$$$$$$:::@@@::::@@@OOO        ",
"        ooo$$$$$$$oooooooooooooooo$$$$$$:::@@@::::@@@OOO        ",
"           OOO$$$$$$$$$$$$$$$$$$$$$$$$$$:::@@@@@@@@@@...        ",
"           OOO$$$$$$$$$$$$$$$$$$$$$$$$$$:::@@@@@@@@@@...        ",
"           OOO$$$$$$$$$$$$$$$$$$$$$$$$$$:::@@@@@@@@@@...        ",
"           ...@@@@@@@@@@$$$$$$$$$$$$$$$$@@@@@@....&&&...        ",
"           ...@@@@@@@@@@$$$$$$$$$$$$$$$$@@@@@@....&&&...        ",
"           ...@@@@@@@@@@$$$$$$$$$$$$$$$$@@@@@@....&&&...        ",
"           ...@@@@@@@@@@$$$$$$$$$$$$$$$$@@@@@@....&&&...        ",
"              ....OOO&&&@@@@@@@@@@@@@@@@---&&&OOOO...           ",
"              ....OOO&&&@@@@@@@@@@@@@@@@---&&&OOOO...           ",
"              ....OOO&&&@@@@@@@@@@@@@@@@---&&&OOOO...           ",
"              ....&&&&&&---...-------...---&&&&&&&...           ",
"              ....&&&&&&---...-------...---&&&&&&&...           ",
"              ....&&&&&&---...-------...---&&&&&&&...           ",
"           XXXXXXXOOO&&&&&&OOO-------OOO&&&&&&OOOO              ",
"           XXXXXXXOOO&&&&&&OOO-------OOO&&&&&&OOOO              ",
"           XXXXXXXOOO&&&&&&OOO-------OOO&&&&&&OOOO              ",
"        ###***@@@@===...OOO&&&&&&&&&&&&&OOO...XXXX...           ",
"        ###***@@@@===...OOO&&&&&&&&&&&&&OOO...XXXX...           ",
"        ###***@@@@===...OOO&&&&&&&&&&&&&OOO...XXXX...           ",
"        ###***@@@@===:::...................=======...           ",
"        ###***@@@@===:::...................=======...           ",
"        ###***@@@@===:::...................=======...           ",
"        ###***@@@@===:::...................=======...           ",
"           .......===@@@===:::>>>>>>>:::XXX@@@@@@@...           ",
"           .......===@@@===:::>>>>>>>:::XXX@@@@@@@...           ",
"           .......===@@@===:::>>>>>>>:::XXX@@@@@@@...           ",
"                  ...======XXX:::::::XXX###;;;;;;;###           ",
"                  ...======XXX:::::::XXX###;;;;;;;###           ",
"                  ...======XXX:::::::XXX###;;;;;;;###           ",
"                  ...XXX===XXX$$$$$$$XXX###*******###           ",
"                  ...XXX===XXX$$$$$$$XXX###*******###           ",
"                  ...XXX===XXX$$$$$$$XXX###*******###           ",
"                  ...XXX@@@OOOXXXXXXXOOO+++.......              ",
"                  ...XXX@@@OOOXXXXXXXOOO+++.......              ",
"                  ...XXX@@@OOOXXXXXXXOOO+++.......              ",
"                     ...@@@++++++++++......                     ",
"                     ...@@@++++++++++......                     ",
"                     ...@@@++++++++++......                     ",
"                     ...@@@++++++++++......                     ",
"                     ...$$$$$$%%%%...                           ",
"                     ...$$$$$$%%%%...                           ",
"                     ...$$$$$$%%%%...                           ",
"                        ..........                              ",
"                        ..........                              ",
"                        ..........                              "
};
