/* XPM */
static char *_1922c2cbeac4c82b901abc7740ac53e9fOaZEgiYmRMNnHE[] = {
/* columns rows colors chars-per-pixel */
"64 64 173 2 ",
"   c None",
".  c #010001",
"X  c #090001",
"o  c #100B0B",
"O  c #18120F",
"+  c #181111",
"@  c #161112",
"#  c #331F1A",
"$  c #361E17",
"%  c #2E221A",
"&  c #322117",
"*  c #31201A",
"=  c #4E3427",
"-  c #47362D",
";  c #4A352B",
":  c #57392B",
">  c #473330",
",  c #5C3E31",
"<  c #594135",
"1  c #6D4936",
"2  c #654C3D",
"3  c #6B4A3A",
"4  c #79513E",
"5  c #6F4C42",
"6  c #724D43",
"7  c #745145",
"8  c #7D5E43",
"9  c #7D5C4C",
"0  c #7D604D",
"q  c #7B6050",
"w  c #835945",
"e  c #87574C",
"r  c #835C49",
"t  c #895F4C",
"y  c #985F51",
"u  c #87604A",
"i  c #89604B",
"p  c #8B6353",
"a  c #8B6557",
"s  c #956355",
"d  c #9B6256",
"f  c #946956",
"g  c #906558",
"h  c #9E6C5C",
"j  c #9A6759",
"k  c #9F735E",
"l  c #A26C5D",
"z  c #AB715F",
"x  c #A5715E",
"c  c #B87A5C",
"v  c #9B6E61",
"b  c #9C7461",
"n  c #947264",
"m  c #A26C61",
"M  c #AA7362",
"N  c #AA7A67",
"B  c #A57C69",
"V  c #AA7B69",
"C  c #B97764",
"Z  c #B37A65",
"A  c #B4776D",
"S  c #B8766A",
"D  c #B37969",
"F  c #BA7D6C",
"G  c #B67765",
"H  c #AE7B70",
"J  c #B67674",
"K  c #B87573",
"L  c #B57873",
"P  c #C37E6E",
"I  c #FFAF0F",
"U  c #FAB40D",
"Y  c #FEAF16",
"T  c #F8B413",
"R  c #FEB523",
"E  c #FDBA2C",
"W  c #FCBD25",
"Q  c #F9BB35",
"!  c #F7CE1A",
"~  c #F3D113",
"^  c #EBE701",
"/  c #EDE50C",
"(  c #F5E307",
")  c #F7EF02",
"_  c #F3E70C",
"`  c #FFF704",
"'  c #FEF902",
"]  c #FEF40D",
"[  c #FEF215",
"{  c #DFC534",
"}  c #FCD72B",
"|  c #FDE538",
" . c #A98067",
".. c #A78069",
"X. c #AB8269",
"o. c #B5836E",
"O. c #BC846F",
"+. c #B3896F",
"@. c #BC8C6C",
"#. c #AD8B74",
"$. c #B68774",
"%. c #BE8270",
"&. c #B38971",
"*. c #BC8B72",
"=. c #BD8C7C",
"-. c #BF957A",
";. c #D69C49",
":. c #E09F4D",
">. c #E7A549",
",. c #E6A454",
"<. c #C2826D",
"1. c #C08272",
"2. c #C18C76",
"3. c #C08C78",
"4. c #C1937A",
"5. c #CC947C",
"6. c #CF9F7E",
"7. c #C09477",
"8. c #D09F7F",
"9. c #D6AF63",
"0. c #CDA277",
"q. c #CDA17C",
"w. c #DFC244",
"e. c #E6CB43",
"r. c #E4C548",
"t. c #FEC44F",
"y. c #FFCF68",
"u. c #FDD16E",
"i. c #FFCC70",
"p. c #C18886",
"a. c #CE9F83",
"s. c #CE9E8A",
"d. c #D69B83",
"f. c #D69B82",
"g. c #D09E83",
"h. c #D09E84",
"j. c #D19D84",
"k. c #D79C84",
"l. c #D59C84",
"z. c #D19E84",
"x. c #D89A82",
"c. c #D09D8A",
"v. c #CDA083",
"b. c #CEA081",
"n. c #CCA084",
"m. c #CEA081",
"M. c #DEAA8C",
"N. c #DCAB8A",
"B. c #E0A88F",
"V. c #EFB392",
"C. c #EAB693",
"Z. c #EAB593",
"A. c #ECB592",
"S. c #EDB492",
"D. c #EFB396",
"F. c #EBB594",
"G. c #EBB494",
"H. c #EBB695",
"J. c #EBB596",
"K. c #E9B596",
"L. c #ECB594",
"P. c #ECB595",
"I. c #ECB494",
"U. c #ECB496",
"Y. c #ECB596",
"T. c #ECB597",
"R. c #EDB597",
"E. c #EDB497",
"W. c #EEB497",
"Q. c #EEB498",
"!. c #EEB499",
"~. c #EBB498",
"^. c #F0B293",
/* pixels */
"                                    w w w w t i i t t i i i t t i i i 1 3 3 3 3 3 1 3 3 3 3 1                                   ",
"                                    w w r r r i i i t t t i t t t t i 1 3 1 3 3 1 3 3 1 3 3 3                                   ",
"                                  n O.$.k l N *.@.$.@.D m x *.*.Z x l D  .N  . .s f k N ..f s u                                 ",
"                              9 w O.V.U.O.O.f.S.U.S.U.d.O.<.C.U.k.<.<.!.H.C.S.V.<.1.x.V.G.O.<.l w 9                             ",
"                              e 8 O.C.U.%.1.d.U.U.U.H.k.1.1.~.H.k.1.1.Q.C.H.C.U.%.1.k.H.^.1.1.l 8 e                             ",
"                              e 8 $.C.U.%.1.d.H.H.U.U.k.1.<.Q.H.k.1.<.Q.C.C.U.U.%.%.k.U.Q.<.1.x 4 e                             ",
"                              e 8 o.H.Q.%.%.k.H.U.H.U.k.1.%.Q.~.k.O.1.Q.S.H.S.U.%.1.k.S.Q.1.1.l u r                             ",
"                              e 8 O.H.Q.%.1.k.U.H.U.H.k.1.%.T.Q.k.1.<.!.C.H.H.T.%.%.k.U.Q.<.1.x 8 w                             ",
"                              e 8 *.Z.U.%.%.d.U.U.H.Q.k.1.O.~.Q.d.O.<.Q.^.C.C.R.<.1.l.U.U.1.%.x 0 e                             ",
"                              e 8 O.Z.U.%.%.l.~.H.U.U.l.1.%.H.H.d.1.1.Q.C.H.H.R.%.1.k.H.Q.<.%.l 8 e                             ",
"                              e 8 *.H.R.F 1.k.~.Q.H.Q.l.P %.~.H.d.1.1.U.S.C.H.Q.%.1.k.S.D.1.<.x 8 w                             ",
"                              e 8 @.C.R.1.1.k.Q.H.U.Q.k.1.%.Q.H.d.1.1.Q.C.H.U.H.%.%.k.U.D.1.1.x 8 e                             ",
"                              e 4 @.C.H.%.1.k.H.Q.H.U.k.P %.!.~.d.<.<.Q.S.H.H.U.%.1.d.S.U.1.1.l 8 e                             ",
"                              e 0 +.C.H.%.1.k.U.H.U.H.k.1.%.~.Q.d.1.1.Q.C.H.U.U.%.1.d.U.U.1.1.x 8 e                             ",
"                              e 4 @.C.Q.%.1.k.U.U.H.U.k.1.%.~.H.d.1.O.Q.S.H.H.U.%.1.k.U.U.1.1.l w e                             ",
"                              e 0 O.C.Q.%.1.k.Q.H.U.H.k.1.O.~.D.d.1.1.D.S.H.H.U.%.%.k.H.^.1.%.x 8 t                             ",
"                              9 w +.V.D.1.1.k.Q.U.H.H.j.1.O.~.H.x.1.<.Q.H.H.H.H.1.1.d.H.U.O.P h w 8                             ",
"                              7 4 X.V.Q.F F 5.M.M.M.M.5.F F M.M.5.F F B.N.M.N.M.F F 5.N.M.F P f 4 7                             ",
"                              2 1 X.S.H.D G 2.j.a.h.a.2.G D h.j.2.Z D j.q.a.v.j.D G 2.a.a.Z S p 1 3                             ",
"                              5 1 X.S.H.Z D 2.a.v.v.v.2.A D a.a.3.D V a.v.a.v.h.D A =.a.a.D A p 1 2                             ",
"                              2 1 b v.h.Z A 3.v.v.a.a.3.D Z v.j.2.Z G h.v.a.v.j.Z D =.a.a.D G p 1 5                             ",
"                              2 1 b m.h.Z D 3.a.h.v.v.2.D D h.j.2.D D h.v.q.v.j.D D 2.v.a.D G a 3 5                             ",
"                              2 1 b v.h.Z D 3.a.b.h.v.2.D D h.h.2.D D h.v.a.v.h.Z D 2.a.s.Z S p 1 2                             ",
"                              2 3 b v.h.Z D 3.v.v.v.v.2.D D h.h.2.D D h.v.a.v.h.Z D 2.a.a.Z F p 3 2                             ",
"                              2 3 b m.b.Z D =.m.h.v.j.2.D D m.h.2.G Z j.a.q.0.a.D D p.0.q.A G p 3 3                             ",
"                              2 3 m b.b.Z A 3.v.v.a.v.2.D D b.h.2.D Z c.v.e.[ ] ` ' ) / / L C p 3 2                             ",
"                              2 3 b b.l.Z D 2.a.v.a.v.2.D D v.j.2.Z Z c.n.e.` ` ' ] _ / ^ H c p 3 3                             ",
"                              2 3 b b.b.Z D 3.v.a.a.a.2.D D a.j.2.D A a.8.r.' ] | | } ! ~ K C p 3 3                             ",
"                              5 3 m v.j.Z D 3.a.a.a.a.2.D Z h.h.2.D D c.b.e.' [ y.i.t.E E K c p 3 5                             ",
"                              < 3 b a.h.Z D 3.a.a.v.a.2.D D h.h.2.D D l.b.e.' ] y.i.t.E W A Z p 3 3                             ",
"                              5 3 k q.h.Z D =.v.a.j.v.2.D D v.h.2.Z D h.a.w.^ ( Q E R Y T A Z p 3 3                             ",
"                              5 3 B a.a.Z D 2.a.a.v.v.2.D D b.h.2.G D j.6.r.^ ( Q E R I U K Z s 3 2                             ",
"                              2 1 b v.a.Z A 3.a.v.h.v.*.D D a.j.2.D D 6.s.9.{ r.;.;.;.>.,.c A p 1 5                             ",
"                              2 1 k v.j.Z D 3.a.a.v.h.2.D D a.h.2.D J 8.0.s.s.s.A Z 2.0.0.Z Z p 3 3                             ",
"                              2 1 b v.j.Z D 3.a.v.h.a.2.D D a.h.2.Z Z 8.s.s.6.6.D A =.s.c.Z C p 3 2                             ",
"                              2 3 b v.a.Z A *.a.j.v.a.2.D D a.a.2.Z D c.q.6.s.c.G G =.a.q.D S p 3 2                             ",
"                              5 3 b j.a.Z Z *.a.a.a.a.*.D D a.a.=.D Z a.a.6.a.a.G Z 2.a.a.G C p 3 2                             ",
"                              < , f 4.4.z z $.4.4.4.4.o.M M 4.4.o.M M 4.-.-.-.-.z x o.4.4.M M e , <                             ",
"                              ; ; u +.$.l l N +.&.+.+.N l h &.o.N h l $.&.+.+.$.l l N &.&.l l 6 = ;                             ",
"                              - ; r +.&.l l N &.&.+.+.N l h &.+.N h h $.#.+.&.&.l l N &.&.h l 7 = ;                             ",
"                              ; = 0 +.&.l l N +.&.&.+.N h h $.&.N l h $.+.+.&.&.l l N +.$.v l 7 = ;                             ",
"                              ; = 0 +.*.l l N &.&.&.&.B l h +.$.N l m $.#.&.+.&.l l N &.$.v l 7 = ;                             ",
"                              ; = 0 +.$.l l B &.&.&.&.B l h $.&.N l h $.&.&.&.&.l l N &.$.j d 6 ; =                             ",
"                              ; ; 9 +.&.l l N &.&.&.&.N l h o.$.N h l $.&.&.&.&.l l B +.$.s y 6 = -                             ",
"                              ; = 0 +.&.l l N +.&.&.X.N l h $.&.N v h $.&.&.&.&.l l N &.&.s y 6 - -                             ",
"                              ; = 9 +.+.l l N +.&.&.&.N l h $.&.N l m $.&.&.&.&.l l N +.&.s y > X X                             ",
"                              ; = 0 +.$.l l B +.&.+.+.N l h $.&.N l l $.&.X.&.&.l l N o.$.s s > . .                             ",
"                              ; = 0 +.$.l l N &.&.&.&.N l h &.&.V l h $.&.&.&.&.h l N +.&.s s ; . .                             ",
"                              ; = r o.&.h m V $.$.&.$.V l l &.&.V m v &.&.&.&.&.m l V &.&.s j - . .                             ",
"                              ; ; 0 &.&.h v V &.&.&.$.B h h &.&.N v v &.&.&.&.&.v v B #.#.g g - . .                             ",
"                          % % * * & $ * * * * * # # % # & # * * # # # * # * & # X X . . X X X . . . . .                         ",
"                          * % * % % # * * * * * % % # % * * * * # % % * * % * % . . . . . . . . . . . .                         ",
"                        o @ @ + O O O + O + O O + O + O O O O O @ O O O + + + @ . . . . . . . . . . . . .                       ",
"                    . . . . . X . . . . . . . . . . . . . . . . . . . . . . . . . . . . . . . . . . . . . . .                   ",
"                                                                                                                                ",
"                                                                                                                                ",
"                                                                                                                                ",
"                                                                                                                                ",
"                                                                                                                                ",
"                                                                                                                                ",
"                                                                                                                                ",
"                                                                                                                                ",
"                                                                                                                                ",
"                                                                                                                                "
};
