/* XPM */
static char *_cf8def36a054dd5f08bdff5a7ac64a23Ach2sedqtcPOB3J[] = {
/* columns rows colors chars-per-pixel */
"64 64 141 2 ",
"   c None",
".  c #010001",
"X  c #0A0404",
"o  c #020308",
"O  c #0E0E0E",
"+  c #160D0D",
"@  c #17120F",
"#  c #18120F",
"$  c #090113",
"%  c #0D0E10",
"&  c #161515",
"*  c #191110",
"=  c #151518",
"-  c #171E1C",
";  c #1C1C1C",
":  c #261B16",
">  c #281A15",
",  c #271F1B",
"<  c #2B1D1B",
"1  c #311F1B",
"2  c #3A2607",
"3  c #332C0B",
"4  c #2D211D",
"5  c #312117",
"6  c #33231C",
"7  c #171D21",
"8  c #1E2122",
"9  c #232323",
"0  c #2F2721",
"q  c #242528",
"w  c #2E2E2E",
"e  c #352520",
"r  c #372E23",
"t  c #3B2D26",
"y  c #3A2E2A",
"u  c #343024",
"i  c #3F312B",
"p  c #2C2E30",
"a  c #553A0D",
"s  c #472F1F",
"d  c #493C11",
"f  c #4D371C",
"g  c #422C26",
"h  c #452D29",
"j  c #482C29",
"k  c #4F3525",
"l  c #41332B",
"z  c #4B352A",
"x  c #4E382C",
"c  c #523323",
"v  c #50332B",
"b  c #54382E",
"n  c #4D3731",
"m  c #4F3B30",
"M  c #553533",
"N  c #533931",
"B  c #5D3E36",
"V  c #623D2E",
"C  c #613D34",
"Z  c #603F38",
"A  c #754D0D",
"S  c #7F590E",
"D  c #6D4B11",
"F  c #6F4E1D",
"G  c #734C1D",
"H  c #554021",
"J  c #5F442C",
"K  c #564237",
"L  c #5F453B",
"P  c #6A4F24",
"I  c #6F5721",
"U  c #654433",
"Y  c #6D4A37",
"T  c #65433B",
"R  c #68443C",
"E  c #664B3C",
"W  c #6B4A39",
"Q  c #6D4F45",
"!  c #6E4E49",
"~  c #704D49",
"^  c #755246",
"/  c #7F5C46",
"(  c #7C5D4B",
")  c #785F52",
"_  c #746056",
"`  c #9D750B",
"'  c #89661F",
"]  c #936A1C",
"[  c #A37116",
"{  c #88583D",
"}  c #8B6A25",
"|  c #976624",
" . c #895646",
".. c #845944",
"X. c #86574B",
"o. c #835949",
"O. c #8B5E4E",
"+. c #86614D",
"@. c #89604C",
"#. c #846051",
"$. c #946B5A",
"%. c #A36D5B",
"&. c #A36C5B",
"*. c #A26E5C",
"=. c #AF7765",
"-. c #B27667",
";. c #CD9D09",
":. c #DF920D",
">. c #DF9E0D",
",. c #D59715",
"<. c #DD9412",
"1. c #D19A17",
"2. c #DE9B19",
"3. c #E28F11",
"4. c #F9B40B",
"5. c #FEAE13",
"6. c #F8AE1F",
"7. c #EBB910",
"8. c #FBB012",
"9. c #F3B618",
"0. c #F8B21F",
"q. c #C59321",
"w. c #C69229",
"e. c #DC9222",
"r. c #FDB627",
"t. c #FCBB23",
"y. c #FDB62A",
"u. c #FCBA2D",
"i. c #FFB930",
"p. c #FBB834",
"a. c #BC8474",
"s. c #BE8372",
"d. c #C1816F",
"f. c #C3806E",
"g. c #C28171",
"h. c #C18271",
"j. c #F8CB5E",
"k. c #FCC960",
"l. c #FECF6F",
"z. c #FDCF70",
"x. c #F9D072",
/* pixels */
"                                    o.o.o...o.@.@.@.@.@.O.O.+.O.@.O.O.W E W W Y Y Y W Y W Q Y                                   ",
"                                    o...o...o.+.O.@.O.O.O.#.O.O.O.O.O.E W E E W E E W E W Y E                                   ",
"                              ) ( $.=.=.-.-.^ t t t u u r r u r u r r 6 6 t i l l l l l i 6 0 K o._                             ",
"                              o...*.g.g.f.f.Q - ; 7 ; ; ; ; - ; ; ; ; - ; q p p p p p w p ; 7 m { (                             ",
"                              X./ *.g.g.s.g.! , ; ; ; ; ; ; ; 9 4 8 9 9 8 q w w w w w w w ; 7 m ..o.                            ",
"                              X./ *.g.g.g.g.! 7 - ; ; ; ; ; w w p w w w w w w w w w w w w ; ; m ..o.                            ",
"                              X./ *.g.s.g.f.~ ; ; - ; ; ; , p w w w w w w w w w w w w w w ; ; n ..o.                            ",
"                              X./ *.g.g.g.s.~ 7 ; ; ; 9 q q w w w w w w w w w w w w q 7 , ; ; m ..o.                            ",
"                              X./ *.g.g.g.s.! ; ; ; ; q w w w w w w w w w w w w w w q ; ; ; ; b ..o.                            ",
"                              X./ *.g.g.g.f.! ; ; 7 9 w w w w w w w w w w w w w w w 9 ; ; ; ; N ..o.                            ",
"                              X./ *.g.s.s.s.! ; ; w w w w w w w w w w w w w w w w w q ; ; ; ; m ..o.                            ",
"                              X./ *.g.g.g.f.! ; - w w w w w w w w p w w w w w w w p 0 ; ; ; 7 N { o.                            ",
"                              X./ *.g.g.g.g.~ ; - w w w w w w w p w w w w w w w w w 9 - ; ; ; m ..o.                            ",
"                              X...*.s.g.g.g.! ; ; w w w w w w w w w w w w w w w w w 9 ; ; ; ; m .. .                            ",
"                              X./ *.h.g.g.s.! ; - p w w w w w w w w w w w w w w w q 4 ; ; ; ; m ..o.                            ",
"                              o./ *.g.f.g.f.~ ; ; w w w w w w w w w w w w w w w - ; - ; ; ; ; b ..o.                            ",
"                              ( o.*.a.a.a.s.! - ; w w w w w w w w w w w w w w w ; ; ; ; ; ; ; N ../                             ",
"                              E Y U C C C V y - : w w w w w w w w w w w w w w w ; ; ; ; ; - ; l Y W                             ",
"                              E W U B B B B y - & w w w w w w w w w w w w w w w ; ; ; ; ; ; ; l Y E                             ",
"                              E W T B B B C y ; ; w w w w w w w w w w w w q q q ; ; ; ; ; ; ; l E E                             ",
"                              E W T B B B B t ; ; w w w w w w w w w w w w q ; ; ; ; ; ; ; ; ; l Y E                             ",
"                              E Y T B B L B t ; ; w w w w w w w w w w w w 9 : ; ; ; ; ; ; ; ; g Y E                             ",
"                              E W T B B B B t ; ; ; ; 9 w w w w q - 4 - ; ; ; ; ; ; ; ; ; ; ; l Y E                             ",
"                              E W U B B B B y ; : ; ; 9 w w w w q ; ; ; ; ; ; ; ; ; - : ; ; ; l Y E                             ",
"                              E W T B B B B t ; , ; ; 7 9 9 q q 4 - ; ; ; ; ; ; ; ; ; ; ; + % t Y E                             ",
"                              E W R L B B Z t 7 ; ; ; , ; ; ; ; ; ; ; ; ; ; ; ; ; ; ; ; - . . r Y E                             ",
"                              E W T B B B C t ; ; ; ; ; ; ; ; ; ; ; ; ; ; ; ; ; ; ; ; ; ; . . e Y E                             ",
"                              E Y U B B Z C t 7 ; ; ; ; ; ; ; ; ; ; ; ; ; ; ; ; ; ; ; ; ; . . 6 Y Q                             ",
"                              E W T B B L B t 7 : ; ; ; ; ; : ; ; ; ; ; ; ; ; ; ; ; ; ; ; . . e Y E                             ",
"                              E W U B B B C t ; ; ; ; ; ; ; ; ; ; ; ; ; ; ; ; ; ; ; ; ; ; . . e Y E                             ",
"                              E Y T B B B B t 7 ; ; ; ; ; ; ; ; ; ; ; ; ; ; : ; ; ; ; ; ; . . r W E                             ",
"                              E Y T Z Z Z C t ; ; ; ; ; ; ; ; ; ; ; ; ; ; ; ; ; ; ; ; = & . . 6 Y E                             ",
"                              E ~ R T T Q Z y , ; - ; ; ; ; ; ; ; ; ; ; ; ; ; ; ; ; O . . . . e W E                             ",
"                              E R R T T Z R l 7 ; - ; ; ; ; ; ; ; ; , ; ; ; ; ; ; ; O . . . . 6 W E                             ",
"                              E R R R T R R h 7 : ; ; ; ; ; ; ; ; ; ; ; ; ; ; ; ; ; % . . . . 6 W E                             ",
"                              Q Y Y R R R R h 7 ; - ; ; ; : ; ; ; ; ; ; ; ; ; ; ; ; O . . . . r Y E                             ",
"                              L U T R R R R h 7 ; ; ; ; ; ; ; ; ; ; ; ; ; ; & & & & X . . . . 6 U T                             ",
"                              x k M R R Z Z i 7 ; - ; ; ; ; ; ; ; ; ; ; ; % . . . . . . . . . : c z                             ",
"                              z x M R T Z Q l ; ; - ; ; ; ; ; ; ; ; - ; ; O . . . . . . . . . : v z                             ",
"                          z.z.v x M Z Q Z Q j ; ; q.w.I 8 ; o X X X O o X . . . . . . . . . . : k z                             ",
"                          x.x.c k M R R T T h ; - i.i.} ; ; . . . . . . . . . . . . . . . . . : k z                             ",
"                          j.j.G F W B T L L k k d y.y.} * = . . . . . . . . . . . . . . . . . : k z                             ",
"                          i.t.e.<.| b b M M ] >.1.5.8.S . o . . . . . . . . . . . . . . . . . : k z                             ",
"                          u.y.,.<.] N N N m ] 3.;.5.4.S . . . . . . . . . . . . . . . . . . . : z n                             ",
"                          9.0.P P J N B N N j 2 3 2.>.A X . . . . . . . . . . . . . . . . . . X + +                             ",
"                          8.5.n c M N M N b < . X :.,.D . . . . . . . . . . . . . . . . . . . . . .                             ",
"                          7.6.f v x N N N N 1 $ X [ ` a . o . . . . . . . . . . . . . . . . . . . .                             ",
"                              z k x N N N N < . . o . o . . . . . . . . . . . . . . . . . . . . . .                             ",
"                              z z b N N M N < . . . . . . . . . . . . . . . . . . . . . . . . . . .                             ",
"                          4 4 5 6 g N M N N g 0 4 4 4 6 < e e < 6 4 4 0 6 6 4 4 . . . . . . . . . . . .                         ",
"                          5 4 5 4 g N N N b g 5 5 5 1 1 5 5 1 6 1 1 5 5 5 5 5 4 . . . . . . . . . . . .                         ",
"                        O @ @ @ * e M M M b e * * @ # # # * * * # # * * * * * # . . . . . . . . . . . . X                       ",
"                    . . . . . . . < N N N N 4 . . . . . . . . . . . . . . . . . . . . . . . . . . . . . . . o                   ",
"                    o . . . . . . < N m m n 4 . . . . . . . . o . . . . . . . . . . . . . . . . . . . . . . o                   ",
"                                    h h h j                                                                                     ",
"                                    h h h j                                                                                     ",
"                                    h h h h                                                                                     ",
"                                    h h h h                                                                                     ",
"                                    h h h j                                                                                     ",
"                                    h h h h                                                                                     ",
"                                    h h h j                                                                                     ",
"                                    h h h j                                                                                     ",
"                                    h h h h                                                                                     ",
"                                    h h h h                                                                                     "
};
