/* XPM */
static char *cat_house__1_1635495857[] = {
/* columns rows colors chars-per-pixel */
"64 64 250 2 ",
"   c #0C0100",
".  c #060108",
"X  c #120400",
"o  c #160705",
"O  c #1D1113",
"+  c #281405",
"@  c #341C08",
"#  c #2A160F",
"$  c #3B281A",
"%  c #3D311F",
"&  c #392B24",
"*  c #3E3321",
"=  c #442C1C",
"-  c #482D1A",
";  c #47311D",
":  c #52371E",
">  c #4E340F",
",  c #432E23",
"<  c #4A2E23",
"1  c #452E2C",
"2  c #443223",
"3  c #4A3224",
"4  c #49342C",
"5  c #553629",
"6  c #483533",
"7  c #386E14",
"8  c #3B7415",
"9  c #3D751A",
"0  c #3D7A1B",
"q  c #3C7A15",
"w  c #3C750E",
"e  c #3A7A20",
"r  c #417D16",
"t  c #43751B",
"y  c #437C1C",
"u  c #49791B",
"i  c #4F7019",
"p  c #5C4226",
"a  c #5E4531",
"s  c #685625",
"d  c #7A5937",
"f  c #6F502E",
"g  c #457D22",
"h  c #4A7D23",
"j  c #497927",
"k  c #567B28",
"l  c #5B7631",
"z  c #666B2E",
"x  c #6D6933",
"c  c #79693A",
"v  c #697A35",
"b  c #73763A",
"n  c #6E712D",
"m  c #4B5615",
"M  c #755A44",
"N  c #76614C",
"B  c #845D31",
"V  c #85683B",
"C  c #906F3F",
"Z  c #8C6D45",
"A  c #866945",
"S  c #936C4B",
"D  c #976D49",
"F  c #877546",
"G  c #94734C",
"H  c #9B734C",
"J  c #997849",
"K  c #9D7451",
"L  c #997855",
"P  c #896F52",
"I  c #A37C4D",
"U  c #A2774B",
"Y  c #A17653",
"T  c #A47C53",
"R  c #A57C59",
"E  c #AA7E56",
"W  c #9A7E61",
"Q  c #AC7F60",
"!  c #3D821A",
"~  c #3E830F",
"^  c #3E8326",
"/  c #45831D",
"(  c #4A841D",
")  c #468B1B",
"_  c #4B8C1D",
"`  c #458615",
"'  c #528D1E",
"]  c #54851B",
"[  c #4D911F",
"{  c #47911E",
"}  c #53921E",
"|  c #59961F",
" . c #458322",
".. c #4B8423",
"X. c #4C8B23",
"o. c #4D8529",
"O. c #4D8B2A",
"+. c #458727",
"@. c #538325",
"#. c #538C24",
"$. c #52862A",
"%. c #538C2B",
"&. c #5A8C2B",
"*. c #5B8728",
"=. c #4D9223",
"-. c #4D912A",
";. c #4B9825",
":. c #549424",
">. c #5A9425",
",. c #559925",
"<. c #5B9A26",
"1. c #55932B",
"2. c #5A942C",
"3. c #569A2B",
"4. c #5B9B2C",
"5. c #568E32",
"6. c #5A8D31",
"7. c #5B8436",
"8. c #559331",
"9. c #5C9432",
"0. c #5C9B32",
"q. c #589837",
"w. c #4C9231",
"e. c #64862E",
"r. c #619D2D",
"t. c #61962A",
"y. c #628C33",
"u. c #698938",
"i. c #78863C",
"p. c #629534",
"a. c #629C33",
"s. c #649B3A",
"d. c #69973A",
"f. c #76953D",
"g. c #728D2E",
"h. c #5CA22D",
"j. c #5AA228",
"k. c #5DA232",
"l. c #63A22E",
"z. c #69A22F",
"x. c #63A333",
"c. c #6AA434",
"v. c #6AAA36",
"b. c #65A339",
"n. c #6AA43B",
"m. c #6AAA3B",
"M. c #64AA37",
"N. c #72AB3C",
"B. c #6BB13C",
"V. c #748944",
"C. c #779946",
"Z. c #6A9142",
"A. c #74A843",
"S. c #70AA44",
"D. c #87823E",
"F. c #868647",
"G. c #96854C",
"H. c #84964A",
"J. c #9A8556",
"K. c #989755",
"L. c #8B9454",
"P. c #A8824E",
"I. c #A48255",
"U. c #AB8354",
"Y. c #A5835B",
"T. c #AB845A",
"R. c #AD8B5C",
"E. c #AA8B57",
"W. c #B3875B",
"Q. c #B48B5C",
"!. c #B88B5B",
"~. c #AA955A",
"^. c #B6925D",
"/. c #98A85A",
"(. c #8AA553",
"). c #A2AD5D",
"_. c #9A8265",
"`. c #A78664",
"'. c #B48D63",
"]. c #A89767",
"[. c #B99665",
"{. c #B79A73",
"}. c #AB9976",
"|. c #99AC69",
" X c #A7A866",
".X c #B8A86A",
"XX c #B9A972",
"oX c #A6BA79",
"OX c #B5BA78",
"+X c #ADB16D",
"@X c #C39C6B",
"#X c #C79966",
"$X c #D19D6C",
"%X c #C49D75",
"&X c #CCA46C",
"*X c #C9A66C",
"=X c #CCA572",
"-X c #CDAB7B",
";X c #C9A874",
":X c #D3A372",
">X c #D4AB73",
",X c #D4AD7A",
"<X c #D9AC77",
"1X c #CBB679",
"2X c #D6B37C",
"3X c #DCB47B",
"4X c #DAB678",
"5X c #D1A26D",
"6X c #E2B57C",
"7X c #E3BA7C",
"8X c #E3B777",
"9X c #B9C77B",
"0X c #ADC173",
"qX c #C5C87C",
"wX c #D4C07B",
"eX c #BCB083",
"rX c #D19C8E",
"tX c #CCAB85",
"yX c #D7AD82",
"uX c #DCBA82",
"iX c #D8B786",
"pX c #DBB993",
"aX c #D4B08F",
"sX c #E3B582",
"dX c #E4BC84",
"fX c #E6BC88",
"gX c #E5BC96",
"hX c #EBB395",
"jX c #EABAAE",
"kX c #B9D18F",
"lX c #D8C687",
"zX c #DAC69A",
"xX c #D1D38B",
"cX c #E4C184",
"vX c #EBC48A",
"bX c #E6C58A",
"nX c #EACA9C",
"mX c #E9C695",
"MX c #E8D896",
"NX c #EECB91",
"BX c #E4E198",
"VX c #D8D1AA",
"CX c #EDC7A2",
"ZX c #F3D7A8",
"AX c #EED1AF",
"SX c #EAE5A5",
"DX c #E8EBB1",
"FX c #F3E8B5",
"GX c #D9E196",
"HX c #F7DCC2",
/* pixels */
"[ ` h.,.=.h.4.4.x.<.x.l.<.x.x.} [ h.{ { <.<.' v.| l.j.3.8.q.Z.a.d.4._ | | j._ _ w.-.-.0.:.#.q.w.q / q...y ..9 o.8.8 o.g 9 7 0 9 ",
"_ :.{ 3.,.x.:.:.3.4.v.4.M.l.:.} 4.:.3.,.,.c.M.l.v.| j.l.x.4.) 9.$.9.4.<.z.h.,.X.-.8.x.>.' #.8. ./ q X.#./ r / y $.g o.g 9 7 g 9 ",
"~ ` { :.:.[ 4.<._ :.x.4.4.h.,.} #.c.l.4.a.m.h.l.B.M.j.k.h.h.<.:.8.w.1.>.n.>.&.%.3.=.1.u u ] &.h ..%.../  ...O.$. .y t O.o.8 o.O.",
") ` { 3.) 4.4.:.<.` _ x.4.<.| x.r.t.a.r.:.h.S.3.j.j.B.j.l.l.<.} -.8.O.%.*.a.2.( 0.X.#.>.2.#.#.#.( 1.1./ ..O.g ..g O.y y 9 7 ....",
"{ [ ,.h._ 3.4.=.:._ _ x.l.h._ <.4.t.m.} l.:.k.0.M.l.N.z.l.| r.r.O.1.%.s...2.%.( O.n.*.( 1./ / 1.X.O.9.9.X. .o.O.y g ..5.$.9 y O.",
",.h.h.4.4._ x.x.<.X.<.:.} 4.<.:.2.r.d.<.r.l.,.a.x.m.d.c.| | 4.4.:.9.p.s.X.#.1.( #.9.>.&.X./ =./ 0.1.r O.8.9.s.y 8.5.5.o.y  .....",
",.,.) { ;.=.>.4.:.` x.v.x.<.<.>.Z.C.y.n.#.N.a.x.s.p.s.A.v.x.>.a.c.t.] a.1.o.X.8.p.s.O.O.-.=.( >.( 8.%.#.X.....8 O.y ....y r ..g ",
"4._ 4.,.h.:.3.4.:.<.4.r.r.:.:.A.C.9XoX|.i.t.n.0.S.0...p.A.4.b.x.t.t.#.>.%.q.5.y.u.k 6.b.+.:.@.r ( 8 O.X.9  ...r 5...%.o.g  .$.8 ",
":.[ =.,.2.,.4.:.b.a._ >.<.<.l.d.|.VXAXVXeXj %.1.8.w.$.w.q.X.0.#.] | >.2.O.Z.l v V.P u.6.( / #.O.1.O.r O...O...( %.%.O.%.%.O.o.9 ",
"=.) 3.4.,.X.` 0.x.' r.m.4.:.M.f.eXAXHXjXVX|.y.%.q.s.Z.q.o.O.%.>.*.t.2.9.Z.oX}.eXeXP i.h %.:.:.9.0.%.1.8 ..2.r #.5...%.h ..$.g r ",
"3.3.) 4.S.x._ x.:.#.<.:.x.>.h.A.eXzXjXHXVXVX(.*.y.H.Z.Z.C.(.Z.l 7.5.y.V.eXzXrXrXrX}.H.7.4.1.#.6.%.#.%.0.,.r ( r ( %.....$.8 y o.",
") [ _ [ =.4.x._ _ X.x.a.r.4.M.g.J.aXjXjXjXVXGXxXxXDXDXDXDXFXDXDXkXkXoXeXpXjXrXhXrX{.V.0.:.:.%.>.2.1.1.0.4.9 y %.#...r y y y o.8 ",
"h.~ :.:.( =.>.0.2.>.4.a.:.:.S.N.D.K.1XpXCXZXMXBXBXMXFXFXSXZXFXFXFXFXFXZXgXCXjXgXtXL.*.#.` _ 9.&.a.4.9.X./ X.( a.%.%.r g y y 9 o.",
"h.,.:.) 4.x.4.:._ v.:.:.r.x.l.N.] g..XpXCXgX2X1XuXmXhXmXmXzXAXZXCXCXCXgXgXCXgXtX Xu.y.( ` X.0.2.9.9.X.0.X.( 1.#.9.y ..8.y 0 t e ",
"4.:.1.x.x.k.x.( :.b.2.4.r.l.<.>.<.g. XiXpXtXiXuXbX[.:XmXZX*XI.gXMXnXnXnXCXyX'.[.i.&.d.:.1.3.0.1.2.4.X.:.4.#...>./ #.s.o.9 g 7 g ",
"{ { 0.k.4.4.X.:.4.' :.r.:.:.<.<.t.t./.pXH f XX[.T I.iXnXlXbX%XT [.;X-XT %XsX=XD.k p.*.<.,.8.1.X.:.,.X.( _ / #...p.q.h o.5.7 +.e ",
";.3.4.4.p.>.1.:.! 4.l.X.:.>.} l.j.` /.lX~.J s T yXnX}.J.].tXmXpXY.c d d J uX1XD.*.>.p.>.%.#.3.1...1.=. .` q.X.9.s.Z.y g 5.o.9  .",
"=.3.a.4.%.:.0.w 0.k.x.>.x.v.l.` l.t./.iXlXbXnXCXmXpX: + > ;XgXfXnXiX2XpXiXwX).g.@.@.a.( >.2.-.0.1.X.X.X./ O.:.O.b...9 ..y 8 9 9 ",
"=._ :.2.m.4.k.4.M.k.4.l.' <.<.a.n.i.lXnXmXmXAXmXyXgX].p XX2X<X3XmXmXvXdXuX1X0Xg.p.#.[ a.*.' 4.:.0.>.` ..0 ` X./  .9 g 5.o.y e  .",
"#.#.<._ 2.4.k.M.k.k.M.:.| >._ a.d.H.ZXnXbXCXmXgXfX@XL f tX@X>X6XsXfX6X6XvXlXwX(.&._ _ _ t.t.*.p.9.#.1.....:.7 ..8.O.y 9 g o.g 5.",
"#.#.x.x.' _ <.h.3.3.h.<.x.:.:.t.g.qXnXfXdX3X,XyXfXI c V V ^.dX>X3X6XsXfXvXvXxXD.@.:.X.=.=.2.>.>.>.p...( 2.2./ X./ 0  .0 g o.y h ",
"( 0.>.0.} :.l.,.,.[ ,.x.r.( :.a.).BXvXdXdX4X,X>X>X3X,XiX3X4X3X3X<XdXfX7X7XvXMX0Xe.#. .4.1.( #.#.9.2.X.X.&.9.( y 1.+.O. .0 g 7 9 ",
"4.4...:.:.4.:.4.r.:.v.,.x.%.a.f.GXMXbXfX4X*X2XdX7X>X=X-X&X>X>X>X7X4X7XvXvXdXbXGX/.t &.8.8./ 0.-.O.-.X.9.8.#.#.q q.O. . .O.8.j g ",
"X.X.k.4._ m.<.' 2.#.n.1.4.s.u.9XxXlXuX7X4X2XuXuX4X5X=X*X=X>X=X2X>X7XcX7XdXcXlXbXBXOX7.y.$.%...=./ ! X. .y ( t ..1.O.O.O.g o.$.$.",
"%.q -.X.;.X.3.#.*.p.1.S.4.d.OXGXlXlXsXfX8X7XbX2X>X<X<X:X:X<X<X,X2X2XwXbXcXcXfXNXMXSXxXC.v k ] ..8.;.O. ...#.y &.....%. . .0 $.o.",
"2...-.=.=.X.X...' a.#.9.d.9XMXNXmXuXNXsX7X8X4X7X<X>X:X:X$X5X<X,X>X4X4X7X7XdXvXvXNXMXMXSXGX(.e.| X.+. ...%.2.%.%.....8.O.9  .+.e ",
"s.%./ ) 1.! q.X.0.5.d.u.OXSXbXbXdXvXfX7X7X8X>X<X$X#X:X:X$X$X$X:X&X:X>X4X8XvXvXvXvXvXbXbXMXBXqXH.&.o.%.6.%.t 2.#.( p.5.$.9 0 g e ",
"u @./ 1./ / / +.q.p.u.9XSXbXNXmXvXvX7X8X>X8X<X&X5X#X#X$X#X$X#X@X:X=X>X7X7X8X8X8X7XdXdXfXcXMXBXqXC.*.y.@.@.....%.$.0.h ..5.g  .g ",
"1.( #.w ..%.! 1.q.u.9XMXbXcXdXdXsX!.fX6X6X6X<X=X5X&X5X5X$X&X=X>X:X:X:X>X8X8X8X6X4X7X6X<X7XNX7XxXxXi.i g.@.&.1.8...r @.h $.5.O.+.",
"t.#.#.( r ..%.8.k (.BXlXvXvXvXuXiXV =XfXsX<XyX-XiXiXyXyX>X=X-XtXaXaXsXyX8X8X4X<XE.~.sXsXvX7X7XwXlXqXK.e.d.s.%./ X.X.%...g ..e g ",
"*.:.>.2.0./ 9.u (.xX7XcX7XbX4XiXpXV .XbXsXgXpXtXeXL f p p a d M A `.%X:XdX6X7XcXC P.hXyXsX6X4XwX4XwXqXi.@.6. .8./ -.8 r g g h o.",
"] r.#.( X.9.&.).MXNXbXcXcX4X2XlX2Xd 2XuXiXtXA = + o o @ = < , 2 : 5 f A {.tX2XiXZ '.fX:XsX#XE.*X*X*X*XqXC.@.:.0.=. .h ..t 7 9 g ",
"u ( X.O.-.s.g.qXxX4XdX3X[.;XiXfXL L bXiX].> X . X # 5 5 5 5 6 4 3 5 < : f K %XaX;XV #XyXyXD J -X>X*X*XqX/.i #.X.,...t %.t t $.j ",
"#.#.4.9.1.O.H.lX2X3X3XbXd %XgX%Xd aXaXJ.@   o . & 6 5 5 3 3 4 2 2 2 1 < < < M '.:X%XD B B B *X*X*X*X&X[.XXi.@.] 2.#.( ..g o.7.9.",
">.:.%.O. .k +XlX3X3X3XuXC s V f {.aX}.p   X . O 1 1 < < - ; 3 ; 3 , , 1 5 - : f `.tX;XT H @X#X#X[.=X#X^.*X Xk  .8.X. .+.O.+. .O.",
"#.#.-.1.6.A.qX>X<X<X&X>XwXV d '.-X{.P + X   O & 6 1 < < ; ; ; , < 3 < , 1 ; - - f `.{.,X$X[.^.^.^.#X#X#X~.XXV.j o.+. .O.8.0 e 9 ",
"_ ` +.O.%.).1X#X$X$X:X5X[.1X-X,X@X{.=   O . O * 6 6 < < 2 3 3 < < 2 2 2 % $ % 3 - A '.`.W.#X#XW.E.!.#X^.~./.|.e j j  .:.#.r y / ",
":._ X.q @.|.1X@X:X#X#X#X.X[.[.[.=XW + o . . O * 6 , 2 2 ; 2 < 5 < ; ; 2 2 2 * $ = a `.T.!.W.E !.U.E.E.E.~.~.eXl l g  .X.u u u ..",
"#.#.X.0 *. X=X#X#X#X^.^.!.#X[.#X@XS o X . . # $ * ; 2 ; % 2 < < = 3 = $ % * , , = 5 `.U.E I I E T Y.I E.I.].0X7.7.g / / @.] r y ",
"2.%./ 8.u./.[.'.W.[.#X!.[.W.!.#X@XI.@   X . X * % * * * % , , 1 1 2 2 % , * , 2 , f Y.I E E E I T T I.L I.K.kXj j $.9  .%...t t ",
"&...y $.C.9X].Q.[.'.!.!.'.W.W.!.^.{.P +       # & & & * & & * , 4 6 1 * , , < = : S Y.T P.I I U Y R K R L oXZ.t g h 9 9.8.g g 8 ",
"9.2.&.y e.xX.X^.'.Q.E W.W.W.W.W.^.W.{.P @       o # & 6 6 4 1 4 6 6 4 4 , = = : A Q T.P.P.G.I U Y K Q L J.eXu.%.u p.p.$.g y  .9 ",
"8.%.X.%.p.0XXX^.[.Q.T.E E T.W.W.'.'.[.'.L a o o     o + # $ $ $ $ @ # @ @ 5 d L `.'.I I P.J G G G L S S OXL.7.....( y.k t g O.e ",
"%.r X.1.( H.qX~.'.'.W.R.Y.T.T.W.E R.R.R.{.{._.N p - @ # $ @ # @ $ < a M P W Q `.E E I J K J G S A G A W L.u.j 9...( &.h j +.^ ^ ",
"X.X.k.4.:.C./.+X~.~.Q.R.Y.Y.U.T.W.U.I P.R.U.E.].{.`.Y.`.W _.W _.Q `.`.`.`.`.Y.T U Y D D D S S P F F c x x |.C.i 8.O...o.g w.w.^ ",
"-.k.X.X.1.2.p.). X~.R.T.I.I.T I.T U.U.E P.E.R.I.T E Y.R.U.R R Y.Y.Y L R Y.Y U U H D D S S S S A c x b z m m L.V.q.w.h  .O.w.e j ",
"X.4.<.a._ 3.c.&.(.K.E.I.L P.T I T T Y E T U U.I R R R E T I T U.U U H Y K K J J D J D S S S A c z b 7.u.Z.l z L.Z.+.O...y y 8 t ",
"_ =.l.4.{ =.,.n.e.H.K.G.G.G.J J H T Y Y R Y Y H Y R R Y U U Y Y H U U H K K H Z C Z V V A c d x v u.o.+.7.V.x F V.e ..9 u @.r j ",
"X.#.,.:.h.{ j.m.x.d.C.f.D.D.D.F.G G G G G H K G K D K K Y D K D D D D H D S D Z Z A c c x b b v d.&.O.q.j v b F |.7.y t u $.0 q.",
"0._ 4.1.x.M.h.,.M.x.p.&.d.f.i.i.F.F F F F F F F A Z Z G Z P S A A V c V A c c V x x z v v u.u.y.p...+.+.l v b L.H.j y %.@...e ^ ",
"#.#.>.2.>.} ,.) 3.m.b.2.d.f.d.e.C.u.u.u.u.V.b b b b b b x x c x z v v v l v v l u.e.u.y.*.&.,.9.2.2.o.$.z b F.L.H.$.8 ..g t 9 9 ",
"#.r.a.x.>.#.<._ ` :.0.:.:.9.p.9.q.6.s.p.p.d.y.u.V.V.V.C.V.V.V.v y.y.y.d.u.u.y.e.k t.9.>.:.+.3.=.X.#.$.k i.G.G.F.A.Z.y h &.h j e ",
"( _ r.a.r.r.*.} >.=.8.k.-.-.k.0.0.1.s.9.2.a.p.s.p.%.d.Z.p.%.9.6.p.6.&.p.$.@.&.2.#.#.a.X.:.<.:._ :.( &.u.F.G.F.u.y.8.%...*.h j j ",
"4.3.4.x.c.s.>.:.,.x.3.3.k.3.1.;.a.0.x.,.1.2.0.m.0.1.n.m.b.X.O.:.#.#.%.%.../ %.1.%.a.4.:.1.,.4.[ a.p.C.(.i.i.b *.O. .1...t 7 9 j ",
"k.j.! 3.0.4.x.X.#.S.>.=.h.M.M.M.,.>.>.:.>.>.:.>.a.<.r.x.4._ ' >.%.( o.8.5. .%.8.%.%.9.#.( >.2.4.4.0.A.V.k k e.&.8.X.#.%.t g e e ",
";.! ;.;._ X.0.0.-.:.4.x.} >.v.m.4.>.#.#.<.0.4.2.#.>.<.c.r.>.>.r.2.O.%.$.%...1. .O.%.#.#.( #.2.%.0.0.*.*.k *.( 0.1. .q y t e e ^ ",
";.{ ) X.=.k.0.X.1.X.x.4.c.l.z.z.[ j.,.M.,.=.x.x.<.r.&.2.d.d.t.p.#.@.p.2.0...X.X.2.b.X.0._ #.4.<.1.:.d.8.8.!  .1.O.=.q r ..g g e ",
":.;.) 4.S.3.-.0.;.) k.,.4.t.t.z.l.4.:.,.3.v.4.2.>.s.4.0.a.s.2.%.>.s.a.9.( #.:.1.2.0.0.4.2.#.*.#.8.%.#.8.w.! ! ! / %.y ....9 +.e ",
":.:.:.x.3.=. .k.0.-.3.k.r.<.z.l.<.>.x.:.4.4.,.0.0.s.a.X.X.4.X.1.2.2.t.a.#.#.#.,.X.2.1.` r.>...a.p.%.8.! ^ w./ +.:.X.&.&...g j j ",
"r.` <.X.3.1.,.;.b.h.;.4.<.} c.c.#.%.p.0.a._ 1.1.X.3.;.X.k./ a._ @.1.&.>.>.2.1.%.>.( X.+.r #.#.#.9.X./ ) +.=...( %.%.( %.5.o.$.t ",
"<._ r.4.4.X.4.4.3.;.k.k.x.:.:.N.1.2.8.n.s.9.a.,.x.a.` 4.r.l.c.l.2.a.#.1.1.0.#.0.3.X.1.S.X.O.O.r y ( 0 +.O.y ..y 8.$.&.%.g o...t ",
":.4.` <.X.:.3.4.=.) M.k.h.4.4.4.4.a.t.n.:.x.b.x.v.:.v.x.N.r.<.r.s.0.%.1.8.....9.9.s.O.%.1.X...1.#.9.4.+.y ....8 u / y y 8 r $.y ",
";.h.3.3.,.:.M.c.2.X.1.3.=.4.b._ <.<.<.| <.x.<.h.x.l.x.x.r.' 2.r.,.2.a.9.#.X.#...#.2.%.%.O.y ( y 1.1./ 8.8.8.q...s.$.8.O.(  . . .",
";.! h.h.,.4.:._ :.) _ 4.a.a._ 4.<.l.v.,.v.} <.v.l.v.x.x.<.r.a.x.#...#.S.( >.&.( #.s.9.@.#...O.&.%.O.1.8. .1.$.o.g / O.1...0 ! +."
};
