/* XPM */
static char *result[] = {
/* columns rows colors chars-per-pixel */
"64 64 223 2 ",
"   c #2C2228",
".  c #3B2D2A",
"X  c #31282D",
"o  c #3F312D",
"O  c #372E32",
"+  c #3E353B",
"@  c #393033",
"#  c #743B1E",
"$  c #773A1C",
"%  c #6F3A1E",
"&  c #4B2B2C",
"*  c #4C3C3A",
"=  c #433438",
"-  c #5B3E3A",
";  c #513738",
":  c #492F2F",
">  c #6D3426",
",  c #6C3A26",
"<  c #6C3729",
"1  c #6D3B2A",
"2  c #673A2A",
"3  c #723C25",
"4  c #733D2B",
"5  c #793E2C",
"6  c #743924",
"7  c #623E34",
"8  c #623E3E",
"9  c #683E31",
"0  c #743F30",
"q  c #55413B",
"w  c #5B423B",
"e  c #5C493F",
"r  c #5A4037",
"t  c #6E402B",
"y  c #7C4326",
"u  c #74422D",
"i  c #7B442D",
"p  c #7D492C",
"a  c #754124",
"s  c #60453B",
"d  c #6A4439",
"f  c #644639",
"g  c #754333",
"h  c #7B4532",
"j  c #7D4A35",
"k  c #7B4539",
"l  c #744D3B",
"z  c #7C4C3B",
"x  c #734638",
"c  c #7E513D",
"v  c #4C3E42",
"b  c #463D42",
"n  c #553E40",
"m  c #4C4349",
"M  c #5E4944",
"N  c #55484B",
"B  c #574F54",
"V  c #604243",
"C  c #654D48",
"Z  c #7C4E41",
"A  c #724B41",
"S  c #69534E",
"D  c #755245",
"F  c #7E5242",
"G  c #735349",
"H  c #79554A",
"J  c #7D5A4E",
"K  c #6B4E51",
"L  c #655555",
"P  c #6B5652",
"I  c #6C5954",
"U  c #68585C",
"Y  c #755C54",
"T  c #7B5E54",
"R  c #755A5B",
"E  c #7A5B5A",
"W  c #795457",
"Q  c #72615D",
"!  c #7B6056",
"~  c #6C5D63",
"^  c #645865",
"/  c #775D66",
"(  c #7C6363",
")  c #7D6A66",
"_  c #7B6D6D",
"`  c #75686C",
"'  c #6E6272",
"]  c #776C73",
"[  c #824A2D",
"{  c #864726",
"}  c #824C35",
"|  c #884E34",
" . c #844E3B",
".. c #884E39",
"X. c #824737",
"o. c #845135",
"O. c #8C5436",
"+. c #84523D",
"@. c #8C553B",
"#. c #8C583B",
"$. c #915534",
"%. c #91553B",
"&. c #91593B",
"*. c #925836",
"=. c #8F502F",
"-. c #854E41",
";. c #8A4F40",
":. c #855443",
">. c #8B5542",
",. c #845945",
"<. c #8A5943",
"1. c #8C5449",
"2. c #83594A",
"3. c #8A5949",
"4. c #81564A",
"5. c #915642",
"6. c #925C46",
"7. c #805950",
"8. c #976449",
"9. c #906758",
"0. c #A07057",
"q. c #826A66",
"w. c #85656C",
"e. c #86656A",
"r. c #9C756A",
"t. c #9C7363",
"y. c #87747A",
"u. c #947C73",
"i. c #9A6C64",
"p. c #A67D6D",
"a. c #8F807D",
"s. c #94857C",
"d. c #B2867D",
"f. c #746F87",
"g. c #887E84",
"h. c #8C858A",
"j. c #968582",
"k. c #9B8C83",
"l. c #9C8E8B",
"z. c #9D8787",
"x. c #9E918C",
"c. c #958D95",
"v. c #999196",
"b. c #A48E85",
"n. c #A48F88",
"m. c #AA978C",
"M. c #A89997",
"N. c #B19C9D",
"B. c #BA9497",
"V. c #BAA29E",
"C. c #B5A89F",
"Z. c #A89AA5",
"A. c #BC9EA5",
"S. c #B69CA6",
"D. c #A09AB4",
"F. c #ACA3AD",
"G. c #AEAFAC",
"H. c #ABA4A8",
"J. c #B3A5A4",
"K. c #BCA1A5",
"L. c #B2AFAD",
"P. c #BAADAA",
"I. c #B8AAA6",
"U. c #AFB0AD",
"Y. c #B2B2AE",
"T. c #AFAEB3",
"R. c #ADA5BB",
"E. c #B4AEB2",
"W. c #B7AEBA",
"Q. c #AFB1B1",
"!. c #B2B2B2",
"~. c #B9B6B4",
"^. c #B7B8B4",
"/. c #BAB9B5",
"(. c #B5B5B9",
"). c #BAB9B9",
"_. c #C09E9A",
"`. c #C29EA6",
"'. c #C2A3A6",
"]. c #C7B5B5",
"[. c #C1B5AE",
"{. c #E0BBBF",
"}. c #AEA8C2",
"|. c #C7BCC8",
" X c #C0BAD4",
".X c #C7C2CC",
"XX c #CEC4D5",
"oX c #CCC9D5",
"OX c #D9CED3",
"+X c #D9CDDB",
"@X c #D5CBD6",
"#X c #DAD1D3",
"$X c #DCD6DC",
"%X c #D7C4C8",
"&X c #E3CBCB",
"*X c #EBC8CE",
"=X c #ECCBD2",
"-X c #E6CCD3",
";X c #E3DBDE",
":X c #EDDCDB",
">X c #E8D3D8",
",X c #F5D9DE",
"<X c #F0D7DD",
"1X c #DAD5ED",
"2X c #DCDDED",
"3X c #D9D8E5",
"4X c #D3CCE7",
"5X c #E2DCE4",
"6X c #E9DDE9",
"7X c #F4DDE2",
"8X c #E2DFF2",
"9X c #DDE2E7",
"0X c #E2E5EB",
"qX c #E8E6E9",
"wX c #F1E9EE",
"eX c #E5E2F3",
"rX c #EBEBF3",
"tX c #F1EEF5",
"yX c #F4F3F5",
"uX c #FAF4F4",
"iX c #FDFDFE",
"pX c #F3F7F9",
"aX c None",
/* pixels */
"aXaXaXaXaXaXaXaXaXaXaXaXaXaXaXaXaXaXwXuXiXiXiXaXaXaXaXiXiXiXiXiXtXaXaXaXaXaXaXaXaXaXaXaXaXaXaXaXaXaXaXaXaXaXaXaXaXaXaXaXaXaXaXaX",
"aXaXaXaXaXaXaXaXaXaXaXaXaXaXaXaXaX0X3XqXiXiXiXiXiXiXiXiXiXiXiXiXrX9X0XpXaXaXaXaXaXaXaXaXaXaXaXaXaXaXaXaXaXaXaXaXaXaXaXaXaXaXaXaX",
"aXaXaXaXaXaXaXaXaXaXaXaXaXaXaXaXyX0X$XqXyXpXuXuXuXuXuXuXuXuXuXtXqX3XqXwXyXiXaXaXaXaXaXaXaXaXaXaXaXaXaXaXaXaXaXaXaXaXaXaXaXaXaXaX",
"aXaXaXaXaXaXaXaXaXaXaXaXaXaXeXeX0X$X$X$X;X:X:X:X:X<X:X7X7X7X7X<X>X>X>X:X7XyXaXaXaXaXaXaXaXaXaXaXaXaXaXaXaXaXaXaXaXaXaXaXaXaXaXaX",
"aXaXaXaXaXaXaXaXaXaXaXaXaX1X1X1X3X@XOX#X#X#X&X&X&X&X&X=X=X=X*X*X&X&X&X-X>XwXaXaXaXaXaXaXaXaXaXaXaXaXaXaXaXaXaXaXaXaXaXaXaXaXaXaX",
"aXaXaXaXaXaXaXtXtX8X8X1X1X1X}.}.R.F.H.J.J.J.C.V.V.V.V.K.'.'.`.`.S.K.J.K.P.OXrXaXaXaXaXaXaXaXaXaXaXaXaXaX2XtXqX@X|..XaXaXaXaXaXaX",
"aXaXaXaXaXiXyX8X1X1X8X1X1X1XR.f.f.] ] ] ] _ ) ( q.) q.e.w.w.w.w.w.w.e.w.y.(.3X2X2X2XrXaXaXaXaXaXaXaXaX3X3X5XOXZ.y.c.oXaXaXaXaXaX",
"aXaXaXaXaXqX;XoXXXXX X+X X Xv.' ~ ~ Q Q Q Q R Y J Y T T e.W 7./ R R R W q.Z. XoXoX@X5XuXuXuXaXaXaXpX0X3X#X%X].n.( y.W..XaXaXaXaX",
"aXaXaXaXC.s.s.r.r.r.r.r.t.t.9.F 4.,.,.2.2.2.:.:.:.<.:.,.,.4.,.,.2.2.2.2.2.9.r.r.r.p.B.=X,X,X,X7X6X6X3X3X[.d.0.8.#.J Q ) M.aXaXaX",
"aXaXaXaXm.! J #.<.>.#.<.#.#.O.O.#.#.:.#.<.@.@.>.>.>.<.<.@.#.@.<.>.:.:.+.:.,.3.<.3.9.d.{.*X*X*X=X+X+X+X+X_.8.*.O.$.c f e k.aXaXaX",
"aXaXaXaXm.J H c } j j j o.*.o.p } o.<.o.j j @.>.>.>.@.+.#.+.@.@.o.c l j j +.:.:.z +.i.B.`.`.`.S.Z.Z.F.F.d.6.*.$.$.p e e x.aXaXaX",
"aXaXaXaXm.! D u a 1 a a o.*.p a a @.#.j 3 u o.>.>.>.<.:.#.#.#.+.g t 1 t t j >. .u 4 Z e.e.e.e./ ^ ^ ' ] ! #.*.$.=.o.f e s.aXaXaX",
"aXaXaXaXb.! D 1 , 3 3 u O.#.p % a } #.} , 3 } @.@.>.%.@.#.#.o.o.i t , , 1 l :. .u 1 x W 7.W W K v N ^ ^ Y #.O.$.O.o.w M s.aXaXaX",
"aXaXaXaXb.T D 1 , g j X.#.#.p , 3 o.+.j % , y i } %.%.@.&.%.@.#.i 2 2 , 1 X.:...4 6 g H 7.Z d d 8 s G H F p i | #.o.e M k.aXaXaX",
"aXaXaXaXb.T G 0 < X.1.1.>.@.i , a o.o.p # % # $ { O.&.%.%.%.%.O.i 2 , , 1 j @...4 6 h <.-.g 1 2 2 t z :.z 3 3 } @.+.e M k.aXaXaX",
"aXaXaXaXb.W H k 0 -.1.1.>.>.X.i h o.#.o.u y y y [ $.&.%.%.%.%.O.j g i g h  .@...i i j @.:.g i u u g c <.+.h i ..@.F M M j.aXaXaX",
"aXaXaXaXb.! J :.1.1.1.;.;.5...@.>.@.#.#.o.o.#.| =.%.$.%.$.%.%.@.@.>.:.:.1...>.......@.<.<.+.+.+.+.+.+.,.:.@.@.@.+.Z V M j.aXaXaX",
"aXaXaXaXb.! J 3.1.1.1.1.;.5.>.>.>.@.#.#.#.#.O.O.%.%.%...%.%.%.%.>.3.:.<.:.>.5.5.>.>.>.@.+.<.#.<.#.,.#.<.>.@.@.>.>.z s M k.aXaXaX",
"aXaXaXaXn.T 7.1.5.1.1.1.5.5.5.5.>.>.@.>.@.>.%.>.5.5.5.%.%.%.%.%.5.3.>.:.>.>.;.1.5.1.<.#.#.#.#.#.#.O.#.#.@.>.>.>.>.z s e s.aXaXaX",
"aXaXaXaXn.T 2.1.5.5.1.1.;.5.@.>.@.>.:.:.:.>.5.5.5.5.5.5...5.5.5.<.>.>.:.@.1.5.1.1.5.5.@.#.#.&.&.*.$.$.$.O.>.>.>.@.Z s C s.aXaXaX",
"aXaXaXaXb.9.W :.;.;.;.;.>.@.@.o. . .+.:.>.>.1.>.5.5.1.5.5.%.5.5.O...+.+.>.:. .-.;.;...@.#.#.*.$.*.=.=.=.{ o.-.:.<.c f e s.aXaXaX",
"aXaXaXaXb.7.2.1.;.X.5 X.@.@.X.3 4 u u j :.>.>.5.;.5.5.5.5.5.5...h u g +.:.X.5 4 4 4 [ O.O.O.O.O.$.=.{ $ 6 4 4  .<.c f M s.aXaXaX",
"aXaXaXaXn.T 7.1...X.4 5 +.@.p , , 1 4 h +.>.>.5.;.....>.5.5.@.@.i , u o.>.5 6 > > > 5 @.O.O.| O.$.=.{ $ $ 4 1 j :.:.f e s.aXaXaX",
"aXaXaXaXn.T H X.X.5 > 6 ..@.c p p 3 1 g :. .X.X.X.X.X.@.%.%.@.O.i 6 u  .>.g < > < < g >.#.X.i X.$.O.y $ a [ X.+.>.F f C s.aXaXaX",
"aXaXaXaXn.! H 4 6 6 % 6 } O.O.o.o.u 1 g +.+.g 4 6 4 4 } O.#.&.O.i 3 4 | @.h < < 2 0 k :.-.g 0 h @.O.y 3 i @.<.>.>.c s V j.aXaXaX",
"aXaXaXaXn.! H h i 5 6 5 o.#.#.O.o.i u j +.:.h 4 4 h 5 | *.O.O.O.p 5 i @.>.j 0 9 0 g k 1.1.k 0 X.@.O.i 5 [ >.5.5.>.Z V M j.aXaXaX",
"aXaXaXaXn.! J +.....| | O.#.#.@.#.+.c +.:.>.+.+. . ...@.O.&.%.O.O.....@.@.1.-.:.:.Z :.:.1.-. . .>.@.@.} ..>.<.@.>.:.w M j.aXaXaX",
"aXaXaXaXn.! J <.>.%.5.%.#.O.#.@.#.#.<.,.<.<.>.<.5.5.>.@.#.%.O.O.O.@.@.>.>.:.3.3.3.<.1.1.1.:.:.1.@.5.%.@.@.>.5.>.@.Z s V j.aXaXaX",
"aXaXaXaXb.! J <.>.5.>.<.@.O.@.@.#.+.#.<.+.<.<.#.>.@.#.@.%.&.%.O.%.%.%.%.%.>.3.5.#.<.:.<.>.@.@.@.%.5.%.@.>.>.:.1.:.F r M j.aXaXaX",
"aXaXaXaXb.Y J ,.1.:.<.1.%.%.%.%.#.#.#.#.o.O.o.#.#.@.O.%.%.%.%.%.%.%.$.%.$.%.&.#.#.O.#.#.#.#.#.%.5.&.5.%.%.1.3.:.:.F w e s.aXaXaX",
"aXaXaXaXk.Y G F >.>.<.3.@.%.@.%.%.#.#.#.O.O.#.o.O.#.O.@.%.%.%.%.%.$.%.$.$.*.&.#.O.O.#.#.#.#.#.#.5.5.%.%.>.:.:.:.:.F r M s.aXaXaX",
"aXaXaXaXs.f f x g z :.:.5.%.%.5.&.#.#.#.#.O.#.#.#.#.#.@.%.%.%.%.%.%.%.%.%.#.#.O.#.*.#.O.#.#.#.%.%.%.%.@.>.3.:.z g d r M s.aXaXaX",
"aXaXaXaXs.C f 2 1 x :.:.>.@.%.%.#.*.#.#.#.#.#.#.#.#.#.@...%...%.=.%.;.%.%.@...o.#.#.#.o.#.#.#.O.#.@.O.@.>.:.:.x 1 9 e C k.aXaXaX",
"aXaXaXaXC.k.u.d 7 d l A z z z z l l l l l l l l l l l z Z z k k -.X.-.0 X.k l l l l l l l l l l l z l k l A A d 7 G s.k.aXaXaXaX",
"aXaXaXaXaXaX[.I - r r w w w - - r q q r q e r w r - r 8 8 8 8 8 8 8 8 8 - r - - q w w q q q q r 8 8 8 - - - r - - ) aXaXaXaXaXaX",
"aXaXaXaXaXaXaXq.I I P P W I P P S S L I I I I P S S K K K K 8 - - - 8 K P P L L P I L P P L S I P P I I P P P P I j.aXaXaXaXaXaX",
"aXaXaXaXaXaXaXaXaXaXaXaXaXaXaXaXaXaXaXaXaXaXaXaXaXaXaXaXN.z.M & & ; K m.N.aXaXaXaXaXaXaXaXaXaXaXaXaXaXaXaXaXaXaXaXaXaXaXaXaXaXaX",
"aXaXaXaXaXaXaXaXaXaXaXaXaXaXaXaXaXaXaXaXaXaXaXaXaXaXaXaXaXS.8 & & & R aXaXaXaXaXaXaXaXaXaXaXaXaXaXaXaXaXaXaXaXaXaXaXaXaXaXaXaXaX",
"aXaXaXaXaXaXaXaXaXaXaXaXaXaXaXaXaXaXaXaXaXaXaXaXaXaXaXaXaXaXC & & & R aXaXaXaXaXaXaXaXaXaXaXaXaXaXaXaXaXaXaXaXaXaXaXaXaXaXaXaXaX",
"aXaXaXaXaXaXaXaXaXaXaXaXaXaXaXaXaXaXaXaXaXaXaXaXaXaXaXaXaXaXL ; = = ~ aXaXaXaXaXaXaXaXaXaXaXaXaXaXaXaXaXaXaXaXaXaXaXaXaXaXaXaXaX",
"aXaXaXaXaXaXaXaXaXaXaXaXaXaXaXaXaXaXaXaXaXaXaXaXaXaXaXaXaXaXU v ; = ~ aXaXaXaXaXaXaXaXaXaXaXaXaXaXaXaXaXaXaXaXaXaXaXaXaXaXaXaXaX",
"aXaXaXaXaXaXaXaXaXaXaXaXaXaXaXaXaXaXaXaXaXaXaXaXaXaXaXaXaXaXP v v v ` aXaXaXaXaXaXaXaXaXaXaXaXaXaXaXaXaXaXaXaXaXaXaXaXaXaXaXaXaX",
"aXaXaXaXaXaXaXaXaXaXaXaXaXaXaXaXaXaXaXaXaXaXaXaXaXaXaXaXaXaXL * v v ` aXaXaXaXaXaXaXaXaXaXaXaXaXaXaXaXaXaXaXaXaXaXaXaXaXaXaXaXaX",
"aXaXaXaXaXaXaXaXaXaXaXaXaXaXaXaXaXaXaXaXaXaXaXaXaXaXaXaXaXC.L * v v ` aXaXaXaXaXaXaXaXaXaXaXaXaXaXaXaXaXaXaXaXaXaXaXaXaXaXaXaXaX",
"aXaXaXaXaXaXaXaXaXaXaXaXaXaXaXaXaXaXaXaXaXaXaXaXaXaXaXaX].j.q . : = L M.~.aXaXaXaXaXaXaXaXaXaXaXaXaXaXaXaXaXaXaXaXaXaXaXaXaXaXaX",
"aXaXaXaXaXaXaXaXaXaXaXaXaXaXaXaXaXaXaXaX^.Y.Y.Y.Y.P.Y.P.P.s.* . . o N x.P.Y.Y.Y.~.Y.^.Y.Q.Y.^.aXaXaXaXaXaXaXaXaXaXaXaXaXaXaXaXaX",
"aXaXaXaXaXaXaXaXaXaXaXaXaXaXaXaXaXaXaXaXY.Y.Y.P.P.Y.Y.P.I.a.* . . . N x.P.P.Y.P.Y.Y.Y.Y.Y.U.^.aXaXaXaXaXaXaXaXaXaXaXaXaXaXaXaXaX",
"aXaXaXaXaXaXaXaXaXaXaXaXaX).!.^.^.^.^.^.Y.Y.Y.Y.Y.Y.P.P.I.a.* . . . M x.P.P.Y.Y.Y.P.Y.Y.Q.^.^.Q.!.!.^.(.(.(.).aXaXaXaXaXaXaXaXaX",
"aXaXaXaXaXaXaXaXaXaXaXaX).!.!.Q.U.^.U.U.U.U.Y.L.Y.P.Y.P.J.j.* . . . N l.P.L.L.Y.Y.Y.Y.Y.Q.Q.^.Q.!.G.E.Q.!.!.(.aXaXaXaXaXaXaXaXaX",
"aXaXaXaXaXaXaXaXaXaXaXaX!.!.!.!.Q.Q.^.Q.Q.U.!.E.!.(.!.E.I.h.b O O @ B v.P.E.L.!.!.!.^.Q.Y.Q.^.(.G.!.G.!.U.!.!.).aXaXaXaXaXaXaXaX",
"aXaXaXaXaXaXaX).!.!.!.G.Y.Q.E.U.Q.^.Q.Q.Q.U.!.(.E.(.(.E.F.h.b O O O B c.E.E.T.L.!.~.Q.U.Q.^.(.Q.!.G.!.!.E.!.!.!.!.Q.Q.Q.aXaXaXaX",
"aXaXaXaXaXaXaX(.!.!.!.!.!.!.!.Q.Q.^.Q.^.^.Q.!.!.!.E.E.E.E.h.+ X X X N v.E.E.E.E.!.(.^.Q.Q.Q.!.!.!.T.!.!.!.!.L.!.!.!.Q.^.aXaXaXaX",
"aXaXaXaXaX!.!.!.!.!.!.!.!.!.!.Q.^.Q.Q.Q.(.Q.(.(.!.E.E.!.E.g.+       m c.E.E.E.~.!.!.!.Y.U.^.Q.!.!.!.^.!.!.!.!.!.!.!.Q.Q.aXaXaXaX",
"aXaXaXaXaXQ.G.^.!.!.!.!.!.!.!.Y.Q.Q.Q.Q.Q.(.Q.(.(.E.T.W.E.h.m + + + B v.E.(.~.E.E.!.E.!.!.Q.Q.!.!.!.!.!.!.!.!.!.!.!.Q.Q.aXaXaXaX",
"aXaXaXaXaXY.^.Y.~.Y.L.L.Y.^.E.U.Q.Q.^.Q.Q.Q.Q.T.!.!.(.T.E.F.c.h.c.h.v.F.T.T.!.!.!.Q.Q.!.!.!.L.!.Y.E.Q.!.Y.!.!.!.!.^.^.^.aXaXaXaX",
"aXaXaXaXaX(.!.~.~.L.L.G.Y.Y.!.G.Q.^.Q.^.Q.Q.(.T.T.!.T.(.T.T.T.T.Q.(.!.Q.T.Q.E.!.G.T.!.!.!.!.Q.G.G.L.Y.Y.!.Y.P.!.!.!./.).aXaXaXaX",
"aXaXaXaXaXaXaX/.P.Y.Y.Y.!.!.Y.G.Y.Q.Q.Q.Q.Q.Q.T.(.T.(.T.W.(.T.(.T.(.E.T.(.(.Q.!.Q.Q.Q.!.!.!.!.!.L.L.L.Y.Y.!.!.!.Y./.aXaXaXaXaXaX",
"aXaXaXaXaXaXaX/.Y.~.P.!.Y.Y.!.!.Y.U.U.Q.^.^.(.Q.T.(.(.(.T.T.T.Q.(.T.(.E.E.T.!.(.Q.^.!.!.!.(.!.Y.G.L.!.^.~.!.P.E.~.aXaXaXaXaXaXaX",
"aXaXaXaXaXaXaXaX/.].)./.^.!.Y.!.Y.Q.U.Q.^.^.^.^.(.(.(.Q.T.T.^.!.T.!.E.!.E.!.!.!.^.Q.Q.Y.Q.^.Q.!.Y.U.!.~.!.L.P.~./.aXaXaXaXaXaXaX",
"aXaXaXaXaXaXaXaXaXaXaXaX/.Y.Y.Y.Y.U.U.Y.Q.Q.Q.U.Q.Q.Q.!.!.!.Y.Y.T.G.Q.!.^.!.Q.Q.Q.Y.Y.Y.^.U.U.Y.Y.Y.Y.!.!.P./.aXaXaXaXaXaXaXaXaX",
"aXaXaXaXaXaXaXaXaXaXaXaX/.Y.^.Y.^.Y.Y.^.U.Y.Y.Y.U.U.U.U.^.Y.Y.Y.Y.U.U.Y.Y.U.U.Y.Y.Y.Y.Y.Y.Y.Y.Y.^.^.Y.!.~.Y./.aXaXaXaXaXaXaXaXaX",
"aXaXaXaXaXaXaXaXaXaXaXaXaXaXaXaXaXaXaX/.Y.U.Y.Y.U.U.U.Y.^.Y.Y.Y.U.Y.Y.Y.Y.Y.U.U.Y.Y.Y.Y.Y.U.Y.^.aXaXaXaXaXaXaXaXaXaXaXaXaXaXaXaX",
"aXaXaXaXaXaXaXaXaXaXaXaXaXaXaXaXaXaXaXaX^.U.Y.^.Y.Y.U.Y.^.Y.Y.Y.Y.Y.Y.Y.U.Y.Y.Y.Y.Y.Y.U.U.Y.^.aXaXaXaXaXaXaXaXaXaXaXaXaXaXaXaXaX",
"aXaXaXaXaXaXaXaXaXaXaXaXaXaXaXaXaXaXaXaX/.Y./././.^.^./././././././.^.^.^.^.^./.^./.^.^.^.^./.aXaXaXaXaXaXaXaXaXaXaXaXaXaXaXaXaX"
};
