/* XPM */
static char *_f1692ea54d84be6e5220266f55df24bhrXb1k4OWAUwSupJ[] = {
/* columns rows colors chars-per-pixel */
"64 64 5 1 ",
"  c None",
". c #181425",
"X c #262B44",
"o c #9E2835",
"O c #F77622",
/* pixels */
"                                                                ",
"                                                                ",
"                                                                ",
"                                                                ",
"                                                                ",
"                                                                ",
"                                                                ",
"                                                                ",
"                                                                ",
"                                                                ",
"                                                                ",
"                                                                ",
"                    o                      o                    ",
"                    o                      o                    ",
"                                                                ",
"                 .oo...                  ..ooo.                 ",
"                 .oo...                  ..ooo.                 ",
"              ....ooo.....            .....ooo....              ",
"            .....oooooo....          ....oooooo.....            ",
"            .....oooooo....          ....oooooo.....            ",
"            ..XXXoOOOOOXXX.          .XXXOOOOOoXXX..            ",
"              XXXXOOOXXXXX            XXXXXOOOXXXX              ",
"              XXXXOOOXXXXX            XXXXXOOOXXXX              ",
"                 XXXXXX                  XXXXXX                 ",
"                                                                ",
"                                                                ",
"                                oo                              ",
"                                                                ",
"                                                                ",
"                             .oo...                             ",
"                          ....oooo....                          ",
"                          ....oooo....                          ",
"                        .....oooooo.....                        ",
"                        .....oooooo.....                        ",
"                        ..XXXoOOOOOXXX..                        ",
"                          XXXXOOOOXXXX                          ",
"                          XXXXOOOOXXXX                          ",
"                  oo         XXXXXX        o                    ",
"                                                                ",
"                                                                ",
"                 .ooo..                  ..ooo.                 ",
"              ....ooo.....            .....ooo....              ",
"              ....ooo.....            .....ooo....              ",
"            .....oooooo....          ....oooooo.....            ",
"            ..XXXOOOOooXXX.          .XXXOOOOOoXXX..            ",
"            ..XXXOOOOooXXX.          .XXXOOOOOoXXX..            ",
"              XXXXOOOXXXXX            XXXXXOOOXXXX              ",
"                 XXXXXX                  XXXXXX                 ",
"                 XXXXXX                  XXXXXX                 ",
"                                                                ",
"                                                                ",
"                                                                ",
"                                                                ",
"                                                                ",
"                                                                ",
"                                                                ",
"                                                                ",
"                                                                ",
"                                                                ",
"                                                                ",
"                                                                ",
"                                                                ",
"                                                                ",
"                                                                "
};
