/* XPM */
static char *e03271f698cb4442d5a672d2042eaaa4eMrh9JdxvnEvUlBr[] = {
/* columns rows colors chars-per-pixel */
"64 64 3 1 ",
"  c None",
". c #181425",
"X c #262B44",
/* pixels */
"                                                                ",
"                                                                ",
"                                                                ",
"                                                                ",
"                                                                ",
"                                                                ",
"                                                                ",
"                                                                ",
"                                                                ",
"                                                                ",
"                                                                ",
"                                                                ",
"                                                                ",
"                                                                ",
"                                                                ",
"                 ......                  ......                 ",
"                 ......                  ......                 ",
"              ............            ............              ",
"            .....XXXXXX....          ....XXXXXX.....            ",
"            .....XXXXXX....          ....XXXXXX.....            ",
"            ..XXXXXXXXXXXX.          .XXXXXXXXXXXX..            ",
"              XXXXXXXXXXXX            XXXXXXXXXXXX              ",
"              XXXXXXXXXXXX            XXXXXXXXXXXX              ",
"                 XXXXXX                  XXXXXX                 ",
"                                                                ",
"                                                                ",
"                                                                ",
"                                                                ",
"                                                                ",
"                             ......                             ",
"                          ............                          ",
"                          ............                          ",
"                        .....XXXXXX.....                        ",
"                        ..XXXXXXXXXXXX..                        ",
"                        ..XXXXXXXXXXXX..                        ",
"                          XXXXXXXXXXXX                          ",
"                          XXXXXXXXXXXX                          ",
"                             XXXXXX                             ",
"                                                                ",
"                                                                ",
"                 ......                  ......                 ",
"              ............            ............              ",
"              ............            ............              ",
"            .....XXXXXX....          ....XXXXXX.....            ",
"            ..XXXXXXXXXXXX.          .XXXXXXXXXXXX..            ",
"            ..XXXXXXXXXXXX.          .XXXXXXXXXXXX..            ",
"              XXXXXXXXXXXX            XXXXXXXXXXXX              ",
"                 XXXXXX                  XXXXXX                 ",
"                 XXXXXX                  XXXXXX                 ",
"                                                                ",
"                                                                ",
"                                                                ",
"                                                                ",
"                                                                ",
"                                                                ",
"                                                                ",
"                                                                ",
"                                                                ",
"                                                                ",
"                                                                ",
"                                                                ",
"                                                                ",
"                                                                ",
"                                                                "
};
