/* XPM */
static char *_d354c9aaa664948b77e983952663586EswQ6Lq32ySYWo8c[] = {
/* columns rows colors chars-per-pixel */
"64 64 6 1 ",
"  c None",
". c #181425",
"X c #262B44",
"o c #9E2835",
"O c #F77622",
"+ c #FEE761",
/* pixels */
"                  oo                       o                    ",
"                  oo                       o                    ",
"                  ooo                      ooo                  ",
"                  ooooo                    oooo                 ",
"                  ooooo                    oooo                 ",
"                  oooooo                   oooooo               ",
"                    oooo                    ooooo               ",
"                    oooo                    ooooo               ",
"                    oooo                    ooooo               ",
"               oo    ooo                o     ooo               ",
"               oo    ooo                o     ooo               ",
"               oo    ooO                o     oOO               ",
"               ooo   ooO                ooo   oOO               ",
"               ooo   ooO                ooo   oOO               ",
"               ooooooooo        oo      ooooooooo               ",
"               ooooooOOo      oooo      ooooooOoo               ",
"               ooooooOOo      oooo      ooooooOoo               ",
"              .ooOooOOOo..   ooooo    ..oOOoOOOoo.              ",
"            ...oooOOO++....ooooooo   ...oooOOO+.....            ",
"            ...oooOOO++....ooooooo   ...oooOOO+.....            ",
"            ..XXXOOO+OOXXX.ooooo     .XXXOOO++OXXX..            ",
"            ..XXXOOO+OOXXX.ooooo     .XXXOOO++OXXX..            ",
"              XXXX+++XXXXX ooooo      XXXXX+++XXXX              ",
"                 XXXXXX    ooo     oo    XXXXXX                 ",
"                 XXXXXX    ooo     oo    XXXXXX                 ",
"                  oo       OOo     oo      o                    ",
"                  ooo      OOo    ooo      ooo                  ",
"                  ooo      OOo    ooo      ooo                  ",
"                  ooooo    oooooooooo      oooo                 ",
"                  oooooo   ooOooooooo      oooooo               ",
"                  oooooo   ooOooooooo      oooooo               ",
"                    oooo  .ooOOOooOoo.      ooooo               ",
"                    oooo.....+OOOOooo...    ooooo               ",
"                    oooo.....+OOOOooo...    ooooo               ",
"               oo    ooo..XXXO++OOOXXX..o     ooo               ",
"               oo    ooO  XXXX++++XXXX  o     oOO               ",
"               oo    ooO  XXXX++++XXXX  o     oOO               ",
"               ooo   ooO     XXXXXX     ooo   oOO               ",
"               ooooooooo                ooooooooo               ",
"               ooooooooo                ooooooooo               ",
"               ooooooOOo                ooooooOoo               ",
"               ooooooOOo                ooooooOoo               ",
"              .ooOooOOOo..            ..oOOoOOOoo.              ",
"            ...oooOOO++....          ...oooOOO+.....            ",
"            ...oooOOO++....          ...oooOOO+.....            ",
"            ..XXXOOO+OOXXX.          .XXXOOO++OXXX..            ",
"              XXXX+++XXXXX            XXXXX+++XXXX              ",
"              XXXX+++XXXXX            XXXXX+++XXXX              ",
"                 XXXXXX                  XXXXXX                 ",
"                                                                ",
"                                                                ",
"                                                                ",
"                                                                ",
"                                                                ",
"                                                                ",
"                                                                ",
"                                                                ",
"                                                                ",
"                                                                ",
"                                                                ",
"                                                                ",
"                                                                ",
"                                                                ",
"                                                                "
};
