/* XPM */
static char *_8df0f9b184d41af8cd452381a57f2242AA3Yn7IHLodeLqB[] = {
/* columns rows colors chars-per-pixel */
"64 64 65 1 ",
"  c #346B0D",
". c #36700C",
"X c #38720E",
"o c #376F12",
"O c #3B7415",
"+ c #3F7C15",
"@ c #3E7719",
"# c #3F7819",
"$ c #407E0F",
"% c #427D15",
"& c #407719",
"* c #437C1C",
"= c #467F20",
"- c #487F21",
"; c #3F8312",
": c #448515",
"> c #458817",
", c #46821C",
"< c #4A841D",
"1 c #478A19",
"2 c #4C8B1D",
"3 c #508C1F",
"4 c #4D901F",
"5 c #53911F",
"6 c #478021",
"7 c #4B8523",
"8 c #4E8A23",
"9 c #4E8728",
"0 c #4F8829",
"q c #528D25",
"w c #508729",
"e c #538D2A",
"r c #4E9221",
"t c #549325",
"y c #589527",
"u c #559827",
"i c #5A9927",
"p c #56912A",
"a c #5A942C",
"s c #569A29",
"d c #5C9B2C",
"f c #568F30",
"g c #588F31",
"h c #579031",
"j c #5C9531",
"k c #5E9A32",
"l c #619D2E",
"z c #629D33",
"x c #639E38",
"c c #5DA02F",
"v c #5EA231",
"b c #62A12E",
"n c #64A234",
"m c #69A536",
"M c #65A837",
"N c #69A836",
"B c #66A239",
"V c #69A53A",
"C c #66AA39",
"Z c #6CA93C",
"A c #70AB3F",
"S c #6AA342",
"D c #6FAA43",
"F c #72AC44",
"G c #72B041",
/* pixels */
"1ruuucurvcMcnmiii5555idbdldisiaixpqdxa8*-yjjy-ya&-jq*%*wg&=9o@-O",
"12uruccurcAddZi2ii5bcbbbNblddkatkeejxzaqajljayqy&-q-----7&==oo=@",
";14ruusurunvdnytibbbbNNbZnllmnsrqepdjzle-yy-----q----qw-6677=#=0",
"111rruurs:2dni4m5bbbcNNiZmnmBnkp<qaegla<aygyygyy-egq--we&*-*=@@0",
"uruuusucc:1dny2nibb5ibninnBZnssB3paeqqq-yjyjq5qyqjjeewww=09--==0",
"suussuuctrdilbt3dbbdibzdnnZCkppBpjleeqq3-yy--%--aaeegze-f0ff9--0",
"suruuruu5tmddbyyidbddbndBdkmBkkvzgeaaqqqjjjgyqq3qq-3ep-%9@=9@@=#",
"curuurucu2lbduiAitibnlkvZs8kZCBkxpqaaaeagyyqyy--%-q-*%--h=0h==0=",
"u1rscuruNitddidZ3ttyitr8rpp88pppqwyweayeeq-q--3eqq**qa<&h099eh9#",
"rrcvu2rcdttddidmzdllzkddkksppap9qaalaeeyq3qyqqyyza3**78890p06666",
"urrscsss4tidddbndispidkkvkjskka8qazje3wqjjjjygeyeqaap*%77996,##6",
"c;;4cvsu1tdddbnnzdiiknnkpsjkkvzjqejaq33qlzajyqgyqqlza%%7f6#,66,#",
"rr1rrrrs2dnsinNNiipskkkkpskkzjlzeqyaa33y-qq-3ygjxaeq<*qzp<**6,*#",
"curusssrtdksizNnqtqtttuhjkvBlewey--qq--wqaa--ylgxaqeqqqzq788*X+6",
"vsusMCd1uiiiidddkdkjujvvkkxSlw-qq-3-3-3aylzaaajyyeaappq7eqqe,XO6",
";rsccsrtiupiiyytsdssrtkBuhjkxljylaaaq-qm-ajgaaaqayq-<7qqke7ew*%*",
"rsnisds<+iid2niyiqlylll5llzmxy-y3qellyqyqaayqeaaqq--qaapDg*6e06*",
"rsdiiit2tndb5ndilillylylmljljyqqjllla3--qyyyqyaype3<<qwwg*&-9*OO",
"rtttddddmninydddmll5yllmlyayjyqyqqqa33alqyqqyylelaq-**-<w*-77-*=",
"rqtidlzNmndlittdmlllylylqqajjyqqlayyw3elyqq3qaayaq3-<7<%q7--669f",
"ypddytyndizld2tdmylllmyyqyaljqqjxaw3wqyayqqqeappjw3weew%06###===",
"3tii53ydytzll2tklylllmyyzala-3gxjq-3yapawqqwpqqelaqealq%e0667=#o",
"<tipsddypszintddyymaalelAzjqyyjmAlayq---qqqaeq3qeqqeeew*jf00006=",
"tidpsml2itntzynayyzy3qemFzajjjlagqeeyq3yqwyaa73w%-3-***<e0766900",
"2::qt2tt5tsmmiqzAl---yllzllmxjjaeew3ejxxwqpap7*7de<<7778*0f6=60w",
"iq2q8228qtsas<:tayyyyyyj--jxzgqwqaaaaaa-qaapellaq76qeppj7ef7#=-=",
"iq282228ikass28k-yylaaglgygayeyj3wyqqq--8ap<wzzeq87qe88e0pf7===O",
"82,:,28rpapqr,,sy3yyjjzlljgyagjzwqw3qaayppw<<peeaq8887900w09706=",
"82,:,28rskppt81py--lllaa-ayjxzg-paeqpjxxxe7wqweawqqehppj99999009",
"str72888pspskdsk5-yaxzgygyqygjj-eeawepp-z87ep77a*<qdkpee77666766",
"ppp88pe8888<pspp5-yajjygajy--ejjweeqqw--8<7eq*<w<8eape8e9966=#==",
"8tt8ussaBvr8pu88yyy3-y-l-ajgeegyeewqwpjp<wee77**qwqqp0jk976=#@#=",
"2><2ikkddtqtsdt8$-yy-yyl-l---llmzweaeqeg99q97790jq87767qa7=-6#=9",
"25t522idt522tdityyyll-ll--yl-l--q<w3*qew,9w099wh92qee978xw-7970h",
"qtse228uttq2tastlllylyllyyl-ll--eeew*el-9wew6=607<qpeq<<h9*99990",
"tq8qsi8:kitqqspry-y-y-ylly--l-a-aaae8ggwqwfw6-79e89qq<*<7-7w06##",
"t2,2ep81kkkppsp85-y555ylll---a-laqwaq<7*<7wwwwgjqq7q<<**660f0=O=",
"q88,;1rhpapppjp0yyi-$5-ll-lllgy-q*8aq<786**7-wwe<<<q9<%*6=909#*7",
"r087770f78pppsp8yy5-----l--ml-a-aqqaqwqww<**77**97<77<<<66*=6=*6",
"p828hu8;;78tpp81li-5-yl-lm-ml-aljllq*qp<q86-ege7jeq<*%<906*7f7#O",
"p,687;7,%aqe%p88--yly-ylyy---llgepqq3--%q-<3ww-wqqqq87**,*7hh9##",
"kt8r880rwgaxqp<q-5ymly55-gylgygl**3qeq33qwawezzg<*<<88ee7eh076=#",
"kr9880t8yeqmae<emy5yylll-ygmmj--elppgqq--azwezzeq778qepp6hh6O=6#",
"0,7upps1yqylzpeimi-5--lmlggmm-ljpe33yjmmqezeeew-pe87788<6e0*#606",
"q2pdskkuyyllmmmllgyyyyylFjgllggzyq33qqaapegjp-qe7<*<877*f9790090",
"ypsirpksyllyl-lllzlllyllFz-ygglmzllyq<*%p3qljq-jq8<qp07,j090e9**",
"ttdy2tddl5lyl-yymllyylllmzlgygglaeqqqypgw33wpweplppphp7,0966=*#O",
">5bdttbdl-llm-ymyylmmmy--lzl-ygymlq<<5plywqqpjlpae8qpp9<#90@@97#",
"34dc4tbvnCCc44timll5yylly33lgyygaja--3gzaqqeppgzzpe80661f6#==#=0",
"t4tuccvcCMcuiccumllylllllyylly-yaaleqwyleeqqqppdhq61161606=699--",
"srtcccu1cccucbcullyylllylllzlww-ygjlaeqqepqaappppe8,6604f6;=-&O ",
"4rccu541>4cutuudyylyyyyygygmlyyyaajlaq3w5eeaaapeep8110ffSh009=&&",
"44cccuu4>4cuutcuilll-llllyjmzyyyaqqyqwqaqplppaaqer0460r0xgwg9--w",
"cutcccc4cccccccuillylylmllmmlwwwaw3-q3qlqpagppaphuufr90f----=oo=",
"Mtruucc1ccuucvncyyyy-mlylllmmwwyy3-awwqa3apw7paavufsf70hgg-g-OO=",
"41444tcc44curcCAly5-ymlywygmlgyle3-ap33q-wy3<qjaSerfe,1xg9&=-O=-",
"41>1ucu444cMcccc5lym5lymyyylmzlj-azgq-qqazjaeqpj0uhkp76ew7=&*-=&",
"c5tcvcccu4uccucblllyllmllzllyjjqjlmay-qaadaappaaseuue7;7ww97----",
"414uc415c5ucuivMmyl-mylyazl--yy-yjjayqaaqeeeqqqqkfr90r6699w9--&&",
"c44uc14ucuccuucM$5mll-yyyyy-qlje-qajjaqqqq3qwq3<f46;7976hagggww-",
"cuucc4ucc5cMdrcn-ylmalyllyyzmmxxyggygayyaaeer0r661,;66,*gewwww--",
"444444ucr4cMctccll5lymlmAjjmAzglmzygqqeeajaee79140r0971;w-&&-&&&",
"uccuccccu14vcuutllylllzzmmmmzyglgjjyqqqqpap87,460uhuppw7eewww-ww",
"4uc5tcu4u>1tccu4ylmlm-zzzmSzjlzm-qjljaq-paaq817rff49ejp9-7gw-&-w"
};
