/* XPM */
static char *a08b06b2e08b4f8c964caf2c7d491145uyPX79VWOhhc8eT8[] = {
/* columns rows colors chars-per-pixel */
"64 64 90 1 ",
"  c #855621",
". c #875824",
"X c #8A5B26",
"o c #8D5E29",
"O c #8E602C",
"+ c #92632E",
"@ c #946631",
"# c #976834",
"$ c #9A6B36",
"% c #9C6E39",
"& c #9F703C",
"* c #A2733E",
"= c #A47541",
"- c #A77844",
"; c #A97B45",
": c #AC7E49",
"> c #AF804B",
", c #B1824C",
"< c #B1834F",
"1 c #B2844D",
"2 c #B1844F",
"3 c #B3844E",
"4 c #B4854F",
"5 c #B18350",
"6 c #B38651",
"7 c #B48650",
"8 c #B58650",
"9 c #B48652",
"0 c #B58753",
"q c #B68753",
"w c #B78852",
"e c #B78853",
"r c #B68854",
"t c #B78954",
"y c #B78955",
"u c #B98A54",
"i c #BA8B55",
"p c #B88A56",
"a c #B98B57",
"s c #BB8C56",
"d c #BC8D57",
"f c #BA8C58",
"g c #BB8D5A",
"h c #BE8F59",
"j c #BE8F5B",
"k c #BE905B",
"l c #BE905C",
"z c #BE915C",
"x c #BF915C",
"c c #C0915B",
"v c #C1915B",
"b c #C1925C",
"n c #C2935D",
"m c #C1935F",
"M c #C3945E",
"N c #C5955F",
"B c #C29460",
"V c #C39561",
"C c #C69761",
"Z c #C49662",
"A c #C59763",
"S c #C79863",
"D c #C69864",
"F c #C79964",
"G c #C89963",
"H c #C89A64",
"J c #C89A66",
"K c #C99B67",
"L c #CB9C66",
"P c #CC9D67",
"I c #CA9B68",
"U c #CA9D69",
"Y c #CD9E6B",
"T c #CD9F6B",
"R c #CFA16C",
"E c #CFA16D",
"W c #D1A26C",
"Q c #D2A36D",
"! c #D0A26E",
"~ c #D4A56F",
"^ c #D2A470",
"/ c #D6A670",
"( c #D4A672",
") c #D7A974",
"_ c #D7A975",
"` c #D9AA74",
"' c #DAAB75",
"] c #D9AB76",
"[ c #DDAF7B",
"{ c #DFB07A",
/* pixels */
"*******vW*******==&=&=&=**=**Pv****-*=*=&&&*&*****8/******&=-&=&",
"**,:**N1o*****,e%===*&&;6-*:P$+*****8;&&==-=*>,**vuX**-*=:8&&&-=",
"***;***$$***=N8*=&:;==%&****%$****uN;===>-****;***$$****Zw-=%::&",
"*v;***+$&*,,=~e;u=-:==66***%+$**v*d/&6,&>-=*f;***@+**1e*Qg-u=-:-",
";Ww**;**&=lA-K68R-==-*MM,******,^5uD;Ul%;==-We==*****NN*Ug:R:&==",
"*XMN;'w*=&@%LRUyO$=-8*@%',bW****.gUUU@#&=;>&XZD;'v***+*PUUBo%=-5",
"*@vWv***>=%%%%$$$=*--*%-/Z,**1**#&&&&#&==;**@bYu***1*%$$%%%%&==-",
"**;1,+**>=*&O+O$-=******,,*+*4**=@+OO=-******:5>+**1***+Oo@-=&==",
"**O X&=&**&=&*=-1-*&&==% .@&==&&-&=&*,,=*&&*=O.X****%*;*=&-5-=&&",
"*,-&&-&=****====*&&==*:,*&===&=====&****==*=:-%&***&****==&==&==",
"-;-=&*ag*D>->=&:S-wk&*-;***;D-yl=:-&*bu*I;*=;-***uv*N1*8=&-D-0g&",
"**&=&=KZ-Rw-:==:b1da*==&**&>_>gU=;;=*ub8N>*==****ZG-Wu*:==-B5yg=",
"***=&=jg*M8****$OB-X*&===**:K;8B=****o*MX$***==&=ul=Z4****%oB:o=",
"*=:;=*+-K$$***,,&O#*&=&;>-&&Og:+=%*-,*$o*&***::=*@=Z$$***:>%o@=%",
"=&;;&*$$&$*****;&#%===&=:=&&%%%%*=&=:**@**-**-;&*%$%%*****-*$%=*",
"&*>>=6;$+********&=-*&=-5-:1=@#*=%===*******=:>=8:$@*********=-*",
"=*KA:_y=====**=***;;***,'4vQ;*=********;>=*=*GG:_g===*=******;;*",
"-D-=g@8y&=&*=W11/*bL**ub+i;*N:&***d~*Lv*)8=-Z--d@5g&=***Wf;W;vW*",
";U-;D@gg*;-**:11,u8;*=fZ+N1*L;;;***1w11a>-*-L-;G$aB%;=**:3u,uu;*",
"=g::y=00=>-=*+:,+8*+*=:d*v**a-:>**@+a$&eO%*=a;:e&50=:;**+*8+4*+*",
"&X$#O=O@&==*=&OO*X@=**$X*+$*X*******.&#X****X$$X=@@*=****@X*X+**",
"****&=%y^:=&=*&&*=%=**%******PN*****&=&&%*******=%6/;=*-********",
"**--=*59>=*=&=::%===********v,******>-&=-*****;*&58:**=*=;:*****",
"**:>*=6-X&&=*>:>=*=-***;v***v+$*=*:4;-=*-****>,*=5:X*%=*:;:=*;;*",
"*****%o+****=)g*=&:,=******$X%**=*g'=&==6:**-***&Oo=&===/B==&::-",
"*W1***%*%*vN=R>1Y-===*fZ=***$**;W,yR=Zg&-***R1**=%%&=gB-Yy;Y;==*",
"*8b,*v****,,1Ukwy&==;=>0v;:d****08fUy8:&-->*1f8*g;=&=:55IBy0=*-:",
"*XNZ,W4***+$kZl>O%=;5=@%~edN****X5BZl@$=*:>*XbK,U0=-&@&gBj0o&*::",
"**bWN.$,v***X  +*=&=&=&:WP*+*4,*&O  .%*******vWNX$-u=&%.  o==&=&",
"**$@@*******$***:-=&=&=%@@$*****=%&%%:;=*****$@$%**-&&=%&%&:==&=",
"*,$+@**********;:===&%--@+******=&=%=:-=******@@****=&==&&=:=&&&",
"*1;****,*1******:*-:&=::****4*,*=-=&=;-=1***1*****>*:-&-===:=-:=",
"====&=II*/b,w**w]-Z!====*=&>{>lR=::**RA-[u**=*=&=AY-^a;6-*;':ZW*",
"&=&&=&Bb*K4*****&g:#&&=&&&=:R:gD=--*&%:j%%&*=*%&=gB&I0=--*%*b:$*",
"&=;;**:581******@>&#====-=&->61>=&==-$%5@****--=&:55:;%=*;*+**@*",
"=&::=-o&G+%***,8=X+=&=&=6;*&.g;O&&&-1*$.*%==*::--O%D@#&=&:,*++**",
"&====%=$X***********&=&===&&=O@=****-***==**&=-&&*$o%=&-********",
"=&Bl-R5&**********--=&=:R:yD=&&&********:-**=BB-Ry*&&&=&******3*",
"-:yg8yu:*=***d-:u;wu==:yy5yy8-****;v*81*b:==5uu6uy:*=&*=v4*v*,v*",
":U%%ZXef*****W4,W*bL==gg.g:@K>****u/*Ub;^9&;J$$M.5B*===*Pv*/,vL*",
"-U5yU=bg=>;=*X6uOZ*+**dW*L4,W*>1**$+I#-Go$*-K18K=kl=::**X*NOv,X*",
"=&&&&====-==%$%&$*%%**************$$&%$&$*******====;-*&$*$$*$$*",
"&O%%O&O&>-=&-&@@*+@***$+*+@*@>>*****O&%o****O*$O*@$5;*&-*$+*+@**",
"=&&===&a/:=%=*=*******%******Wv******&==&&******=%,~:*&=********",
"**>:=&l5o&&-&=>5&&&=***;1**1L#@****=8;&&===**,,**fuX%*=*=;w*****",
"***-=*&%$&===Z6===;:****;****$****8C;=&-:=&**=;***%$**==By-***8*",
"*b-**%@@&&::=^9-y*::-*,,****X$**a*d)=5:&,-=*f-***++*=::=Wl*u*,,*",
";Wy==;==%=BZ-U98W;****vG,******;~eiK-Kl&-==-Qu**;***=lZ-Uy,/:***",
"*XMN;',***+%PRU8o%=-6=@$'1aW****.gURL##&*>1*XZB;'v***+%KYUMo%=-5",
"*+ZLu-*;,*$%****$*==-*$-_M1-*,**#**=&#&==--*@lRa;**,*$$==*&#&==-",
"**,w4+*=,***OOX#-***==&-1u*+*,-*=@OOO*=&*****:86+**8**&OOo@-=&**",
"**O .*******&&=;1-**&*=$..+*****-&**=1,**%***O..*****&=*=&=6-=&=",
"*4-****=***====&**&**&>>***-**=*&===******&=5-&*********=======&",
"**-=**ud*Z,->==:L*wk*&-;**&-K-yl*:-&*cd*I>&=--*&*8f*G,-,===D=0g&",
";*****GZ=Wu=:-=;v1aa*==***&>)>aU*::=*aa>N>*==*&**NG-Wu=,=*-b6au=",
"*****=kk=B8***=#ON;O***&***:K:yN***&&O-K.&&*&****vv*Z,***=%Xl;o=",
"==::=&@-Z$$***>:%+@****->-&&Ok>@***-6*$O&&***>>**@*G$****:,%+$**",
"&=;;**@%=$$*=*-;*$%****;:-&&@*&#****>*%+-***&;;**$%*$****-,*@$**",
"=&-;=:-$o*=*************:=-;=O$**==*****=***=-;**;%+%***********",
"=&AA:_0===%=******;:***1_>lR-=**=&******>=*=&UD:'v***********,**",
"-A--f@8a****;W81^=lU-=yg#a:&v>****vQ*Lv*^w==D--l@1a*****Pv*W*vN*",
"-U--K#bg*,***,1e>yw:**gB@B6&W1*;***1u88u>-&;K--D$ub*;****1v,vk**",
"-g::u&uy*8***X;1O8*O*=5l&g:-N*;1**#ov#*aO%*=k>>g&8y=v***+*vXv*+*",
"&o%#O=+$******++*X#=&*#.=X%&o%*****%X$#X*&**X##O=@+&*****@X*X$**"
};
