/* XPM */
static char *result[] = {
/* columns rows colors chars-per-pixel */
"64 64 77 1 ",
"  c #597D34",
". c #5B7E3D",
"X c #5E7F45",
"o c #5C7C49",
"O c #5D6F52",
"+ c #5E7053",
"@ c #5F7851",
"# c #617F43",
"$ c #61764D",
"% c #647D4C",
"& c #687F4F",
"* c #606E5A",
"= c #637553",
"- c #657C52",
"; c #687E55",
": c #637559",
"> c #65785A",
", c #6A7E5A",
"< c #667560",
"1 c #697665",
"2 c #6F7F64",
"3 c #6E7A6A",
"4 c #707F66",
"5 c #717B6F",
"6 c #727D70",
"7 c #5D813E",
"8 c #62853C",
"9 c #5E8242",
"0 c #5F8348",
"q c #628544",
"w c #658A44",
"e c #698D45",
"r c #64834B",
"t c #69854D",
"y c #668B4A",
"u c #6D8E4C",
"i c #718F4D",
"p c #6D9246",
"a c #67944C",
"s c #6D914C",
"d c #709245",
"f c #71924C",
"g c #759A4D",
"h c #789C4E",
"j c #678152",
"k c #6A8454",
"l c #6E8D52",
"z c #678358",
"x c #6C835B",
"c c #6E8A5B",
"v c #718E52",
"b c #71865F",
"n c #728A5D",
"m c #6E9151",
"M c #729351",
"N c #759A52",
"B c #7A9E55",
"V c #7C9F59",
"C c #76A057",
"Z c #7DA255",
"A c #7EA259",
"S c #6E8362",
"D c #728465",
"F c #758A62",
"G c #798D65",
"H c #75846B",
"J c #78856D",
"K c #75896B",
"L c #7B8A6C",
"P c #7C8773",
"I c #7C8B72",
"U c #80A557",
"Y c #81A55C",
"T c #85AA5C",
"R c #88AA5E",
"E c #85AA61",
"W c None",
/* pixels */
"WWWWWWWWWWWW6WWWWWWWWWWWWWWWWWWWWWWWWWWWWW6WWWWWWWWWWWWWWWWWWWWW",
"WWWWWWWWWW1+1WWWWWWWWWWWWWWWWWWWWWWWWWWWW*:WWWWWWWWWWWWWWWWWWWWW",
"WWWWWWWWWW-llkWWWWWWHJWW4WWWWWWWDWWWWWWWnti-WWWWWWWDWWKKWWWWWWWW",
"WWWP:WW,=%lllc$DWWW$,,xSx-;WWW;$xW>xWK:=kuiv%>WWW-$xnW,j@WWWWWWW",
"WWW;lr9usssppdut9owpasywswu0X9astqft#tvssappslqXqiiitqspa0ooWWWW",
"WWWFtMmsssfassssmmmsssssq70almsmmmssfuvsssaasllsfusssssssym9WWWW",
"WWWW0aapsummsmmssmmsssss909ymmssmapppsssaamaamsusmmssmasmss0WWWW",
"WWWkeaafsmmssmmssssfupssmqammmsmamssssssmmassmsussmasssmmmss@WWW",
"WWW%spssfmsssidssidfiufsuMMmffffmssuffvflssmslffdssasduvmspdkSWW",
"WWWrsmmMfmsssuivvsiufdsssmsppdZpssmuvMfussssfiMslslsiifissspzIWW",
"W4klsmlvvmmssiivvsssssmssssspUTdsifMviifdudiiiMsmmviivifsamqWWWW",
"W+ymsslfismaapdiissssssmasZspRRdssmlmsfdBNusdssmmssfdidsammtFWWW",
"3>ispssdussapdpffsssssssufYY8AgpufMusuapANsssssumassuisaaasizSWW",
"WW;lsasssasaapduufsfsmlMdu7AVqesssuapphgZNsssspvssaasMususii-WWW",
"WWWrassussssssssssffflfmfia7.esssussppZZZNussspfsmammmmsmfii;WWW",
"WWW;ussMiividuMlmsssssssussuammlfsmmmsZBdfvMMusppsmmmssfsslqWWWW",
"WWWWqmmlviidiiimmssspfspsusssmmssfmlmsdsdfflmumppfmmmmsfsum9WWWW",
"WWWWrmusidssssfmssfpssfsssssssdssssmsuusmsmsssssssssssivussqWWWW",
"WWWWjmssdssssdfssssssssssffsssssMsmsu99ummlssfssssssssfvfsss>WWW",
"WWW%pssdimmssssssssssfsssmssfsssussuw78qmsMsssssfsdsssilusss%WWW",
"WWLtssspilmmssdssssssssmssMssfsssssssqquslssmsfmuddsssmMmsssc-WW",
"WWDkssssdmmmsfmmsuMsfssfssummsmsssdssussfsfssssvldsmmmsfsmaslv:5",
"WWWcamssdlmmmiuffsusssssmfsmmslsfNsssssfsssmsfuMMdumsssfsaasvj+W",
"WWWxysssssmsssfmmsMsssMssufssfdsNRNsssssmfsssssmssdmmsssaapakxWW",
"WW2xssaNgssssfuuusssssNMsmspssssNEAsfNsssssssssmussmssuddsNM$WWW",
"WWDkpapAgspssdfsfsssppVNspsfpssssZBeYAsssmfmufsmsssssfsiNgUB=WWW",
"WWW%sssUhNssspfssspspsZNBfssussssspBAppssfslmssusmsssssfBhUiLWWW",
"WWWcwssUgYspfussspssssBBANpfsssdpsqwwwssssfssfssssssasfiBhM8WWWW",
"WWWWrmmNdTfafdslsfssspffYBpssssssusqwssduMssssfssssssssfgfuyDWWW",
"WWWWjmmdiNspssfmmusspsssNsssussussfssuussfsssssuspammsssssla:WWW",
"WWWjussuiimmsffsssssspdsassssfmsusumsmsfsssmfsuMusdmmssussm0WWWW",
"WWW%asssislsmsssfAmsssssssssdumsmsMsmsusssisssMUgpfmmsssssmmxDWW",
"WW2jllasppssmsuNTNAssssssmsssssssssssumlmssssfUMYfsMsmsffsss=WWW",
"WWWWrssspppsmmmfNAsssssusfsssuMsssdssMmsmsusspNTivssssmsffuu,WWW",
"WWWxlssumssmmspdiffpsssfssmssufsdsfssmsssfsssssfdssdsssdMMl9WWWW",
"WWW,lssfsssmmssppssssdsfsusufssssssmsfsmvsssssspssmddsssulm9WWWW",
"WWWWridfffMmmapssdspsssuumtsmmmmmfsmsssssssfsmvdsssssmlssms0WWWW",
"WWWFtffNffsmsppfsusssssmMw.wumsssmmsfssissssssuusmmifmsssmss:WWW",
"WWW;vuhRBdNNsasvfssssufmu9q.usmsmmmfdsssfpsusMsfismimmmssspp-WWW",
"WWW%ispBRBEAMssuuufssssmss7uumssMsssspssfssssssisssMNNmsssasxJWW",
"WWnrapspgUgpsumiMusssssmmmsuslusmisussgfUNssussdusugYTgdNgpezWWW",
"WOtssaas w8usfsfismfflsfsusmMsssuasdsdBBANspsfssssspgZYUAfawDWWW",
"6=usamssq8fmmufidmssssssMususssssussspBZNfsdssussssspphhppsp,JWW",
"WHtmasasssfsmaudfssssuMssssssupssfssuaNNpsssssfsfmssaq7qepap;IWW",
"WWnrsmsmsfimmpsfisfsssussssdsVdsufussssspssssssssmmmmuqeussa-WWW",
"WWW@lsmsufussssmsmssMsmfsuspBNAdsssmsussmsssssussssssfusumlrWWWW",
"WWWFrussiifssssmlsssssssssssNANssssfmummsmsmsssssssssssuMvl0WWWW",
"WWWWrupsdssmmsdppsmvvllMdssmsfsfsummmsssssspsMfmmlvdfiiflms9WWWW",
"WWWWqisfdlsmmmsppssilfMlspsMsssdfsmmm99smssssuvmmMuiafvvmsse2WWW",
"WWWkufmssmmssasissssssslsssusssssfmuy99qmmsufMmssssssmsfssss$WWW",
"WWWriimsmuMsmamsispsspssssssssssffMls90ummmslfisspsasssusssakxWW",
"WW2lsssaaiiusasmmsssssdsmmsssmmmssppaassssmssssddpppamsdufasMl<3",
"WWWrumsasiidsssmmsssssssmlsssslmpspasspssmsssspuispasssdfmsalt*W",
"WWWWqmmssiiismmmmiifdsfsimifsiMsNYgffusmmmmmspsMvddssmlivlssl&4W",
"WWWxusssdviismssuvifMsgpivddvlfsNEZpffussmmsmssvviissmmvvlss%WWW",
"WWSudsumlfssamssfMlmssCgsuvfmspsgUZpUVdiiivfiddsfiipsmssssps=WWW",
"WWWrpsMusssaasmsduMssmZhgfdummaasssgYfsdssssfMausfusssmfssse,WWW",
"WWWzymmmlsmssmsauasmmaCgZgsdsspspeqmywssmssssmlammmsmmmsaaa9WWWW",
"WWWW0asasssssiMssssmaaNfZhfismssppuXqspsssssaMmmsssssmusssmyWWWW",
"WWWWo0yudsquiiurrwssmsaaNgqqvlrsssr0asasqepuprrruspppssfuqyl:WWW",
"WWWWWWkruxWkk%kWWn-rMpft%-nWk;W-%jWWc%jkctlt%WWWzrvssl%%kWx,PWWW",
"WWWWWWWWDWWWbWWWWWWFtitFWWWWWWWDWWWWWWKHWWDPWWWWWG;vkxWWWWWWWWWW",
"WWWWWWWWWWWWWWWWWWWWD=+WWWWWWWWWWWWWWWWWWWWWWWWWWWW>+4WWWWWWWWWW",
"WWWWWWWWWWWWWWWWWWWWW3WWWWWWWWWWWWWWWWWWWWWWWWWWWWW1WWWWWWWWWWWW"
};
