/* XPM */
static char *b9113db382b34e48cb7bf35c39fe0080ty1ywJHBa8krF9A6[] = {
/* columns rows colors chars-per-pixel */
"64 64 184 2 ",
"   c None",
".  c #ADB4C3",
"X  c #AEB9C7",
"o  c #B3BDCB",
"O  c #B8BFCE",
"+  c #BCC3D2",
"@  c #C5CACD",
"#  c #C0C5D3",
"$  c #C4CBD7",
"%  c #CBCFD3",
"&  c #C4CCDC",
"*  c #C9CEDF",
"=  c #CFD0D3",
"-  c #CBD1DC",
";  c #D2D3D5",
":  c #D4D6D8",
">  c #D6DADA",
",  c #DADCDD",
"<  c #CACEE2",
"1  c #C7D2E2",
"2  c #CCD3E5",
"3  c #CDD6E8",
"4  c #D5DCE5",
"5  c #D9DEE5",
"6  c #D5DDEE",
"7  c #D9DEEB",
"8  c #D7DFF0",
"9  c #D8DFF0",
"0  c #DFE0E1",
"q  c #DDE3EC",
"w  c #D7E0F1",
"e  c #DDE4F2",
"r  c #DFE8F4",
"t  c #E2E3E6",
"y  c #E4E6EC",
"u  c #E5E9ED",
"i  c #E9EBEE",
"p  c #E1E7F2",
"a  c #E8E7F0",
"s  c #E4EBF4",
"d  c #EAEDF3",
"f  c #E7EFF8",
"g  c #E9EFF8",
"h  c #F0EFF6",
"j  c #E7F0F7",
"k  c #EDF1F5",
"l  c #E7F0F8",
"z  c #ECF3F9",
"x  c #F2F4F6",
"c  c #F7F8F5",
"v  c #FEFDF5",
"b  c #F3F3F8",
"n  c #F2F3FA",
"m  c #F0F5F8",
"M  c #F3F5F9",
"N  c #F1F6F8",
"B  c #F3F7F9",
"V  c #F2F6F8",
"C  c #F3F5FB",
"Z  c #F0F7FB",
"A  c #F1F7FB",
"S  c #F2F6FA",
"D  c #F2F6FB",
"F  c #F3F6FB",
"G  c #F2F7FB",
"H  c #F4F7F8",
"J  c #F5F7F8",
"K  c #F5F7FA",
"L  c #F6F6FA",
"P  c #F6F7FB",
"I  c #F7F7FB",
"U  c #F6F7FC",
"Y  c #F3F6FA",
"T  c #F2F9FB",
"R  c #F2FAFB",
"E  c #F7F8FA",
"W  c #F7F9FB",
"Q  c #F7FAFB",
"!  c #F3F9FC",
"~  c #F2FAFC",
"^  c #F6F9FC",
"/  c #F7F9FC",
"(  c #F4FAFC",
")  c #F7FAFC",
"_  c #F7FBFC",
"`  c #F6FAFD",
"'  c #F6FBFD",
"]  c #F5FCFE",
"[  c #F6FCFE",
"{  c #F6FDFE",
"}  c #F6FEFE",
"|  c #F5FBFC",
" . c #F8FAF9",
".. c #FAF9FB",
"X. c #F8FAFB",
"o. c gray98",
"O. c #F9FCFB",
"+. c #FAFCFA",
"@. c #FBFFFA",
"#. c #FEFDF8",
"$. c #FEFEF9",
"%. c #FCFCFA",
"&. c #FCFDFA",
"*. c #FDFDFA",
"=. c #FCFCFB",
"-. c #FCFDFB",
";. c #FDFDFB",
":. c #FFFCFA",
">. c #FCFEFA",
",. c #FDFEFA",
"<. c #FCFEFB",
"1. c #FDFEFB",
"2. c #FEFEFA",
"3. c #FFFEFA",
"4. c #FEFEFB",
"5. c #FFFFFB",
"6. c #F8FBFC",
"7. c #F8FBFD",
"8. c #F9FBFD",
"9. c #FBFBFC",
"0. c #FAFBFD",
"q. c #FCFBFC",
"w. c #FCFBFE",
"e. c #F8FCFC",
"r. c #F9FCFC",
"t. c #F8FCFD",
"y. c #FAFCFC",
"u. c #FBFCFC",
"i. c #FBFCFD",
"p. c #FAFDFD",
"a. c #FBFEFC",
"s. c #FBFFFC",
"d. c #FBFEFD",
"f. c #FBFFFD",
"g. c #FAFCFE",
"h. c #FBFCFE",
"j. c #FBFDFE",
"k. c #FBFCFF",
"l. c #F9FEFF",
"z. c #F8FFFF",
"x. c #F9FFFF",
"c. c #FBFEFE",
"v. c #FAFFFE",
"b. c #FBFEFF",
"n. c #FBFFFF",
"m. c gray99",
"M. c #FDFDFC",
"N. c #FDFDFD",
"B. c #FDFEFC",
"V. c #FDFFFC",
"C. c #FCFEFD",
"Z. c #FDFEFD",
"A. c #FCFFFD",
"S. c #FDFFFD",
"D. c #FEFEFC",
"F. c #FEFFFC",
"G. c #FFFFFC",
"H. c #FEFEFD",
"J. c #FFFEFD",
"K. c #FCFDFE",
"L. c #FDFDFE",
"P. c #FCFCFF",
"I. c #FDFCFF",
"U. c #FCFDFF",
"Y. c #FDFDFF",
"T. c #FEFDFE",
"R. c #FFFDFE",
"E. c #FEFDFF",
"W. c #FFFDFF",
"Q. c #FCFEFE",
"!. c #FDFEFE",
"~. c #FDFFFE",
"^. c #FCFEFF",
"/. c #FDFEFF",
"(. c #FCFFFF",
"). c #FDFFFF",
"_. c #FEFEFE",
"`. c #FEFFFE",
"'. c #FFFFFE",
"]. c #FEFEFF",
"[. c #FFFEFF",
"{. c #FEFFFF",
"}. c white",
"|. c #FEFEFE",
/* pixels */
"d p p s   ( s p s p z { l s z s p s f { ( D l {     d M       s p s   M p p s s z { g s ! s r p f ( { z l 8.    d         s u d ",
"y d z z e p z z z s s g g z s l e l 6 e e r s e p e s p z p p k z k e p z z z r g s l z r l e s 6 e e s s r r e z e T q e k d q ",
"y z V.V.C I V.V.l.8.d i w.V.( V.K t C F D ( 8.H H T l.E a b F w.V.V.c c 1.l.{ { u k :.V.M l.M y M M D ( ( D M M ..H y H K w.M q ",
"D p I V.w.w.V.w.V.V.8.w.w.w.V.V.w.w.V.V.l.V.V.l.O.O.V.V.8.V.V.V.V.w.v v 1.V.V.l.( :.1.V.1.V.l...V.V.1.V.V.V.l.V.1.1.E V.V.V.z e ",
"  p x 1.V.V.V.w.V.1.V.w.V.V.V.w.V.V.w.w.V.V.V.l.O.O.l.V.V.w.V.w.l.V.l.l.V.l.l.V.w.V.w.V.V.V.V.w.V.V.w.V.V.V.8.8.w.V.1.1.w.F e ( ",
"  T y E V.V.V.w.V.w.1.1.V.:.1.1.V.V.V.V.V.w.8...d i w.V.w.V.w.V.V.l.E k H l.V.V.w.V.V.w.w.w.V.V.V.V.V.V.8.8.a C V.V.1.V.w.I p ( ",
"  p E V.V.V.V.V.V.V.w.V.1.1.1.V.V.w.w.V.w.V.h a d i w.V.V.V.V.V.l.! q X $ b w.V.1.1.w.V.V.V.V.V.w.V.w.V.d d a b V.w.V.w.V.V.z p ",
"s d O.V.V.V.w.V.V.w.V.V.1.1.:.V.V.V.w.V.V.w.h y b h V.w.V.w.w.V.{ k o 1 & 4 V.w.:.V.V.V.w.V.w.V.w.V.V.w.a d d I V.w.V.w.w.w.z e ",
"  e M l.8.b b L w.V.V.w.V.V.w.V.V.w.V.w.V.V.h a V.w.w.V.w.V.V.V.{ j 3 $ 8 s V.w.1.1.1.V.w.V.V.V.V.1.V.V.a d V.w.w.V.w.V.w.V.z e ",
"  r F V...a a h w.V.V.w.V.V.V.V.w.V.V.V.V.V.K b w.V.V.V.V.V.w.V.{ 4 w { D b V.V.V.:.w.V.V.w.w.V.V.V.V.V.L C w.V.V.V.V.V.V.w.s e ",
"  e M l.l.8.h h h L V.V.V.V.V.w.V.V.V.V.V.V.V.V.V.V.V.V.V.V.V.V.( 7 u O.V.w.V.V.V.w.V.w.V.V.V.V.V.V.V.V.w.V.V.w.w.V.w.V.w.h p f ",
"l s 8.V.l.8.d d d C V.V.V.V.V.V.V.V.w.V.w.V.V.V.V.V.V.V.w.V.V.V.l.d V.V.V.l.w.V.V.V.w.V.V.w.V.V.V.V.V.V.V.V.w.V.V.V.1.:.:.d g ( ",
"M s ( l.w.V.V.w.V.V.V.V.V.V.V.V.V.V.V.V.V.V.V.V.V.V.V.V.V.V.V.V.V.8.V.w.V.V.V.V.V.V.V.w.V.V.V.V.V.V.V.V.V.V.V.w.1.:.V.w.w.w.g f ",
"{ e M V.V.V.w.V.V.V.V.V.V.V.V.V.V.V.w.V.V.V.V.V.V.V.V.V.w.V.w.V.V.V.w.V.V.0 0 V.V.V.w.V.w.V.V.V.w.V.V.V.V.w.V.V.1.V.V.V.V.V.z e ",
"  e E V.V.V.w.V.V.V.V.V.V.V.V.V.V.V.V.V.V.V.V.V.V.V.V.V.V.V.V.V.V.V.V.w.y ; ; 0 V.V.V.V.V.V.V.w.V.V.V.V.V.V.1.1.1.1.V.w.V.I p D ",
"s 8 D V.w.V.V.w.V.w.V.w.V.V.V.V.V.V.V.V.V.V.w.V.V.V.V.V.V.V.V.V.w.:.V.V.H : : b V.V.V.V.V.V.V.V.V.V.V.V.V.w.V.V.V.V.V.V.V.8.f p ",
"r l y w.V.w.V.V.V.V.V.w.V.V.V.V.V.V.V.V.V.V.V.w.V.w.V.V.V.V.V.V.1.V.V.l.l...8.V.V.V.V.V.V.V.V.V.V.V.V.V.V.V.w.V.V.V.V.V.w.K 9 e ",
"p 9 K w.V.V.V.V.V.V.V.V.V.V.V.V.V.V.V.V.V.V.V.V.V.V.V.V.V.V.V.V.1.w.V.V.l.8.8.V.V.V.V.V.V.w.V.V.V.V.V.V.V.V.V.w.w.V.V.V.w.t l p ",
"p f 8.V.V.w.V.w.V.w.V.V.V.V.V.V.V.V.V.V.V.V.V.V.V.w.V.V.V.V.V.V.1.v V.V...> > K V.V.V.V.V.w.V.V.V.V.V.w.V.V.V.w.w.V.V.V.V.b 8 p ",
"! p K 1.V.V.V.w.V.w.V.V.V.V.V.V.V.V.V.V.V.V.V.V.V.V.V.V.V.V.w.V.1.1.V.V.t ; ; , V.V.V.V.V.V.V.V.V.V.V.V.V.V.V.V.V.V.w.w.V.F r ( ",
"s z 1.1.w.w.V.w.V.w.V.V.V.V.V.V.V.V.V.V.V.V.V.V.V.V.V.V.V.V.V.V.:.V.w.V.l.0 0 V.w.V.V.V.V.V.w.V.V.V.V.V.V.V.V.V.V.w.V.V.V.F e { ",
"f d :.1.V.V.V.V.1.V.w.V.V.V.V.V.V.w.V.V.V.V.V.V.V.V.V.V.V.V.V.w.w.w.w.V.1.V.V.w.V.V.V.V.V.V.V.V.V.V.V.V.V.V.V.V.w.w.V.V.V.F r D ",
"( f d :.V.w.V.:.1.:.w.V.V.V.V.V.V.V.V.V.V.V.V.V.w.V.w.V.V.V.V.V.8.h V.V.V.w.w.V.w.V.w.V.V.V.V.V.V.V.V.V.V.V.C d d b 8.V.V...f f ",
"g f d w.V.V.1.1.:.V.V.V.V.w.V.V.V.V.V.V.V.V.w.V.V.V.V.V.V.V.V.V.8.7 d V.V.w.V.V.V.V.V.V.V.V.V.V.w.V.V.V.V.V.b d d d 8.V.V.M r ( ",
"e p 8.V.V.V.V.1.V.V.V.V.V.V.0 I V.V.V.V.V.V.I C V.V.w.V.V.V.V.V.( 7 4 { M M l.V.1.1.1.V.V.V.V.w.V.V.V.V.V.l.l.V.d d i w.1.H p   ",
"e z 8.V.l.V.l.l.V.V.V.w.1.t ; ; b V.V.V.V.V.h a w.V.V.V.w.V.V.w.{ p 4 4 e d l.V.1.1.1.V.V.V.V.V.V.V.1.V.V.V.V.V.d a d w.1.H e   ",
"e z V.V.V.l.z - p g 8.V.1.i = 5 K V.w.V.V.8.h p h b w.V.V.V.V.V.{ j + $ < 5 V.V.1.1.V.V.V.V.V.w.w.V.V.V.V.V.V.w.V.V.V.V.1...s d ",
"p z 1.1.l.K # < 9 F l.V.1.1.i I l.V.V.V.1.l.b a d d w.V.V.V.V.V.l.T 4 o $ d l.w.1.1.V.V.w.V.V.V.V.V.V.V.V.V.V.V.V.V.V.w.V...p z ",
"( p c v V.k . $ # 8.l.V.V.V.V.V.V.w.V.V.V.w.8.( i i V.V.w.V.V.V.V.V.( k H l.V.V.V.V.V.V.V.V.V.V.V.V.V.V.V.V.w.V.V.w.V.V.8.y T   ",
"( e c v V.( q + 3 q d 8.V.V.w.V.V.V.w.w.V.V.V.w.8.8.V.w.V.w.V.V.w.V.V.V.V.V.V.V.V.V.w.V.V.V.V.V.V.V.w.V.V.V.V.V.V.V.w.w.l.b p   ",
"p z w.w.V.V.{ T z 5 5 h w.V.V.:.w.:.V.V.w.w.V.V.V.V.V.V.:.1.V.w.w.:.v 1.1.V.V.V.V.V.V.V.V.V.V.V.V.V.V.V.V.V.V.w.w.V.V.V.V.( y ( ",
"p z w.V.8.V.l.l.{ ( l.8.w.w.V.V.:.y K V.V.V.V.V.w.V.V.V.V.w.w.w.w.V.1.1.1.V.w.V.w.V.V.V.w.V.I V.w.V.V.V.w.V.V.w.V.V.V.w.V.V.z e ",
"p z 8.V.w.V.V.V.w.V.V.V.V.V.V.V.l.M u l.8.V.w.V.w.V.V.V.w.V.V.w.V.V.V.V.V.V.V.w.w.V.V.w.V.8.t w.1.V.w.w.I E T R { { V.l.w.w.z p ",
"  e F V.V.V.w.w.V.w.V.V.w.V.V.V.V.q { l.V.V.V.V.V.V.w.V.V.w.V.V.V.V.V.V.V.V.V.V.V.w.V.V.w.V.V.w.:.V.V.w.d 7 4 z k { V.V.:.w.z p ",
"  s h V.w.V.V.V.V.w.V.V.V.V.V.V.1.l.V.w.w.w.V.w.V.w.V.w.V.w.V.V.V.V.V.V.V.V.V.w.V.V.V.V.w.V.V.V.V.V.V.V.l.d p 2 + 0 Z O.v c q ( ",
"  b i w.w.V.w.V.V.V.V.V.w.V.V.V.1.l.V.w.V.V.V.w.V.V.V.w.V.V.V.V.V.V.V.w.V.V.V.V.V.w.V.V.V.V.w.V.V.w.V.w.V.8.8.& * . z { v  .s z ",
"k s ..V.V.w.V.V.V.V.V.V.V.V.V.V.1.w.V.w.V.w.1.V.V.V.i d w.V.V.V.1.V.V.V.V.V.V.V.w.w.V.w.V.1.1.l.C y V.1.V.V.C 9 & $ K l.1.1.z e ",
"z p ..V.V.V.V.8.V.V.V.V.V.V.V.V.V.V.V.V.w.V.V.V.w.i ; ; x w.V.w.1.V.w.V.V.V.V.V.V.V.V.V.V.v 1.b ; ; t V.V.8.g d 4 M l.V.1.V.z e ",
"  e  .O.:.a p d l.V.V.V.V.V.V.V.V.V.V.w.V.V.V.V.V.i ; : C V.V.V.1.1.V.w.V.V.V.V.V.V.V.V.V.V.w.K , = t V.V.V.V.V.l.l.V.l.V.w.z p ",
"  e  .1.1.b C F V.8.V.V.V.V.V.w.w.V.V.V.w.V.V.V.V.1.d c V.V.V.w.V.V.V.V.V.V.w.V.d K w.V.w.V.V.V.I h V.V.w.V.w.V.1.1.V.V.V.K e e ",
"{ e K V.V.8.p y p h V.V.V.V.V.V.V.V.V.V.V.V.V.V.V.V.w.w.V.V.V.V.w.w.V.V.l.l.b x y z 1.1.V.w.V.V.V.V.V.w.w.V.1.1.1.v w.V.w.a d z ",
"d s 8.V.V.8.b C b I V.V.V.V.V.V.V.V.V.V.V.V.V.V.V.V.V.V.w.V.V.w.w.V.V.V.V.8.i s u H l.1.V.V.V.V.V.V.V.V.V.V.:.1.1.V.V.w.w.x f ( ",
"~ r ! V.V.V.V.w.V.V.V.V.V.V.V.V.V.V.V.V.V.V.V.V.w.V.V.V.V.V.V.V.w.V.V.V.V.V.d d F 8.l.1.w.V.V.V.V.V.V.V.V.w.w.V.1.w.V.V.1.w.l s ",
"{ e D V.w.V.w.V.V.V.V.V.V.V.V.V.V.V.V.V.V.V.w.V.V.V.w.V.w.w.V.V.w.V.V.V.V.w.8.w.V.V.V.V.V.V.V.V.V.V.V.V.V.V.V.V.V.V.w.V.1.V.z p ",
"( e F V.w.V.w.V.V.V.V.w.V.V.V.V.V.V.V.V.V.V.V.w.w.V.V.w.l.0 K l.V.V.V.w.V.w.w.V.V.V.V.V.V.w.w.V.V.V.V.V.V.V.w.w.w.V.V.V.1.H p ( ",
"p 9 b V.V.V.V.w.V.w.V.V.V.V.V.V.V.V.V.V.V.V.V.V.w.V.V.V.s k u { V.V.V.w.w.V.V.V.w.w.V.V.V.V.V.V.V.V.V.V.V.V.V.V.V.V.w.V.V.w.s e ",
"r f a w.V.V.V.V.V.V.V.V.V.V.V.w.V.V.w.V.V.V.V.w.V.V.V.V.l.u E l.V.V.w.V.V.w.V.w.V.V.w.V.w.V.V.V.V.V.V.V.V.V.w.V.V.V.V.w.w.b e r ",
"r e I w.V.w.V.V.l.V.V.V.V.w.V.V.w.V.V.V.V.V.V.V.V.k b l.l.O.:.:.V.V.V.V.V.V.V.V.V.V.V.V.V.V.V.w.w.V.V.V.V.V.V.V.1.w.V.V.8.y s e ",
"s f F V.V.w.V.V.V.V.V.V.w.V.w.V.V.w.V.V.V.V.V.V.d ; > h V.V.w.w.V.V.V.V.V.V.V.V.w.V.V.V.V.V.V.w.w.V.V.V.V.V.V.V.w.V.V.w.V.F 9 f ",
"C s ..V.w.V.V.w.V.w.V.w.V.V.V.V.V.V.V.V.V.V.V.V.t ; = i V.V.V.V.V.V.V.V.V.V.V.V.V.V.V.V.V.V.V.V.V.V.V.V.V.V.V.V.V.w.V.V.V.C e 8.",
"p z V.V.V.w.V.w.V.w.V.w.w.V.V.V.V.V.V.w.V.V.V.V.V.i i 1.V.w.8.V.V.w.V.V.V.V.V.1.V.V.V.V.V.V.V.V.V.V.V.V.V.V.V.l.V.V.V.V.V.M e ! ",
"z s 8.l.w.V.V.w.w.w.V.V.V.V.V.V.V.V.V.V.V.w.w.V.V.V.1.v V.w.l.V.V.V.V.w.V.V.V.V.V.V.V.V.w.V.V.V.w.V.w.V.V.V.V.l.8.l.V.w.V.8.f l ",
"( z i 8.V.w.w.V.V.w.V.V.V.V.V.V.V.V.V.V.V.V.w.V.V.l.V.V.V.w.s O.V.V.V.w.V.V.V.V.V.V.V.V.V.w.V.V.V.V.w.V.V.V.b u u u ( V.V.I s k ",
"f e b w.V.V.V.V.w.w.:.V.V.V.V.V.V.V.V.V.V.w.V.V.V.V.w.w.w.y 4 { V.V.V.V.V.V.V.V.V.V.V.V.V.V.V.V.w.V.V.V.V.w.K b z z l.l.V.I e { ",
"e g 8.V.V.V.V.V.V.V.k b V.V.V.V.V.w.V.V.w.V.1.1.V.V.f g ( 6 4 { V.V.V.V.V.V.w.V.d I V.w.V.V.V.l.V.w.V.V.w.w.V.l.s q y E 1.K e   ",
"e z V.V.w.w.8.8.l.8.d d w.V.V.V.w.V.w.w.V.1.1.v V.V.p 8 + 3 z l.w.V.V.w.V.w.V.w.a C V.V.w.V.V.V.V.w.V.w.w.V.V.V.M M E V.1.M q { ",
"e z 1.1.V.O.k % b s s d l.l.1.v 1.V.w.w.V.w.w.1.V.V.- $ 1 o z l.V.w.w.V.V.w.h h a C w.V.w.w.w.V.V.w.V.w.V.V.l.V.@ k l.V.V.w.k p ",
"p z 1.V.V.H @ b z s d k V.V.V.1.1.w.V.V.V.V.V.V.V.l.M - o u l.l.V.V.w.V.w.V.d a a C V.V.V.V.V.V.V.V.V.w.V.w.V.l.k @ M 8.w.C s   ",
"  p I V.1.O.8.l.H d l.8.w.V.w.V.V.V.V.V.w.V.V.w.V.l.V.l._ { w.V.V.w.V.V.V.V.d i 8.V.w.V.V.V.V.V.w.V.w.V.w.w.V.V.V.V.V.V.V.t E   ",
"M p K V.1.1.V.V.1.8.l.1.V.V.w.:.V.V.V.V.V.w.w.V.V.V.l.1.l.O.V.w.w.V.V.w.w.V.8.V.l.V.V.V.w.V.V.w.V.V.V.V.V.V.V.V.V.V.w.V.V.K e   ",
"p z V.V.O.H 1.1.1.V.V.V.w.V.V.V.I 8.1.1.v 1. .E V.l.V.:.v v 1.V.V.V.l.E V.V.l.O.l.V.V.V.V.V.K V.w.V.V.V._ E V.V.1.1.V.1.w.I p M ",
"q M 8.z z u d ..d h g ( F g h g s l E k l.E d d D l.l.O.H d ..V.V.k d i b D k k d ( C g g d u z I b l.( i s E l.V.O.b k l.l.z y ",
"d i d s s E s s s s s s s s s 8 r 8 s s j s l l e z s z s s f d g p s T s s p p s f s s f 6 s w s s g f z s r j s z s p s z d i ",
"  s y         d       f z   ( s r s s ~ p z   l e e q p D { p p p         z     ( g z   { p e s s z s g   z e e e p { E p p i   "
};
