/* XPM */
static char *result[] = {
/* columns rows colors chars-per-pixel */
"64 64 122 2 ",
"   c #6B6967",
".  c #6C676C",
"X  c #666A6D",
"o  c #6C6A6D",
"O  c #71666B",
"+  c #726B6D",
"@  c #6A726F",
"#  c #72726F",
"$  c #676770",
"%  c #6E6770",
"&  c #666D73",
"*  c #6D6C73",
"=  c #6C6E79",
"-  c #726D74",
";  c #796E75",
":  c #736D7A",
">  c #786F7C",
",  c #657577",
"<  c #6D7175",
"1  c #657578",
"2  c #6E737A",
"3  c #6E797B",
"4  c #737275",
"5  c #797274",
"6  c #7A7A77",
"7  c #74747B",
"8  c #7A757C",
"9  c #75797D",
"0  c #7B7A7E",
"q  c #80777D",
"w  c #817B7D",
"e  c #7F827F",
"r  c #6D7780",
"t  c #757681",
"y  c #7A7682",
"u  c #757B82",
"i  c #7B7C83",
"p  c #757D89",
"a  c #7C7E89",
"s  c #817683",
"d  c #827D84",
"f  c #887D87",
"g  c #827E89",
"h  c #768284",
"j  c #7C8185",
"k  c #758288",
"l  c #7D838B",
"z  c #7D898E",
"x  c #7E8690",
"c  c #7F8B93",
"v  c #838285",
"b  c #8A8386",
"n  c #8C8A87",
"m  c #83848B",
"M  c #89858C",
"N  c #848A8D",
"B  c #8B8A8E",
"V  c #90868F",
"C  c #908D8E",
"Z  c #858692",
"A  c #8A8692",
"S  c #858B93",
"D  c #8B8C94",
"F  c #838F9A",
"G  c #8C8E99",
"H  c #918E94",
"J  c #918F99",
"K  c #988E99",
"L  c #859194",
"P  c #8B9295",
"I  c #86929A",
"U  c #8C949B",
"Y  c #869C9C",
"T  c #8D999D",
"R  c #939295",
"E  c #94949B",
"W  c #9A969B",
"Q  c #939A9E",
"!  c #9B9A9D",
"~  c #A0989D",
"^  c #8E97A1",
"/  c #8D9AA2",
"(  c #8F9DA8",
")  c #9496A2",
"_  c #9896A1",
"`  c #949BA3",
"'  c #9B9DA4",
"]  c #969DA9",
"[  c #9B9EA9",
"{  c #A09EA3",
"}  c #8EA2A4",
"|  c #8EA3AB",
" . c #94A1A5",
".. c #9BA1A5",
"X. c #95A3AB",
"o. c #9BA4AB",
"O. c #95AAAD",
"+. c #9CA9AD",
"@. c #93B0AF",
"#. c #96A5B3",
"$. c #9BA6B1",
"%. c #96ADB3",
"&. c #9CACB4",
"*. c #97ADBA",
"=. c #9CACBA",
"-. c #96B0B5",
";. c #9AB0B5",
":. c #96B0B8",
">. c #A2A1A5",
",. c #A2A4AC",
"<. c #A2A9AE",
"1. c #ACABAD",
"2. c #A1A6B1",
"3. c #A1AAB3",
"4. c #AFADB0",
"5. c #A0ACB9",
"6. c #B1AFB2",
"7. c #B4B2B5",
"8. c #B7B7B9",
"9. c #B9B7B9",
"0. c #BBB9BC",
"q. c None",
/* pixels */
"q.q.q.q.W 1.q.q.9.R W q.q.6.E W W W ! q.q.W 1.q.q.W W W 0.q.q.q.1.W E E W W q.q.W >.q.q.W E E W 7.q.q.4.W q.q.q.,.W W R >.q.q.q.",
"q.q.) / o.o.T N e e w s A ] o.O.O.X.v j n v a j E ..+...Q R H H v ] #.$.&.N d B d g v U o.#.$.o.` m N b d d V H o.+.o.o.R q.q.q.",
"q.W [ O.X.o.o.N o 4 ; ; 9 ` #.#.o.x 4 o   o 2 l 4 Z ..T j 7 * - 6 ` #.$.$.m - 4 4 - 4 m o.$.$.` u & X - o 0 > i ` &.3.z i q.q.q.",
"E ! 7 9 j i 9 7 G ....N 7 7 v w 0 - m w - v I o.Z 9 d v s 7 y N 9 u i i 0 + w ' ..Q h 4 i d s 6 8 M 4 8 z ( U t i ` >.a 7 ' q.q.",
"R >.0 X X X * : a a j i < o - * o d ! d : D &.&.] a 7 s 8 8 Q ,.D * X o X   0 a i u u & * 4 + 4 H H 7 a ] %.3.S 2 i i * S ..! q.",
">...l * X * * - - - * o o j m j - s q : g $.%.*.%.^ 8 * i T ;.&.U 7 o X @ - : : - * * 4 N j 7 # w 7 t ) &.%.&.o.m * = m O.%.>.! ",
"q.U [ 0 * 7 M A A g 4 8 v ' <.z 4 - - * g o.&.O.` u 7 7 E 3.*.=.&.Z - o v A A M g * v P ,.T 7 4 4 < 9 ) 2.o.o.m y & a ,.;.+.[ W ",
"R %.O.Z 7 m [ &.&.` i 9 L +.+.t i D S S 9 a K i 8 - - 8 H { 3.&.:.T 9 t E &.&.o.S 7 g ..<.L < m D F u t J B y - 4 4 y ' &.&.' 1.",
"R <.&.' y * m +.3.o.Z 9 9 L ' 9 S o.&.+.S 2 0 - 7 D B a t G $.&.&.<.B - y / &.<.` i 4 m ` N 9 E 2.<.Q 9 8 7 - N A A = a ] [ W q.",
"R ,.[ E 8 - 7 N ! D 7 g y 9 0 + T &.%.+.+.l 4 j L +.%.( p 9 G ' ..! f 8 : u ` Q i 7 m 7 0 5 0 X.&.-.+.T 7 8 m o.3.+.G 9 s [ 4.q.",
"1.W y y y U m 2 0 7 l  .` y o O t ` &.` ` P 6 P &.;.&.&.I < 4 y 0 y 7 m D 3 9 9 7 G ,.Z -   * x X.+.` Q i j [ &.&.+.3.j * G q.q.",
"8.G 2 2 D %.X.j < l X.%.&.I - X . f E y 7 7 9 ' ;.&.&.O.k * + 7 7 & u ] &.I < 3 U &.=.] u o X 4 A M t 8 * N %.%.;.-.T 1 < P q.q.",
"R o.y 9 ^ %.3.P u ] &.:.3.D 4 . o v 9 7 : 7 7 g ` ` ` F 2 7 n H Z = S  .&.o.7 U o.;.&.o.u . X 2 j 7 4 7 : t U ^ ] ^ 9 & v >.R q.",
"1.` 9 t `  .,.Z l #.*.:.3.G 4 - h 9 7 D J D s - 8 y y : X 4 b W g = S ] o.Q 2 ^ &.&.&...y : 8 k 7 v G G m 7 t t y 8 o & w ~ ,.q.",
"9.U 2 7 9 e D < = S U ^ E g 9 S o.< F 2.5.$.D 4 - 8 : * 2 7 6 4 7 7 r t P i & u ` R E P 7 l ` U u ' 3.3.` l * < 8 % 9 4 7 D q.q.",
"R $.^ U N b @ o * 7 8 ; 8 7 I O.o.< I $.:.#.N 3 0 B 8 a T Q j 2 B Q S A y * * 8 8 5 5 # j | =.U u o.3.&.` k 9 B b ; P E U l q.q.",
"R $.5.=.3.,.v < M m 0 : 4 G #.;.<.i 9 N +.Z 2 j ` o.Z S 5.U j S o.=.=.2.E < 0 E 9 5 * e [ =.3.` 9 g ' Q e 1 I &.Q 4 o.&.m D q.q.",
"R =.=.=.=.o.m 7 U o.A 4 = S o.3.U 9 o 4 B 8 j ` 5.&.U p ] Z j X.=.=.=.3.^ 4 a o.` a * u ^ =.o.N - - b i 7 D #.&.&.r F #.: V 6.q.",
"R 2.o.U U L 9 4 R 3.H 4 X 7 P P g * 2 t 4 4 ` <.&.o.l 7 ) Z i ' 2.` U I l - g ,.o.v X < m U D 8 * y 4 * N o.3.&.R - l X.4 w R q.",
"q.R B 4 4 < < * j D N : X o # 4 4 8 ) ` 8 4 T <.O.z o * g a + g P 0 4 2 4 % 5 L L 0 @ o o 4 - > Z ` Z * l ' 3.U 7 o 2 S @ e q.q.",
"q.y < * 9 u p i 9 = : 8 i + X o o d o.$.v   8 S S u o . - 7 i 4 < o 7 i i i y : 4 3 9 6 X . . 4 P 3.P 4 & m S m - X & 4 6 B q.q.",
"q.m 9 - N o.] U 9 4 D ] { b - X   ; x S 4   * 2 , 2 6 4 7 D ` B 9 - 8 W [ ' g = i U ..E 8 o o o u c y * $ = 2 2 8 y % y W N >.q.",
"1.] U 6 j 3.3.,.m 3 M G D N * 7 5 o 2 2 9 y y 9 < m R 8 4 E &.X.] m 4 ^ 3.2.' < i D D Z y < 6 5 * 4 9 0 t u & 7 E l o f [ m R q.",
"R O.X.0 j O.&.' i o - : * & * E b @ 9 j ' [ _ i 4 >.,.P 4 j ] &.&.S 4 Y %.<.A o @ - - < & i E 6 4 0 R [ [ F 4 P +. .d 4 A _ R q.",
"R ,.o.0 7 N m m 8 . . 8 g a < j i * a ..5.&.2.) 4 P ! v 4 o 0 _ ,.B * i S Z a - . O s a 9 7 m 7 4 U 2.&.&.+.9 b ' B w   4 N H q.",
"E o.Z 4 y * & & 9 ; O 8 Q o.M 4 * & a ,.&.&.5.[ 6 4 a * o $ $ i Z 7 8 9 * & : 8 O - M ,.W 0 < < t ) 3.&.;.#.N 4 l - #   & g H q.",
"q.A 2 m ' P 9 2 G L 4 6 Q +...3 G 2 g >.2.&.&.[ 0 o 4 i 2 & $ * * 8 E _ l = i ` u 4 v +.X.N h N 2 ^ 2.2.3.3.A - - i y & * g R q.",
"q.7 * g m l t m o.X.D 7 L +.L < ' ` 7 m z x x l 0 4 D X.I l 7 * o 9 m N a 7 ` X. .j 9 +. .9 j ..c u z z Z x g : g ' o.m a m q.q.",
"q.5 o - o * 4 C E v s ; 4 v 4 o i j o o & < * * 8 G $.&.#.&.U 2 O o * - - i { v g 8 + e 0 * 7 j 7 o - - * - = p o.o.&.&.o.U q.q.",
"q.n v v v v 0 5 8 * * * o o 0 g 4 & . o a v 0 * A ,.` ^ #.&.^ 4 8 v g v v - i - $ - - o 4 v u * o . 5 f f 4 t ` $.F &.#.$.z W q.",
"' #.%.$.o.O.` 8 7 j a a 7 0 ` #.Z g - o l ` 6 4 g G #.` n E R t k ( $.O.O.v - i d d y 7 S #.^ a 9   9 ^ B 5 u c $.$.D b ' m ! q.",
"R &.%.=.&.;.` 8 4 R G 7 9 Q 3.=.$.2.m - l ' 6 + Z 2.=.3.R j 9 S O.&.5.-.%.v - m ' g : A 2.=.=.&.W # 9 ( B 4 t ` 3.2.,.M y N q.q.",
"R #.#.%.;.-. .8 5 q i 4 t ] &.&.&.o.a & 0 w 6 4 d D o.,.G 7 - a ) =.=.&.&.b o 0 i y : S $.=.&.#.U 2 4 e 0 4 8 f ' <.' m - H q.q.",
"1.` z X.X. .P 8 5 i i 2 t U .. .` l 4 * + ; 7 N : i D P g 9 - - y ^ X...Q e 4 0 i 8 4 l ' X. .T 9 < o ; < j 0 8 m ` m g - s R q.",
"q.A 4 0 0 d 8 > D [ ..L 7 9 w q 0 * g f - a U X.m : i f s 4 0 N 7 9 i i 0 - b ' .. .h 4 i s 0 7 8 f 4 9 z } I 2 0 a d i 4 M H q.",
"R ..i X X o . : i a j 9 < & o ; o v W g 8 G %.&.o.l 7 0 8 j Q <.D * X X o o 8 i u h 9 o - - - 4 H H 7 g  .&.;.P 4 i y - S ..R q.",
"R ,.Z - . - ; : : : * - * m D m + 8 8 - Z $.%.:.O.U 7 * a ` -.-.T 9 - X < : > : : . * 7 B N 9 * 0 - t ) &.&.&.` m * > A @.O.C q.",
"R 3.o.y * 8 H I U Z : 8 B ..,.l 4 4 2 9 a ` $.^ U 9 4 7 W 3.%.&.&.S - - A U G G m * m E <.U 9 4 4 7 t G 2.] ` j 8 % g ,.%.+.! q.",
"R %.O.z 3 m ..;.%.` u t D ,.&.t i D G F 7 a K q > ; ; 8 A ,.3.&.*.U 9 9 E &.&.o.S 7 a ..3.I 2 m G D a 9 J M y : : 4 y ) &.O.R q.",
"R O.%.' y * m  .3.X.Z 7 9 G Q 9 S <.<.X.D > 8 > y D H g t D o.3.&.<.M : 8 T +.<.Q 0 7 l ` N 9 _ 3.&.` u 9 : - B D D r a ` o.R q.",
"R +.Q H 7 : 9 l E B 7 m a 7 7 + U &.&.-.<.N 4 m T +.;. .z 9 Z ` ` W f 8 : 9 T P 6 9 D 7 9 ; 9 ` &.%.+.` 8 8 D o.&.&.U t i K H q.",
"9.L 9 t a _ Z 4 7 7 S o.' g * X t U o.T R S 9 Q &.&.&.&.S & - 7 7 7 7 Z U t 3 7 9 T o.G 4 . * a '  .E R 9 N X.+.&.&.+.r * U H q.",
"7.E 2 = G 3.o.N * N X.&.&.I 2 X = a J y 7 4 9 _ &.%.%.X.k < 7 4 7 < i  .&.^ 1 r E %.&.o.u . . 7 A N 7 7 - Z o.*.:.%.Y , 9 ..R q.",
"R >.i 9 ] 2.3.J i o.&.&.&.D 4 . X i 9 7 7 7 t a ^ ^ ^ S < 7 B R N * S X.&.o.t ^ &.=.=.[ u . $ 4 y 7 7 7 7 t F ^ ^ Y t , v >.R q.",
"8.E 4 9 R _ [ Z a X.=.&.3.S 4 5 N 3 t R _ R y : 7 t > = X * m R d = Z T o.^ = ^ &.*.%.,.y : i l 7 N E E A > : > > 7 * X 8 ! q.q.",
"4.) u 9 2 u m = & z U D P i 9 T o.< U <.&.#.G t * 8 - - 9 8 7 : 7 t 4 3 N 9 * t E H G N 7 m ..U k o.3.&. .m * 9 8 - 2 9 y B q.q.",
"G $. .Y L N < X < 4 4 ; 4 0 U #.o.< P o.-.O.m 2 v R 8 j ` ` m 4 D ` P P 6 o o 9 : ; > 4 j | ;.U u ` &.-.T j 7 R b - E Q U m q.q.",
"R $.3.;.&.+.j < N N 8 - < D #.&.<.i 4 D o.F 4 l ` ,.N S 3.U a S o.=.&.3.E < 6 E t 8 - y ..&.&.` 7 j ..` h 9 L o.E 7 $.&.m D q.q.",
"E &.5.*.=.o.l 7 R o.D 7 = N o.&.P 7 X 4 M 7 m ' &.3.U p ] c m o.&.*.*.&.U 4 g o.` g * 9 ) &.[ m < + v u 9 P O.&.o.9 c #.4 N 1.q.",
"R ,.o.G S N 0 4 R ,.P 4 X 7 N D g * u i 4 7 ' 3.5.[ i 2 ) N 8 ! <.U D S j - f +...g o @ j B N u < i 7 o B +.3.3.D * l ` 4 g R q.",
"q.D v - 2 < * % i N j 4 o o o o - s ] ] i < U $.X.l o & i 6 + 0 N 7 - : < % ; N N i & @ o @ - 4 S o.S 4 i ` &.F 4 o < z   b q.q.",
"q.9 * * i u a a 9 = * u j 4 o o O f ] $.w   9 m z i o X & 7 e 7 * + 8 i g a i * < 2 i 0   o   4 J &.R + * i m m < o X < u R q.q.",
"q.m 9 - N o.' E t 4 A ' [ M + X O # m Z -   & < , 2 0 4 7 P [ A i < 8 _ { [ m * i ` o.E 8 . o O 8 S y + X * < < 9 6 & 0 ` ..' q.",
">.X. .9 j &.3.,.N 4 N m N l < 0 w   & 7 a a a y - M W 9 6 L &.#.$.m 4 T &.<.' < 6 N m m u 2 i 5 * = 9 a a a < 0 ` m 4 i <.o.R q.",
"R +.X.i i O.+.' t o o - * & X E b o u m >.,.` a 8 >.2.D 4 u ^ &.3.Z 4 Y +.+.B X o * - & & i W 8 4 i ) ,.,.I 4 E <...e + Z o.W q.",
"R &...0 < m m g 7 . * 8 a l 4 i i * a o.3.$.&.^ # B ` v 5 o 9 W 2.D * u j l i + O . f g i 4 m y 7 E $.&.#.&.0 e ' N s + - E q.q.",
"W [ l 4 8 : - = 8 8 . y E ,.D - < & a ,.&.5.&.O.6 4 u * O . o y Z 7 u 7 < & & q + - f ,._ 8 * & 9 E 3.=.=.&.N 4 j < + O % f ! q.",
"q.N = M { ) y 7 U Y 3 9 Y &.>.7 Q u u ..o.o.#.] i % 9 m t = * * * y ! ..l 2 m  .z - v &.&.B j T r U o.o.o.$.B - * m Z = = g ' q.",
"q.4 * i d a y m ,. .D 2 L ..N @ ` ..7 i l u l a 8 9 E 2.U Z u X X 7 i i u 4 o.X...v 7  .E 7 e  .S 9 a i p l g : m { 2.S m N q.q.",
"q.5 O * . - 4 H E g v 4 5 e 4 o 9 j o . * * * $ = G 2.$.$.&.^ 7 O + - . - d ' b i 0 - a 0 o 2 j 4 X o * % * % i ,.$.5.5.X.U q.q.",
"E b M m N b 0 5 8 % - : o * i v * * X + y b 0 * Z 2.] ^ o.#.Y 4 8 b N b b 4 i 4 * * * * 7 m i < < o 7 v b 4 y [ 2.I o.o.$.l E q.",
">.o.X.&.%.@.} 7 7 g f s 8 g X.*.G N 4 + z Q w + c &.=.` b P P u u ` &.&.%.m o a Z A y 4 U *.X.A i O 9 T B # u O.&.#.B b _ z ' q.",
"q.o.S ]  . .L N R H f A W ' ] X.] ' b C ` v b C o.] ` ' B v N <.3.o. . .` N B [ ..' R [ ' ] ` ' R b E D v n Q ` X.' ! b m ' q.q.",
"q.q.' ! ! ! ! 8.q.0.! q.q.7.! ! ! ! { q.q.' 7.q.q.! ! ! ! ! 9.q.q.7.! ! W >.q.q.~ ,.q.q.! ! ! ! ! 0.q.7.! q.q.1.! ! ! ! >.q.q.q."
};
