/* XPM */
static char *bdd5a459394c4ca9a2fc03e2c3333b578Sh87EK15YQD0lRg[] = {
/* columns rows colors chars-per-pixel */
"64 64 13 1 ",
"  c None",
". c black",
"X c #332625",
"o c #651922",
"O c #394270",
"+ c #CC3333",
"@ c #844242",
"# c #F06050",
"$ c #DE9473",
"% c #3A55B2",
"& c #FFC594",
"* c #B5B5D6",
"= c #E8E8F8",
/* pixels */
"                              oooooooooooo                      ",
"                              oooooooooooo                      ",
"                              oooooooooooo                      ",
"                        oooooo############ooooooo               ",
"                        oooooo############ooooooo               ",
"                        oooooo############ooooooo               ",
"                  oooooo######ooo################...            ",
"                  oooooo######ooo################...            ",
"                  oooooo######ooo################...            ",
"               ooo############ooo################...            ",
"               ooo############ooo################...            ",
"               ooo############ooo################...            ",
"            ooo###############ooo############+++++++...         ",
"            ooo###############ooo############+++++++...         ",
"            ooo###############ooo############+++++++...         ",
"         ooo###############+++ooo+++######++++++++++...         ",
"         ooo###############+++ooo+++######++++++++++...         ",
"         ooo###############+++ooo+++######++++++++++...         ",
"         OOO############+++===******++++++++++++++++...         ",
"         OOO############+++===******++++++++++++++++...         ",
"         OOO############+++===******++++++++++++++++...         ",
"         OOO#########+++===OOOOOOOOO***++++++++++oooooo         ",
"         OOO#########+++===OOOOOOOOO***++++++++++oooooo         ",
"         OOO#########+++===OOOOOOOOO***++++++++++oooooo         ",
"            OOO******===OOO======***OOO***ooo.......            ",
"            OOO******===OOO======***OOO***ooo.......            ",
"            OOO******===OOO======***OOO***ooo.......            ",
"               OOOOOOOOO***XXXXXXXXXXXX......XXXX...            ",
"               OOOOOOOOO***XXXXXXXXXXXX......XXXX...            ",
"               OOOOOOOOO***XXXXXXXXXXXX......XXXX...            ",
"               @@@$$$...&&&$$$XXX$$$&&&XXXXXXXXXX...            ",
"               @@@$$$...&&&$$$XXX$$$&&&XXXXXXXXXX...            ",
"               @@@$$$...&&&$$$XXX$$$&&&XXXXXXXXXX...            ",
"               @@@&&&@@@&&&&&&&&&$$$&&&XXXXXX....               ",
"               @@@&&&@@@&&&&&&&&&$$$&&&XXXXXX....               ",
"               @@@&&&@@@&&&&&&&&&$$$&&&XXXXXX....               ",
"                  @@@$$$&&&&&&$$$$$$XXXXXX.......               ",
"                  @@@$$$&&&&&&$$$$$$XXXXXX.......               ",
"                  @@@$$$&&&&&&$$$$$$XXXXXX.......               ",
"                  @@@$$$&&&&&&$$$$$$XXXXXX.......               ",
"                     @@@@@@@@@............OOO                   ",
"                     @@@@@@@@@............OOO                   ",
"                     @@@@@@@@@............OOO                   ",
"                        ...OOO***===OOOOOO===OOOO               ",
"                        ...OOO***===OOOOOO===OOOO               ",
"                        ...OOO***===OOOOOO===OOOO               ",
"                     ...***...%%%%%%...OOO***OOOO               ",
"                     ...***...%%%%%%...OOO***OOOO               ",
"                     ...***...%%%%%%...OOO***OOOO               ",
"                     ...%%%...$$$$$$@@@***OOO                   ",
"                     ...%%%...$$$$$$@@@***OOO                   ",
"                     ...%%%...$$$$$$@@@***OOO                   ",
"                        ...OOO.........OOO                      ",
"                        ...OOO.........OOO                      ",
"                        ...OOO.........OOO                      ",
"                        ...###++++++...                         ",
"                        ...###++++++...                         ",
"                        ...###++++++...                         ",
"                           .........                            ",
"                           .........                            ",
"                           .........                            ",
"                                                                ",
"                                                                ",
"                                                                "
};
