/* XPM */
static char *f0f7c0e5acc24bb0dcdb0378143eb67fJevhPJPxAyzXmMqR[] = {
/* columns rows colors chars-per-pixel */
"64 64 16 1 ",
"  c None",
". c black",
"X c #332625",
"o c #651922",
"O c #394270",
"+ c #784040",
"@ c #CC3333",
"# c #844242",
"$ c #F06050",
"% c #DE9473",
"& c #D8A078",
"* c #3A55B2",
"= c #FFC594",
"- c #F8D0B8",
"; c #B5B5D6",
": c #E8E8F8",
/* pixels */
"                              oooooooooooo                      ",
"                              oooooooooooo                      ",
"                              oooooooooooo                      ",
"                        oooooo$$$$$$$$$$$$ooooooo               ",
"                        oooooo$$$$$$$$$$$$ooooooo               ",
"                        oooooo$$$$$$$$$$$$ooooooo               ",
"                  oooooo$$$$$$ooo$$$$$$$$$$$$$$$$...            ",
"                  oooooo$$$$$$ooo$$$$$$$$$$$$$$$$...            ",
"                  oooooo$$$$$$ooo$$$$$$$$$$$$$$$$...            ",
"               ooo$$$$$$$$$$$$ooo$$$$$$$$$$$$$$$$...            ",
"               ooo$$$$$$$$$$$$ooo$$$$$$$$$$$$$$$$...            ",
"               ooo$$$$$$$$$$$$ooo$$$$$$$$$$$$$$$$...            ",
"            ooo$$$$$$$$$$$$$$$ooo$$$$$$$$$$$$@@@@@@@...         ",
"            ooo$$$$$$$$$$$$$$$ooo$$$$$$$$$$$$@@@@@@@...         ",
"            ooo$$$$$$$$$$$$$$$ooo$$$$$$$$$$$$@@@@@@@...         ",
"         ooo$$$$$$$$$$$$$$$@@@ooo@@@$$$$$$@@@@@@@@@@...         ",
"         ooo$$$$$$$$$$$$$$$@@@ooo@@@$$$$$$@@@@@@@@@@...         ",
"         ooo$$$$$$$$$$$$$$$@@@ooo@@@$$$$$$@@@@@@@@@@...         ",
"         OOO$$$$$$$$$$$$@@@:::;;;;;;@@@@@@@@@@@@@@@@...         ",
"         OOO$$$$$$$$$$$$@@@:::;;;;;;@@@@@@@@@@@@@@@@...         ",
"         OOO$$$$$$$$$$$$@@@:::;;;;;;@@@@@@@@@@@@@@@@...         ",
"         OOO$$$$$$$$$@@@:::OOOOOOOOO;;;@@@@@@@@@@oooooo         ",
"         OOO$$$$$$$$$@@@:::OOOOOOOOO;;;@@@@@@@@@@oooooo         ",
"         OOO$$$$$$$$$@@@:::OOOOOOOOO;;;@@@@@@@@@@oooooo         ",
"            OOO;;;;;;:::OOO::::::;;;OOO;;;ooo..........         ",
"            OOO;;;;;;:::OOO::::::;;;OOO;;;ooo..........         ",
"            OOO;;;;;;:::OOO::::::;;;OOO;;;ooo..........         ",
"               OOOOOOOOO;;;XXXXXXXXXXXX......XXXX......         ",
"               OOOOOOOOO;;;XXXXXXXXXXXX......XXXX......         ",
"               OOOOOOOOO;;;XXXXXXXXXXXX......XXXX......         ",
"               ###%%%...===%%%XXX%%%===XXXXXXXXXX...            ",
"               ###%%%...===%%%XXX%%%===XXXXXXXXXX...            ",
"               ###%%%...===%%%XXX%%%===XXXXXXXXXX...            ",
"               ###===###=========%%%===XXXXXX.......            ",
"               ###===###=========%%%===XXXXXX.......            ",
"               ###===###=========%%%===XXXXXX.......            ",
"                  ###%%%======%%%%%%XXXXXX.......               ",
"                  ###%%%======%%%%%%XXXXXX.......               ",
"                  ###%%%======%%%%%%XXXXXX.......               ",
"                  ###%%%======%%%%%%XXXXXX.......               ",
"                     #########............;;;OOOO               ",
"                     #########............;;;OOOO               ",
"                     #########............;;;OOOO               ",
"                     ;;;......OOO:::;;;***...;;;;OOO            ",
"                     ;;;......OOO:::;;;***...;;;;OOO            ",
"                     ;;;......OOO:::;;;***...;;;;OOO            ",
"                     +++------******OOO***...::::OOO            ",
"                     +++------******OOO***...::::OOO            ",
"                     +++------******OOO***...::::OOO            ",
"                  ...+++&&&&&&******OOO***XXXOOOO               ",
"                  ...+++&&&&&&******OOO***XXXOOOO               ",
"                  ...+++&&&&&&******OOO***XXXOOOO               ",
"                  ......++++++OOOOOOXXXXXX@@@....               ",
"                  ......++++++OOOOOOXXXXXX@@@....               ",
"                  ......++++++OOOOOOXXXXXX@@@....               ",
"                     ...............$$$@@@ooo....               ",
"                     ...............$$$@@@ooo....               ",
"                     ...............$$$@@@ooo....               ",
"                                    .........                   ",
"                                    .........                   ",
"                                    .........                   ",
"                                                                ",
"                                                                ",
"                                                                "
};
