/* XPM */
static char *_0f4359859bc4b38ea6b1770f78b86ccJImc4OCZm1tacRLJ[] = {
/* columns rows colors chars-per-pixel */
"64 64 17 1 ",
"  c None",
". c black",
"X c #332625",
"o c #651922",
"O c #394270",
"+ c #784040",
"@ c #CC3333",
"# c #844242",
"$ c #F06050",
"% c #DE9473",
"& c #D8A078",
"* c #3A55B2",
"= c #FFC594",
"- c #F8D0B8",
"; c #B5B5D6",
": c #C8C8D8",
"> c #E8E8F8",
/* pixels */
"                              oooooooooooo                      ",
"                              oooooooooooo                      ",
"                              oooooooooooo                      ",
"                        oooooo$$$$$$$$$$$$ooooooo               ",
"                        oooooo$$$$$$$$$$$$ooooooo               ",
"                        oooooo$$$$$$$$$$$$ooooooo               ",
"                  oooooo$$$$$$ooo$$$$$$$$$$$$$$$$...            ",
"                  oooooo$$$$$$ooo$$$$$$$$$$$$$$$$...            ",
"                  oooooo$$$$$$ooo$$$$$$$$$$$$$$$$...            ",
"               ooo$$$$$$$$$$$$ooo$$$$$$$$$$$$$$$$...            ",
"               ooo$$$$$$$$$$$$ooo$$$$$$$$$$$$$$$$...            ",
"               ooo$$$$$$$$$$$$ooo$$$$$$$$$$$$$$$$...            ",
"            ooo$$$$$$$$$$$$$$$ooo$$$$$$$$$$$$@@@@@@@...         ",
"            ooo$$$$$$$$$$$$$$$ooo$$$$$$$$$$$$@@@@@@@...         ",
"            ooo$$$$$$$$$$$$$$$ooo$$$$$$$$$$$$@@@@@@@...         ",
"         ooo$$$$$$$$$$$$$$$@@@ooo@@@$$$$$$@@@@@@@@@@...         ",
"         ooo$$$$$$$$$$$$$$$@@@ooo@@@$$$$$$@@@@@@@@@@...         ",
"         ooo$$$$$$$$$$$$$$$@@@ooo@@@$$$$$$@@@@@@@@@@...         ",
"         OOO$$$$$$$$$$$$@@@>>>;;;;;;@@@@@@@@@@@@@@@@...         ",
"         OOO$$$$$$$$$$$$@@@>>>;;;;;;@@@@@@@@@@@@@@@@...         ",
"         OOO$$$$$$$$$$$$@@@>>>;;;;;;@@@@@@@@@@@@@@@@...         ",
"         OOO$$$$$$$$$@@@>>>OOOOOOOOO;;;@@@@@@@@@@oooooo         ",
"         OOO$$$$$$$$$@@@>>>OOOOOOOOO;;;@@@@@@@@@@oooooo         ",
"         OOO$$$$$$$$$@@@>>>OOOOOOOOO;;;@@@@@@@@@@oooooo         ",
"            OOO;;;;;;>>>OOO>>>>>>;;;OOO;;;ooo.......            ",
"            OOO;;;;;;>>>OOO>>>>>>;;;OOO;;;ooo.......            ",
"            OOO;;;;;;>>>OOO>>>>>>;;;OOO;;;ooo.......            ",
"               OOOOOOOOO;;;XXXXXXXXXXXX......XXXX...            ",
"               OOOOOOOOO;;;XXXXXXXXXXXX......XXXX...            ",
"               OOOOOOOOO;;;XXXXXXXXXXXX......XXXX...            ",
"               ###%%%...===%%%XXX%%%===XXXXXXXXXX...            ",
"               ###%%%...===%%%XXX%%%===XXXXXXXXXX...            ",
"               ###%%%...===%%%XXX%%%===XXXXXXXXXX...            ",
"               ###===###=========%%%===XXXXXX....               ",
"               ###===###=========%%%===XXXXXX....               ",
"               ###===###=========%%%===XXXXXX....               ",
"                  ###%%%======%%%%%%XXXXXX.......               ",
"                  ###%%%======%%%%%%XXXXXX.......               ",
"                  ###%%%======%%%%%%XXXXXX.......               ",
"                  ###%%%======%%%%%%XXXXXX.......               ",
"                  :::#########............OOO                   ",
"                  :::#########............OOO                   ",
"                  :::#########............OOO                   ",
"                  :::******>>>;;;++++++OOO>>>OOOO               ",
"                  :::******>>>;;;++++++OOO>>>OOOO               ",
"                  :::******>>>;;;++++++OOO>>>OOOO               ",
"                  XXX>>>OOO***OOO------+++;;;OOOO               ",
"                  XXX>>>OOO***OOO------+++;;;OOOO               ",
"                  XXX>>>OOO***OOO------+++;;;OOOO               ",
"                  ...XXX***...OOO&&&&&&+++OOO                   ",
"                  ...XXX***...OOO&&&&&&+++OOO                   ",
"                  ...XXX***...OOO&&&&&&+++OOO                   ",
"               ...$$$XXXXXXXXX...++++++......                   ",
"               ...$$$XXXXXXXXX...++++++......                   ",
"               ...$$$XXXXXXXXX...++++++......                   ",
"               ...###@@@@@@...............                      ",
"               ...###@@@@@@...............                      ",
"               ...###@@@@@@...............                      ",
"                  .........                                     ",
"                  .........                                     ",
"                  .........                                     ",
"                                                                ",
"                                                                ",
"                                                                "
};
