/* XPM */
static char *_62baee086cb482b988c2ac2cae767df3LhRKyFRxtL3KAQI[] = {
/* columns rows colors chars-per-pixel */
"65 64 167 2 ",
"   c None",
".  c #000002",
"X  c #040000",
"o  c #3B230B",
"O  c #2A201E",
"+  c #33221B",
"@  c #38261C",
"#  c #252422",
"$  c #3F3C35",
"%  c #393939",
"&  c #393B3A",
"*  c #3A3A3A",
"=  c gray23",
"-  c #3C3A3B",
";  c #393E38",
":  c #3A3C3B",
">  c #3C3D38",
",  c #3C3E3B",
"<  c #3B3D3C",
"1  c #383C3F",
"2  c #3C3C3C",
"3  c gray24",
"4  c #3D3F3C",
"5  c #3C3E3D",
"6  c #3C3C3E",
"7  c #3E3E3E",
"8  c #3F3F3F",
"9  c #471E00",
"0  c #4D1E00",
"q  c #581600",
"w  c #5E1700",
"e  c #531800",
"r  c #591900",
"t  c #591C00",
"y  c #591D00",
"u  c #413C39",
"i  c #433E3B",
"p  c #403C3D",
"a  c #3B403A",
"s  c #3C403F",
"d  c #7D4007",
"f  c #784213",
"g  c #7B5224",
"h  c #7C5325",
"j  c #3D3E40",
"k  c #3E3E40",
"l  c #3F3F41",
"z  c #3C3C44",
"x  c #3D3D45",
"c  c #463940",
"v  c #706E6F",
"b  c #73746F",
"n  c #727473",
"m  c #747570",
"M  c #727274",
"N  c #727375",
"B  c #737476",
"V  c #757577",
"C  c #863B02",
"Z  c #823D02",
"A  c #843F04",
"S  c #853E06",
"D  c #893E05",
"F  c #813F0B",
"G  c #874008",
"H  c #83410D",
"J  c #884109",
"K  c #8A430B",
"L  c #8D4D10",
"P  c #914A12",
"I  c #914F1B",
"U  c #AA6E2F",
"Y  c #A57632",
"T  c #AB7034",
"R  c #A7A7A7",
"E  c #ABAAA5",
"W  c #AEABA4",
"Q  c #A6AAA9",
"!  c #A7ABAE",
"~  c #A9A9A9",
"^  c #AAAAAA",
"/  c gray67",
"(  c #A9AEA8",
")  c #ABADAA",
"_  c #AAACAB",
"`  c #ACAFA8",
"'  c #ACAEAB",
"]  c #AAABAD",
"[  c #A8A9AE",
"{  c #A9AAAE",
"}  c #A9AAAF",
"|  c #AAABAF",
" . c #ADABAC",
".. c #ABADAC",
"X. c #AAAEAD",
"o. c #ABACAE",
"O. c #ACACAC",
"+. c gray68",
"@. c #AEACAD",
"#. c #ACADAF",
"$. c #AEAEAE",
"%. c #B0ADA6",
"&. c #B0AAAA",
"*. c #B4ACAA",
"=. c #B2A9AC",
"-. c #B2ACAC",
";. c #B2ACAE",
":. c #A9A9B1",
">. c #AAABB0",
",. c #A9ADB0",
"<. c #AAAEB1",
"1. c #ABAFB2",
"2. c #ADAEB2",
"3. c #AEAFB4",
"4. c #E7BE90",
"5. c #C3C4BF",
"6. c #C8C3BF",
"7. c #BDC6CB",
"8. c #C3C3C3",
"9. c #C7C1C3",
"0. c #C3C5C4",
"q. c #C2C6C5",
"w. c #C3C4C6",
"e. c gray77",
"r. c #C5C5C5",
"t. c #C6C6C6",
"y. c gray78",
"u. c #CAC5C1",
"i. c #C9C3C5",
"p. c #CDC0C7",
"a. c #C6C8C7",
"s. c #C7CBCA",
"d. c #CED2D5",
"f. c #D3D5D2",
"g. c #D8D3D0",
"h. c #D9D3D3",
"j. c #D8D7D2",
"k. c #D3D7DA",
"l. c #DBDFDE",
"z. c gray87",
"x. c #FFF3C4",
"c. c #E1E2DD",
"v. c #E6D9E0",
"b. c #E5DFE1",
"n. c #DCE5EA",
"m. c gray88",
"M. c #E1E3E2",
"N. c #E2E2E2",
"B. c gray89",
"V. c #E5E1E2",
"C. c FloralWhite",
"Z. c #F7FFFF",
"A. c #FFFBF9",
"S. c #FFFCF8",
"D. c #FFFCFA",
"F. c #FFFEFA",
"G. c #F8FFFF",
"H. c #FFFDFD",
"J. c #FDFFFC",
"K. c #FFFFFD",
"L. c #FCFCFE",
"P. c #FFFDFE",
"I. c #FFFCFF",
"U. c #FFFDFF",
"Y. c #FEFEFF",
"T. c #FFFEFF",
"R. c white",
/* pixels */
"                                                                                                                                  ",
"                                                                                                                                  ",
"                                                  p 3 3 % % % % 3 8 8 8 = = ,                                                     ",
"                                                  s p j % % % % l 8 8 8 = = -                                                     ",
"                                                  s 3 p = = % % 8 8 8 l = = =                                                     ",
"                                                  p s 3 % % = = 8 8 8 3 = = =                                                     ",
"                                          3 3 = 3 z.z.z.N.B.B.B.N.c.N.z.N.z.N.3 8 8 8                                             ",
"                                          = = 3 3 z.z.z.M.M.B.B.m.m.z.N.z.N.N.3 8 8 8                                             ",
"                                          3 3 = 3 z.z.z.B.B.B.B.m.m.m.m.N.m.m.p s p s                                             ",
"                                    3 = = m.z.N.m.8.8.8.y.y.y.y.8.8.8.8.y.y.e.e.e.e.e.3 3 3                                       ",
"                                    , 3 3 z.N.z.m.8.8.8.y.y.y.y.8.8.8.8.y.e.e.e.8.8.e.3 3 3                                       ",
"                                    = - = N.z.N.m.8.e.e.y.y.y.y.8.8.8.8.y.e.y.e.8.8.9.3 3 3                                       ",
"                                    3 3 3 N.N.N.m.e.8.8.e.e.y.e.8.8.8.8.e.e.e.e.8.8.e.3 3 3                                       ",
"                            3 3 3 3 N.N.N.e.e.e.e.+.+.+./ R +./ +.] O.O.+.+.+.+.+.+.+.R R R 8 8 8 8                               ",
"                            3 3 3 3 N.N.N.e.e.y.e.$.+.$./ / / / O.O.O.O.+.O.O.+.$.$.$.R R R 3 8 8 8                               ",
"                            3 3 3 3 N.N.N.e.e.y.e.$.$.$./ R / / O.O.O.O.+.O.O.+.$.$.$.Q R R l 8 8 8                               ",
"                      = 3 = N.N.N.N.e.e.e./ / / / +.+.$./ / / R $.$.$.$./ / / +.+.+.+. ... . .' +.O.= = =                         ",
"                      3 = 3 N.N.N.N.e.e.e./ / / +.+.+.$.R / R / $.$.$.+./ / / +.+.+.+... ... .] ' +.= = =                         ",
"                      = 3 = N.N.N.N.e.e.e./ / / / +.+.+./ R / R $.$.+.+./ / / +.+.+.+. ... . .+./ / % = =                         ",
"                      3 = 3 N.N.N.N.e.e.e./ / / ' +.2.+.R / R / $.$.+.+./ / W ) +.+.+... ...+. ./ / = % =                         ",
"              c c c c v.v.v., , , , 3 a 3 ) ] ) ) ] ) ..>...>...2.+.2...%.%.%.W W W W z z z x x x x 2.2.2.- - - -                 ",
"              c c c c v.v.v., , , 3 a , a ..) / / ) Q ..+.>...>.+.2...2.%.%.%.W W W W z z z x x x x 2.2.2.- - - -                 ",
"              c c c c v.v.v., , , , , s s ..] ) ..] ) / ] ,.] ..,.+.2...%.%.%.W %.) W z x z x z x z 2.2.2.- - - -                 ",
"        a a a v.v.v.v.p.p.p.) ) ' ' f.f.f.< < < < ....+.] ] ] ]  .2.] ] W W W $ u $ $ L.L.L.>.:.>.:.>.] >. . . . .u u u           ",
"        a a a v.v.v.v.p.p.p.) ) ' ) f.f.f.< 3 3 s ......] ] ] ] ] ,.] ..W W W $ $ $ $ L.L.L.:.:.:.>.] >.>. . . . .u u u           ",
"        a a a v.v.v.v.p.p.p.) ) ' ) f.f.f.s s < , ) ....] ] ] ] ,. .,.] W W W $ $ $ $ F.L.L.:.>.:.>.>.>.]  . . . .u u u           ",
"        a a a v.v.v.v.p.p.p.) ) ) ) f.f.f.3 < 3 3 +.....! ) .... ...] ..%.) W $ u u u L.L.L.2.>.:.:.,.>.>. .+.+. .u u u           ",
"        p p p b.b.b.b.i.i.i.! ! ! / k.k.k.. . . . j j j a a s a , , ; ; i i p X X X X L.L.L.2.2.2.2.,.,.,.! ! ! ! 3 < 3           ",
"        p p p b.b.b.b.i.i.i.! ! ! ! k.k.k.. . . . j c s a a a a ; ; ; ; i i i X X X X L.L.I.2.2.2.2.,.,.,.! ! ! ! < < 3           ",
"        p p p b.b.b.b.i.i.i.! ! ! ! k.k.k.. . . . j j j a a a a ; ; ; ; i i i X X X X L.L.I.2.2.2.2.,.1.1.! ! ! ! 3 s s           ",
"3 = 3 = V.V.V.9.9.9.9.;.;.;.,.,.! ,.d.d.d.. . . . L.L.L.( ( ( ( ( ( ( ( g.g.g.X X X X L.L.L.] [ ] >.,.,.,.1.1.1.1.n n n < < < <   ",
"= 3 = 3 V.V.V.9.9.9.9.;.;.;.,.,.,.,.d.d.d.. . . . L.L.L.( ( ( ( ( ( ( ) g.g.g.X X X X L.L.L.:.] [ >.,.,...1.1.1.1.n n n < < < <   ",
"- < = , V.V.V.i.9.9.e.;.;.;.X.1.,.,.d.d.d.. . . . L.L.L.( ( ) ) ( ( ( ( g.g.g.X X X X L.L.L.] ] ] ! >.>.,.1.1.1.1.N n n 3 < < <   ",
"3 3 - , V.V.V.e.9.9.i.;.;.;.,.X.,.,.d.d.d.. . . . L.L.L.( ( ( ..( ( ( ) g.g.g.X X X X L.L.L.] ] ] :.,.! ,.1.1.1.,.n n M 3 < < <   ",
"< 3 3 3 N.N.M.q.w.w.q.Q Q Q ` ` ' ' j.j.g.F.A.F.F.L.L.L.3.3.3.3.] >.>.>.h.h.g.L.L.L.L.L.L.L.' ( ) )  . . .;.+. .+.M M M l l j l   ",
"s < 3 , c.n.M.q.q.q.q.Q Q Q ` ` ` ` j.j.g.F.I.A.F.L.L.L.3.3.3.3.>.>.>.>.h.h.g.L.L.F.L.F.L.F.' ' ) )  . . .$. .+.+.M M M l l l l   ",
"3 3 < s M.M.M.q.q.q.q.Q Q Q ( ` ` ` j.j.j.F.F.F.A.I.I.I.2.2.3.3.>.>.>.>.h.h.h.L.L.L.F.L.F.L.) ) ) )  . . .+. .;. .M M N l l l l   ",
"< s < 3 M.M.M.q.q.q.q.Q Q Q ' ` ` ` j.j.g.A.A.A.F.I.I.I.2.2.3.3.>.>.>.>.h.h.h.L.L.L.L.F.L.G.) ) ) )  . . .+.+. . .M M N l l l l   ",
"& & , % M.M.M.q.q.q.q.( X.X.` ` ` ` E E W *.*.*.*.=.;.=.[ [ [ [ ] :.] >.&.&.*.;.;.*.;.' ( ' ) ) ) )  . . .v v v v V V V j = 3 3   ",
"& & % ; M.M.M.q.q.q.q.X.$.( ` ` ` ` E E R *.*.*.*.=.=.=.[ [ [ [ :.! ] ] &.O.*.;.*.;.*.' ' ' ) ) ) )  . . .v v v v V V M j j = j   ",
"& & < = n.n.c.w.w.q.q.X.X.X.( ' ` ` E E E &.*.*.*.;.&.;.] [ [ [ ] ] [ ] &.&.&.*.;.*.;.) ....) ) ' +. . .O.v v v v V n V j 3 j -   ",
"        = & < 0.0.0.8.a.a.a.....$.( ) ! ) 7.7.7.7.7.7.7.s.s.s.s.8.5.5.8.u.u.u.6.6.6.6.N N N n V N n m m b b b b m j s s           ",
"        1 z & w.0.0.0.a.a.a.( ..) ....) ) 7.7.7.7.7.7.7.s.s.s.s.5.5.5.5.u.u.u.6.6.6.6.N N N N V n V m m b b b b n s s s           ",
"        1 & j w.0.0.0.a.a.a.$.......) ....7.7.7.7.7.7.7.s.s.s.s.5.5.5.5.u.u.u.6.6.6.6.N N N V V V N m m b b b b b 3 s s           ",
"        1 & j 7.8.8.q.a.w.s.......) ] ) / 7.7.7.7.7.7.7.s.s.s.s.5.5.5.5.u.u.u.6.6.6.6.N N N n V N V n b b b b n n s s s           ",
"              , s < s , < < < & & , a.a.a.7.7.7.7.n.n.n.l.l.l.l.c.z.c.c.F.F.F.S.S.S.S.w.w.w.j j j j $ , > > ; $ ,                 ",
"              3 s 3 < 3 < s & < & < a.a.a.7.7.7.7.n.n.n.l.l.l.l.c.c.c.c.F.F.F.S.S.S.S.w.w.w.< j j j , ; $ , ; , $                 ",
"              < < 3 s s < 3 < & < & a.a.a.7.7.7.7.n.n.n.l.l.l.z.c.c.c.c.F.F.F.S.S.S.S.w.w.w.j j j 3 , $ ; , $ $ ,                 ",
"              0 0 0 0 t y y t r r r q q q C.C.C.C.A.A.F.L.F.L.F.L.L.L.L.L.L.L.L.L.L.L.4.4.4.9 9 9 9                               ",
"              0 0 0 0 t y y r r r r q q q C.C.C.C.F.I.A.L.L.L.L.L.L.L.L.L.L.L.L.L.L.L.4.4.4.9 9 9 9                               ",
"              0 0 0 0 t t t r r r r q q q C.C.C.C.A.A.F.L.F.L.L.L.L.L.L.L.L.L.L.L.L.L.4.4.4.9 9 9 9                               ",
"              0 0 0 0 t y t r r r r q q q C.C.C.C.F.A.A.L.L.F.L.L.L.L.L.L.L.L.L.L.L.L.4.4.4.9 9 9 9                               ",
"        O O O Y Y Y Y U U U L L L L I I I @ @ @ @ A.A.A.L.L.L.F.L.L.L.L.L.L.L.L.L.L.L.h g g h h h h # # #                         ",
"        O O O Y Y Y Y U U U L L L L I I I @ @ @ @ A.A.A.F.L.L.L.L.L.L.L.L.L.L.L.L.L.L.h g g h h h h # # #                         ",
"        O O O Y Y Y Y U U U L L L L I I I @ @ @ @ F.A.F.L.L.L.F.L.L.L.L.L.L.L.L.L.L.L.h g g h h h h # # #                         ",
"        + + + T T T T K K K A A C C D D D Z Z Z Z r r t G.G.G.G.G.G.G.G.x.x.x.H H H H J G G P P P P o o o                         ",
"        + + + T T T T K K K C C C C D D D Z Z Z Z t t t G.G.G.G.G.Z.Z.Z.x.x.x.H H H H G G G P P P P o o o                         ",
"        + + + T T T T K K K C C C C D D D Z Z Z Z t t t G.G.G.G.Z.Z.Z.Z.x.x.x.H H H H G G G P P P P o o o                         ",
"        + + + T T T T K K K C C C C D D D Z Z Z Z t t t G.G.G.G.Z.Z.Z.Z.x.x.x.H H H H G G G P P P P o o o                         ",
"              e e e e A A D D D D D D D D A A A A d d d G.G.G.G.Z.Z.Z.Z.f f f F F F F J J J w w w w                               ",
"              e e e e S S S D D D D D D D A A A A d d d G.G.G.G.Z.Z.Z.Z.f f f F F F F J J J w w w w                               ",
"              e e e e S S S D D D D D D D A A A A d d d G.G.G.G.Z.Z.Z.Z.f f f F F F F J J J w w w w                               ",
"                                                                                                                                  ",
"                                                                                                                                  "
};
