/* XPM */
static char *cf092ada40d84c5eb64a9ccac8d001776GjxmYiRpvSbFJke[] = {
/* columns rows colors chars-per-pixel */
"64 64 226 2 ",
"   c None",
".  c #1B0E1A",
"X  c #180E17",
"o  c #151512",
"O  c #1B1213",
"+  c #1C131B",
"@  c #210D1F",
"#  c #211415",
"$  c #21131E",
"%  c #251C1F",
"&  c #22241E",
"*  c #1E0E23",
"=  c #1D1321",
"-  c #260627",
";  c #230C24",
":  c #2A052C",
">  c #260B2A",
",  c #2B0C2D",
"<  c #27072C",
"1  c #330A2F",
"2  c #241323",
"3  c #291526",
"4  c #251925",
"5  c #291B26",
"6  c #25132A",
"7  c #2B142C",
"8  c #2D1B2B",
"9  c #27192D",
"0  c #30182E",
"q  c #2B0533",
"w  c #2B0C33",
"e  c #290B36",
"r  c #300633",
"t  c #320C34",
"y  c #340B3B",
"u  c #360A38",
"i  c #2D1232",
"p  c #2C1B32",
"a  c #321434",
"s  c #391136",
"d  c #331C34",
"f  c #341339",
"g  c #3A123C",
"h  c #361B3B",
"j  c #3A1C3B",
"k  c #252223",
"l  c #2B2423",
"z  c #2C232C",
"x  c #2F282F",
"c  c #312529",
"v  c #2E2430",
"b  c #352334",
"n  c #352A35",
"m  c #392A36",
"M  c #36243A",
"N  c #3A233B",
"B  c #3C2B3D",
"V  c #362838",
"C  c #3B323A",
"Z  c #421D3F",
"A  c #40203F",
"S  c #412E3E",
"D  c #413636",
"F  c #3A0943",
"G  c #3D1D42",
"H  c #3C1646",
"J  c #3D2243",
"K  c #3D2A42",
"L  c #3F244C",
"P  c #372044",
"I  c #3F3145",
"U  c #440D4E",
"Y  c #421D43",
"T  c #451B4C",
"R  c #44154A",
"E  c #4A1C53",
"W  c #4B1B55",
"Q  c #551F5D",
"!  c #470F51",
"~  c #412343",
"^  c #432C44",
"/  c #44244B",
"(  c #462C4A",
")  c #4B2C4C",
"_  c #49274B",
"`  c #443245",
"'  c #4B344B",
"]  c #4B3A4C",
"[  c #473748",
"{  c #4C2255",
"}  c #4D2C52",
"|  c #4E2259",
" . c #452350",
".. c #54225C",
"X. c #532B5D",
"o. c #542B57",
"O. c #4D3453",
"+. c #4D325A",
"@. c #4D3950",
"#. c #533255",
"$. c #523C54",
"%. c #54345A",
"&. c #5C355C",
"*. c #553A5B",
"=. c #5B3B5C",
"-. c #5A3657",
";. c #503E4E",
":. c #571D60",
">. c #5D266D",
",. c #5B2A66",
"<. c #5B3463",
"1. c #553962",
"2. c #5C3C63",
"3. c #5E3C6A",
"4. c #573165",
"5. c #5F2A71",
"6. c #62266E",
"7. c #652B6B",
"8. c #603C64",
"9. c #643C6D",
"0. c #6A3E6D",
"q. c #68356D",
"w. c #632B73",
"e. c #6B2B75",
"r. c #662C7A",
"t. c #692C7A",
"y. c #692775",
"u. c #6B3474",
"i. c #643E71",
"p. c #6B3C74",
"a. c #6A357C",
"s. c #723976",
"d. c #73337D",
"f. c #723C7A",
"g. c #723776",
"h. c #742F7C",
"j. c #534E4D",
"k. c #5A435B",
"l. c #5B495B",
"z. c #544353",
"x. c #575556",
"c. c #585455",
"v. c #5D525A",
"b. c #4C414C",
"n. c #655F5C",
"m. c #5F605B",
"M. c #63625D",
"N. c #5E4263",
"B. c #5F4861",
"V. c #634465",
"C. c #634C64",
"Z. c #644469",
"A. c #69456D",
"S. c #6B4D6D",
"D. c #66496B",
"F. c #724B6F",
"G. c #665D65",
"H. c #685E66",
"J. c #6C536C",
"K. c #6B5D6C",
"L. c #655B67",
"P. c #664072",
"I. c #6C4275",
"U. c #6D4C72",
"Y. c #6F4379",
"T. c #6E4878",
"R. c #734C73",
"E. c #72447D",
"W. c #764E7C",
"Q. c #794E7D",
"!. c #73527A",
"~. c #7B547C",
"^. c #7D5A7F",
"/. c #765575",
"(. c #6F5177",
"). c #666164",
"_. c #686067",
"`. c #6B636B",
"'. c #676069",
"]. c #72696A",
"[. c #706668",
"{. c #746674",
"}. c #746C73",
"|. c #7A6C7A",
" X c #786A77",
".X c #7A7379",
"XX c #787177",
"oX c #80567D",
"OX c #6E3382",
"+X c #733382",
"@X c #7D3A8B",
"#X c #783A86",
"$X c #734282",
"%X c #7A4D84",
"&X c #7B4688",
"*X c #7B5283",
"=X c #7E538A",
"-X c #7C4290",
";X c #7F4B91",
":X c #853C8E",
">X c #813689",
",X c #833D91",
"<X c #8A3E92",
"1X c #83438D",
"2X c #834A8C",
"3X c #814B86",
"4X c #815584",
"5X c #85538C",
"6X c #845888",
"7X c #844492",
"8X c #8C4493",
"9X c #834A94",
"0X c #8C4D94",
"qX c #8C4699",
"wX c #854C9A",
"eX c #8D4C9B",
"rX c #92469A",
"tX c #924A9E",
"yX c #94499D",
"uX c #93499B",
"iX c #914A97",
"pX c #8B5095",
"aX c #847B83",
"sX c #944CA0",
"dX c #888188",
"fX c #958C96",
/* pixels */
"                                                                                                                                ",
"                                                                                                                                ",
"                                                                                                                                ",
"                                                                                                                                ",
"                                                                                                                                ",
"                                                                                                                                ",
"                                .XH.v.n.n.l.n.v.v.c.c.c.c.x.x.c.x.x.x.x.x.x.x.x.v.v.v.v.m.x.H.oX                                ",
"                                H.m 5 8 8 8 5 8 l 4 & k k k l k k k k k k k k k 5 l 5 z l l C }.                                ",
"                                v.0 % $ $ 3 $ $ $ + + + + O + + + + + + + + + + $ 2 $ + @ $ c H.                                ",
"                              fXC.) Z Z Z Z A A N N N N M N N N N N V V N N M N N N j j d a N C.fX                              ",
"                        aX).v.C.0.s.g.g.s.g.g.s.f.Y.s.p.p.u.u.p.p.a.p.p.a.p.p.a.p.p.p.q...Q ..#.l.x._.aX                        ",
"                        }.C n ^ 0.:X8X<X8X8X8X8X8X0X0X8X7X1X,X1X7X7X9X9X7X9X9X7X0X2X2X#X7.6.>.| M v C }.                        ",
"                        '.z 2 d g.8XrXrXyXyXyXyXyXsXsXsXqXtXqXtXtXeXqXtXeXeXtXeXeXeXeX1Xt.y.6.E 7 + z L.                        ",
"                        G.z 2 d g.:X8XrXuXyXyXyXyXsXsXyXtXtXqXqXqXqX<XqXqXqXqXqXeXtXqX1X+Xe.6.| 7 + z H.                        ",
"                        G.l 2 p e.>X:X<XrXrXuXyXyXsXsXsXsXtXrXrX,X,X,X:X@X,X,XqXeXpXeX-X+Xy.6.W 8 + z H.                        ",
"                        _.z 2 d 7.+X>X:X8XrXuXyXyXsXsXyXsXsXiXrX,X@X@X@X@X@X@X,XeXeXeX7X+Xy.6...i 2 x _.                        ",
"                        `.l 4 8 7.d.>X>X<XiXrXrXuXuXyXyXyXsXuX8X:X+X+X+X+X+X#X@XwXeXeXwXOXy.5.| 8 2 x G.                        ",
"                        ).z = 9 ..7.h.h.:X8XiXiXuXuXyXyXsXsXiX8Xf.e.q.w.u.w.u.#X9XeXeX-XOXOX6.| 7 + z ).                        ",
"                        M.& o = g R W ..s.3X5X0XiXiXrXiXuXuXiXs.o.j N h j j J %.-XwXqX@XOXy.>.W 8 # l ).                        ",
"                        M.& o + , r u E 0.Q.oX5XiXrXrXrXuXuX8Xq.A 4 $ # $ $ 5 / #XwX-X@XOXy.>.W 4 O l M.                        ",
"                        M.& o o : : r Y 0.Q.4X3XiXiXiXrXrXrX8Xq.N $ O o o + $ K Y.;XwX-XOX>.>.W 5 O l M.                        ",
"                        M.k o O - q r Y 0.Q.4X5XiXiXiXiXrXrX8Xq.N $ o O O o $ K $X9XwX-XOXOX>.L 5 O & M.                        ",
"                        m.& o o - : r R 0.Q.4X5XiXiXuXrXrXuX8Xq.N # X X o + + K #X;XwX@XOX5.5.| 3 O l M.                        ",
"                        M.& o + - : r T 0.oX6X5XiXiXuXrXuXuXiX0.N $ o O O o 4 P $XwXwX-XOXOX5.W 5 O l M.                        ",
"                        x.& o O - : q T A.*X6X5X0XiXuXuXuXuX0X0.~ 5 + + + + 4 ~ $X;X;X-XOXOX5.| & # & n.                        ",
"                        x.% + + t H Y | T.*X6X5X0XiXuXiXuXuXiXs.) b 8 8 x v b O.-X;XwX-XOXOX5.| l # & j.                        ",
"                   XK.k.V 2 2 7 / X.,.q.$X=X5X5XpXeXiX0XiXiX0XE.8.%.#.#.#.#.%.9.;XwXwX-XOXOX>.W 3 # # c M.M.oX                  ",
"                |.` b p 6 ; 2 a X.9.p.I.=X=X=X5XpXpXeXpXpXpX0X&Xf.9.9.9.0.P.p.E.;XwX;X-XOXOX>.L 3 # # & l l D oX                ",
"                K.N > ; ; > 6 f 4.p.Y.E.*X=X=X5XpXpX0XpX0X0X0X3XE.I.I.I.I.Y.Y.$X;XwXwX-XOXt.7.E 3 # O O O O l ].                ",
"                `.h ; > 7 8 d J 8.I.$XY.E.$X$X&X5XpX0X0X&X&X&X#XE.Y.Y.P.p.8.9.#X;XwXwX;X+Xt.w.o.3 # O O # # l [.                ",
"                K.b ; a ~ O.$.*.E.%X%XY.4.Q W >.f.7X2X&X>.Q Q 7.f.%X%Xp...T E ,.-X;XwX-X#XOXe.o.3 # O O O O c ].                ",
"                K.j ; d ' k.V.D.W.%X%Xp.{ H H | p.2X2Xd.W U U :.p.%X%XI.W F H | -XwXwX;X-X-Xg.Q 3 # O O O O c ].                ",
"                K.b > d @.B.C.S.*X*X%Xp.T F y W q.1X3Xd.! F F W p.*X%Xp.T r F W $X;XwX;X-XOXa.,.8 # O O # # 5 [.                ",
"                L.M i M ' $.k.N.U.*X*XZ.T y y T q.2X3Xg.! F F ! <.I.A.<.G q y E f.;X;X-Xa.a.4.{ 7 # @ # % % c H.                ",
"          dXXX`.;.K P V P V P ` N.S.S.2.G , , Y 8.&X%Xp.U u u g ~ ( ^ J 7 > 6 P Z.T.T.9.+. .T G 7 @ @ 3 b m S z.].XXaX          ",
"        XXb.x I I [ [ K p 9 9 v z.B.C.$.d 2 ; Z 8.Q.Q.9.R u r , 7 4 2 4 2 2 2 M *.V.V.%.P f i w - ; > 0 ^ ' ' ` B C b.dX        ",
"        '.z = = K [ ] K 9 * * 9 ] l.l.] b 2 2 N 2.Q.~.0.g t : - * X . . + + = b $.k.k.O.h , > < > > , d ) $.O.B 4 + x .X        ",
"        '.z = = V I I P 9 * * 9 [ z.z.[ 0 2 2 N =.~.R.0.R t r - . + . O + + 2 z ' *.%.( i > ; * > > , 0 ^ ) ( N = + x XX        ",
"        '.v = = v M V v 9 * * 9 M B B b 3 $ @ N &.R.R.8.H r : - ; + X . . + + 4 N ~ ~ h i > - - ; > > 0 h N h p + + z .X        ",
"        '.v = = = * 9 * * * * * 3 7 5 5 @ @ 2 j #.0.A.<.g u : < ; . + + X . . . 6 w 8 7 > ; - * ; > > > 7 , 7 2 + o x XX        ",
"        H.v = = = * * * * * * 6 2 ; @ @ @ @ @ d #.0.0.&.g r : < * + + + X X X . ; - - ; - - * - ; > ; ; > ; ; * + X z }.        ",
"        L.n 4 2 2 ; * * * * * * ; $ @ @ @ @ 2 s ) 8.=.o.u r : , 7 4 4 2 * X X * ; ; - * * - * - > > > , i w i 6 = . z `.        ",
"  dXaX|.z.B V v 7 2 ; ; * ; ; ; ; ; ; ; ; @ ; 1 j _ / G w q , i N K K N 6 * * * ; ; ; ; * @ * - < < e f / / / M = + 5 b.{..XdX  ",
"aX[ j N ` ' ' ^ 0 > ; ; > ; ; ; ; - - - - - ; , w w i w > > > G +.N.2.O.H < < * * ; ; * ; @ * ; q e y H 4.9.3.) 8 2 2 5 v x ] XX",
" XA - 0 ^ ' ' ' d 7 - > ; > ; - - - - - - - - : > w , ; < < , G %.Z.N.*.H e < > 2 2 2 ; @ . * ; q e F H 3.I.i.+.0 2 2 $ $ @ m _.",
"].d @ 3 N ` ) S j 0 7 7 3 > - ; , 1 1 1 : - : - w i i e > * > P *.D.D.1.G > > , 6 9 3 3 ; ; ; > e F F L 3.I.i.%.b 5 3 $ @ # n H.",
" Xd - 3 0 d d A ^ ) ' ~ a ; > 7 ~ ) ) A a , , a J ( ( L i > , J 2.U.U.2.H e , p B ` ^ M 3 @ 2 d L +.+.4.i.P.P.=.^ S m c % @ n H.",
" Xd @ @ 3 3 3 0 ' $.=.O.d ; 2 1 ) -.&.} d 1 1 s ( *.*.( i e , L N.(.(.N.P e w h ' $.$.` 9 2 2 h X.5.i.i.i.P.P.=.] [ S b 3 $ b H.",
"{.d @ @ ; @ ; 0 @.V.C.-.j ; ; 0 $.8.V.-.j 1 1 j O.N.N.O.f 6 w J N.!.!.N.L w w j $.k.k.[ 8 ; 6 N 4.P.P.P.P.P.3.N.@.b.[ C 4 @ n H.",
"{.b @ 3 3 0 0 j -.C.C.=.S s s j -.Z.A.-._ d g ~ %.Z.Z.*.J f h } N.!.(.N./ f f J z.l.l.] M 7 8 J 1.P.P.P.P.P.P.1.*.b.[ V 5 = b H.",
" Xb - 0 A ` @.z.B.F.F.C.-.-.#.-.A.F.R.A.&.#.#.=.D.U.(.A.=.%.%.<.T.U.U.Z.%. .) %.V.V.B.-.^ J J ( 1.P.P.3.P.3.1.k.$.b.@.K 9 2 V K.",
" Xd ; 0 ;.C.J.J.F././.oXF.R.F.R./.^.^./.R.F.F.R.W.~.~./.R.R.R.R.T.U.U.A.V.3.3.V.Z.A.Z.8.#.} } #.1.1.1.3.1.1.1.1.z.+.@.K 7 ; M K.",
"{.d 2 d k.J././.oXoXoXoXoXoXoXoX^.oX*X^.~.~.~.~.~.~.3XoX4XoXoX~.U.A.D.A.A.D.A.D.A.A.A.V.%.-.%.%.1.1.1.1.1.1.1.z.*.$.@.K 7 ; M K.",
" Xd 3 0 $.C.J.J.V.0.oX0.F./.R.F.R.!./.(.R.U.R.U.R.R.R.R.W.R.R.I.Z.3.2.8.3.9.8.8.8.8.8.&.#.o.} o.+.+.+.+.+.+.+.+.@.@.( M 9 * M K.",
"].b > 7 ^ @.$.$.-.-.Q -.-.-.&.&.=.&.&.=.*.%.%.&.&.&.&.&.&.&.&.&.o.} } } } } } } } } ) ) / ~ ~ / L L L L L L L L K K K p ; * M K.",
"{.d ; ; 7 8 i 0 Z 1 Z 1 Z Z 1 Z s g f f s s s s g g g g s u s u f y f u t t t t a t t t t t w t e e e e e e e 9 e 6 w > * * h L.",
" Xb 3 3 > 2 3 7 - 1 Z 1 1 1 1 1 t t t t , t t t t u t t r r r r w t w t w w r w w , w w t 1 w w e e i e e i e i 6 * 9 , * * K K.",
"aX' N M m N N A Z Z Z _ Z Z Z Z Y ~ N Y ~ j j Y Z _ Y Y Z Y j Y Y J ~ J G G G G G G Z G J J G J P P P P P P P P P K V V N M @.|.",
"                                                                                                                                ",
"                                                                                                                                ",
"                                                                                                                                ",
"                                                                                                                                ",
"                                                                                                                                ",
"                                                                                                                                "
};
