/* XPM */
static char *result[] = {
/* columns rows colors chars-per-pixel */
"64 64 247 2 ",
"   c #1C141A",
".  c #1E1405",
"X  c #2C0E03",
"o  c #340D02",
"O  c #2C1404",
"+  c #2C150B",
"@  c #27190A",
"#  c #321203",
"$  c #3D1506",
"%  c #351B06",
"&  c #321C0B",
"*  c #3C1C0B",
"=  c #37150A",
"-  c #251716",
";  c #351D13",
":  c #34230C",
">  c #3B230C",
",  c #392609",
"<  c #2C2115",
"1  c #2A221C",
"2  c #342414",
"3  c #3B2413",
"4  c #3C2915",
"5  c #3D2B1B",
"6  c #35261A",
"7  c #3D301D",
"8  c #2E230C",
"9  c #1F1D20",
"0  c #281D23",
"q  c #301F22",
"w  c #2B2324",
"e  c #2A2728",
"r  c #3C2C23",
"t  c #342927",
"y  c #3A332A",
"u  c #2B2631",
"i  c #362B33",
"p  c #393535",
"a  c #441E0D",
"s  c #451A0A",
"d  c #4A1C0E",
"f  c #42230B",
"g  c #49280C",
"h  c #51260E",
"j  c #432515",
"k  c #442D15",
"l  c #4A2D13",
"z  c #442C1C",
"x  c #4D2B1D",
"c  c #482417",
"v  c #552C18",
"b  c #4D341A",
"n  c #483419",
"m  c #543718",
"M  c #51350E",
"N  c #693C19",
"B  c #472D22",
"V  c #43322A",
"C  c #4C3B2A",
"Z  c #483724",
"A  c #563B27",
"S  c #463C38",
"D  c #523E34",
"F  c #5A3831",
"G  c #643C26",
"H  c #703E27",
"J  c #65461B",
"K  c #75541B",
"L  c #584428",
"P  c #4B4539",
"I  c #534233",
"U  c #5C4A35",
"Y  c #5A4A3A",
"T  c #564737",
"R  c #644526",
"E  c #6D5326",
"W  c #78572B",
"Q  c #65493A",
"!  c #6B563B",
"~  c #735B3C",
"^  c #7C5D3E",
"/  c #775538",
"(  c #754A2F",
")  c #79623B",
"_  c #7F6529",
"`  c #7F631F",
"'  c #3D3E43",
"]  c #443F40",
"[  c #4B4746",
"{  c #524D4C",
"}  c #574A46",
"|  c #585349",
" . c #534A52",
".. c #5C555B",
"X. c #585557",
"o. c #4D4951",
"O. c #654F45",
"+. c #665345",
"@. c #6C5444",
"#. c #64544B",
"$. c #6B5A4B",
"%. c #6C5748",
"&. c #735B44",
"*. c #725C4C",
"=. c #775647",
"-. c #675C55",
";. c #755E55",
":. c #6C604A",
">. c #7C6544",
",. c #7A6748",
"<. c #6B6355",
"1. c #736254",
"2. c #786859",
"3. c #7E725C",
"4. c #5C5761",
"5. c #655C62",
"6. c #676567",
"7. c #7C6C62",
"8. c #746D6B",
"9. c #7A7367",
"0. c #787578",
"q. c #6F6E72",
"w. c #5F615F",
"e. c #966B19",
"r. c #99701B",
"t. c #A9791B",
"y. c #B27D1E",
"u. c #85572A",
"i. c #875A35",
"p. c #965D31",
"a. c #896828",
"s. c #8B712A",
"d. c #9C7629",
"f. c #846B3B",
"g. c #896738",
"h. c #986939",
"j. c #8B723C",
"k. c #98763A",
"l. c #9B652C",
"z. c #A67826",
"x. c #A57D35",
"c. c #B07C23",
"v. c #825A17",
"b. c #845C44",
"n. c #8C654D",
"m. c #856848",
"M. c #926A47",
"N. c #88734A",
"B. c #96794B",
"V. c #866A57",
"C. c #956C51",
"Z. c #8A7559",
"A. c #947B53",
"S. c #957958",
"D. c #A47E4A",
"F. c #A57B40",
"G. c #A37F52",
"H. c #826C62",
"J. c #857767",
"K. c #927B66",
"L. c #857C72",
"P. c #8A7A71",
"I. c #927E76",
"U. c #AD822A",
"Y. c #AE8227",
"T. c #B1842B",
"R. c #BA8A2B",
"E. c #BA912D",
"W. c #A88638",
"Q. c #B88B34",
"!. c #BD9C3C",
"~. c #B99339",
"^. c #AF8D2D",
"/. c #C39C3A",
"(. c #C7973A",
"). c #C38E33",
"_. c #CCA53C",
"`. c #CEAA3D",
"'. c #C6A43B",
"]. c #D1A83D",
"[. c #9E8347",
"{. c #9B8355",
"}. c #9B845C",
"|. c #96855C",
" X c #A78649",
".X c #B68A4C",
"XX c #B99649",
"oX c #A88A57",
"OX c #AC9258",
"+X c #B29353",
"@X c #BA9857",
"#X c #B58F53",
"$X c #BDA35B",
"%X c #BEA958",
"&X c #988567",
"*X c #8A8279",
"=X c #968878",
"-X c #8A806A",
";X c #A38C66",
":X c #AD996A",
">X c #A99469",
",X c #B3996A",
"<X c #B59667",
"1X c #A99678",
"2X c #B29C75",
"3X c #BB9D72",
"4X c #AB8D6D",
"5X c #BBA569",
"6X c #BAA573",
"7X c #C28E49",
"8X c #C59C43",
"9X c #C89C47",
"0X c #D19E47",
"qX c #C39A55",
"wX c #C4A542",
"eX c #CDA444",
"rX c #C4AC45",
"tX c #CCAA43",
"yX c #CDA54B",
"uX c #C6AC4B",
"iX c #CBA94B",
"pX c #C5A34C",
"aX c #D3A544",
"sX c #D2A943",
"dX c #D3A44A",
"fX c #D4A74C",
"gX c #C4A454",
"hX c #CCA653",
"jX c #CAAA54",
"kX c #C4A35B",
"lX c #C3AA5C",
"zX c #C8A956",
"xX c #D5A252",
"cX c #C2A565",
"vX c #827C81",
"bX c #898787",
"nX c #9B9488",
"mX c #978F8B",
"MX c #A79884",
"NX c #A18F82",
"BX c #B7A486",
"VX c #A9A18C",
"CX c #BFAFA1",
"ZX c #C4AA87",
"AX c #C8B08E",
"SX c #D9CDBF",
"DX c None",
/* pixels */
"DXDXDXDXDXDXDXDXDXDXDXDXDXDXDXDXDXDXDXDXDXDXDXDXDXDXDXDXDXDXDXDXDXDXDXDXDXDXDXDXDXDXDXDXDXDXDXDXDXDXDXDXDXDXDXDXDXDXDXDXDXDXDXDX",
"DXDXDXDXDXDXDXDXDXDXDXDXDXDXDXDXDXDXDXDXDXDX6.0.DXDXDXDXDXDXDXDXDXDXDXDXDXDXDXDXDXDXDXDXDXDXDXDXDXDXDXDXX.0.DXDXDXDXDXDXDXDXDXDX",
"DXDXDXDXDXDXDXDXDXDXDXDXDXDXDXDXDXDXDXDXDXDX[ { DXDXDXDXDXDXDXDXDXDXDXDXDXDXDXDXDXDXDXDXDXDXDXDXDXDXDXDXp w.DXDXDXDXDXDXDXDXDXDX",
"DXDXDXDXDXDXDXDXDXDXDXDXDXDXDXDXDXDXDXDX@.R / ! P 6.DXDXDXDXDXDXY C C <.DXDXDXDXDXDXDXDXDXDXY C C C C +.=X3.P 9.DXDXDXDXDXDXDXDX",
"DXDXDXDXDXDXDXDXDXDXDXDXDXDXDXDXDXDXDXDXA v / ! S 6.DXDXDXDXDXDX4 O 8 | DXDXDXDXDXDXDXDXDXVXZ 4 3 3 4 U =X3.L 2.DXDXDXDXDXDXDXDX",
"DXDXDXDXDXDXDXDXDXDXDXDXDXDXDXDXDXDX4.[ m.^ x Q DXDXDXDXDXDXDXDX6 n -X-X[ 6.DXDXDXDXDXDXY Y J.&X;X;X>X,.7 <.DXDXDXDXDXDXDXDXDXDX",
"DXDXDXDXDXDXDXDXDXDXDXDXDXDXDXDXDXDX[ y ,.m.L ;.DXDXDXDXDXDXDXDXI Y =XJ.y { DXDXDXDXDXDXZ C -X&X1X>X1X3.L 2.DXDXDXDXDXDXDXDXDXDX",
"DXDXDXDXDXDXDXDXDXDXDXDXDXDXDXDX@.F m.&.y } DXDXDXDXDXDXDXDXDXDXDXDX' P &XZ.U J.DXDXX.} B.m.x 5 t t e <.DXDXDXDXDXDXDXDXDXDXDXDX",
"DXDXDXDXDXDXDXDXDXDXDXDXDXDXDXDXx d C.C.- } DXDXDXDXDXDXDXDXDXDXDXDXu y :X}.k #.DXDXi V oXC.% & p p p 8.DXDXDXDXDXDXDXDXDXDXDXDX",
"DXDXDXDXDXDXDXDXDXDXDXDXDXDXDXDXx d C.C.1 [ DXDXDXDXDXDXDXDXDXDXDXDXu y &XA.> +.DXDXt r oXB.> F DXDXDXDXDXDXDXDXDXDXDXDXDXDXDXDX",
"DXDXDXDXDXDXDXDXDXDXDXDXDXDXDXDXx d M.n.< [ DXDXDXDXDXDXDXDXDXDXDXDX' S S.Z.C 7.DXDX{ P A.M.x ! DXDXDXDXDXDXDXDXDXDXDXDXDXDXDXDX",
"DXDXDXDXDXDXDXDXDXDXDXDXDXDXDXDXx d b.=.; T DXDXDXDXDXDX..6.DXDX+.Y Z.,.V | DXDXDXDXDXDXA L {.Z.{ q.DXDXDXDXDXDXDXDXDXDXDXDXDXDX",
"DXDXDXDXDXDXDXDXDXDXDXDXDXDXDXDXB d b.b.4 Y DXDXDXDXDXDX[ -.DXDX4 b 4XS.q { DXDXDXDXDXDXz b :X|.w  .DXDXDXDXDXDXDXDXDXDXDXDXDXDX",
"DXDXDXDXDXDXDXDXDXDXDXDXDXDXDXDXB d b.n.$.+.Y 7.DXDX..6.DXDXDXDXj b 4XS.q  .DXDX-.0.DXDX7 b :X|.0  .DXDXDXDXDXDXDXDXDXDXDXDXDXDX",
"DXDXDXDXDXDXDXDXDXDXDXDXDXDXDXDXx f b.Z.Z.&.k U DXDXe P DXDXDXDX3 b <X&Xq  .DXDX{ <.DXDXZ R 5X|.0  .DXDXDXDXDXDXDXDXDXDXDXDXDXDX",
"DXDXDXDXDXDXDXDXDXDXDXDXDXDXDXDX5 3 3.S.h.g.u.W +.P @ < | | #.T % m @XA.q  .DXDXDXmX<.:.B. X5X{.1 [ DXDXDXDXDXDXDXDXDXDXDXDXDXDX",
"DXDXDXDXDXDXDXDXDXDXDXDXDXDXDXDXP C 3.N.k.l.l.K * @ ; 2 ; & O O f J XX{.0 o.DXDXDXVXy L @X$XOX{.p <.DXDXDXDXDXDXDXDXDXDXDXDXDXDX",
"DXDXDXDXDXDXDXDXDXDXDXDXDXDXDXDXDX=XP L k.l.N h O 5 7.J.J.1.& , j. XlX X0 u  .X.| <.3.-X5X+XR ) DXDXDXDXDXDXDXDXDXDXDXDX6...4.vX",
"DXDXDXDXDXDXDXDXDXDXDXDXDXDXDXDXDXDXy : l.p.v d , L 1XBXBX&Xn m XXjXhX Xi q   - 8 U 1XBXcX X4 ! DXDXDXDXDXDXDXDXDXDXDXDXi 0 -  .",
"DXDXDXDXDXDXDXDXDXDXDXDXq.0.DXDXDXDXp & M N g.x.k.[.5X%XW.W.k.x._.`.tX8XA.&.: l s.^.$X%X5X{., Y DXDX6.bXDXDXDXDXDXDX2.#.O.D ; } ",
"DXDXDXDXDXDXDXDXDXDXDXDXX.X.DXDXDXDXV - > J oX$XuXuXuXXXt.y.].aX_.`.`._.lX Xl J rXrX'.%X5X|., T DXDX' 6.DXDXDXDXDXNXc x *.@.z $.",
"DXDXDXDXDXDXDXDXDXDXDXDXDXDX6.0.DXDX' t f. X@XlXjXuXiXtX(.(.aXsX].`.`.'.W.[.B. XrXrX`.rX6X|., 6 X.q.DXDXDXDXDXDX2.@.@.Q Z ! =XDX",
"DXDXDXDXDXDXDXDXDXDXDXDXDXDX] o.DXDXS V OXlXcXlXuXuXiXeX].].aXsX`.].`./.d.W.@XgX'.rXtXuXcX|.: @   [ DXDXDXDXDXDXB x 1.=.z *.DXDX",
"DXDXDXDXDXDXDXDXDXDXDXDXDXDXDXbX2.*.Z.S.gXjXjXjXiXrXtXsX].].].].sXsX]._.XX8XhXwXT.E.sXiXzXB.* # @ ; O.#.%.=.=.-.*.O.B #.DXDXDXDX",
"DXDXDXDXDXDXDXDXDXDXDXDXDXDXDXDXB l ;X5XuXiXeXyXtXtXtXtX_._.`.`.eX0XyX0XyXyXyX(.t.Y.eXdXqXF.h $ o o = s $ s s A V.$.5 <.DXDXDXDX",
"DXDXDXDXDXDXDXDXDXDXDXDXq.-.4.{ & 3 N.[.U.E.wXyXtXtXtX`._.`.`.'.U.c.U.T.yX8XT.U.~./.dX9Xx.x.x.i.= = Q ( ( / i.( C $.=XDXDXDXDXDX",
"DXDXDXDXDXDXDXDXDXDXDXDX] -   - O > f.j.e.d.!.yXtXwX'.rXwX_.'.'.r.e.t.Y.9X8Xz.U.0XdXfX9Xx.x.qX Xc c =.V.n.C.S.=.5 $.DXDXDXDXDXDX",
"DXDXDXDXDXDXDXDXDXDXH.%.! F + O O l [.D.m N M.G.D.D.D. X X XD.M.m J oX@XyX_.!.'.iXtXiXwX!.!.iXXXC.V.B B V V V -.DXDXDXDXDXDXDXDX",
"DXDXDXDXDXDXDXDXDXDXF f ^ / $ o $ m +X Xj j =.n.n.n.M.n.n.n.n./ : m 2XcXeXtXsXeXtXtXtXtXtX`.rXzX3XS.* + w w w 5.DXDXDXDXDXDXDXDX",
"DXDXDXDXDXDX0...$.$.O.Q n.i.$ a g.[.lX Xf # c x v v v v x x x j O Z :XcXyXaXaXaXtXtXtXtXrXrXrXuXBX;X> Y DXDXDXDXDXDXDXDXDXDXDXDX",
"DXDXDXDXDXDXo.- ; 3 @.V.m./ $ v  X$XzX.Xl = # o o o o o s $ o # % m ,XcXyXyXtXeXtXtXtXtX`.`.iXuXcX}.> #.DXDXDXDXDXDXDXDXDXDXDXDX",
"DXDX9.-.%.*.=.&.*.%.Z B V r - ; d.Q.pXqXB.^ > O o X o c Z.V.* f s.W.gXXXQ.c.T.c.T.Q.eXyXiXtXfXzX3XA.* r ..4.4.bXDXDXDXDXDXDXDXDX",
"DXDXS ; * v m.C.K.V.V ; q 0 - 6 e.z.9XhX5X{.k O % * = A BX1X, , !.'.tX/.z.z.d.t.c.c.0XxXdXfXiXpX<XB.* ; u u u 6.DXDXDXDXDXDXDXDX",
"P.-.#.O./ ( N A C Y *XDXDXvXu q W.8XxXxXcX{.l k m.K.S.;XAX:X4 M !.rXtX_.7X).).7X).(.0XxXfX0XU.U.OXA.* T DXDXDXDXDXDXDXDXDXDXDXDX",
"#.V ;.V.C.b.v j ; D DXDXDXDXi t .XyXdXhX5X}.M L 4XZXZXZXAX>X4 M !.`.tXtXqX0XxXxX0XdXfXyXfX(.t.d.oXM.a +.DXDXDXDXDXDXDXDXDXDXDXDX",
"mXL.{ C D } P.I.I.nXDXDXDXDXi r XX9XR.~.gXXX` E ! &.! ! ~ ~ E _ '.rXrX_.R.).0X0XsXaXsX`.tXwX~.W.E A % B 2.mXDXDXDXDXDXDXDXDXDXDX",
"DXDX[ w w o.DXDXDXDXDXDXDXDXV r ).(.c.c.tXwXQ.e.M 8 8 , > M k. XwXtXrX/.y.y.).].`.`.`.`.rXrX%X^.k , % % & $.DXDXDXDXDXDXDXDXDXDX",
"DXDXnXbXbXDXDXDXDXDXDXDXvX5.0 r z.R.).).fXiX/..XN.) ,.) f.j.+XXXtXtXtX_.).).y.).`.`.`.`.rXrXrXXXN.) m.>.:.2.2.NXDXDXDXDXDXDXDXDX",
"DXDXDXDXDXDXDXDXDXDXDXDX .- - d e.y.0X0XsXiXuXuX6X6X6X5XlXlXlXlXtXtXtXsX].).t.Y.`.`.'.rXrXrXrX%X5X5X,X1XMXV.3 -.DXDXDXDXDXDXDXDX",
"DXDX=X=XDXDXDXDXDXDX*X7.Q v = d x.XXqXxXiXsXiXuX%X%X%X%XgXiXiXiXiXiXsX].]._.).).`.'.E.!.%X%X5X5X2X;X) N.3XoXW >.8.mXDXDXDXDXDXDX",
"DXDXI I DXDXDXDXDXDXI 4 u.p.d h  X@X5XlX'._.tXsXuXuXrXrXsX`.sXtXfXjXyXyXtXsXtXtXfX(.t.z.,X2X2X2X1XZ.5 R 7XqX7Xg.6 -.DXDXDXDXDXDX",
"=XH.Q Q 8.q.q.q.9.J.! U h.p.H H W f.$X%XE.E.(.tXrXrXrXrXsXsX].tXiXiXyXiXtXsXtXsXaX_.).x.) ^ &.~ +.<.J.S.p.h.7Xg.; X.DXDXDXDXDXDX",
"O.B %.%.u 9   1 + 4 ,.Z.M.l.h.p.> n OX@Xr.t./.sXtXuXrXrXsXsXsXsXiXyXyXiXtXrXtX_.0XdX0Xx.g % % # @ T DXDXd H .Xg.1 X.DXDXDXDXDXDX",
"=X7.} D I D I T Y Y Y U G H n.b.: z >X>XK v.XXiXzXzXgXhXsXsXsXsXsXtXsXiXjXpX~.~.tXaXdX(.W W E R . [ DXDXd H #XM.1 X.DXDXDXDXDXDX",
"DXDX[ i =.n.n.V.P.H.B ; = z ;.*.8 7 =X=XM N  XkXcXlXkXkX0XaXdXaXtX].`.tXkX+Xk.W.wXwX'.%XXXXX.Xj.e X.DXDX3 R ,XZ.w 4.DXDXDXDXDXDX",
"DXDXbXH.Q G F G Q O.H.7.7.V.Q C . 8 | :.u.k.qX@Xg.g. X.X0X0X).E.`.`.`.!.a.g. XXXwXwXrX'.7X Xu.=.q.bXDXDX* R ,XZ.w ..DXDXDXDXDXDX",
"DXDXDXDXF o s = + C DXDXDXDXB + . . @ n +XcXqX Xm h a.x.0X(.t.t.'._.`.U.g m +XlXuXwX!.XXXXh.h Q DXDXDXDX* R ,XZ.t ..DXDXDXDXDXDX",
"DXDXDXDXvXH.H.H.7.*XDXDXbXL.9.2.< < ! >.<X@Xg.W W l.W.~.aXaXE.Y.` s.%X[.f v oXqXpX8XXXW./ R = Q DXDXDXDX2 L 2X&X~ ,.J.MXDXDXDXDX",
"DXDXDXDXDXDXDXDXDXDXDXDX{ } DXDX7 k ;X5X6X|.n m ^.eXeXeXsXtXtXW.8 L :X|.f b }.<X#XqX.Xk.; + + } DXDXDXDX: T 1X2XOXj.n :.DXDXDXDX",
"DXDXDXDXDXDXDXDXDXDXDXDXbXmXDXDX7 5 >X:X) ~ ! _ XX_./.(.tXtX_.Q.8 n :X>X>.~ / g..XF.i.H = - F O.8.mXDXDX9.-X:.N.%X X_ ,.8.DXDXDX",
"DXDXDXDXDXDXDXDXDXDXDXDXDXDXDXDXn n ;XoXk n {.OX~.~.(./.tXtX_.W., n >X6X6X}.k m .Xh.d = + r ;.-.w { DXDXDXDX7 E +X%XXX_ e w.DXDX",
"DXDXDXDXDXDXDXDXDXDXDXDXDXDXL.3.^ f.<XoX4 < L ! E _ OX@XgXqXqX#X:.! ! m.3X<Xm.m.+XM.a X X c 2.*.- } DXDXDXDX9.3._ ) OX3.w X.DXDX",
"DXDXDXDXDXDXDXDXDXDXDXDXDXDXZ b #XqX<XB.t -   - & Z &X1X>X>X<X4X1XV.3 Z <X3X3X,X<XN., O + c V.*.: U DXDXDXDXDXDXZ L &X3.e 4.DXDX",
"DXDXDXDXDXDXDXDXDXDXDX9.9.-X<.,.qX#Xp.b.8.5.e t 2.J.:.! / / / / ! T O > / &.^ M.:XN., k J.H.F F I ! J.DXDXDXDXDXP.Z.%.1.0.mXDXDX",
"DXDXDXDXDXDXDXDXDXDXo.e < L 1X1X@XD.v Q DXDXP [ DXDXL 8 % * f = & + + % > > 3 R :XA.> U SXAXx n :.$.7 <.DXDXDXDXDXMXZ $.DXDXDXDX",
"DXDXDXDXDXDXDXDXbXJ.<.:.~ ) 1X>X^ &.V.=XDXDX' [ DXDXL.8.H.H.H.2.; t 2.7.7.7.H.3.>.) ~ ,.*XbXJ.7.T | 2.DXDXDXDXDXDXDXL.nXDXDXDXDX",
"DXDXDXDXDXDXDXDXY n &XMX2X<XOXA.y P DXDXDXDX[ { DXDXDXDXDXDXDXDXu [ DXDXDXDXDXDXn L &X|.t X.DXDXp  .DXDXDXDXDXDXDXDXDXDXDXDXDXDX",
"DXDXDXDXDXDXDXDXD & @.,.m.f.) >.9.bXDXDXDXDXbXmXDXDXDXDXDXDXDXDX0.mXDXDXDXDXDXDX7 m :X|.1 { DXDX0.mXDXDXDXDXDXDXDXDXDXDXDXDXDXDX",
"DXDXDXDXDXDXDXDXI @ : 3 > , : T DXDXDXDXDXDXDXDXDXDXDXDXDXDXDXDXDXDXDXDXDXDXDXDXz L :X&X1 o.DXDXDXDXDXDXDXDXDXDXDXDXDXDXDXDXDXDX",
"DXDXDXDXDXDXDXDXL.$.$.1.*.1.1.P.DXDXDXDXDXDXDXDXDXDXDXDXDXDXDXDXDXDXDXDXDXDXDX*X! >.<X}.1 o.DXDXDXDXDXDXDXDXDXDXDXDXDXDXDXDXDXDX",
"DXDXDXDXDXDXDXDXDXDXDXDXDXDXDXDXDXDXDXDXDXDXDXDXDXDXDXDXDXDXDXDXDXDXDXDXDXDX[ P 4X,X4XZ.w X.DXDXDXDXDXDXDXDXDXDXDXDXDXDXDXDXDXDX",
"DXDXDXDXDXDXDXDXDXDXDXDXDXDXDXDXDXDXDXDXDXDXDXDXDXDXDXDXDXDXDXDXDXDXDXDXDXDX0.2.m.b.b.,.6.bXDXDXDXDXDXDXDXDXDXDXDXDXDXDXDXDXDXDX",
"DXDXDXDXDXDXDXDXDXDXDXDXDXDXDXDXDXDXDXDXDXDXDXDXDXDXDXDXDXDXDXDXDXDXDXDXDXDXDXDXZ * * @.DXDXDXDXDXDXDXDXDXDXDXDXDXDXDXDXDXDXDXDX",
"DXDXDXDXDXDXDXDXDXDXDXDXDXDXDXDXDXDXDXDXDXDXDXDXDXDXDXDXDXDXDXDXDXDXDXDXDXDXDXDXDXDXDXDXDXDXDXDXDXDXDXDXDXDXDXDXDXDXDXDXDXDXDXDX"
};
