/* XPM */
static char *f06722e1220443b5a804816368f15f35KS5pRPsVeDgbxr5B[] = {
/* columns rows colors chars-per-pixel */
"65 64 176 2 ",
"   c None",
".  c #000100",
"X  c #000207",
"o  c #2F220F",
"O  c #2D270F",
"+  c #29251A",
"@  c #322419",
"#  c #2F2323",
"$  c #383D37",
"%  c gray22",
"&  c #393E3A",
"*  c #3A3F3B",
"=  c #3F3B3C",
"-  c #383C3D",
";  c #3B3D3C",
":  c #3A3E3D",
">  c #3C3C3C",
",  c gray24",
"<  c #3D3D3F",
"1  c #3F3D3E",
"2  c #3E3E3E",
"3  c #3F3F3F",
"4  c #4D1D00",
"5  c #511800",
"6  c #521900",
"7  c #501A00",
"8  c #541A00",
"9  c #561D00",
"0  c #5E1800",
"q  c #532200",
"w  c #453A36",
"e  c #413D34",
"r  c #423D37",
"t  c #483D37",
"y  c #423F3A",
"u  c #413D3E",
"i  c #3B403A",
"p  c #76450D",
"a  c #774112",
"s  c #40403E",
"d  c #303F44",
"f  c #363F44",
"g  c #3E3E40",
"h  c #3D3C42",
"j  c #3E3D43",
"k  c #3B3944",
"l  c #413B47",
"z  c #344348",
"x  c #757168",
"c  c #79756C",
"v  c #706F75",
"b  c #727071",
"n  c #727675",
"m  c #747379",
"M  c #73717C",
"N  c #79737F",
"B  c #843C01",
"V  c #863E03",
"C  c #833E07",
"Z  c #873F04",
"A  c #833F18",
"S  c #814006",
"D  c #874105",
"F  c #884005",
"G  c #83420A",
"H  c #854009",
"J  c #85440C",
"K  c #864D16",
"L  c #884F1A",
"P  c #894F1F",
"I  c #9E6E3D",
"U  c #AD6C32",
"Y  c #B36D31",
"T  c #AA713A",
"R  c #A27241",
"E  c #A7A7A7",
"W  c #AEABA2",
"Q  c #AEABA6",
"!  c #A5ABA9",
"~  c #A4ACAF",
"^  c #A9A9A9",
"/  c #AAA8A9",
"(  c #AAAAAA",
")  c gray67",
"_  c #AFA9A9",
"`  c #AEAAA9",
"'  c #A8ADA9",
"]  c #ADADAB",
"[  c #ABABAD",
"{  c #A8A9AE",
"}  c #ADABAC",
"|  c #AFAAAE",
" . c #A9ADAC",
".. c #AAAEAD",
"X. c #A8ACAF",
"o. c #ABAFAE",
"O. c #ACACAC",
"+. c gray68",
"@. c #AFAFAD",
"#. c #ACACAE",
"$. c #ADADAF",
"%. c #AFADAE",
"&. c #AEAEAE",
"*. c #AFAFAF",
"=. c #B3A8A2",
"-. c #B3A8A4",
";. c #B4A9A5",
":. c #B5AAA4",
">. c #B5AAA6",
",. c #B1ABAB",
"<. c #B0ACAB",
"1. c #B1ADAE",
"2. c #ABB0AC",
"3. c #A5ADB0",
"4. c #AAA9B1",
"5. c #AAABB0",
"6. c #A9ADB0",
"7. c #AAAEB1",
"8. c #ADACB4",
"9. c #A1B0B5",
"0. c #AFB0B5",
"q. c #EDBD8C",
"w. c #C0C0BE",
"e. c #C3C3C3",
"r. c #C6C5C1",
"t. c #C3C3C5",
"y. c #C5C3C6",
"u. c #C2C6C7",
"i. c gray77",
"p. c #C5C5C5",
"a. c #C4C4C6",
"s. c gray78",
"d. c #C6C8C3",
"f. c #C0C3C8",
"g. c #C1C4CB",
"h. c #C7C5C8",
"j. c #C4C2CD",
"k. c #C3C6CD",
"l. c #C9C7CA",
"z. c #C4CAC8",
"x. c gray79",
"c. c #D6D3CE",
"v. c #CCD4D7",
"b. c #CCD5DA",
"n. c #D7D1D1",
"m. c #D7D3D4",
"M. c #D0D8DB",
"N. c #DADFD9",
"B. c gray87",
"V. c #DFDFDF",
"C. c #DEE0DB",
"Z. c #DFE4DE",
"A. c #FFEDC6",
"S. c #E5E0DA",
"D. c #E1E0DC",
"F. c #DFDDE0",
"G. c #DDE3E3",
"H. c gray88",
"J. c #E1E1E1",
"K. c #E2E2E2",
"L. c #FFFFE8",
"P. c #FBFAF6",
"I. c #FFFDF4",
"U. c #FFFFF6",
"Y. c #F2FFFF",
"T. c #FFFEFA",
"R. c #FFFEFB",
"E. c #FFFFFB",
"W. c #FDFBFC",
"Q. c #FAFFFF",
"!. c #FBFFFF",
"~. c #FFFDFD",
"^. c #FCFFFF",
"/. c #FFFEFF",
"(. c #FEFFFF",
"). c white",
/* pixels */
"                                                                                                                                  ",
"                                                                                                                                  ",
"                                                    2 = > > > > 2 > 2 > 2 2 2 2                                                   ",
"                                                    > : > > > > > 2 > 2 2 2 2 2                                                   ",
"                                                    > > > > > > > > 2 > 2 2 2 2                                                   ",
"                                                    > > > > > > > 2 > 2 > 2 2 2                                                   ",
"                                            g 2 2 3 K.V.V.V.K.K.K.K.K.K.K.V.V.V.2 > 2 2                                           ",
"                                            u g 3 3 V.K.K.K.K.V.V.K.K.K.K.V.V.V.> 2 > 2                                           ",
"                                            2 2 2 u K.D.Z.V.K.K.K.K.K.K.K.D.K.V.2 2 2 >                                           ",
"                                      2 2 2 B.B.V.V.t.i.t.e.e.e.e.p.x.p.s.p.p.p.e.e.i.e.2 2 2                                     ",
"                                      2 2 > V.N.V.V.i.i.t.e.e.e.e.x.p.x.s.p.p.p.i.i.i.i.2 2 2                                     ",
"                                      2 > 2 V.V.V.V.i.t.e.e.e.e.e.p.x.p.s.p.p.p.i.i.i.i.2 2 2                                     ",
"                                      2 2 2 V.V.B.V.e.i.p.e.e.p.e.p.s.s.s.p.i.p.i.i.i.i.2 2 u                                     ",
"                              2 2 2 2 V.V.V.s.x.p.x.[ ( ( ] ( ( ] #.#.( ] #.@.#.[ ] [ ] [ ] ' > 2 2 2                             ",
"                              2 2 2 2 V.V.V.x.x.x.x.( ] #.( ( ] ( ( #.] ] ] #.#.] [ ] [ ] [ ] 2 > 2 2                             ",
"                              2 2 2 2 V.V.V.x.x.x.x.[ ( ( ( ] #.#.] ] #.#.#.#.] [ ] [ ] [ ] [ 2 2 2 2                             ",
"                        2 2 2 V.V.V.V.p.p.p.( ( ( ( #.#.] #.#.*.#.( ( ( ) *.*.*.( ( ( ( 1.2.#.( E E ( 2 2 2                       ",
"                        2 2 2 V.V.V.V.p.p.p.( ( ( ( ] ) ] #.1.2.#.( ( ( ( *.*.*.( ( ( ( #.1.2.E ( ( ( 2 2 2                       ",
"                        2 2 2 V.V.V.V.p.p.p.( ( ( ( ] #.#.1.2.*.*.] ( ( ( 1.*.*.( ( ( ( *.*.1.( ( E E 2 2 2                       ",
"                        2 2 2 V.V.V.V.p.p.p.( ( ( ( ] <.] #.1.#.*.E ( ] E 0.*.1.( ( ( ] *.#.#.( ( ( ( 2 2 2                       ",
"                > > > > V.V.V.u u u u = = = [ [ [ [ 7.7.#.#.#.#.#.#.,.4.4.=.=.=.:.:.:.:.d d d z z z z >.>.>.w w w w               ",
"                > > > > V.V.V.u u u u = = = [ [ [ [ #.#.7.#.#.#.#.,.| ,.,.=.=.=.:.:.:.:.d d d z z z z >.>.>.w w w w               ",
"                > > > 2 V.V.V.u u u u = = = [ [ [ [ 1.#.#.#.#.#.4.| | | ,.=.-.-.:.:.:.:.d d d z z z z -.>.>.w w w w               ",
"          k k k K.K.K.K.e.e.e.1.1.1.1.m.m.m.g 2 2 g #.#.#.#.[ [ #.| | | ) :.:.:.t t t t Y.Y.Y.9.9.9.9.=.-.-.-.>.-.>.2 u 2         ",
"          k k k K.K.K.K.e.e.e.1.1.1.1.m.m.m.2 = h 2 [ [ #.[ [ [ #.,.| | | >.:.:.t t t t Y.Y.Y.9.9.9.9.-.-.-.;.;.>.-.u 2 2         ",
"          k k k K.K.K.K.e.e.e.1.1.1.1.m.m.m.h 2 : g #.5.[ [ [ [ [ ,.| | | -.:.:.t t t t Y.Y.Y.9.9.9.9.-.-.-.;.;.-.>.s > u         ",
"          k k k K.K.K.K.e.e.e.1.1.1.1.m.m.m.g 2 = 2 #.#.[ [ [ #.[ #.,.#.,.:.:.:.t t t t Y.Y.Y.9.9.9.9.-.-.-.;.;.>.;.i l 2         ",
"          r r r C.C.C.C.z.z.z.~ ~ ~ 3.b.M.M.. . . . 2 : 2 & : i : & > : & f f f X X X X (.(.(.E E E E 2.0.2.[ 3.[ [ : : :         ",
"          r r r C.C.C.C.z.z.z.~ ~ ~ ~ M.M.M.. . . . > & > & i & i & & & & f f f X X X X (.(.(.E E E E 2.2.[ 2.2.[ [ : : :         ",
"          r r r C.C.C.C.z.z.z.~ ~ ~ ~ M.M.M.. . . . 2 : : & : & : & & & & f f f X X X X (.(.(.E E E E 2.2.2.[ 2.2.[ : & :         ",
"  r r r r S.S.S.d.d.d.d.! ! ! 3.3.3.3.v.v.v.. . . . (.(.(.' ' '  .2.2.2.[ b.b.b.X X X X (.(.(.] 2.[ [ 0.0.~  . .~ ' n n n % > % % ",
"  r r r r S.S.S.d.d.d.d.! ! ! 3.3.3.3.v.v.v.. . . . (.(.(.' ' ' ' 2.2.2.2.b.b.b.X X X X (.(.(.#.#.[ [ 2.2.2. . .2.[ n n n % % % % ",
"  e s s s S.S.N.d.d.d.d.! ! ! 3.3.3.3.v.v.v.. . . . (.(.Q.' '  .' 2.2.2.2.b.b.b.X X X X (.(.(.#.#.1.] 2.2.7.[  . . .n n n > % % % ",
"  e s s s S.S.C.d.d.d.d.! ! ! 3.3.3.3.v.v.b.. . . . (.(.(.' '  .' 2.2.2.2.b.b.b.X X X X (.(.(.#.] #.#.#.2.#.[ 2. . .n n n $ % % % ",
"  s i i i c.N.N.k.k.k.k.8.8.8.<.<.<.<.c.c.c.I.I.I.I.I.I.I.~ [ 2.[ 3.5.5.~ n.m.m.~.~.~.~.(.(.(.{ { { [ #.) ,.#.1.#.#.m m m j h h j ",
"  s i i i N.N.C.k.k.k.k.8.8.8.<.<.<.<.c.c.c.R.I.I.R.R.I.I.5.~ 0.~ [ ~ [ [ n.n.c.~.~.~.~.(.(.(.{ { { [ ] #.) 1.#.#.1.m m m j j g j ",
"  i i i i C.C.C.k.k.k.k.8.8.8.#.<.<.<.c.c.c.I.I.I.I.I.R.I.5.0.5.0.[ [ ~ [ n.n.n.~.~.~.~.(.(.(.{ { { { [ ) #.1.1.1.7.m m m j j j j ",
"  i i i i C.C.M.k.k.k.k.8.8.8.,.<.<.<.c.c.c.R.I.R.I.I.I.I.5.3.3.~ ~ 5.~ 3.n.n.n.~.~.~.~.(.(.(.{ { { [ #.) ) 1.,.1.,.m m m j j j j ",
"  $ $ $ i Z.G.D.g.g.g.g.4.4.4.-.-.) ) ;.W ] W W W W W W W ~ [ 5.~ 0.5.0.5.,.1.,._ _ -.,.4.[ [ 0.8.0.0./ / / v b v b v v v h h h j ",
"  $ $ $ i Z.D.D.g.g.g.g.4.4.4.) ) ) ] W W ] W W W W W W W 5.3.3.~ [ 2.~ 0.,.,.,._ _ ) ) 4.3.4.0.0.0.0.( / / b b b b v v v h h h j ",
"  $ $ $ $ D.D.G.g.g.g.g.4.4.[ ) ) ,.-.W ] W W W -.W W W W [ [ [ [ 2.5.0.2.1.<.<.) ) ,._ [ 4.4.0.0.0.0./ E ( b b b b v v v g h h g ",
"          : - i t.t.t.t.t.t.p.@.1.<.@.] ] ] t.h.y.y.h.h.p.i.r.r.d.i.d.w.d.s.i.g.i.f.f.t.M M M N N N N x x x c c c c y y y         ",
"          - - - t.t.t.t.t.p.g.*.2.@.@.] ] ] y.y.y.y.h.h.l.r.r.r.d.w.i.w.w.s.u.u.f.f.f.f.M M M N N N N x x x c c c c y y y         ",
"          - - - t.t.t.t.h.t.t.1.*.@.@.] ] #.y.y.y.y.h.h.p.i.r.r.d.d.w.d.i.u.u.u.f.f.f.f.M M M N N N N x x x c c c c y y y         ",
"          : - - t.t.t.t.i.p.p.#.@.@.*.#.] ] t.t.t.y.h.h.h.r.r.e.w.d.d.d.w.s.i.g.f.f.f.f.M M M N N N N x x x c c c c y y y         ",
"                g g g g g 2 2 s s s s w.w.w.l.l.l.l.F.F.F.D.D.D.S.S.D.D.D.(.Q.Q.(.Q.(.Q.j.j.j.l l l l e e e e e e r               ",
"                g g g g g h 2 s s s s w.w.w.l.l.l.l.F.F.F.D.D.D.S.K.D.D.D.Q.Q.Q.Q.(.Q.(.j.j.j.l l l l e e e e e e e               ",
"                g g g g g : u s s s s w.w.w.l.l.l.l.F.F.F.D.D.D.S.S.D.D.D.(.Q.(.(.Q.(.Q.j.j.j.l l l l e e e e e e e               ",
"                              4 4 4 4 q.q.q.G.G.G.G.Q.Q.Q.(.~.(.(.R.R.R.R.R.I.R.L.L.L.L.5 5 5 9 9 9 9 8 6 6 8 8 8 8               ",
"                              4 4 4 4 q.q.q.G.G.G.G.Q.Q.Q.~.(.~.(.R.R.R.R.I.I.I.L.L.L.L.5 5 5 9 9 9 9 6 6 6 8 8 8 8               ",
"                              4 4 4 4 q.q.q.G.G.G.G.Q.Q.Q.(.~.(.(.R.R.R.R.I.R.I.L.L.L.L.5 5 5 9 9 9 9 6 6 6 8 8 8 8               ",
"                              4 4 4 4 q.q.q.G.G.G.G.Q.Q.Q.~.(.(.(.R.R.R.(.I.I.I.L.L.L.L.5 5 6 9 9 9 9 6 6 6 8 8 8 8               ",
"                        # # # R R R R I I I G.G.G.G.Q.Q.Q.~.W.W.W.R.R.R.R.I.I.I.O O O O T T T K K K K L L L P P P P @ @ @         ",
"                        # # # R R R R I I R G.G.G.G.(.Q.Q.W.W.W.W.R.R.R.R.I.I.I.O O O O T T T K K K K L L L P P P P @ @ @         ",
"                        # # # R R R R I I I G.G.G.G.Q.Q.Q.W.W.W.W.R.R.R.R.I.I.I.O O O O T T T K K K K L L L P P P P @ @ @         ",
"                        o o o Y Y Y Y Z Z Z J C Z J A.A.A.R.R.R.R.P.P.P.P.q q q U U U U Z Z B Z Z Z Z G G G a a a a + + +         ",
"                        o o o Y Y Y Y D D D J C C J A.A.A.R.R.R.R.P.P.P.P.q q q U U U U B Z Z F Z Z Z G G G a a a a + + +         ",
"                        o o o Y Y Y Y D D D C Z A C A.A.A.R.R.R.R.P.P.P.P.q q q U U U U B Z B F Z Z Z G G G a a a a + + +         ",
"                        o o o Y Y Y Y D D D G G Z G A.A.A.R.R.R.R.P.P.P.P.q q q U U U U Z Z B F Z Z Z G G G a a a a + + +         ",
"                              0 0 0 0 D D D Z C C Z A A J I.R.R.R.R.R.R.R.p p p S S S S F F F B B B B J J J 6 4 6 6               ",
"                              0 0 0 0 D F F C C C C A A A (.(.R.R.R.R.R.R.p p p S S S S F F F B B B B J J J 6 6 6 4               ",
"                              0 0 0 0 F F G C C C C A A J R.W.R.R.R.R.R.R.p p p S S S S F F F B B B B J J J 6 4 4 6               ",
"                                                                                                                                  ",
"                                                                                                                                  "
};
