/* XPM */
static char *_d78d3e6227746a1c57061282de88636xlMngAAqzG2auGIx[] = {
/* columns rows colors chars-per-pixel */
"64 64 17 1 ",
"  c None",
". c black",
"X c #332625",
"o c #651922",
"O c #394270",
"+ c #784040",
"@ c #CC3333",
"# c #844242",
"$ c #F06050",
"% c #DE9473",
"& c #D8A078",
"* c #3A55B2",
"= c #FFC594",
"- c #F8D0B8",
"; c #B5B5D6",
": c #C8C8D8",
"> c #E8E8F8",
/* pixels */
"                     oooooooooooo                               ",
"                     oooooooooooo                               ",
"                     oooooooooooo                               ",
"               oooooo$$$$$$$$$$$$oooooo                         ",
"               oooooo$$$$$$$$$$$$oooooo                         ",
"               oooooo$$$$$$$$$$$$oooooo                         ",
"            ...$$$$$$$$$$$$$$$ooo$$$$$$oooooo                   ",
"            ...$$$$$$$$$$$$$$$ooo$$$$$$oooooo                   ",
"            ...$$$$$$$$$$$$$$$ooo$$$$$$oooooo                   ",
"            ...$$$$$$$$$$$$$$$ooo$$$$$$$$$$$$oooo               ",
"            ...$$$$$$$$$$$$$$$ooo$$$$$$$$$$$$oooo               ",
"            ...$$$$$$$$$$$$$$$ooo$$$$$$$$$$$$oooo               ",
"         ...@@@@@@$$$$$$$$$$$$ooo$$$$$$$$$$$$$$$$ooo            ",
"         ...@@@@@@$$$$$$$$$$$$ooo$$$$$$$$$$$$$$$$ooo            ",
"         ...@@@@@@$$$$$$$$$$$$ooo$$$$$$$$$$$$$$$$ooo            ",
"         ...@@@@@@@@@$$$$$$@@@ooo@@@$$$$$$$$$$$$$$$$ooo         ",
"         ...@@@@@@@@@$$$$$$@@@ooo@@@$$$$$$$$$$$$$$$$ooo         ",
"         ...@@@@@@@@@$$$$$$@@@ooo@@@$$$$$$$$$$$$$$$$ooo         ",
"         ...@@@@@@@@@@@@@@@;;;;;;>>>@@@$$$$$$$$$$$$$OOO         ",
"         ...@@@@@@@@@@@@@@@;;;;;;>>>@@@$$$$$$$$$$$$$OOO         ",
"         ...@@@@@@@@@@@@@@@;;;;;;>>>@@@$$$$$$$$$$$$$OOO         ",
"         oooooo@@@@@@@@@;;;OOOOOOOOO>>>@@@$$$$$$$$$$OOO         ",
"         oooooo@@@@@@@@@;;;OOOOOOOOO>>>@@@$$$$$$$$$$OOO         ",
"         oooooo@@@@@@@@@;;;OOOOOOOOO>>>@@@$$$$$$$$$$OOO         ",
"            ......ooo;;;OOO;;;>>>>>>OOO>>>;;;;;;;OOO            ",
"            ......ooo;;;OOO;;;>>>>>>OOO>>>;;;;;;;OOO            ",
"            ......ooo;;;OOO;;;>>>>>>OOO>>>;;;;;;;OOO            ",
"            ...XXX......XXXXXXXXXXXX;;;OOOOOOOOOO               ",
"            ...XXX......XXXXXXXXXXXX;;;OOOOOOOOOO               ",
"            ...XXX......XXXXXXXXXXXX;;;OOOOOOOOOO               ",
"            ...XXXXXXXXX===%%%XXX%%%===...%%%####               ",
"            ...XXXXXXXXX===%%%XXX%%%===...%%%####               ",
"            ...XXXXXXXXX===%%%XXX%%%===...%%%####               ",
"               ...XXXXXX===%%%=========###===####               ",
"               ...XXXXXX===%%%=========###===####               ",
"               ...XXXXXX===%%%=========###===####               ",
"               ......XXXXXX%%%%%%======%%%###                   ",
"               ......XXXXXX%%%%%%======%%%###                   ",
"               ......XXXXXX%%%%%%======%%%###                   ",
"               ......XXXXXX%%%%%%======%%%###                   ",
"                  OOO............#########:::                   ",
"                  OOO............#########:::                   ",
"                  OOO............#########:::                   ",
"               OOO>>>OOO++++++;;;>>>******:::                   ",
"               OOO>>>OOO++++++;;;>>>******:::                   ",
"               OOO>>>OOO++++++;;;>>>******:::                   ",
"               OOO;;;+++------OOO***OOO>>>XXX                   ",
"               OOO;;;+++------OOO***OOO>>>XXX                   ",
"               OOO;;;+++------OOO***OOO>>>XXX                   ",
"                  OOO+++&&&&&&OOO...***XXX...                   ",
"                  OOO+++&&&&&&OOO...***XXX...                   ",
"                  OOO+++&&&&&&OOO...***XXX...                   ",
"                  ......++++++...XXXXXXXXX$$$....               ",
"                  ......++++++...XXXXXXXXX$$$....               ",
"                  ......++++++...XXXXXXXXX$$$....               ",
"                     ...............@@@@@@###....               ",
"                     ...............@@@@@@###....               ",
"                     ...............@@@@@@###....               ",
"                                    .........                   ",
"                                    .........                   ",
"                                    .........                   ",
"                                                                ",
"                                                                ",
"                                                                "
};
