/* XPM */
static char *result[] = {
/* columns rows colors chars-per-pixel */
"64 64 5 1 ",
"  c #262B44",
". c #3A4466",
"X c #5A6988",
"o c #8B9BB4",
"O c None",
/* pixels */
"OOOOOOOOOOOOOOOOOOOOOOOOOOOOOOOOOOOOOOOOOOOOOOOOOOOOOOOOOOOOOOOO",
"OOOOOOOOOOOOOOOOOOOOOOOOOOOOOOOOOOOOOOOOOOOOOOOOOOOOOOOOOOOOOOOO",
"OOOOOOOOOOOOOOOOOOOOOOOOOOOOOOOOOOOOOOOOOOOOOOOOOOOOOOOOOOOOOOOO",
"OOOOOOOOOOOOOOOOOOOOOOOOOOOOOOOOOOOOOOOOOOOOOOOOOOOOOOOOOOOOOOOO",
"OOOOOOOOOOOOOOOOOOOOOOOOOOOOOOOOOOOOOOOOOOOOOOOOOOOOOOOOOOOOOOOO",
"OOOOOOOOOOOOOOOOOOOOOOOOOOOOOOOOOOOOOOOOOOOOOOOOOOOOOOOOOOOOOOOO",
"OOOOOOOOOOOOOOOOOOOOOOOOOOOOOOOOOOOOOOOOOOOOOOOOOOOOOOOOOOOOOOOO",
"OOOOOOOOOOOOOOOOOOOOOOOOOOOOOOOOOOOOOOOOOOOOOOOOOOOOOOOOOOOOOOOO",
"OOOOOOOOOOOOOOOOOOOOOOOOOOOOOOOOOOOOOOOOOOOOOOOOOOOOOOOOOOOOOOOO",
"OOOOOOOOOOOOOOOOOOOOOOOOOOOOOOOOOOOOOOOOOOOOOOOOOOOOOOOOOOOOOOOO",
"OOOOOOOOOOOOOOOOOOOOOOOOOOOOOOOOOOOOOOOOOOOOOOOOOOOOOOOOOOOOOOOO",
"OOOOOOOOOOOOOOOOOOOOOOOOOOOOOOOOOOOOOOOOOOOOOOOOOOOOOOOOOOOOOOOO",
"OOOOOOOOOOOOOOOOOOOOOOOOOOOOOOOOOOOOOOOOOOOOOOOOOOOOOOOOOOOOOOOO",
"OOOOOOOOOOOOOOOOOOOOOOOOOOOOOOOOOOOOOOOOOOOOOOOOOOOOOOOOOOOOOOOO",
"OOOOOOOOOOOOOOOOOOOOOOOOOOOOOOOOOOOOOOOOOOOOOOOOOOOOOOOOOOOOOOOO",
"OOOOOOOOOOOOOOOOOOOOOOOOOOOOOOOOOOOOOOOOOOOOOOOOOOOOOOOOOOOOOOOO",
"OOOOOOOOOOOOOOOOOOOOOOOOOOOOOOOOOOOOOOOOOOOOOOOOOOOOOOOOOOOOOOOO",
"OOOOOOOOOOOOOOOOOOOOOOOOOOOOOOOOOOOOOOOOOOOOOOOOOOOOOOOOOOOOOOOO",
"OOOOOOOOOOOOOOOOOOOOXXOOOOOXXXOOOOXXXOOOOOXXOOOOOOOOOOOOOOOOOOOO",
"OOOOOOOOOOOOOOOOOOOOXXOOOOOXXXOOOOXXXOOOOOXXOOOOOOOOOOOOOOOOOOOO",
"OOOOOOOOOOOOOXXOOOOO  ...OO   ....   OOXXX  OOOOOXXOOOOOOOOOOOOO",
"OOOOOOOOOOOOOXXOOOOO  ...OO   ....   OOXXX  OOOOOXXOOOOOOOOOOOOO",
"OOOOOOOOOOOOOXXOOOOO  ...OO   ....   OOXXX  OOOOOXXOOOOOOOOOOOOO",
"OOOOOOOOOOOOO  ...OO     ..          ..     OOXXX  OOOOOOOOOOOOO",
"OOOOOOOOOOOOO  ...OO     ..          ..     OOXXX  OOOOOOOOOOOOO",
"OOOOOOOOooOOO     ..          ....          ..     OOOooOOOOOOOO",
"OOOOOOOOooOOO     ..          ....          ..     OOOooOOOOOOOO",
"OOOOOOOOooOOO     ..          ....          ..     OOOooOOOOOOOO",
"OOOOOOOO..XXX         OOOOOOOOXX..OOOOOOOO         ...ooOOOOOOOO",
"OOOOOOOO..XXX         OOOOOOOOXX..OOOOOOOO         ...ooOOOOOOOO",
"OOOOOOOOXX...     OOOOOOOOOOOOXX..OOOOOOOOOOOO     ooo..OOOOOOOO",
"OOOOOOOOXX...     OOOOOOOOOOOOXX..OOOOOOOOOOOO     ooo..OOOOOOOO",
"OOOOOOOOXX...ooOOOOOOOOOOXXXXX.........OOOOOOOOOOoo...  OOOOOOOO",
"OOOOOOOOXX...ooOOOOOOOOOOXXXXX.........OOOOOOOOOOoo...  OOOOOOOO",
"OOOOOOOOXX...ooOOOOOOOOOOXXXXX.........OOOOOOOOOOoo...  OOOOOOOO",
"OOOOOOOOXXXXX..XXXOOooOOO..............OOOooOOooooo...  OOOOOOOO",
"OOOOOOOOXXXXX..XXXOOooOOO..............OOOooOOooooo...  OOOOOOOO",
"OOOOOOOOXXXXX.....XXooXXX     ooXX     ooo..XX.....     OOOOOOOO",
"OOOOOOOOXXXXX.....XXooXXX     ooXX     ooo..XX.....     OOOOOOOO",
"OOOOOOOOXXXXX.....XXooXXX     ooXX     ooo..XX.....     OOOOOOOO",
"OOOOOOOOOOXXXXX..........XXXXX....XXXXX..........     OOOOOOOOOO",
"OOOOOOOOOOXXXXX..........XXXXX....XXXXX..........     OOOOOOOOOO",
"OOOOOOOOOOOOOXX............          .........     OOOOOOOOOOOOO",
"OOOOOOOOOOOOOXX............          .........     OOOOOOOOOOOOO",
"OOOOOOOOOOOOOOOXXX.......  XXXXX..               OOOOOOOOOOOOOOO",
"OOOOOOOOOOOOOOOXXX.......  XXXXX..               OOOOOOOOOOOOOOO",
"OOOOOOOOOOOOOOOXXX.......  XXXXX..               OOOOOOOOOOOOOOO",
"OOOOOOOOOOOOOOOOOOOOOOOOO  ...         OOOOOOOOOOOOOOOOOOOOOOOOO",
"OOOOOOOOOOOOOOOOOOOOOOOOO  ...         OOOOOOOOOOOOOOOOOOOOOOOOO",
"OOOOOOOOOOOOOOOOOOOOOOOOOOO          OOOOOOOOOOOOOOOOOOOOOOOOOOO",
"OOOOOOOOOOOOOOOOOOOOOOOOOOO          OOOOOOOOOOOOOOOOOOOOOOOOOOO",
"OOOOOOOOOOOOOOOOOOOOOOOOOOO          OOOOOOOOOOOOOOOOOOOOOOOOOOO",
"OOOOOOOOOOOOOOOOOOOOOOOOOOOOOOOOOOOOOOOOOOOOOOOOOOOOOOOOOOOOOOOO",
"OOOOOOOOOOOOOOOOOOOOOOOOOOOOOOOOOOOOOOOOOOOOOOOOOOOOOOOOOOOOOOOO",
"OOOOOOOOOOOOOOOOOOOOOOOOOOOOOOOOOOOOOOOOOOOOOOOOOOOOOOOOOOOOOOOO",
"OOOOOOOOOOOOOOOOOOOOOOOOOOOOOOOOOOOOOOOOOOOOOOOOOOOOOOOOOOOOOOOO",
"OOOOOOOOOOOOOOOOOOOOOOOOOOOOOOOOOOOOOOOOOOOOOOOOOOOOOOOOOOOOOOOO",
"OOOOOOOOOOOOOOOOOOOOOOOOOOOOOOOOOOOOOOOOOOOOOOOOOOOOOOOOOOOOOOOO",
"OOOOOOOOOOOOOOOOOOOOOOOOOOOOOOOOOOOOOOOOOOOOOOOOOOOOOOOOOOOOOOOO",
"OOOOOOOOOOOOOOOOOOOOOOOOOOOOOOOOOOOOOOOOOOOOOOOOOOOOOOOOOOOOOOOO",
"OOOOOOOOOOOOOOOOOOOOOOOOOOOOOOOOOOOOOOOOOOOOOOOOOOOOOOOOOOOOOOOO",
"OOOOOOOOOOOOOOOOOOOOOOOOOOOOOOOOOOOOOOOOOOOOOOOOOOOOOOOOOOOOOOOO",
"OOOOOOOOOOOOOOOOOOOOOOOOOOOOOOOOOOOOOOOOOOOOOOOOOOOOOOOOOOOOOOOO",
"OOOOOOOOOOOOOOOOOOOOOOOOOOOOOOOOOOOOOOOOOOOOOOOOOOOOOOOOOOOOOOOO"
};
