/* XPM */
static char *_e4844467c694ed0a0c26bc7e3cea48deUH1VlX42DpKx1EB[] = {
/* columns rows colors chars-per-pixel */
"64 64 233 2 ",
"   c None",
".  c #373C34",
"X  c #3F2B36",
"o  c #5A2B2E",
"O  c #442A35",
"+  c #4D2B34",
"@  c #4C2D3A",
"#  c #472837",
"$  c #512B32",
"%  c #512933",
"&  c #45323B",
"*  c #4B333E",
"=  c #5B353D",
"-  c #5A3836",
";  c #4B302E",
":  c #653935",
">  c #65363A",
",  c #633838",
"<  c #59413C",
"1  c #593843",
"2  c #385E42",
"3  c #3C6E4B",
"4  c #3C744C",
"5  c #39784B",
"6  c #3A6F57",
"7  c #3D7452",
"8  c #3C7854",
"9  c #485A4B",
"0  c #594A4C",
"q  c #6B5454",
"w  c #436F4C",
"e  c #42724C",
"r  c #457648",
"t  c #446F53",
"y  c #486C59",
"u  c #516A55",
"i  c #427353",
"p  c #4B7455",
"a  c #447B54",
"s  c #4B7B55",
"d  c #4B735B",
"f  c #447D5A",
"g  c #4B7C5C",
"h  c #437359",
"j  c #517C56",
"k  c #587559",
"l  c #7E625E",
"z  c #785863",
"x  c #4A7863",
"c  c #5A7564",
"v  c #597D66",
"b  c #547762",
"n  c #597D78",
"m  c #466B61",
"M  c #667E6C",
"N  c #657B76",
"B  c #767577",
"V  c #796872",
"C  c #82707A",
"Z  c #867474",
"A  c #86666F",
"S  c #3F8258",
"D  c #438355",
"F  c #498255",
"G  c #44845B",
"H  c #4A825A",
"J  c #4C8C5D",
"K  c #478B59",
"L  c #51885E",
"P  c #4D935D",
"I  c #51935B",
"U  c #58945A",
"Y  c #629E59",
"T  c #678E5C",
"R  c #5EA057",
"E  c #66A45A",
"W  c #72A95C",
"Q  c #4A8462",
"!  c #4C8D63",
"~  c #4F8D69",
"^  c #468C60",
"/  c #548D64",
"(  c #5C856C",
")  c #538C6C",
"_  c #598C6D",
"`  c #568666",
"'  c #4C9263",
"]  c #4F916A",
"[  c #529265",
"{  c #52926B",
"}  c #5C9667",
"|  c #558A73",
" . c #5B8B75",
".. c #5C8774",
"X. c #5A9476",
"o. c #4C8671",
"O. c #62876D",
"+. c #669A68",
"@. c #648A73",
"#. c #6B8C76",
"$. c #688876",
"%. c #748478",
"&. c #679577",
"*. c #77957D",
"=. c #5EA366",
"-. c #6DA263",
";. c #68A37B",
":. c #76A279",
">. c #7EB374",
",. c #76A86A",
"<. c #94847F",
"1. c #82817F",
"2. c #89BE7E",
"3. c #867C82",
"4. c #698985",
"5. c #768A82",
"6. c #6C9C81",
"7. c #6C9786",
"8. c #7B9483",
"9. c #769987",
"0. c #759D94",
"q. c #7B9A97",
"w. c #78A788",
"e. c #7CA392",
"r. c #7BA998",
"t. c #73AA90",
"y. c #7FA3A1",
"u. c #818283",
"i. c #8D8D8C",
"p. c #8A8585",
"a. c #83948A",
"s. c #859B8B",
"d. c #9B9B9B",
"f. c #969996",
"g. c #929290",
"h. c #A5999B",
"j. c #A58E8E",
"k. c #86AA8B",
"l. c #8BB588",
"z. c #84AB95",
"x. c #8BAC95",
"c. c #89A99B",
"v. c #94AA9B",
"b. c #88B49A",
"n. c #97B799",
"m. c #96B68A",
"M. c #A3A19F",
"N. c #9E9CA1",
"B. c #88A9A4",
"V. c #97AAA6",
"C. c #8ABBA4",
"Z. c #8EB8AA",
"A. c #8CB7A7",
"S. c #94BDA4",
"D. c #94B4AC",
"F. c #9BBCAA",
"G. c #9AB7A7",
"H. c #99B9B5",
"J. c #98AFBA",
"K. c #A7A7A7",
"L. c #BAAEAC",
"P. c #A5B6AB",
"I. c #B2B2AE",
"U. c #B4AFB4",
"Y. c #B9AEB3",
"T. c #A5BBB1",
"R. c #AAB6B8",
"E. c #B3B1B3",
"W. c #BABABB",
"Q. c #B4B7B9",
"!. c #C6BCBF",
"~. c #88C29F",
"^. c #99C393",
"/. c #9CC7AA",
"(. c #9BC4B1",
"). c #8CCAB2",
"_. c #A6C2AB",
"`. c #ABC4B3",
"'. c #A4C8B8",
"]. c #B5C7BE",
"[. c #AAD4B3",
"{. c #B4D5B6",
"}. c #B8D2AF",
"|. c #B2BCC0",
" X c #AACAC4",
".X c #BBCBC4",
"XX c #B7C8C8",
"oX c #A8D6C6",
"OX c #BBD3C4",
"+X c #B8D7C7",
"@X c #BFDDDB",
"#X c #BED7D4",
"$X c #B2CBD2",
"%X c #BCE3D6",
"&X c #C5C4C5",
"*X c #C9C7C8",
"=X c #C1DCCC",
"-X c #C8D4CD",
";X c #C6D9D8",
":X c #D3DCDC",
">X c #C3E1CE",
",X c #CBE4D4",
"<X c #C8E6D9",
"1X c #D5E5DD",
"2X c #D8EADA",
"3X c #DCEFCF",
"4X c #CCDEE6",
"5X c #D4DCE7",
"6X c #D1DCFB",
"7X c #CDE5E4",
"8X c #CDEBE6",
"9X c #CDEBE9",
"0X c #D9ECE4",
"qX c #DCEAEC",
"wX c #D8E6E6",
"eX c #DCF2EC",
"rX c #D7F3E8",
"tX c #DAE6F8",
"yX c #DFF2F2",
"uX c #EDEDEE",
"iX c #E2EAE8",
"pX c #E2F4EC",
"aX c #E7F7EC",
"sX c #E6EAF3",
"dX c #E2F3F3",
"fX c #ECF5F4",
"gX c #EAFAF3",
"hX c #ECF5FA",
"jX c #E7F9F6",
"kX c #F4FCFC",
"lX c #FCFDFD",
"zX c #F6F6F7",
"xX c #F0EDF0",
/* pixels */
"                                                                                                                                ",
"                                                              xXlXlXlXp.                                                        ",
"                                                            lXlXlXlXlXlXd.                                                      ",
"                                                          uXlXlXlXlXiXzXxX                                                      ",
"                                                        -XlXlXlXzXtX5XkXlX                                                      ",
"                                                      Q.lXlXzXiX6X6XhXkXlXK.                                                    ",
"                                                  _.U n.sXlXlXzXlXzXlXlXlXlX*X                                                  ",
"                                                P.` U ~.tXlXlXlXlXlXlXlXlXlXlXW.                                                ",
"                                                v.k.,X0XdX>X^.n.zXkXlXlXlXlXlXlX                                                ",
"                                              v.G.1XhXqX-Xk.E >.fXqXkXlXlXlXlXxXuX                                              ",
"                                            v.$.&.[.{.l.l.l.{.[.%Xb.1XkXlXlXkXqXR.V.                                            ",
"                                            p.9.' ;.w.E E >.F.F.r. .V.dXlXsXsX|.N T.                                            ",
"                                              s.z.&.>.{.}.{.T.5.7.`.XXjXeXG.e.v t F.                                            ",
"                                          V.f.v.-Xx.:.`.sXsXwXXX.XqXqXwXD.b 4 5 i #.v.                                          ",
"                                          V.#X2X}.m.+.+.c.z.z.S.F.z.z.A._ x 8 5 w p s.                                          ",
"                                          V.Z./.2.,.W Y S G D D D f G ! ! ! G 8 #.@.a.                                          ",
"                                        %.5.c._.l.,.-.T } U &.b.G.S./.S.F.S.S.B.+Xx.9.%.                                        ",
"                                      `.( 9.:XkXOXn.k.O.:.k.G.gXlXlXkXlXhX;XiXhX#X&.t #.T.                                      ",
"                                      @.` +XyXjXfXgX{.w.n.>X>X<XzXzXkXkXOX$.D. Xw.f p c v.                                      ",
"                                      } ^ C.oX X4XjX9X$X_.[ P } $XdXdX$X_ D G G F 4 w s.                                        ",
"                                      w.w.&. ...B.'.B. ._ / ' / 7.'.'...L D K G F a w s.                                        ",
"                                      K.zXz.' S K G ^ ! / ! ' ' K I ' ~ [ [ L J D 8 e 9.T.                                      ",
"                                      xXlXz.[ J D G G 8 G f ' J K P ! ' [ / / F x f g v 8.                                      ",
"                                      kXlX^.E I ' G G G f Q 8 Q f ! ' ' / &.6.X.( M G.-XM s.                                    ",
"                                    W.kXkXl.-.U I [ G 8 4 i 7 8 J 8 ' ' X.>XrX~.OXaXgXjX.Xa.                                    ",
"                                    7XfXkXpXn.:.R I ! H r s k k c $.[ [ =XzXlXzXhXqX<X%X(.9..X                                  ",
"                                    a.XXfXkXfX^.E -.{ } k.2X2X1X0X0X;.{ ,XlXlXlXwXV.4. .x p 8.                                  ",
"                                  7X$.N wXkXlXfXP.*._.0X7X%X@X@X4XjXeXeXkXkX8X%Xt.~ Q 7 i t #.5.                                ",
"                                B #.b R.4X5XfXlXfXiXrX+X9.4.n n 4.4X4X5X5X5Xq.n ` D f Q 7 t p a.                                ",
"                                s.-X:X>X0.$.`.7X7X8X<X(.{ { ^ Q p X. . . .@.s f F F F g g w p %.                                ",
"                                M xXlXdX@.y v 4.4.4.7.7.' ' ' P J G 8 7 e H H F L F k.S.p w i $.aX                              ",
"                                M :XjXkXwXm.T L ^ ^ ^ ! ] ' P ' I P ! ! ! P  .( T.2X0XwXc.5 4 %.                                ",
"                                c 4.#XzXlX3Xm.+.P P ' ' { { I [ P P ' ] ' ] (.<XdXlXdXXXn 5 4 %.                                ",
"                              ].c h 7.%X0XgX3X+Xt._ r.+X+X+X=X+X/.{ ] ! ] ~.%X9X8X9X'.@.d s ( 3.                                ",
"                              eXc 8 f e.r.;XtX Xw.e.;XkXlXlXlX:Xt.) { ' ~ t.r.0.r.0...4 i &.{.f.                                ",
"                              k.p 4 7 h ` e.b.6.{ &.'.8XrXrX<XB.! ! ' ' ~ ^ x 8 h m y p O.XX;XG.                                ",
"                              e w e e 4 f D D D ^ { ;.C.Z.Z.B.| ' ' ' P ' G F H x 9.G.G. X@Xq.v F.                              ",
"                              p x.d g F D H g x r.(.x.( O.( | ) ' ' ' ' P J ` ( x.:X<X_.F.e.h t b                               ",
"                              b 0X'.H.X.D b.H.D.;XkXwXT._._.C.` D F G ~ U E n.`.wXzX_.K D f 7 w g                               ",
"                              c eXkXgX[.) z.b.c.+XeXyXaX<XF.b.h 7 i b A.[.[.7XdX;XP.6.a 5 t 4 5 H                               ",
"                              c 1XlXlXfX8.d e p 9.D.J.H.r.f Q 7.0.q.B.7XdXdXtX6XH. .6 8 f s 4 5 Q                               ",
"                              b =XkXlXpXG...i 7 t y y 6 7 h _ b.Z.A.Z.D.D.D.J.J.Z.7.x v ) ! a 3 j                               ",
"                              d '.yXkXtXqXF.| i 3 i 4 4 7 i t t 3 7 8 f a D #.*.8.k.B.y.t.^ K e H                               ",
"                              d @.].rXjXkXjX_.6.` a a f b &.@.x a f ~ | 6.k.,XgXaXrX8X#X~.' K e j                               ",
"                              9 ( | ).+XyXdX2X>Xr.[ +.w.F.dX5Xc.:._ e.0.;XhXhXhX<XoXb.-.P K G e j                               ",
"                                *.) o.7.(. XV.w.&.{ w.+X X XXX,X[.+.oXoXXX$X$XXXq. ./ K D 8 4 p 9.                              ",
"                                  #.u e ' o.C.oXr.| [ [ ' ' / / ) / [ [ ' ] [ [ ' ^ G 8 8 6 m a.                                ",
"                                  I.*.8 4 8 o.4.| ~ ] [ ' G 5 4 / J / J ' ! J L D 8 4 4 4 x e.                                  ",
"                                      a.N p 5 e g / ! ! J 4 3 4 e 4 8 8 5 5 5 e e w e 4 p f.                                    ",
"                                        N w.D r w e 5 4 i e 3 3 4 3 3 6 4 5 a s s j j a w.                                      ",
"                                              a.y 7 5 7 u 9 & O O * & & u c V.                                                  ",
"                                                x.g i 2 . . # O # # # O i.                                                      ",
"                                                    <.- : - - $ = + = + 3.                                                      ",
"                                                    !.: > > - o = + 1 + d.W.B                                                   ",
"                                            W.&X&X!.j.: : : : - = % = + 0 h.!.*X&X&Xi.                                          ",
"                                        *X&XW.E.E.i.q o : : : < > $ = + O j.Y.Y.E.E.W.&XI.                                      ",
"                                      &XE.E.E.E.i.0 ; ; : : > > 1 % 1 + O q h.L.I.I.I.E.Q.K.                                    ",
"                                    I.Q.E.E.E.U.h.p.Z l : : o > 1 + @ # + + q f.I.I.I.I.E.W.K.                                  ",
"                                    .XE.E.E.U.E.I.L.j.q : - % > @ # O O @ A p.K.I.I.I.I.E.E.&X                                  ",
"                                    B W.E.E.R.U.E.L.<.- o $ % @ # O X X @ z h.I.I.I.I.E.I.Q.                                    ",
"                                      K.Q.E.E.U.I.L.<.q V Z C B C 3.C B 0 @ g.U.E.E.E.U.W.B                                     ",
"                                        u.K.!.Y.E.I.f.a.I.E.Q.U.Y.Y.U.U.3.V N.R.E.U.Q.5.B                                       ",
"                                            g.f.u.1.L.I.E.E.U.U.Y.U.E.E.U.Y.U.3.u.u.                                            ",
"                                                      v.d.f.N.U.d.d.f.d.N.N.                                                    "
};
