/* XPM */
static char *_2aad365e8c74c9bf64dc5906a28d92chQVf0kq4rKvBV20r[] = {
/* columns rows colors chars-per-pixel */
"64 64 15 1 ",
"  c None",
". c black",
"X c #332625",
"o c #651922",
"O c #384050",
"+ c #394270",
"@ c #784040",
"# c #CC3333",
"$ c #F06050",
"% c #DE9473",
"& c #3A55B2",
"* c #6F6F8B",
"= c #FFC594",
"- c #B5B5D6",
"; c #E8E8F8",
/* pixels */
"                                                                ",
"                                                                ",
"                                                                ",
"                     oooooooooooooooo                           ",
"                     oooooooooooooooo                           ",
"                     oooooooooooooooo                           ",
"              ooooooo###$$$$$$$$$$$$$ooooooooo                  ",
"              ooooooo###$$$$$$$$$$$$$ooooooooo                  ",
"              ooooooo###$$$$$$$$$$$$$ooooooooo                  ",
"           ooo####$$$$$$$$$$$$$$$$$$$$$$$$$$$$oooo              ",
"           ooo####$$$$$$$$$$$$$$$$$$$$$$$$$$$$oooo              ",
"           ooo####$$$$$$$$$$$$$$$$$$$$$$$$$$$$oooo              ",
"           ooo####$$$$$$$$$$$$$$$$$$$$$$$$$$$$oooo              ",
"           ...$$$$$$$ooooooooooooooooooo$$$$$$$$$$...           ",
"           ...$$$$$$$ooooooooooooooooooo$$$$$$$$$$...           ",
"           ...$$$$$$$ooooooooooooooooooo$$$$$$$$$$...           ",
"        ...oooooooooo###$$$$$$$$$$$$$$$$ooooooooooooo...        ",
"        ...oooooooooo###$$$$$$$$$$$$$$$$ooooooooooooo...        ",
"        ...oooooooooo###$$$$$$$$$$$$$$$$ooooooooooooo...        ",
"        ...---####$$$$$$$$$$$$$$$$$$$$$$$$$$$$####---...        ",
"        ...---####$$$$$$$$$$$$$$$$$$$$$$$$$$$$####---...        ",
"        ...---####$$$$$$$$$$$$$$$$$$$$$$$$$$$$####---...        ",
"        ...---#######$$$$$$$$$$$$$$$$$$$$$$#######---...        ",
"        ...---#######$$$$$$$$$$$$$$$$$$$$$$#######---...        ",
"        ...---#######$$$$$$$$$$$$$$$$$$$$$$#######---...        ",
"        ...ooo################################oooo...           ",
"        ...ooo################################oooo...           ",
"        ...ooo################################oooo...           ",
"        ...ooo################################oooo...           ",
"        ...ooo################################oooo...           ",
"        ...ooo################################oooo...           ",
"        ...ooo################################oooo...           ",
"           ...ooooooo###################oooooo....              ",
"           ...ooooooo###################oooooo....              ",
"           ...ooooooo###################oooooo....              ",
"              XXXXXXXoooooooooooooooooooXXXXXX                  ",
"              XXXXXXXoooooooooooooooooooXXXXXX                  ",
"              XXXXXXXoooooooooooooooooooXXXXXX                  ",
"           ...++++...XXXXXXXXXXXXXXXXXXX...+++....              ",
"           ...++++...XXXXXXXXXXXXXXXXXXX...+++....              ",
"           ...++++...XXXXXXXXXXXXXXXXXXX...+++....              ",
"        @@@===&&&&---...................---&&&====@@@           ",
"        @@@===&&&&---...................---&&&====@@@           ",
"        @@@===&&&&---...................---&&&====@@@           ",
"        @@@===&&&&---...................---&&&====@@@           ",
"        @@@%%%====...+++OOO;;;;;;;***+++...===%%%%@@@           ",
"        @@@%%%====...+++OOO;;;;;;;***+++...===%%%%@@@           ",
"        @@@%%%====...+++OOO;;;;;;;***+++...===%%%%@@@           ",
"           @@@....+++***;;;+++++++;;;***+++...@@@@              ",
"           @@@....+++***;;;+++++++;;;***+++...@@@@              ",
"           @@@....+++***;;;+++++++;;;***+++...@@@@              ",
"              XXXX&&&***+++-------+++***XXXXXX                  ",
"              XXXX&&&***+++-------+++***XXXXXX                  ",
"              XXXX&&&***+++-------+++***XXXXXX                  ",
"              .......XXX*************XXX......                  ",
"              .......XXX*************XXX......                  ",
"              .......XXX*************XXX......                  ",
"              ....######...       ...######...                  ",
"              ....######...       ...######...                  ",
"              ....######...       ...######...                  ",
"              ....######...       ...######...                  ",
"                  ......             ......                     ",
"                  ......             ......                     ",
"                  ......             ......                     "
};
