/* XPM */
static char *_2b25895a91245d1c5d426a6b1b55ebfCdYBGY9VbkLEv9qS[] = {
/* columns rows colors chars-per-pixel */
"64 64 14 1 ",
"  c None",
". c black",
"X c #332625",
"o c #651922",
"O c #69453A",
"+ c #394270",
"@ c #784040",
"# c #CC3333",
"$ c #F06050",
"% c #D8A078",
"& c #3A55B2",
"* c #6F6F8B",
"= c #B5B5D6",
"- c #E8E8F8",
/* pixels */
"                     oooooooooooooooo                           ",
"                     oooooooooooooooo                           ",
"                     oooooooooooooooo                           ",
"              ooooooo###$$$$$$$$$$$$$ooooooooo                  ",
"              ooooooo###$$$$$$$$$$$$$ooooooooo                  ",
"              ooooooo###$$$$$$$$$$$$$ooooooooo                  ",
"           ooo####$$$$$$$$$$$$$$$$$$$$$$$$$$$$oooo              ",
"           ooo####$$$$$$$$$$$$$$$$$$$$$$$$$$$$oooo              ",
"           ooo####$$$$$$$$$$$$$$$$$$$$$$$$$$$$oooo              ",
"           ooo####$$$$$$$$$$$$$$$$$$$$$$$$$$$$oooo              ",
"           ...$$$$$$$ooooooooooooooooooo$$$$$$$$$$...           ",
"           ...$$$$$$$ooooooooooooooooooo$$$$$$$$$$...           ",
"           ...$$$$$$$ooooooooooooooooooo$$$$$$$$$$...           ",
"        ...oooooooooo###$$$$$$$$$$$$$$$$ooooooooooooo...        ",
"        ...oooooooooo###$$$$$$$$$$$$$$$$ooooooooooooo...        ",
"        ...oooooooooo###$$$$$$$$$$$$$$$$ooooooooooooo...        ",
"        ...===####$$$$$$$$$$$$$$$$$$$$$$$$$$$$####===...        ",
"        ...===####$$$$$$$$$$$$$$$$$$$$$$$$$$$$####===...        ",
"        ...===####$$$$$$$$$$$$$$$$$$$$$$$$$$$$####===...        ",
"        ...===#######$$$$$$$$$$$$$$$$$$$$$$#######===...        ",
"        ...===#######$$$$$$$$$$$$$$$$$$$$$$#######===...        ",
"        ...===#######$$$$$$$$$$$$$$$$$$$$$$#######===...        ",
"        ...ooo################################oooo...           ",
"        ...ooo################################oooo...           ",
"        ...ooo################################oooo...           ",
"        ...ooo################################oooo...           ",
"        ...ooo################################oooo...           ",
"        ...ooo################################oooo...           ",
"        ...ooo################################oooo...           ",
"           ...ooooooo###################oooooo....              ",
"           ...ooooooo###################oooooo....              ",
"           ...ooooooo###################oooooo....              ",
"        @@@%%%XXXXXXXoooooooooooooooooooXXXXXX                  ",
"        @@@%%%XXXXXXXoooooooooooooooooooXXXXXX                  ",
"        @@@%%%XXXXXXXoooooooooooooooooooXXXXXX                  ",
"        @@@%%%++++...XXXXXXXXXXXXXXXXXXX......                  ",
"        @@@%%%++++...XXXXXXXXXXXXXXXXXXX......                  ",
"        @@@%%%++++...XXXXXXXXXXXXXXXXXXX......                  ",
"           ...&&&&===...................===+++....              ",
"           ...&&&&===...................===+++....              ",
"           ...&&&&===...................===+++....              ",
"           ...&&&&===...................===+++....              ",
"           ...++++&&&+++***-------***+++&&&&&&&&&&...           ",
"           ...++++&&&+++***-------***+++&&&&&&&&&&...           ",
"           ...++++&&&+++***-------***+++&&&&&&&&&&...           ",
"              +++++++***---+++++++---***...+++%%%%@@@           ",
"              +++++++***---+++++++---***...+++%%%%@@@           ",
"              +++++++***---+++++++---***...+++%%%%@@@           ",
"              .......***+++===++++***&&&+++...%%%%@@@           ",
"              .......***+++===++++***&&&+++...%%%%@@@           ",
"              .......***+++===++++***&&&+++...%%%%@@@           ",
"              XXXX&&&XXX**********XXX++++++.......              ",
"              XXXX&&&XXX**********XXX++++++.......              ",
"              XXXX&&&XXX**********XXX++++++.......              ",
"              ....OOOXXXXXXXXXXXXXXXX......                     ",
"              ....OOOXXXXXXXXXXXXXXXX......                     ",
"              ....OOOXXXXXXXXXXXXXXXX......                     ",
"              ....OOOXXXXXXXXXXXXXXXX......                     ",
"              ....$$$######..........                           ",
"              ....$$$######..........                           ",
"              ....$$$######..........                           ",
"                  .........                                     ",
"                  .........                                     ",
"                  .........                                     "
};
