/* XPM */
static char *a1a0a6c9b6344b1bfb248005330e4784toOIsksiqIpi2Enn[] = {
/* columns rows colors chars-per-pixel */
"64 64 244 2 ",
"   c #A65E58",
".  c #8C6D5D",
"X  c #9E6455",
"o  c #9C6E5D",
"O  c #9A6C54",
"+  c #8C715D",
"@  c #84745B",
"#  c #92735D",
"$  c #9B745D",
"%  c #9D7A55",
"&  c #A06F4F",
"*  c #A9784F",
"=  c #A06556",
"-  c #AD6756",
";  c #A36C54",
":  c #AD6C55",
">  c #A3665A",
",  c #A46C5B",
"<  c #AC6D5A",
"1  c #B36957",
"2  c #B4665C",
"3  c #B26E5B",
"4  c #BA6C5D",
"5  c #B9695A",
"6  c #A57354",
"7  c #AC7454",
"8  c #A4755C",
"9  c #AC745C",
"0  c #AC795C",
"q  c #A97850",
"w  c #B07157",
"e  c #B4725D",
"r  c #BA725E",
"t  c #B3795D",
"y  c #BA795E",
"u  c #B67457",
"i  c #B46547",
"p  c #9D6F60",
"a  c #936A64",
"s  c #8B7463",
"d  c #8C7965",
"f  c #8B7965",
"g  c #927664",
"h  c #9D7363",
"j  c #957B64",
"k  c #9A7B65",
"l  c #937B6A",
"z  c #9B7D6A",
"x  c #9C7D72",
"c  c #8D6F64",
"v  c #AA6D61",
"b  c #A76F62",
"n  c #B56461",
"m  c #B56D63",
"M  c #BB6D63",
"N  c #B26B6C",
"B  c #BA6E6A",
"V  c #BC6463",
"C  c #A57564",
"Z  c #AB7363",
"A  c #AD7B63",
"S  c #AC746B",
"D  c #A47B6A",
"F  c #AD7C6A",
"G  c #A57C63",
"H  c #B47462",
"J  c #BC7563",
"K  c #B47B64",
"L  c #BD7966",
"P  c #B3756A",
"I  c #BD746A",
"U  c #B37B6C",
"Y  c #BB7868",
"T  c #A47D71",
"R  c #B57B72",
"E  c #B67C76",
"W  c #C16C5B",
"Q  c #C76C5C",
"!  c #C4735C",
"~  c #CB735D",
"^  c #C4785C",
"/  c #C16762",
"(  c #C36C63",
")  c #C26B6A",
"_  c #CB6E69",
"`  c #C96D66",
"'  c #C37464",
"]  c #CB7362",
"[  c #C17966",
"{  c #C2756A",
"}  c #CB746A",
"|  c #C27A6A",
" . c #CD796D",
".. c #CA7B64",
"X. c #D17663",
"o. c #D4776E",
"O. c #D1796E",
"+. c #D26F74",
"@. c #CA7D72",
"#. c #C77B71",
"$. c #D17A70",
"%. c #A8825E",
"&. c #86886A",
"*. c #998166",
"=. c #9B836B",
"-. c #95856A",
";. c #8B8E73",
":. c #9A8674",
">. c #8F9277",
",. c #939574",
"<. c #92947A",
"1. c #97997A",
"2. c #9B9D7B",
"3. c #999376",
"4. c #A88169",
"5. c #B58166",
"6. c #B3826B",
"7. c #BC846B",
"8. c #B88266",
"9. c #A18574",
"0. c #A88A77",
"q. c #B58474",
"w. c #BA8575",
"e. c #BA8379",
"r. c #B68C7B",
"t. c #BC8B7B",
"y. c #B78878",
"u. c #A1957C",
"i. c #AB957B",
"p. c #A4957A",
"a. c #BF917F",
"s. c #B2977F",
"d. c #C3816E",
"f. c #C6887A",
"g. c #D98E7E",
"h. c #CB947D",
"j. c #D3917E",
"k. c #9C9484",
"l. c #9B9489",
"z. c #9C9C92",
"x. c #BC8B82",
"c. c #B88683",
"v. c #AB9583",
"b. c #A39A82",
"n. c #AD9986",
"m. c #A2998B",
"M. c #AE9D89",
"N. c #A29783",
"B. c #B49384",
"V. c #BA9381",
"C. c #B39C8A",
"Z. c #BA9B8D",
"A. c #B8968A",
"S. c #A69C94",
"D. c #BC9C94",
"F. c #AB8F81",
"G. c #ADAE8F",
"H. c #ACA18D",
"J. c #B6A18D",
"K. c #ACAC93",
"L. c #ABA797",
"P. c #BBA490",
"I. c #B3AC95",
"U. c #BEA992",
"Y. c #B6AA97",
"T. c #ACB697",
"R. c #B2B394",
"E. c #B5B39B",
"W. c #BFB29C",
"Q. c #BCBB9D",
"!. c #B2B99A",
"~. c #B9ADA4",
"^. c #A8BBA0",
"/. c #B4B3A2",
"(. c #BBB3A3",
"). c #B3BCA4",
"_. c #BCB9A4",
"`. c #BCB4AB",
"'. c #BABDAB",
"]. c #B7B6AB",
"[. c #BDB8B5",
"{. c #C48C85",
"}. c #C68E88",
"|. c #C18685",
" X c #C29382",
".X c #C4918A",
"XX c #CA938C",
"oX c #CA9686",
"OX c #D49D85",
"+X c #C89892",
"@X c #C2AA94",
"#X c #CBAE9A",
"$X c #C4AA9A",
"%X c #C4B59B",
"&X c #CCB29D",
"*X c #C2BA9E",
"=X c #C9BA9D",
"-X c #CBB294",
";X c #D2B69E",
":X c #CDA6AA",
">X c #CEA8AC",
",X c #C8A7A5",
"<X c #D4A9AC",
"1X c #D9ADAB",
"2X c #D4A7AC",
"3X c #C3B4A3",
"4X c #CEB4A3",
"5X c #C5BCA2",
"6X c #C9BFA6",
"7X c #C4BAAA",
"8X c #CBBCAD",
"9X c #C5B7AC",
"0X c #D3B7A2",
"qX c #D5BBA4",
"wX c #D2B9AA",
"eX c #DAB4A5",
"rX c #D9ACB1",
"tX c #D3ACB1",
"yX c #C6BDB5",
"uX c #DFB2B7",
"iX c #E4B8B5",
"pX c #B7C39F",
"aX c #BCC2AB",
"sX c #B9C4A9",
"dX c #BDC6B2",
"fX c #BAC8B2",
"gX c #C9C5AA",
"hX c #DBC2AC",
"jX c #D2C5AE",
"kX c #C2C4B3",
"lX c #CCC3B5",
"zX c #C3C9B5",
"xX c #C8CABA",
"cX c #D3C3B4",
"vX c #D5C8B4",
"bX c #D9CAB7",
"nX c #D6C8B8",
"mX c #E6C3B3",
"MX c #EBBEC3",
"NX c #C7CBC6",
"BX c #DAC9C3",
"VX c #CFD2C1",
"CX c #EBD3D5",
"ZX c #F2DFE3",
/* pixels */
"< < < - - < Z A 9 Z 9 9 9 0 9 0 Z Z 9 9 b , , < C N N n v S A.3X~.D.E N N m < , 8 9 8 v Z b S v P U P P P P P P 7 7 9 t w H H H ",
"# # g g g s g # j *.*.*.*.*.*.*.*.j z *.*.=.*.*.-.=.9.9.T :.l.L.L.m.x x z z *.*.# j j j l l l l z z z z l k k k k k l c g g c s ",
"K.K.I.E./.E.I.K.K.K.K.K.K.G.G.G.G.G.R.K.R.R.R.R.T.!.W._._._.).).fX).E.Y.R.!.T.T.R.R.R.!.E.E./.).E.W.E.E.E.E.E.E./.~./.].[.[.[.[.",
"lXlXlXcXnXnXcXcX9X7X9X9X6X6X5X5X5X5X5X6X6X6X6X6XaXgXgXjXcXcX8X8XyXyX9XwXjXjXgXsXjXjXvXvXvXvXnXnXbXbXbXbXbXvXvXvXBXBXBXCXCXZXZXZX",
"A.x.c.r.c.c.|.|.c.c.x.x.x.x.x.x.f.V.x.t.t.e.t.t.r.r.r.{.{.}.|.|.}.{.{.{. X XV.V.h.x. X{.}.}..X}.XXXX}.}.}.}.|.}.XXXXXXXX.X+XXX+X",
"B v       n n 2 B B B M M M M J M m J M M m m 5 e e 5 3 M ) ) ) / / ( M M M m P m m M M B B B R B M V B V B M V 1 5 5 4 M M B ) ",
"q.A , : m J 4 4 M H J r r y y y J J H J H J H H r r r r 4 ' ' { ' ' J J J r J J L J J [ I R I I { L L L L L I M 4 4 J J I #.#.@.",
"4.% % & 8 0 7 : 6 6 6 7 q q q q 6 6 8 6 7 8 0 9 q u t 0 8 8 9 t t t t 0 7 8 9 H 7 9 8 8 Z A A Z K K H A A H A A U K P Z S Z Z v ",
"R Z < 3 u 1 < H 3 3 3 3 3 3 3 3 1 < 3 9 3 3 3 3 e 3 e H t J H J u r e J J H Y P L Y Y Y Y Y Y Y Y Y Y Y Y J Y Y H K H < P H P Y ",
"R S < 3 3 3 < v 3 3 3 9 3 < 3 3 < 1 3 3 3 3 3 H 3 e 3 e H H J J e e y H H Y Y J Y Y Y Y Y Y Y Y Y Y Y Y Y Y Y Y H H H Z e H U Y ",
"E Z < w 4 1 < H 3 < 3 3 3 3 < e 3 < 3 3 3 3 3 3 H 3 e H H J K L u r e J J H Y Y J I Y Y Y Y Y Y Y Y Y Y Y Y Y Y P H H H H H J U ",
"q.S m 3 u w < e 3 3 3 3 3 3 < 3 < 3 : 3 3 w e e H 3 e e e J H J e t e H H H J H Y Y Y Y Y Y Y J Y Y Y Y L P Y Y Y K H P H H K Y ",
"E S Z 3 u 1 < Z 3 < < 3 3 3 3 3 3 < 3 < 3 3 3 e 3 e H 3 e J J J r t t J H J Y Y Y Y Y Y Y Y I P Y Y Y Y Y Y Y Y Y P H Z H H H P ",
"e.U e r r 3 < e 3 3 e 3 9 3 < 3 < 3 3 3 3 e 3 3 e 3 e H H H J K y e r H J H H Y Y Y Y Y J Y Y Y J Y Y Y Y Y Y Y Y H H H S H K P ",
"e.U H e r 1 < 9 3 3 3 3 e < 3 3 1 < < 3 3 3 3 H 3 e m e r J H J u r t H K H Y J Y Y Y Y Y Y Y Y Y Y Y Y Y Y Y Y Y K H P Z P H J ",
"e.P H e r 3 < m 9 3 3 < 3 3 3 3 < 3 3 3 < e 3 3 H 3 e e H H J J e e r J J J J P Y Y Y Y Y Y Y Y Y Y Y Y Y Y Y Y Y Y H H H H H K ",
"t.S < 1 u u 9 A u u 5 4 4 4 m M 4 4 4 4 5 4 2 2 3 m M ( J M J M I J m H L Y Y P I I I L P I I B I L L I J L I L P L J J m J 4 ! ",
"E P - 1 4 1 1 3 & & & & ; ; ; , 8 9 8 9 8 8 0 9 0 Z A A K 0 A A J J J J L Y Y J F F F 6.6.6.F 6.A A 5.F 4.5.A A 5.F 4.A 8 A A A ",
"f.R n 4 ' M m M u 7 t w t e H Z : : 6 , 9 9 9 A 9 H H Z K H A H 2 r r r r e r r K t y K H H u t t e t t u e t u 0 t t t H H P H ",
"e.T v Z e 9 b Z W W W W 4 W M W M ( ( ( ( ( ( ( } ` ' ) ' } ` } t L 8.d.L L L L X.X.X.X.X.~ ~ ! ~ ~ ~ ~ X.~ ] X.~ ..~ ] _ +.+.+.",
"x l # g $ # # g & ; ; ; X X = X > > > = = = = = > X X X > > > < $ 8 8 8 C , 9 9 : : 1 7 w w 1 u - - - : : < 7 < q 7 < , N N N N ",
"z.k.u.i.p.p.N.b.2.2.1.1.1.k.<.<.<.<.<.>.;.;.;.;.&.&.&.;.;.;.<.<.:.=.-.4.4.D D D &.&.&.&.,.,.,.,.;.,.,.,.,.,.1.1.,.,.,.<.<.k.k.k.",
"].~.W.%X&X-X3X8X7XaXaXsXsX'.'.'.dXkXkXkXkXkXkXkX'.'.'.dXkXxXVXVXkX_.I.I.W.3X3X$XT.T.!.sX_.sXaXaXaXaXdXdXzXdXzXzXdXdXdXdXkXkXkXxX",
"~.~.,X#X&X#X,XwXeX1X1X1X2X2X2X2X2X2X2XrXrXrXrXrXrXrXrXrXuXuXMXBXdX^.T.L.E.9X(.W.:X:X<X<X:X:X,X,X:X:X>X>X<XtXtXtX>X>X>X:X2X2X2X1X",
"J J r r r r J J 4 J r J J J J J | L [ [ [ [ | | o.o...[ d.K 6.OXW.B.S H H t K J J J J J H J J H L L L L L L L L H K J H J J J e ",
"m r 4 J J r 4 H J e 3 J J J J J J J J J J J L J  .} ( [ | H K OX(.B.P H H K J J J J H H H H H e H J H H H H H J H J e J H H J H ",
"J r J J r J J r J 4 J J J J J [ 4 J H J J J J J { { J r L e J j./.B.P 3 H K H I e H e 3 w 3 3 3 3 3 3 3 3 e 3 3 J H J H e J H e ",
"m J J e m J r J J J J J J J J J J [ J J L L [ L L L e H [ 3 J g./.v.S J J H H ' 3 H 3 3 e 3 < 3 e e e H 3 e H 3 H H e H H H e J ",
"J r J J y J r J J r J J [ J [ J L L [ [ [ | | | L L e J L r J g.).n.P 4 J J H J H 3 e 3 e 3 3 3 H H e H H H e H H J e H e J e H ",
"J J J J J J J J J J J L J J J L J J L J L L { L 7.L J J [ J J g.^.b.P M ' y J J e J H H m e e H 3 3 3 3 3 e 3 3 e 3 H J H e e e ",
"J J J J J J J J J J J J [ J [ L J J J J J J L [ [ [ J J [ H J j.^.N.P 4 ' J J I H e H e e e 3 3 3 3 3 3 3 3 3 3 3 e e 3 3 e e m ",
"J J J J J J J J J J J L L [ L { J J J [ { L [ J [ { 4 J L H J j.T.m.S M ! J M J 3 H 3 e 3 < 3 < e e 3 e 3 e 3 e 3 H H 3 H e e e ",
"r J J J L L L L J L L J J [ J [ L L L L { L J [ J [ ' '  .L L j.).v.m ( ' u m K m r 3 3 4 3 3 3 3 3 3 3 < e 3 3 e 9 e 9 e 9 e 9 ",
"J J J L L [ [ [ [ J [ [ J J [ J { [ [ [ [ [ [ [ J [ ' 4 [ e t f.).F.m ( ' 3 e P e 3 4 e 3 3 3 w 3 3 3 3 3 3 < 3 e 9 < 9 9 3 9 3 ",
"J J [ J L { [ { J J L J J { J J J L J J L J J J L | J M [ J Y h.).F.N ( J e 3 J 5 3 3 3 4 3 2 1 < 3 3 3 3 3 e < 3 e < e < e 3 m ",
"[ J J J J J J J J J J J J J J J J J J J J J J J H | J 4 J J 7.OX_.A.P 4 4 3 H H J e 4 1 3 3 3 4 3 3 3 w 3 < 3 3 < 3 3 3 3 e < 3 ",
"[ L [ L L L [ L J J J J J J J J J J J J J J J J t J 3 1 J H 8.OX7XA.Y 2 3 e m 3 H 4 e J m 3 3 u 3 3 3 3 < 3 3 3 3 3 < 3 3 3 3 3 ",
"| | | [ | | [ | J J J J J J J J J J [ J J [ [ J Y d.J J | H 8.h.7XZ.U 2 1 t m 4 r m 4 e 4 4 3 2 < e 3 3 3 w 3 3 3 3 3 3 3 < 3 3 ",
"L J L { J [ [ [ J J J J J J J J J J J J J J J J L d.Y L | H K h.7X+XU < : 9 m 4 3 1 3 1 3 1 - : 3 < 3 < 3 < 3 < 1 3 3 3 3 1 3 1 ",
"3 4 3 H J J J J J r J J e J J H 3 4 3 3 3 3 3 e ; e < 3 e 9 8 t.6XD.R - - e 4 5 1 1 : 1 - : - - 3 3 3 e 3 3 e 3 3 1 1 3 1 3 1 3 ",
"z C G k @ @ -.a g d g g s s . + . s s g l l z =.0.9.9.9.9.0.0.0./.L.l.:.# @ % # d d d d f f f f -.-.-.d f f f @ + + + + + + # # ",
":.z 6.i.=.p.J.Z.C.C.n.n.v.v.v.v.C.n.n.n.v.v.N.v.A.A.C.C.Z.P.J.P.].~.Y.Y.U.-X-X-XH.H.C.H.M.C.M.M.L.J.H.J.M.M.n.M.P.P.U.U.@X@XU.@X",
"gX%XeXqX-XgXhXiXqXqXqXqX0X0X0X0X@X@X@X@X#X#X#X#X&X#X&X&X&X0X0XeX>X4XwXwXhXqX;XhXhXhXhXhXhXhXhXhX0X0XqX;X&X4X;X0X&X4X4X0X4X0X6X0X",
"H.p.q.6.G G U H F C S G C C C C Z F F R q.q.w.t.w.w.w.w.w.w.w.f.e.f.e.t.r.6.4.4.F F F U 4.R F q.y.t.y.t.y.y.y.y.x.x.r.x.V.x.x.x.",
"Z.q.Y | y J { ` { | { { { { I ' M M m m 5 2 2 2 m 4 2 2 2 4 4 m ( M M M M J J J [ #.| #.#.@.@.@.M M M M J J B ) B B B B B B B B ",
"D.S V Q 4 u ( W M ' ) ( M ( M '  .}  .} { { { } }  .} } }  . . .o.o.o. . . .O.f.( ( ` ' ` ` ` ] O. .$.$.$. .$.$.} } } ] } } ' ) ",
"4Xr.m } ^ t y r u e t e e r y e : : < w t u J K J r r r J r r J J ! r 3 e e e e [ J L J J J J y r J J J r r J r [ ....' ' ^ ' ' ",
"~.T , J t %.5.0 A A K A 0 5.0 4.7.7.5.6.5.5.K K 5.5.A K 0 K K A 9 0 K 8.7.7.w.7.7.8.8.8.8.K 5.K 8.8.8.K K 5.K 5.y y y t y y t u ",
").R _ H 7 ] 5 A J 4 J J J J J J J J 4 J J r e J [ [ [ L [ [ J { [ J J J J J J J J J { J J J r J J J J L J [ [ L L L L [ ' ' M ! ",
").R } K 9 ' W 9 r H r m r J J J J J J J J J J J J m J J J J J J J J J J J J J J J J L L J J J e J J J L L [ L J J L J J J M ' M ",
").R _ H 7 ] 4 A J J J J J J J J J J J J J J J r r m 3 r J 3 3 J J J J J [ J J J L J J [ J J 4 J J J J [ J [ [ J Y J L J J ' J ( ",
").R } H 9 ] W A J r J r J L J J J J J J J J J J J [ J J [ J J J J J J J J J J J J J J [ J J J J J J J J [ L J J J J J J ' r ' ' ",
").R _ K 9 ..W K J J J J J J [ J J J J J J J J J [ [ J [ [ J [ [ J J J J J J J [ J J [ J L J J e r J J J J J J J J J J J J J ' ' ",
"/.R ` K 9 ] W A J J L J [ J L [ J J [ J J J [ J J J J J J J J J J J ' J J J J J [ J J [ J J J r J 3 J J L J J J J J M J ( ' ' ' ",
").P ` H 9 ..W F J J J J L L [ J L L J [ [ L L J J J J J J J J J J J J J J J J [ J J L [ J J r J 4 J J J J J J J e J J J J ' ' ' ",
").S ` H 9 ] Q K J [ J { J L [ [ [ J L J [ J [ [ J J J J J J J J J J J L J J J J J J L J J J J r H r 4 J J J J J J e J J ' ' ' [ ",
"+X0.S [ J ^ L w J K J K L K L K K L K K K y H K J Y { J H H K 6.{ [ [ { [ | } ) J t y r t r r y t r e e t r e r J L [ | | { [ | ",
"1Xy.H ' ! ! ..y ' L y [ [ [ [ [ [ L [ [ J [ J J L { } ] ) M J [ ' ' M m J M J 4 M ' ' J ' J r M ' J ' ' ' J ' J ! ' ^ ~ ' ' ! ' ",
"mX{.H ..] ! { | L [ [ [ [ [ d.d.| #.I | | | I I | I { }  .] ' M | L J J L Y J Y B J { I J { B { [ { { I J { I { ^ y ! r ..^ ^ 4 ",
"9X:.. G Z $ C T h h k 8 h h $ 8 h C k k h h h p h $ o < v v ; O h $ o $ $ $ $ # o o o o o p o p p o p p p p p C 8 O O O 8 G 6 O ",
"NXz.l.S.H.m.S.S.S.S.m.z.m.m.k.l.k.H.2.b.b.b.b.u.2.2.p.i.B.s.i.9.3.3.0.i.s.i.p.9.u.2.u.u.b.p.b.i.N.b.u.b.p.b.b.p.N.N.3.b.H.K.M.b.",
"NX[.].kXyXgXyXyXlXkXyX9X`.`.`.(.5X5X*X*XQ.Q.*XQ.Q.Q.*X=X=X5X*XQ.pXQ.*X0XeX0X=X=X*X%X%X3X=X5X5X5X5X=X5X5X5X5X5X5X7X_.7X7XlXlXlX8X",
" Xa. X Xr.a.+X}. X Xh.a.t.h.t.t.f.V.t.t.a.t.t.t.r.t.t.y.y.r.s.V.R.R.P..X}.XXoX Xt.t.x.f.a. X X X X X X X X X X XV.h. X XV.h. X X",
"^ ~ d.^ i W } Q ~ ! ~ ! ! ! ! ~ ( ( ( / ( 4 V / n V / V V n I [ G.C.q.I ) ` _ ) / ( ( ( ` ` _ _ _ _ _ ` _ _ ` ` Q ' ..~ ^ W W W "
};
